<svg width="640" height="620" fill="none" xmlns="http://www.w3.org/2000/svg">
    <path fill-rule="evenodd" clip-rule="evenodd" d="M336.351 113.59c92.28 7.28 144.933 104.625 227.908 145.354C674.047 312.836 848.362 278 897.826 389.198c48.038 107.993-68.544 220.227-133.745 318.962-49.86 75.502-128.875 117.856-195.385 179.439-79.645 73.745-126.507 191.041-232.345 216.611-113.508 27.42-237.712-12.04-332.2-80.22-94.47-68.164-150.919-176.385-179.268-288.83-26.963-106.949-23.78-222.786 25.356-321.662 45.524-91.607 142.852-138.79 230.263-192.719 80.589-49.72 161.254-114.652 255.849-107.189z" fill="url(#paint0_linear)"/>
    <path fill-rule="evenodd" clip-rule="evenodd" d="M1136.04-390.97c63.4 43.6 60.82 135.611 103.62 199.441 56.62 84.455 196.61 131.813 185.97 232.479-10.34 97.764-140.95 130.16-228.95 174.186-67.3 33.667-141.8 31.335-215.295 48.054-88.009 20.021-170.531 85.039-257.361 59.469-93.122-27.425-166.126-107.478-205.794-195.866-39.66-88.37-35.289-189.794-8.93-282.581 25.07-88.253 75.54-170.377 152.039-221.183 70.874-47.071 160.567-40.607 245.926-43.124 78.697-2.321 163.775-15.57 228.775 29.125z" fill="url(#paint1_linear)"/>
    <defs>
        <linearGradient id="paint0_linear" x1="358.569" y1="113" x2="358.569" y2="613" gradientUnits="userSpaceOnUse">
            <stop stop-color="#324B61"/>
            <stop offset="1" stop-color="#324B61" stop-opacity="0"/>
        </linearGradient>
        <linearGradient id="paint1_linear" x1="900" y1="-98" x2="648" y2="276" gradientUnits="userSpaceOnUse">
            <stop stop-color="#324B61" stop-opacity="0"/>
            <stop offset="1" stop-color="#324B61"/>
        </linearGradient>
    </defs>
</svg>
