<svg width="24" height="28" fill="none" xmlns="http://www.w3.org/2000/svg">
    <path d="M22.737 4.579h-5.851A5.046 5.046 0 0012 .789a5.048 5.048 0 00-4.887 3.79h-5.85C.567 4.579 0 5.147 0 5.842v16.105c0 .695.568 1.264 1.263 1.264h21.474c.695 0 1.263-.569 1.263-1.264V5.842c0-.695-.569-1.263-1.263-1.263zM12 1.737a4.108 4.108 0 013.9 2.842H8.1A4.11 4.11 0 0112 1.737zm11.052 20.21a.32.32 0 01-.316.316H1.263a.32.32 0 01-.316-.316v-6.473h7.895v.79c0 .694.568 1.262 1.263 1.262h3.79c.694 0 1.263-.568 1.263-1.263v-.79h7.895v6.474zM9.789 16.263v-2.526a.32.32 0 01.316-.316h3.79a.32.32 0 01.316.316v2.526a.32.32 0 01-.316.316h-3.79a.32.32 0 01-.316-.316zm13.264-1.737h-7.895v-.79c0-.694-.569-1.262-1.263-1.262h-3.79c-.695 0-1.263.568-1.263 1.263v.79H.947V5.841a.32.32 0 01.316-.316h21.474a.32.32 0 01.316.316v8.684z" fill="#fff"/>
</svg>
