<svg width="16" height="16" fill="none" xmlns="http://www.w3.org/2000/svg">
    <path d="M16 2.5v11c0 1.379-1.121 2.5-2.5 2.5H7.219a2.503 2.503 0 01-2.5-2.5v-1.25a.625.625 0 111.25 0v1.25c0 .69.56 1.25 1.25 1.25H13.5c.69 0 1.25-.56 1.25-1.25v-11c0-.69-.56-1.25-1.25-1.25H7.219c-.69 0-1.25.56-1.25 1.25v1.25a.625.625 0 11-1.25 0V2.5c0-1.379 1.121-2.5 2.5-2.5H13.5C14.879 0 16 1.121 16 2.5zM7.06 9.619a.625.625 0 00.88.887l1.41-1.4c.299-.295.463-.688.463-1.106 0-.418-.164-.811-.462-1.107l-1.41-1.4a.625.625 0 00-.881.888l1.002.994H.625a.625.625 0 100 1.25h7.437l-1.002.994z" fill="#fff"/>
</svg>
