<svg width="16" height="16" fill="none" xmlns="http://www.w3.org/2000/svg">
    <path d="M0 2.5v11C0 14.879 1.121 16 2.5 16h6.281c1.379 0 2.5-1.121 2.5-2.5v-1.25a.625.625 0 10-1.25 0v1.25c0 .69-.56 1.25-1.25 1.25H2.5c-.69 0-1.25-.56-1.25-1.25v-11c0-.69.56-1.25 1.25-1.25h6.281c.69 0 1.25.56 1.25 1.25v1.25a.625.625 0 101.25 0V2.5c0-1.379-1.121-2.5-2.5-2.5H2.5A2.503 2.503 0 000 2.5z" fill="#6E879D"/>
    <path d="M13.244 10.503a.625.625 0 01.003-.884l1.002-.994H6.812a.625.625 0 110-1.25h7.437l-1.002-.994a.625.625 0 11.88-.887l1.412 1.4c.297.295.461.688.461 1.106 0 .418-.164.811-.461 1.107l-1.411 1.4a.623.623 0 01-.884-.004z" fill="#6E879D"/>
</svg>
