<svg width="24" height="24" fill="none" xmlns="http://www.w3.org/2000/svg">
    <path d="M0 12C0 5.373 5.373 0 12 0s12 5.373 12 12-5.373 12-12 12S0 18.627 0 12z" fill="#D7E0E2"/>
    <g clip-path="url(#clip0)" fill-rule="evenodd" clip-rule="evenodd" fill="#808A98">
        <path d="M18.948 11.834c-.11-.16-2.76-3.917-6.948-3.917-3.594 0-6.797 3.735-6.931 3.895a.293.293 0 000 .376c.134.16 3.337 3.895 6.931 3.895s6.797-3.735 6.931-3.895a.292.292 0 00.017-.354zM6.324 12c.35.356.884.86 1.545 1.357 1.203.906 2.676 1.676 4.131 1.676s2.928-.77 4.131-1.676a14.085 14.085 0 001.583-1.396 10.125 10.125 0 00-1.366-1.325c-1.093-.874-2.577-1.67-4.348-1.67-1.455 0-2.928.771-4.131 1.677A14.07 14.07 0 006.324 12z"/>
        <path d="M12 10.717c-.707 0-1.283.576-1.283 1.283s.576 1.283 1.283 1.283 1.283-.576 1.283-1.283-.576-1.283-1.283-1.283zM9.667 12A2.336 2.336 0 0112 9.667 2.336 2.336 0 0114.333 12 2.336 2.336 0 0112 14.333 2.336 2.336 0 019.667 12z"/>
    </g>
    <defs>
        <clipPath id="clip0">
            <path d="M5 5h14v14H5V5z" fill="#fff"/>
        </clipPath>
    </defs>
</svg>
