<svg width="32" height="32" fill="none" xmlns="http://www.w3.org/2000/svg">
    <g clip-path="url(#clip0)">
        <path d="M32 10.898c0-.486-.144-.978-.46-1.385L29.005 6.27a2.18 2.18 0 00-1.717-.815c-.384 0-.775.099-1.121.314l-2.472 1.539c-.26.165-.706.28-1.137.276-.334.002-.657-.065-.87-.17L19.265 6.24a2.916 2.916 0 00-1.263-.266c-.63.003-1.266.157-1.777.512l-.283.198-.962-.479c-.468-.23-1.02-.322-1.576-.324-.503.001-1.006.079-1.448.265l-1.649.704c-.268.116-.695.192-1.119.19-.424.002-.85-.074-1.118-.19l-1.65-.704a2.402 2.402 0 00-.943-.184c-.367 0-.732.073-1.071.21a2.437 2.437 0 00-.904.623L.498 10.16a1.952 1.952 0 00.19 2.79l2.803 2.39-1.33 1.388a1.977 1.977 0 00.069 2.806l.27.256c.254.241.56.394.879.476a1.97 1.97 0 00-.248.942c0 .523.207 1.049.617 1.437l.27.258a2 2 0 002.154.39c.087.354.267.69.55.96l.271.257a1.998 1.998 0 002.482.213c.097.313.264.61.518.852l.27.257c.385.365.884.547 1.376.547.524 0 1.054-.206 1.444-.614l1.176-1.227 1.596 1.478c.382.354.873.53 1.357.53a1.993 1.993 0 001.46-.632l.255-.273c.22-.236.364-.516.447-.808l.619.571c.383.353.873.529 1.356.529a2 2 0 001.463-.633l.253-.273c.293-.312.458-.7.509-1.095.163.042.328.07.495.07.533 0 1.07-.213 1.462-.632l.254-.273c.356-.38.532-.869.532-1.35 0-.15-.022-.298-.055-.445.442-.059.87-.256 1.196-.606l.255-.273c.355-.38.531-.869.531-1.35 0-.53-.213-1.066-.635-1.455l-.477-.44 4.303-4.758c.386-.428.564-.979.565-1.522zM3.876 19.254a.905.905 0 01-.625-.247l-.27-.257a.894.894 0 01-.28-.653c0-.227.081-.448.248-.622l2.724-2.842a.903.903 0 01.657-.278c.227 0 .45.082.625.248l.27.256s.278.412.278.654a.898.898 0 01-.16.51l-2.94 3.063a.917.917 0 01-.527.168zm2.175 2.835a.906.906 0 01-.656.277.905.905 0 01-.625-.247l-.27-.257h-.002a.894.894 0 01-.278-.654c0-.226.082-.447.248-.622 0 0 3.63-3.779 3.66-3.815a.902.902 0 01.629-.254c.228 0 .45.082.625.248l.27.257a.894.894 0 01.28.654.897.897 0 01-.25.622l-3.631 3.79zm2.975 1.607a.902.902 0 01-.655.277.903.903 0 01-.626-.247l-.27-.257a.892.892 0 01-.08-1.215l2.528-2.639a.903.903 0 011.23.012l.273.258a.899.899 0 01.03 1.275l-2.43 2.536zm4.804-.279l-1.534 1.601a.904.904 0 01-.656.278.903.903 0 01-.625-.248l-.27-.257a.897.897 0 01-.28-.653c0-.227.082-.449.249-.622l1.533-1.601a.905.905 0 01.657-.278c.228 0 .45.082.625.248l.272.257a.896.896 0 01.278.653.897.897 0 01-.249.622zm13.328-4.343c0 .222-.08.44-.242.613l-.254.273a.905.905 0 01-.665.286.901.901 0 01-.616-.24l-4.283-3.96-.741.792 4.585 4.248a.901.901 0 01.047 1.275l-.254.273a.907.907 0 01-.664.286.903.903 0 01-.616-.239L19.17 18.72l-.74.793 3.803 3.516c.183.176.277.41.277.65a.89.89 0 01-.24.613l-.254.272a.906.906 0 01-.666.287.905.905 0 01-.616-.24l-3.795-3.503h-.001l-.739.794h.001l.014.014 1.901 1.754a.893.893 0 01.016 1.235l-.254.273a.904.904 0 01-.663.286.902.902 0 01-.616-.24l-1.655-1.532a1.98 1.98 0 00.225-.896c0-.522-.207-1.048-.616-1.437l-.272-.257a1.993 1.993 0 00-1.375-.547c-.038 0-.076.01-.114.011l.002-.027c.001-.522-.616-1.438-.616-1.438l-.27-.256a1.987 1.987 0 00-1.004-.512c.075-.213.118-.434.118-.657 0-.521-.207-1.048-.617-1.436l-.27-.258a1.997 1.997 0 00-1.376-.547c-.057 0-.114.012-.17.017a1.976 1.976 0 00-.611-1.375l-.27-.256a1.996 1.996 0 00-1.375-.548c-.525 0-1.053.206-1.444.614l-.643.67-2.848-2.428a.871.871 0 01-.085-1.248l3.005-3.365c.12-.134.296-.255.502-.34.207-.083.441-.13.66-.13.192 0 .37.035.514.097l1.65.704c.465.196 1.005.276 1.547.278.544-.002 1.083-.082 1.548-.278l1.65-.704c.253-.11.637-.18 1.018-.178.422-.002.845.085 1.09.21l.44.22-1.682 1.182a1.947 1.947 0 00-.443 2.757l.221.298c.422.56 1.08.849 1.737.85.372 0 .75-.093 1.087-.295l1.006-.604c.205-.126.515-.205.835-.204.376-.002.755.11.983.277l2.783 1.995a27.79 27.79 0 012.187 1.784l3.22 2.978c.19.177.287.415.288.66zm3.47-7.377l-4.291 4.744-1.948-1.8a28.672 28.672 0 00-2.291-1.87l-2.782-1.995c-.471-.334-1.049-.479-1.62-.48-.486 0-.975.107-1.397.358l-1.005.604c-.155.093-.336.14-.525.14-.338.002-.675-.156-.864-.412l-.221-.298v-.001a.864.864 0 01.197-1.227l2.973-2.09c.257-.186.715-.316 1.15-.313.301-.001.59.06.787.157l2.42 1.173c.414.198.88.279 1.348.28.602-.003 1.21-.134 1.712-.442l2.473-1.538c.158-.099.348-.15.545-.15.334 0 .668.15.858.398l2.535 3.244c.146.186.231.448.231.72 0 .303-.107.602-.286.798z" fill="#fff"/>
    </g>
    <defs>
        <clipPath id="clip0">
            <path fill="#fff" d="M0 0h32v32H0z"/>
        </clipPath>
    </defs>
</svg>
