<svg width="16" height="16" fill="none" xmlns="http://www.w3.org/2000/svg">
    <path d="M11.91 2.813c0-.346.28-.626.624-.626 1.23 0 2.267.88 2.467 2.093l.164.993a.625.625 0 11-1.233.204l-.164-.993a1.246 1.246 0 00-1.234-1.046.625.625 0 01-.625-.626zM16 10.655V13.5c0 1.379-1.121 2.5-2.5 2.5h-11A2.503 2.503 0 010 13.5v-2.844c0-.032.003-.065.008-.097l.99-6.275L1 4.28a2.491 2.491 0 012.466-2.093.625.625 0 110 1.25c-.613 0-1.131.44-1.232 1.045l-.877 5.55h3.706c.202 0 .392.097.509.261l.75 1.05h3.264l.75-1.05a.625.625 0 01.509-.262h3.808l-.257-1.753a.625.625 0 011.237-.181l.361 2.469c.005.03.007.06.007.09zM14.75 13.5v-2.219h-3.585l-.75 1.051a.625.625 0 01-.509.262H6a.625.625 0 01-.509-.262l-.75-1.05H1.25V13.5c0 .69.56 1.25 1.25 1.25h11c.69 0 1.25-.56 1.25-1.25zM5.781 3.437h1.563V5a.625.625 0 101.25 0V3.437h1.562a.625.625 0 100-1.25H8.594V.625a.625.625 0 10-1.25 0v1.563H5.78a.625.625 0 100 1.25z" fill="#fff"/>
</svg>
