<svg width="24" height="24" fill="none" xmlns="http://www.w3.org/2000/svg">
    <path d="M.938 24a.937.937 0 01-.87-1.289l2.129-5.265C.757 15.573 0 13.378 0 11.061c0-2.97 1.259-5.758 3.545-7.85C5.807 1.14 8.81 0 12 0c3.19 0 6.193 1.14 8.455 3.211C22.741 5.304 24 8.091 24 11.062c0 2.13-.658 4.2-1.903 5.982a.937.937 0 11-1.538-1.073 8.544 8.544 0 001.566-4.909c0-5.066-4.542-9.187-10.125-9.187S1.875 5.996 1.875 11.063c0 2.052.73 3.993 2.112 5.614a.937.937 0 01.155.96l-1.47 3.636 4.282-1.887a.937.937 0 01.746-.005c1.35.577 2.798.869 4.3.869 1.73 0 3.436-.402 4.935-1.164a.938.938 0 01.85 1.672A12.827 12.827 0 0112 22.125c-1.616 0-3.18-.29-4.654-.863l-6.03 2.658a.938.938 0 01-.378.08zm12-8.766v-5.062a.937.937 0 10-1.876 0v5.062a.937.937 0 101.876 0zM12 6a.937.937 0 100 1.875A.937.937 0 0012 6z" fill="#000"/>
</svg>
