<svg width="214" height="286" fill="none" xmlns="http://www.w3.org/2000/svg">
    <g filter="url(#filter0_dd)">
        <path d="M79.578 76.04v62.707c0 5.491 2.903 10.544 7.676 13.329l44.941 26.181 20.959 12.216c2.585 1.511 5.488 1.472 7.875.358a7.97 7.97 0 001.392-.796l.039-.04.04-.08.796-.636.079-.08c1.591-1.512 2.625-3.66 2.625-6.167v-62.668c0-1.074-.119-2.148-.358-3.183a15.355 15.355 0 00-7.318-10.146l-65.9-38.397c-3.102-1.79-6.602-1.392-9.187.358-.239.12-.438.279-.636.478-1.83 1.552-3.023 3.82-3.023 6.565z" fill="#AA851F"/>
        <path d="M52.654 86.82l10.817 6.367 16.108 9.47 36.668 21.566 17.658 10.384 31.738-17.467c-.875-4.257-3.5-7.958-7.318-10.146l-5.011-2.945-7.676-4.456-43.748-25.505-7.676-4.456-1.75-1.035c-3.102-1.83-6.602-1.392-9.187.398l-.318.319-.318.159L52.654 86.82z" fill="#FFE438"/>
        <path d="M134.9 105.803l-7.716 4.456v.159l7.557 4.417.159-.119 18.413-10.624-7.675-4.457-10.738 6.168zM75.561 80.457v.2l7.557 4.336.159-.08 18.613-10.782-7.676-4.457-10.937 6.327-7.716 4.456z" fill="#E0B036"/>
        <path d="M130.962 208.297l30.027-17.467 1.392-.796.04-.04.079-.08.796-.636.079-.08c1.591-1.512 2.625-3.66 2.625-6.167v-62.668c0-1.074-.119-2.148-.358-3.183l-31.737 17.507-1.75 43.569-1.193 30.041z" fill="#EE9B0F"/>
        <path d="M126.786 125.377l7.676 13.33L166 120.364c0-1.074-.119-2.149-.358-3.183a15.355 15.355 0 00-7.318-10.146l-31.538 18.342z" fill="#FAD020"/>
        <path d="M55.676 170.42l65.9 38.397c5.727 3.342 12.886-.796 12.886-7.401v-62.708c0-5.49-2.903-10.583-7.676-13.329l-65.9-38.396C55.159 83.64 48 87.778 48 94.383v62.708c.04 5.491 2.943 10.584 7.676 13.329z" fill="#FFB901"/>
        <path d="M52.733 94.424v62.707c0 3.78 2.028 7.361 5.329 9.271l64.588 37.601 1.312.756a3.811 3.811 0 001.949.557c.716 0 1.432-.199 2.028-.597 1.034-.676 1.83-1.791 1.83-3.303v-62.667a10.71 10.71 0 00-5.33-9.271l-65.86-38.397a3.808 3.808 0 00-1.949-.557c-.477 0-.994.08-1.472.319-1.352.557-2.425 1.83-2.425 3.58z" fill="#FFD008"/>
        <path d="M52.733 94.42v62.708c0 3.78 2.028 7.361 5.33 9.271l64.587 37.6 1.312.756a3.811 3.811 0 001.949.557c.716 0 1.432-.199 2.028-.597L55.159 90.839c-1.352.557-2.426 1.83-2.426 3.581z" fill="#FD0"/>
        <path d="M82.441 27.218v49.498l.597.318 7.119 4.098V33.147c0-.756.278-1.432.755-1.95a2.818 2.818 0 013.54-.557l35.595 20.531a8.044 8.044 0 014.017 6.884v48.423l7.715 4.496V55.23v-.716c-.238-3.542-2.227-6.725-5.329-8.555L93.22 20.971c-2.228-1.273-4.654-1.233-6.682-.238l-1.114.636c-1.472 1.075-2.545 2.666-2.824 4.616a4.2 4.2 0 00-.159 1.233z" fill="#F7B410"/>
        <path d="M134.899 114.913l6.88-3.979v-56.46l-6.88 4.058v56.381zM82.442 36.609v22.68l.557 17.745.278 8.038 6.88-3.94v-45.04l-1.83-3.7-2.903.238-2.147 2.626-.835 1.353z" fill="#EE9B0F"/>
        <path d="M80.096 24.473l2.465 1.512 8.352 5.212 43.151 26.858.796.517 6.88-4.098c-.238-3.541-2.227-6.724-5.329-8.555l-1.034-.597-42.197-24.35c-2.227-1.274-4.653-1.234-6.681-.24l-1.114.637-5.29 3.104z" fill="#FFE438"/>
        <path d="M128.535 49.302l6.364 9.231 6.84-4.059c-.238-3.54-2.227-6.724-5.329-8.554l-1.034-.597-6.841 3.979z" fill="#FAD020"/>
        <path d="M75.56 31.159v49.497l7.557 4.337.16.12V37.087c0-2.228 2.385-3.62 4.294-2.506l35.595 20.53a8.088 8.088 0 014.017 6.964v48.343l7.596 4.377.159.08V59.17c0-3.82-2.028-7.4-5.369-9.27l-43.27-24.988c-4.773-2.746-10.738.756-10.738 6.247z" fill="#FFD000"/>
        <path d="M95.565 166.601l-2.624-23.515.517-.717c.994-1.472 1.59-3.541 1.55-5.968-.04-.278-.079-.557-.158-.835-.04-.04-.04-.08-.04-.08-.478-1.472-1.154-2.825-1.989-3.979 0-.04 0-.04-.04-.04l-.04-.04c-1.431-1.631-3.101-2.665-4.772-2.785-3.38-.199-5.33 3.541-4.414 8.436.278 1.352.715 2.626 1.352 3.819l-4.136 17.269 14.794 8.435z" fill="#7A3F00"/>
        <path d="M80.89 158.124l13.045-6.287 1.63 14.762-14.675-8.475z" fill="#A85700"/>
        <path d="M83.674 136.995c.278 1.353.716 2.626 1.352 3.82l9.983-4.457c-.04-.278-.08-.557-.16-.835-.04-.04-.04-.08-.04-.08-.476-1.472-1.152-2.825-1.988-3.979 0-.04 0-.04-.04-.04l-.04-.039c-1.43-1.632-3.101-2.666-4.772-2.786-3.26-.238-5.25 3.542-4.295 8.396z" fill="#4D2800"/>
    </g>
    <defs>
        <filter id="filter0_dd" x="0" y="0" width="214" height="286" filterUnits="userSpaceOnUse" color-interpolation-filters="sRGB">
            <feFlood flood-opacity="0" result="BackgroundImageFix"/>
            <feColorMatrix in="SourceAlpha" values="0 0 0 0 0 0 0 0 0 0 0 0 0 0 0 0 0 0 127 0"/>
            <feOffset dy="28"/>
            <feGaussianBlur stdDeviation="24"/>
            <feColorMatrix values="0 0 0 0 0.992157 0 0 0 0 0.839216 0 0 0 0 0.356863 0 0 0 0.7 0"/>
            <feBlend in2="BackgroundImageFix" result="effect1_dropShadow"/>
            <feColorMatrix in="SourceAlpha" values="0 0 0 0 0 0 0 0 0 0 0 0 0 0 0 0 0 0 127 0"/>
            <feOffset dy="3"/>
            <feGaussianBlur stdDeviation="2"/>
            <feColorMatrix values="0 0 0 0 0.320833 0 0 0 0 0.183131 0 0 0 0 0.0360937 0 0 0 0.3 0"/>
            <feBlend in2="effect1_dropShadow" result="effect2_dropShadow"/>
            <feBlend in="SourceGraphic" in2="effect2_dropShadow" result="shape"/>
        </filter>
    </defs>
</svg>
