<svg width="41" height="40" fill="none" xmlns="http://www.w3.org/2000/svg">
    <path d="M22.353 6.181s-1.56 3.769-3.286 4.615c-1.268.618-2.806.205-3.942.102a13.557 13.557 0 00-1.862-.13c-2.572 0-4.821.71-6.069 1.773-2.34-.922-3.84-2.354-3.84-3.96 0-1.903 2.104-3.559 5.21-4.417a17.091 17.091 0 012.927-.53 19.373 19.373 0 013.634-.037c1.151.097 1.946.268 2.151.301 2.179.435 3.976 1.249 5.077 2.283z" fill="url(#paint0_linear)"/>
    <path d="M36.374 18.091a3.673 3.673 0 013.666 3.68v2.624c0 2.398-.484 4.51-1.448 6.337-.966 1.828-2.333 3.242-4.102 4.24-1.77 1-3.818 1.498-6.148 1.498-2.344 0-4.412-.47-6.203-1.409-1.792-.94-3.177-2.267-4.158-3.984-.981-1.717-1.47-3.707-1.47-5.97v-9.524c0-2.398.482-4.507 1.448-6.327.966-1.82 2.333-3.23 4.102-4.229 1.77-.998 3.818-1.498 6.148-1.498 1.916 0 3.684.396 5.306 1.187a11.045 11.045 0 014.059 3.363c1.084 1.45 1.817 3.13 2.2 5.038h-4.521c-1.05 0-2.06-.46-2.699-1.294a4.387 4.387 0 00-.419-.472 5.156 5.156 0 00-1.791-1.133 6.007 6.007 0 00-2.134-.388c-1.076 0-2.023.237-2.842.71a4.815 4.815 0 00-1.901 2.02c-.45.873-.675 1.88-.675 3.02v9.523c0 1.007.228 1.895.685 2.664.457.77 1.106 1.362 1.945 1.777.841.414 1.814.621 2.919.621 1.09 0 2.045-.226 2.864-.677a4.585 4.585 0 001.89-1.965c.442-.858.664-3.575.664-3.575h-2.42a2.45 2.45 0 01-2.445-2.454v-3.406h7.48v.003z" fill="url(#paint1_linear)"/>
    <path d="M17.091 33.356c-.408 1.071-1.148 1.947-2.107 2.594-1.556.312-3.146.52-4.756.52-.593 0-1.176-.023-1.751-.067v-.005a24.498 24.498 0 01-2.43-.315c-.053-.01-.103-.018-.155-.029a6.01 6.01 0 00-.165-.033c-.266-.05-.526-.106-.783-.169-1.365-.318-2.63-.744-3.682-1.255l-.001-.001c-.25-.12-.49-.245-.715-.374L0 33.903l.622-2.433.029-.11.01-.046.057-.22c.51-1.815 2.055-2.98 3.941-2.98.587 0 1.35.24 1.48.277 1.597.493 3.543.783 5.642.783 1.796 0 3.478-.21 4.926-.581.783 1.55.97 3.23.384 4.763z" fill="url(#paint2_linear)"/>
    <path d="M23.698 26.165c0 4.817-3.398 8.594-8.716 9.785.96-.647 1.703-1.523 2.111-2.594 1.331-3.496-1.336-7.76-5.957-9.53-.17-.065-.341-.125-.51-.181l-.02-.007c-.241-.09-.5-.182-.774-.274C5.452 21.89.429 19.44.429 13.569c0-4.613 3.145-8.188 8.265-9.44-1.157.925-1.918 2.123-2.115 3.483-.405 2.808 1.718 5.584 5.114 7.181.001.002.006.004.01.007.808.408 1.877.858 3.257 1.378 6.119 2.167 8.738 5.155 8.738 9.987z" fill="url(#paint3_linear)"/>
    <defs>
        <linearGradient id="paint0_linear" x1="21.871" y1="9.577" x2="5.731" y2="7.287" gradientUnits="userSpaceOnUse">
            <stop stop-color="#F0F3F4"/>
            <stop offset="1" stop-color="#D4DCDE"/>
            <stop offset="1" stop-color="#D4DCDE"/>
        </linearGradient>
        <linearGradient id="paint1_linear" x1="28.275" y1="3.529" x2="28.275" y2="36.471" gradientUnits="userSpaceOnUse">
            <stop stop-color="#49A6F5"/>
            <stop offset="1" stop-color="#006ECC"/>
        </linearGradient>
        <linearGradient id="paint2_linear" x1="1.081" y1="29.339" x2="16.53" y2="33.922" gradientUnits="userSpaceOnUse">
            <stop stop-color="#F0F3F4"/>
            <stop offset="1" stop-color="#D4DCDE"/>
        </linearGradient>
        <linearGradient id="paint3_linear" x1=".425" y1="20.047" x2="23.697" y2="20.047" gradientUnits="userSpaceOnUse">
            <stop stop-color="#fff"/>
            <stop offset="1" stop-color="#F0F3F4"/>
        </linearGradient>
    </defs>
</svg>
