<svg width="16" height="16" fill="none" xmlns="http://www.w3.org/2000/svg">
    <path d="M8.625 16h-1.25A1.877 1.877 0 015.5 14.125v-3.656H1.875A1.877 1.877 0 010 8.594v-1.25C0 6.31.841 5.469 1.875 5.469H5.5V1.875C5.5.841 6.341 0 7.375 0h1.25C9.659 0 10.5.841 10.5 1.875v3.594h3.625c1.034 0 1.875.84 1.875 1.875v1.25a1.877 1.877 0 01-1.875 1.875H10.5V11a.625.625 0 11-1.25 0V9.844c0-.345.28-.625.625-.625h4.25c.345 0 .625-.28.625-.625v-1.25a.626.626 0 00-.625-.625h-4.25a.625.625 0 01-.625-.625V1.875a.626.626 0 00-.625-.625h-1.25a.626.626 0 00-.625.625v4.219c0 .345-.28.625-.625.625h-4.25a.626.626 0 00-.625.625v1.25c0 .344.28.625.625.625h4.25c.345 0 .625.28.625.625v4.281c0 .345.28.625.625.625h1.25c.345 0 .625-.28.625-.625a.625.625 0 111.25 0A1.877 1.877 0 018.625 16z" fill="#006ECC"/>
</svg>
