<svg width="260" height="416" fill="none" xmlns="http://www.w3.org/2000/svg">
    <g clip-path="url(#clip0)">
        <path d="M249.108 263.378l-6.791-2.097.785 35.671 10.402.921 2.218-24.676c.392-4.39-2.355-8.506-6.614-9.819z" fill="url(#paint0_linear)"/>
        <path d="M247.244 264.319l-6.791-2.097.785 35.671 10.402.922 2.217-24.676c.393-4.41-2.355-8.506-6.613-9.82z" fill="url(#paint1_radial)"/>
        <path d="M41.293 86.59c-9.185-5.291-24.022-5.31-33.148-.058-8.812 5.096-8.989 13.23-.687 18.541l33.854 178.63 194.392 112.443c5.652 3.273 12.717-.804 12.717-7.331V217.79a21.473 21.473 0 00-10.794-18.62L41.293 86.59z" fill="#5F6DB1"/>
        <path d="M55.58 275.863l-5.416-3.214a8.755 8.755 0 01-1.178-.803v-170.83l186.306 106.543a10.305 10.305 0 015.181 8.937v166.322L55.58 275.863z" fill="url(#paint2_radial)"/>
        <path d="M41.293 86.59c-9.185-5.291-24.022-5.31-33.148-.058-8.812 5.096-8.989 13.23-.687 18.541l33.854 178.63 195.962 113.775c5.652 3.274 12.717-.803 12.717-7.33V219.123a21.473 21.473 0 00-10.794-18.62L41.293 86.591z" fill="#405D80"/>
        <path d="M41.41 88.57c-9.184-5.292-24.02-5.311-33.147-.059-8.812 5.096-8.988 13.23-.687 18.541l33.854 178.63 194.392 112.443c5.652 3.273 12.717-.804 12.717-7.33V219.769a21.472 21.472 0 00-10.794-18.619L41.411 88.57z" fill="url(#paint3_linear)"/>
        <path d="M8.263 164.205s-8.988 13.23-.687 18.541L41.43 283.703l194.392 112.443c5.652 3.273 12.717-.804 12.717-7.33v-93.353L8.263 164.205z" fill="url(#paint4_radial)"/>
        <path d="M8.263 173.984s-8.988 13.23-.687 18.542l33.854 82.337 194.392 112.443c5.652 3.273 12.717-.804 12.717-7.331v-74.733L8.263 173.984z" fill="url(#paint5_radial)"/>
        <path d="M41.41 88.57c-9.184-5.292-24.02-5.311-33.147-.059-8.812 5.096-8.988 13.23-.687 18.541l33.854 178.63 194.392 112.443c5.652 3.273 12.717-.804 12.717-7.33V219.769a21.472 21.472 0 00-10.794-18.619L41.411 88.57z" fill="url(#paint6_radial)"/>
        <path d="M234.644 287.564l-9.597-42.158-99.973-17.718 109.57 59.876z" fill="#43E8E1"/>
        <path d="M232.113 285.899l-9.401-39.866-100.169-20.011 109.57 59.877z" fill="url(#paint7_linear)"/>
        <path opacity=".02" d="M239.923 394.891c-1.06 0-2.06-.274-3.022-.823L44.57 282.821c-1.335-.764-1.786-2.489-1.02-3.822a2.82 2.82 0 013.826-1.019l192.331 111.247a.382.382 0 00.216.079c.098 0 .236-.04.354-.157.078-.059.117-.137.117-.314V217.81c0-4.802-2.59-9.291-6.771-11.682L37.289 93.529c-3.219-1.862-7.83-2.92-12.659-2.92-4.769 0-9.322 1.038-12.462 2.861-2.14 1.235-2.728 2.313-2.767 2.529-.04 1.548-1.413 2.744-2.865 2.704a2.805 2.805 0 01-2.728-2.88c.058-2.627 2.04-5.195 5.554-7.213 3.964-2.294 9.538-3.607 15.268-3.607 5.79 0 11.422 1.333 15.446 3.665l196.334 112.6c5.908 3.39 9.578 9.721 9.578 16.522v171.026c0 1.666-.648 3.214-1.826 4.331-1.158 1.117-2.688 1.744-4.239 1.744z" fill="#000"/>
        <path d="M239.903 393.068s-.019 0 0 0c-.019 0-.019 0 0 0a4.086 4.086 0 01-2.08-.588l-1.786-1.019a.966.966 0 01-.353-1.333.974.974 0 011.334-.353l1.767 1.02c.353.215.746.313 1.118.313.53 0 1.06.412 1.06.941.02.529-.294.98-.824 1 0 .019-.177.019-.236.019zm3.121-2.254c-.098 0-.196-.019-.294-.039a.974.974 0 01-.629-1.235c.079-.215.099-.451.099-.705v-2.901a.97.97 0 01.981-.98c.549 0 .981.431.981.98v2.901c0 .45-.059.901-.196 1.313a.972.972 0 01-.942.666zm-9.891-1.176a.887.887 0 01-.491-.137l-3.395-1.96a.967.967 0 01-.354-1.333.974.974 0 011.335-.352l3.395 1.959a.967.967 0 01.353 1.333.97.97 0 01-.843.49zm-6.791-3.939a.881.881 0 01-.49-.137l-3.396-1.96a.967.967 0 01-.353-1.333.974.974 0 011.335-.353l3.395 1.96a.966.966 0 01.353 1.333.974.974 0 01-.844.49zm16.839-2.705a.97.97 0 01-.981-.98v-3.92a.97.97 0 01.981-.98c.549 0 .981.431.981.98v3.92c0 .549-.432.98-.981.98zm-23.629-1.215a.887.887 0 01-.491-.137l-3.395-1.96a.967.967 0 01-.353-1.333.974.974 0 011.334-.353l3.395 1.96a.967.967 0 01.354 1.333.975.975 0 01-.844.49zm-6.791-3.94a.886.886 0 01-.49-.137l-3.396-1.96a.966.966 0 01-.353-1.333.973.973 0 011.335-.352l3.395 1.96a.965.965 0 01.353 1.332.972.972 0 01-.844.49zm30.42-2.685a.97.97 0 01-.981-.98v-3.92c0-.548.431-.98.981-.98.549 0 .981.432.981.98v3.92c0 .549-.432.98-.981.98zm-37.21-1.235a.887.887 0 01-.491-.137l-3.395-1.96a.965.965 0 01-.353-1.332.972.972 0 011.334-.353l3.395 1.96a.966.966 0 01.354 1.332.973.973 0 01-.844.49zm-6.791-3.939a.886.886 0 01-.49-.137l-3.396-1.96a.967.967 0 01-.353-1.333.975.975 0 011.335-.353l3.395 1.96a.967.967 0 01.353 1.333.97.97 0 01-.844.49zm44.001-2.666a.97.97 0 01-.981-.98v-3.919a.97.97 0 01.981-.98c.549 0 .981.431.981.98v3.919c0 .549-.432.98-.981.98zm-50.811-1.254a.886.886 0 01-.49-.137l-3.396-1.96a.967.967 0 01-.353-1.333.975.975 0 011.335-.353l3.395 1.96a.967.967 0 01.353 1.333.95.95 0 01-.844.49zm-6.79-3.939a.888.888 0 01-.491-.138l-3.395-1.96a.965.965 0 01-.353-1.332.972.972 0 011.334-.353l3.395 1.96a.967.967 0 01.354 1.333.975.975 0 01-.844.49zm57.601-2.646a.971.971 0 01-.981-.98v-3.92a.97.97 0 01.981-.98c.549 0 .981.431.981.98v3.92c0 .548-.432.98-.981.98zm-64.392-1.274a.887.887 0 01-.49-.138l-3.396-1.96a.965.965 0 01-.353-1.332.974.974 0 011.335-.353l3.395 1.96a.966.966 0 01.353 1.333.972.972 0 01-.844.49zm-6.79-3.94a.887.887 0 01-.491-.137l-3.395-1.96a.966.966 0 01-.353-1.333.974.974 0 011.334-.353l3.395 1.96a.968.968 0 01.354 1.333.973.973 0 01-.844.49zm71.182-2.626a.97.97 0 01-.981-.98v-3.92a.97.97 0 01.981-.98c.549 0 .981.431.981.98v3.92c0 .549-.432.98-.981.98zm-77.973-1.294a.886.886 0 01-.49-.137l-3.396-1.96a.966.966 0 01-.353-1.333.973.973 0 011.335-.352l3.395 1.959a.967.967 0 01.353 1.333.97.97 0 01-.844.49zm-6.79-3.939a.888.888 0 01-.491-.138l-3.395-1.959a.967.967 0 01-.353-1.333.973.973 0 011.334-.353l3.396 1.96a.966.966 0 01.353 1.333.974.974 0 01-.844.49zm84.763-2.607a.97.97 0 01-.981-.98v-3.92a.97.97 0 01.981-.98c.549 0 .981.431.981.98v3.92c0 .549-.432.98-.981.98zm-91.554-1.313a.886.886 0 01-.49-.137l-3.395-1.96a.968.968 0 01-.354-1.333.974.974 0 011.335-.353l3.395 1.96a.966.966 0 01.353 1.333.972.972 0 01-.844.49zm-6.79-3.94a.887.887 0 01-.491-.137l-3.395-1.96a.966.966 0 01-.353-1.333.973.973 0 011.334-.352l3.396 1.96a.965.965 0 01.353 1.332.972.972 0 01-.844.49zm98.344-2.587a.97.97 0 01-.981-.98v-3.92a.97.97 0 01.981-.98c.549 0 .981.431.981.98v3.92c0 .549-.432.98-.981.98zm-105.154-1.333a.887.887 0 01-.491-.137l-3.395-1.96a.966.966 0 01-.353-1.333.973.973 0 011.334-.352l3.396 1.96a.965.965 0 01.353 1.332.95.95 0 01-.844.49zm-6.791-3.939a.886.886 0 01-.49-.137l-3.395-1.96a.968.968 0 01-.354-1.333.975.975 0 011.335-.353l3.395 1.96a.967.967 0 01.353 1.333.933.933 0 01-.844.49zm111.945-2.568a.97.97 0 01-.981-.98v-3.92c0-.548.431-.98.981-.98.549 0 .981.432.981.98v3.92c0 .549-.432.98-.981.98zm-118.735-1.352a.887.887 0 01-.491-.137l-3.395-1.96a.967.967 0 01-.353-1.333.974.974 0 011.334-.353l3.396 1.96a.967.967 0 01.353 1.333.972.972 0 01-.844.49zm-6.79-3.94a.887.887 0 01-.491-.137l-3.395-1.96a.966.966 0 01-.354-1.332.973.973 0 011.335-.353l3.395 1.96a.965.965 0 01.353 1.332.93.93 0 01-.843.49zm125.525-2.547a.971.971 0 01-.981-.98v-3.92a.97.97 0 01.981-.98c.549 0 .981.431.981.98v3.92c0 .548-.432.98-.981.98zm-132.316-1.372a.888.888 0 01-.491-.138l-3.395-1.96a.965.965 0 01-.353-1.332.972.972 0 011.334-.353l3.396 1.96a.966.966 0 01.353 1.333.974.974 0 01-.844.49zm-6.79-3.94a.887.887 0 01-.491-.137l-3.395-1.96a.966.966 0 01-.353-1.333.974.974 0 011.334-.353l3.395 1.96a.968.968 0 01.354 1.333.935.935 0 01-.844.49zm139.106-2.528a.97.97 0 01-.981-.98v-3.92a.97.97 0 01.981-.98c.549 0 .981.431.981.98v3.92c0 .549-.432.98-.981.98zm-145.897-1.392a.886.886 0 01-.49-.137l-3.396-1.96a.966.966 0 01-.353-1.333.974.974 0 011.335-.353l3.395 1.96a.967.967 0 01.353 1.333.972.972 0 01-.844.49zm-6.81-3.939a.888.888 0 01-.49-.138l-3.396-1.96a.966.966 0 01-.353-1.332.973.973 0 011.335-.353l3.395 1.96a.966.966 0 01.353 1.333c-.177.333-.49.49-.844.49zm152.707-2.509a.97.97 0 01-.981-.98v-3.92a.97.97 0 01.981-.98c.549 0 .981.431.981.98v3.92c0 .549-.432.98-.981.98zm-159.497-1.411a.886.886 0 01-.491-.137l-3.395-1.96a.967.967 0 01-.353-1.333.973.973 0 011.334-.353l3.395 1.96a.966.966 0 01.353 1.333.95.95 0 01-.843.49zm-6.79-3.94a.886.886 0 01-.492-.137l-3.395-1.96a.966.966 0 01-.353-1.333.973.973 0 011.335-.352l3.395 1.959a.967.967 0 01.353 1.333.934.934 0 01-.844.49zm166.287-2.489a.97.97 0 01-.981-.98v-3.92a.97.97 0 01.981-.98c.549 0 .981.431.981.98v3.92c0 .549-.432.98-.981.98zm-173.078-1.431a.887.887 0 01-.491-.137l-3.395-1.96a.966.966 0 01-.353-1.333.973.973 0 011.334-.352l3.395 1.96a.965.965 0 01.354 1.332.971.971 0 01-.844.49zm-6.79-3.92a.886.886 0 01-.491-.137l-3.396-1.96a.966.966 0 01-.353-1.333.973.973 0 011.335-.352l3.395 1.96a.965.965 0 01.353 1.332.971.971 0 01-.844.49zm179.868-2.489a.97.97 0 01-.981-.98v-3.92c0-.548.431-.98.981-.98.549 0 .981.432.981.98v3.92c0 .549-.432.98-.981.98zm-186.66-1.45a.886.886 0 01-.49-.137l-3.395-1.96a.967.967 0 01-.353-1.333.974.974 0 011.334-.353l3.395 1.96a.967.967 0 01.354 1.333.972.972 0 01-.844.49zm-6.79-3.92a.886.886 0 01-.49-.137l-3.396-1.96a.967.967 0 01-.353-1.333.974.974 0 011.335-.353l3.395 1.96a.967.967 0 01.353 1.333.971.971 0 01-.844.49zm193.45-2.47a.97.97 0 01-.981-.979v-3.92a.97.97 0 01.981-.98c.549 0 .981.431.981.98v3.92a.97.97 0 01-.981.979zm0-7.839a.971.971 0 01-.981-.98v-3.92a.97.97 0 01.981-.98c.549 0 .981.431.981.98v3.92c0 .548-.432.98-.981.98zm0-7.84a.97.97 0 01-.981-.98v-3.92a.97.97 0 01.981-.98c.549 0 .981.431.981.98v3.92c0 .549-.432.98-.981.98zm0-7.84a.97.97 0 01-.981-.98v-3.92a.97.97 0 01.981-.98c.549 0 .981.431.981.98v3.92c0 .549-.432.98-.981.98zm0-7.84a.97.97 0 01-.981-.98v-3.92c0-.548.431-.98.981-.98.549 0 .981.432.981.98v3.92c0 .549-.432.98-.981.98zm0-7.84a.97.97 0 01-.981-.98v-3.919a.97.97 0 01.981-.98c.549 0 .981.431.981.98v3.919c0 .549-.432.98-.981.98zm0-7.839a.971.971 0 01-.981-.98v-3.92a.97.97 0 01.981-.98c.549 0 .981.431.981.98v3.92c0 .548-.432.98-.981.98zm0-7.84a.97.97 0 01-.981-.98v-3.92a.97.97 0 01.981-.98c.549 0 .981.431.981.98v3.92c0 .549-.432.98-.981.98zm0-7.84a.992.992 0 01-.981-.96 15.168 15.168 0 00-.55-3.626.993.993 0 01.687-1.215.994.994 0 011.217.686c.373 1.332.569 2.724.608 4.096.02.549-.412.98-.961.999 0 .02-.02.02-.02.02zm-2.061-7.487c-.333 0-.667-.176-.863-.51a16.319 16.319 0 00-2.159-2.979.97.97 0 01.059-1.391.973.973 0 011.393.058 17.072 17.072 0 012.434 3.352c.255.47.098 1.078-.373 1.333a.985.985 0 01-.491.137zm-5.299-5.684c-.176 0-.373-.059-.53-.157l-.765-.47-2.571-1.47a.966.966 0 01-.353-1.333.97.97 0 011.334-.353l2.571 1.47c.295.177.569.353.864.53a.98.98 0 01.294 1.352 1.09 1.09 0 01-.844.431zm-6.79-3.92a.887.887 0 01-.491-.137l-3.395-1.96a.966.966 0 01-.353-1.333.969.969 0 011.334-.353l3.395 1.96a.968.968 0 01.354 1.333.973.973 0 01-.844.49zm-6.81-3.9a.934.934 0 01-.491-.137l-3.395-1.96a.967.967 0 01-.353-1.333.969.969 0 011.334-.353l3.395 1.96a.968.968 0 01.354 1.333.975.975 0 01-.844.49zm-6.81-3.92a.934.934 0 01-.491-.137l-3.395-1.96a.967.967 0 01-.353-1.333.974.974 0 011.334-.353l3.395 1.96a.968.968 0 01.354 1.333.973.973 0 01-.844.49zm-6.81-3.9a.935.935 0 01-.491-.138l-3.395-1.959a.968.968 0 01-.354-1.333.974.974 0 011.335-.353l3.395 1.96a.966.966 0 01.353 1.333.949.949 0 01-.843.49zm-6.811-3.901a.93.93 0 01-.49-.137l-3.395-1.96a.967.967 0 01-.354-1.333.97.97 0 011.335-.352l3.395 1.96a.965.965 0 01.353 1.332c-.157.314-.49.49-.844.49zm-6.79-3.9a.934.934 0 01-.491-.137l-3.395-1.96a.966.966 0 01-.353-1.333.97.97 0 011.334-.353l3.396 1.96a.967.967 0 01.353 1.333.972.972 0 01-.844.49zm-6.81-3.9a.934.934 0 01-.491-.137l-3.395-1.96a.967.967 0 01-.353-1.333.968.968 0 011.334-.353l3.396 1.96a.966.966 0 01.353 1.333.974.974 0 01-.844.49zm-6.81-3.92a.934.934 0 01-.491-.137l-3.395-1.96a.967.967 0 01-.353-1.333.969.969 0 011.334-.353l3.395 1.96a.966.966 0 01.354 1.333.974.974 0 01-.844.49zm-6.81-3.9a.935.935 0 01-.491-.138l-3.395-1.96a.965.965 0 01-.353-1.332.967.967 0 011.334-.353l3.395 1.96a.967.967 0 01.354 1.333.975.975 0 01-.844.49zm-6.81-3.901a.934.934 0 01-.491-.137l-3.395-1.96a.966.966 0 01-.353-1.333.968.968 0 011.334-.352l3.395 1.959a.968.968 0 01.354 1.333.973.973 0 01-.844.49zm-6.81-3.9a.934.934 0 01-.491-.137l-3.395-1.96a.968.968 0 01-.354-1.333.975.975 0 011.335-.353l3.395 1.96a.968.968 0 01.354 1.333.973.973 0 01-.844.49zm-6.81-3.9a.935.935 0 01-.491-.138l-3.395-1.96a.966.966 0 01-.354-1.332.974.974 0 011.335-.353l3.395 1.96a.966.966 0 01.353 1.333.949.949 0 01-.843.49zm-6.811-3.92a.93.93 0 01-.49-.137l-3.395-1.96a.968.968 0 01-.354-1.333.974.974 0 011.335-.353l3.395 1.96a.966.966 0 01.353 1.333c-.157.313-.49.49-.844.49zm-6.79-3.901a.934.934 0 01-.491-.137l-3.395-1.96a.965.965 0 01-.353-1.332.972.972 0 011.334-.353l3.396 1.96a.965.965 0 01.353 1.332.972.972 0 01-.844.49zm-6.81-3.9a.934.934 0 01-.491-.137l-3.395-1.96a.966.966 0 01-.353-1.333.97.97 0 011.334-.353l3.396 1.96a.967.967 0 01.353 1.333.972.972 0 01-.844.49zm-6.81-3.9a.934.934 0 01-.491-.137l-3.395-1.96a.967.967 0 01-.353-1.333.968.968 0 011.334-.353l3.395 1.96a.967.967 0 01.354 1.333.975.975 0 01-.844.49zm-6.81-3.92a.934.934 0 01-.491-.137l-3.395-1.96a.967.967 0 01-.353-1.333.969.969 0 011.334-.353l3.395 1.96a.968.968 0 01.354 1.333.975.975 0 01-.844.49zm-6.81-3.9a.935.935 0 01-.491-.138l-3.395-1.96a.965.965 0 01-.353-1.332.967.967 0 011.334-.353l3.395 1.96a.967.967 0 01.354 1.333.975.975 0 01-.844.49zm-6.81-3.901a.934.934 0 01-.491-.137l-3.395-1.96a.967.967 0 01-.354-1.333.974.974 0 011.335-.352l3.395 1.96a.965.965 0 01.353 1.332.947.947 0 01-.843.49zm-6.81-3.9a.933.933 0 01-.491-.137l-3.395-1.96a.967.967 0 01-.354-1.333.974.974 0 011.335-.353l3.395 1.96a.967.967 0 01.353 1.333c-.157.314-.49.49-.844.49zm-6.791-3.9a.934.934 0 01-.49-.138l-3.396-1.959a.967.967 0 01-.353-1.333.973.973 0 011.334-.353l3.396 1.96a.966.966 0 01.353 1.333.973.973 0 01-.844.49zm-6.81-3.92a.933.933 0 01-.49-.137l-3.396-1.96a.967.967 0 01-.353-1.333.973.973 0 011.334-.353l3.396 1.96a.966.966 0 01.353 1.333.934.934 0 01-.844.49zm-6.81-3.901a.933.933 0 01-.49-.137l-3.396-1.96a.966.966 0 01-.353-1.332.968.968 0 011.334-.353l3.395 1.96a.965.965 0 01.354 1.332.971.971 0 01-.844.49zm-6.81-3.9a.933.933 0 01-.49-.137l-3.396-1.96a.966.966 0 01-.353-1.333.97.97 0 011.334-.353l3.395 1.96a.967.967 0 01.354 1.333.972.972 0 01-.844.49zm-6.81-3.9a.933.933 0 01-.491-.137l-3.395-1.96a.967.967 0 01-.354-1.333.97.97 0 011.335-.353l3.395 1.96a.966.966 0 01.354 1.333.974.974 0 01-.844.49zm-6.81-3.9a.888.888 0 01-.491-.138l-3.395-1.96a.965.965 0 01-.353-1.332.969.969 0 011.334-.353l3.395 1.96a.966.966 0 01.353 1.333.974.974 0 01-.843.49zm-6.81-3.92a.933.933 0 01-.491-.138l-3.395-1.96a.966.966 0 01-.354-1.332.969.969 0 011.335-.353l3.395 1.96a.966.966 0 01.353 1.333.95.95 0 01-.843.49zM6.594 96.88h-.02c-.549-.02-.98-.47-.961-1 .04-1.313.824-2.685 2.277-3.998a.993.993 0 011.393.079.989.989 0 01-.079 1.391c-1 .902-1.609 1.843-1.609 2.587-.02.53-.47.941-1 .941zm38.643-1.039a.933.933 0 01-.49-.137l-3.396-1.96a.966.966 0 01-.353-1.333.974.974 0 011.335-.352l3.395 1.96a.966.966 0 01.353 1.332.972.972 0 01-.844.49zm-6.83-3.9a.987.987 0 01-.47-.118 19.687 19.687 0 00-3.435-1.49.972.972 0 11.628-1.842c1.374.47 2.63 1.02 3.748 1.627a.968.968 0 01.373 1.333c-.157.314-.49.49-.844.49zm-26.592-.49a.98.98 0 01-.432-1.862 24.81 24.81 0 013.807-1.47.976.976 0 011.217.666.966.966 0 01-.667 1.216c-1.276.372-2.453.823-3.494 1.352a.824.824 0 01-.431.098zm19.213-2.058c-.059 0-.118 0-.176-.02a34.133 34.133 0 00-3.769-.49.968.968 0 01-.902-1.038.962.962 0 011.06-.902 33.35 33.35 0 014.003.53c.53.097.883.607.785 1.136-.118.45-.53.784-1 .784zm-11.716-.196a.987.987 0 01-.962-.823.976.976 0 01.824-1.117 38.833 38.833 0 014.024-.392c.53-.02 1 .392 1.02.94.02.55-.392 1-.942 1.02a34.42 34.42 0 00-3.788.372h-.176zM236.411 296.051a.934.934 0 01-.491-.137l-3.395-1.96a.966.966 0 01-.353-1.333.972.972 0 011.334-.352l3.395 1.959a.968.968 0 01.354 1.333.95.95 0 01-.844.49zm-6.81-3.9a.934.934 0 01-.491-.137l-3.395-1.96a.967.967 0 01-.353-1.333.974.974 0 011.334-.353l3.395 1.96a.968.968 0 01.354 1.333c-.157.314-.491.49-.844.49zm-6.791-3.92a.93.93 0 01-.49-.137l-3.396-1.96a.967.967 0 01-.353-1.333.975.975 0 011.335-.353l3.395 1.96a.967.967 0 01.353 1.333.97.97 0 01-.844.49zm-6.81-3.9a.93.93 0 01-.49-.137l-3.396-1.96a.967.967 0 01-.353-1.333.974.974 0 011.335-.353l3.395 1.96a.966.966 0 01.353 1.333.974.974 0 01-.844.49zm-6.81-3.901a.934.934 0 01-.491-.137l-3.395-1.96a.965.965 0 01-.353-1.332.973.973 0 011.335-.353l3.395 1.96a.965.965 0 01.353 1.332.972.972 0 01-.844.49zm-6.81-3.9a.934.934 0 01-.491-.137l-3.395-1.96a.966.966 0 01-.353-1.333.97.97 0 011.334-.353l3.396 1.96a.967.967 0 01.353 1.333.972.972 0 01-.844.49zm-6.81-3.9a.934.934 0 01-.491-.137l-3.395-1.96a.967.967 0 01-.353-1.333.97.97 0 011.334-.353l3.396 1.96a.966.966 0 01.353 1.333.974.974 0 01-.844.49zm-6.81-3.92a.934.934 0 01-.491-.137l-3.395-1.96a.967.967 0 01-.353-1.333.969.969 0 011.334-.353l3.396 1.96a.967.967 0 01.353 1.333.972.972 0 01-.844.49zm-6.81-3.9a.935.935 0 01-.491-.138l-3.395-1.96a.965.965 0 01-.353-1.332.967.967 0 011.334-.353l3.395 1.96a.967.967 0 01.354 1.333.952.952 0 01-.844.49zm-6.81-3.901a.934.934 0 01-.491-.137l-3.395-1.96a.966.966 0 01-.353-1.333.968.968 0 011.334-.352l3.395 1.96a.966.966 0 01.354 1.332c-.157.314-.491.49-.844.49zm-6.791-3.9a.93.93 0 01-.49-.137l-3.396-1.96a.967.967 0 01-.353-1.333.97.97 0 011.335-.353l3.395 1.96a.967.967 0 01.353 1.333.97.97 0 01-.844.49zm-6.81-3.9a.932.932 0 01-.49-.138l-3.396-1.959a.967.967 0 01-.353-1.333.974.974 0 011.335-.353l3.395 1.96a.966.966 0 01.353 1.333.974.974 0 01-.844.49zm-6.81-3.92a.934.934 0 01-.491-.137l-3.395-1.96a.967.967 0 01-.353-1.333.973.973 0 011.334-.353l3.396 1.96a.966.966 0 01.353 1.333.974.974 0 01-.844.49zm-6.81-3.901a.934.934 0 01-.491-.137l-3.395-1.96a.965.965 0 01-.353-1.332.968.968 0 011.334-.353l3.396 1.96a.965.965 0 01.353 1.332.972.972 0 01-.844.49zm-6.81-3.9a.934.934 0 01-.491-.137l-3.395-1.96a.966.966 0 01-.353-1.333.97.97 0 011.334-.353l3.396 1.96a.967.967 0 01.353 1.333.972.972 0 01-.844.49zm-6.81-3.9a.934.934 0 01-.491-.137l-3.395-1.96a.967.967 0 01-.353-1.333.969.969 0 011.334-.353l3.395 1.96a.967.967 0 01.354 1.333.952.952 0 01-.844.49zm-6.81-3.9a.935.935 0 01-.491-.138l-3.395-1.96a.965.965 0 01-.353-1.332.967.967 0 011.334-.353l3.395 1.96a.967.967 0 01.354 1.333c-.157.313-.491.49-.844.49zm-6.791-3.92a.932.932 0 01-.49-.138l-3.396-1.96a.965.965 0 01-.353-1.332.97.97 0 011.335-.353l3.395 1.96a.966.966 0 01.353 1.333.972.972 0 01-.844.49zm-6.81-3.901a.93.93 0 01-.49-.137l-3.396-1.96a.966.966 0 01-.353-1.333.973.973 0 011.335-.352l3.395 1.96a.965.965 0 01.353 1.332.972.972 0 01-.844.49zm-6.81-3.9a.934.934 0 01-.491-.137l-3.395-1.96a.967.967 0 01-.353-1.333.975.975 0 011.335-.353l3.395 1.96a.967.967 0 01.353 1.333.972.972 0 01-.844.49zm-6.81-3.9a.933.933 0 01-.49-.137l-3.396-1.96a.967.967 0 01-.353-1.333.973.973 0 011.334-.353l3.396 1.96a.966.966 0 01.353 1.333.974.974 0 01-.844.49zm-6.81-3.901a.933.933 0 01-.49-.137l-3.396-1.96a.966.966 0 01-.353-1.333.973.973 0 011.334-.352l3.396 1.96a.965.965 0 01.353 1.332.971.971 0 01-.844.49zm-6.81-3.92a.933.933 0 01-.49-.137l-3.396-1.96a.965.965 0 01-.353-1.332.972.972 0 011.334-.353l3.395 1.96a.966.966 0 01.354 1.333.972.972 0 01-.844.489zm-6.81-3.9a.933.933 0 01-.49-.137l-3.396-1.96a.966.966 0 01-.353-1.333.97.97 0 011.334-.353l3.395 1.96a.967.967 0 01.354 1.333.949.949 0 01-.844.49zm-6.79-3.9a.933.933 0 01-.491-.137l-3.396-1.96a.967.967 0 01-.353-1.333.97.97 0 011.335-.353l3.395 1.96a.967.967 0 01.353 1.333.974.974 0 01-.844.49zm-6.81-3.9a.934.934 0 01-.491-.138l-3.396-1.96a.965.965 0 01-.353-1.332.968.968 0 011.335-.353l3.395 1.96a.966.966 0 01.353 1.333.974.974 0 01-.844.49zm-6.81-3.901a.886.886 0 01-.491-.137l-3.396-1.96a.966.966 0 01-.353-1.333.973.973 0 011.334-.352l3.396 1.96a.965.965 0 01.353 1.332.971.971 0 01-.844.49zm-6.811-3.92a.933.933 0 01-.49-.137l-3.396-1.96a.966.966 0 01-.353-1.333.973.973 0 011.334-.352l3.396 1.96a.965.965 0 01.353 1.332.971.971 0 01-.844.49zm-6.81-3.9a.886.886 0 01-.49-.137l-3.396-1.96a.967.967 0 01-.353-1.333.974.974 0 011.334-.353l3.396 1.96a.967.967 0 01.353 1.333.971.971 0 01-.844.49z" fill="#292C3B"/>
        <path d="M9.617 104.23c-4.2-2.431-7.674-6.86-8.027-10.035V289.21c-.393 3.744 3.062 8.859 8.027 11.721v.078l194.391 112.443c5.653 3.273 12.718-.804 12.718-7.331V235.096a21.476 21.476 0 00-10.794-18.62L9.617 104.23z" fill="#FF63CE"/>
        <path d="M147.723 156.914c0 6.743-2.336 11.525-6.123 13.838-.118.078-6.477 3.998-6.595 4.057-3.944 2.195-1.413-2.803-7.418-6.253-12.05-6.957-21.824-23.793-21.824-37.611 0-6.84-6.32-6.88-2.453-9.173.118-.058 7.222-4.116 7.34-4.174 3.925-2.137 9.303-1.745 15.229 1.685 12.07 6.978 21.844 23.814 21.844 37.631z" fill="url(#paint8_linear)"/>
        <path d="M140.579 161.148c0 13.818-9.774 19.384-21.824 12.426-12.05-6.958-21.823-23.794-21.823-37.611 0-13.818 9.773-19.384 21.823-12.427 12.05 6.978 21.824 23.794 21.824 37.612z" fill="url(#paint9_linear)"/>
        <path d="M134.907 157.875c0 10.211-7.222 14.327-16.132 9.192s-16.132-17.581-16.132-27.812c0-10.211 7.222-14.327 16.132-9.192s16.132 17.6 16.132 27.812z" fill="url(#paint10_linear)"/>
        <path d="M120.247 165.656c-8.91-5.135-16.132-17.581-16.132-27.812 0-3.665.942-6.507 2.531-8.467-2.492 1.823-4.023 5.194-4.023 9.878 0 10.212 7.222 22.658 16.132 27.812 5.731 3.293 10.735 2.764 13.601-.725-2.944 2.136-7.281 2.097-12.109-.686z" fill="url(#paint11_linear)"/>
        <path d="M121.074 157.659l-3.878-2.243.003 2.731-3.658-2.116-.003-2.73-2.475-1.432-.004-3.42 2.475 1.432-.001-1.07-2.475-1.431-.004-3.421 2.475 1.432-.011-9.853 6.901 3.991a14.105 14.105 0 013.513 2.862 13.032 13.032 0 012.343 3.732c.562 1.347.844 2.678.846 3.991.002 2.027-.594 3.282-1.787 3.763-1.186.487-2.839.117-4.961-1.11l-3.182-1.841.001 1.07 3.878 2.243.004 3.42zm-3.887-10.153l3.158 1.827c2.049 1.184 3.072.74 3.069-1.334-.001-.985-.262-1.929-.783-2.83a5.871 5.871 0 00-2.159-2.177l-3.292-1.904.007 6.418z" fill="url(#paint12_linear)"/>
        <path d="M121.497 157.415l-3.877-2.243.003 2.731-3.658-2.115-.003-2.731-2.475-1.431-.004-3.421 2.475 1.432-.001-1.07-2.475-1.431-.004-3.421 2.475 1.432-.011-9.853 6.901 3.991a14.082 14.082 0 013.512 2.862 13.036 13.036 0 012.344 3.732c.562 1.347.844 2.678.846 3.991.002 2.027-.594 3.282-1.787 3.763-1.186.487-2.839.117-4.961-1.11l-3.182-1.841.001 1.07 3.877 2.243.004 3.42zm-3.886-10.153l3.158 1.827c2.048 1.184 3.071.74 3.069-1.334-.001-.985-.262-1.929-.783-2.83a5.879 5.879 0 00-2.159-2.177l-3.292-1.904.007 6.418z" fill="url(#paint13_linear)"/>
        <path d="M126.37 119.615c-.157-.098-.314-.215-.471-.294-.137-.078-.294-.137-.431-.215l-7.262 4.175c.177.098.353.176.55.274.117.078.255.157.372.235l7.242-4.175zM118.461 116.539l-7.301 4.214c.452.059.903.157 1.354.274l7.321-4.214a19.059 19.059 0 00-1.374-.274zM130.668 122.673l-7.223 4.175c.255.196.491.431.726.627l7.223-4.175c-.255-.215-.491-.431-.726-.627zM138.557 131.277l-7.203 4.155c.177.255.354.51.53.745l7.203-4.155c-.177-.255-.353-.51-.53-.745zM134.927 126.79l-7.202 4.155c.215.235.412.47.608.705l7.203-4.155a7.262 7.262 0 00-.609-.705zM141.619 136.079l-7.182 4.136c.157.274.294.529.431.803l7.183-4.155a33.945 33.945 0 00-.432-.784zM146.486 164.479l-7.085 4.077c-.177.47-.353.94-.549 1.372l7.045-4.077c.216-.431.393-.882.589-1.372zM140.559 161.697c0 .372-.02.725-.059 1.077l7.144-4.115c.019-.353.039-.706.039-1.078l-7.124 4.116zM147.409 152.602c-.039-.333-.059-.647-.118-.98l-7.163 4.136c.059.333.078.647.137.98l7.144-4.136zM138.832 150.289c.098.294.177.608.255.902l7.164-4.135c-.079-.294-.157-.608-.256-.902l-7.163 4.135zM144.465 141.9c-.118-.274-.216-.568-.353-.862l-7.183 4.136c.117.274.235.568.353.862l7.183-4.136z" fill="#FDD65B"/>
        <path d="M125.899 119.323c-5.927-3.411-11.304-3.803-15.229-1.686-.02.02-.393.216-.982.549 3.827-1.627 8.852-1.098 14.347 2.077 12.05 6.958 21.823 23.794 21.823 37.612 0 6.742-2.335 11.524-6.123 13.837-.098.059 1.767-.862 1.884-.941 3.788-2.312 6.124-7.095 6.124-13.837-.02-13.837-9.794-30.673-21.844-37.611z" fill="url(#paint14_linear)"/>
        <path d="M119.717 122.929c-5.77-3.332-10.932-3.685-14.837-1.744 3.631-1.02 8.164-.255 13.051 2.567 12.05 6.958 21.824 23.794 21.824 37.612 0 7.193-2.65 12.151-6.889 14.268 5.338-1.49 8.694-6.879 8.694-15.092-.019-13.817-9.793-30.653-21.843-37.611z" fill="url(#paint15_radial)"/>
        <path d="M209.661 214.635L13.346 102.369c-4.2-2.43-6.398-5.567-6.751-8.722v12.74c.314.235.628.47.961.686l33.855 178.63 179.044 103.564V233.274a21.457 21.457 0 00-10.794-18.639z" fill="url(#paint16_radial)"/>
        <path d="M9.617 104.23c-4.2-2.431-7.674-6.86-8.027-10.035V289.21c-.393 3.744 3.062 8.859 8.027 11.721v.078l194.391 112.443c5.653 3.273 12.718-.804 12.718-7.331V235.096a21.476 21.476 0 00-10.794-18.62L9.617 104.23z" fill="url(#paint17_radial)"/>
        <path d="M8.224 105.622c-4.2-2.43-6.398-5.566-6.751-8.721v195.015c-.393 3.744 1.786 7.546 6.75 10.407v.079l194.392 112.442c5.653 3.273 12.718-.803 12.718-7.33V236.489a21.474 21.474 0 00-10.794-18.62L8.224 105.622z" fill="url(#paint18_linear)"/>
        <path d="M206.834 410.394c-.49 0-.961-.137-1.413-.392l-1.157-.666a.968.968 0 01-.354-1.333.974.974 0 011.335-.353l1.158.666a.856.856 0 00.431.138c.216 0 .471-.118.648-.275.373-.372 1.021-.411 1.413-.059.373.373.452.922.098 1.314l-.157.156c-.53.49-1.256.804-2.002.804zm-5.475-2.901a.887.887 0 01-.491-.137l-3.395-1.96a.966.966 0 01-.353-1.333.973.973 0 011.334-.352l3.396 1.959a.967.967 0 01.353 1.333.972.972 0 01-.844.49zm7.36-1.568a.971.971 0 01-.982-.98v-3.92c0-.548.432-.98.982-.98.549 0 .981.432.981.98v3.92c0 .549-.432.98-.981.98zm-14.151-2.371a.886.886 0 01-.49-.137l-3.395-1.96a.968.968 0 01-.354-1.333.974.974 0 011.335-.353l3.395 1.96a.966.966 0 01.353 1.333.933.933 0 01-.844.49zm-6.79-3.92a.887.887 0 01-.491-.137l-3.395-1.96a.967.967 0 01-.353-1.333.974.974 0 011.334-.353l3.396 1.96a.966.966 0 01.353 1.333.974.974 0 01-.844.49zm20.941-1.549a.971.971 0 01-.982-.979v-3.92c0-.549.432-.98.982-.98.549 0 .981.431.981.98v3.92a.97.97 0 01-.981.979zm-27.731-2.391a.887.887 0 01-.491-.137l-3.395-1.96a.967.967 0 01-.354-1.333.974.974 0 011.335-.352l3.395 1.96a.965.965 0 01.353 1.332.93.93 0 01-.843.49zm-6.791-3.92a.887.887 0 01-.491-.137l-3.395-1.96a.965.965 0 01-.353-1.332.973.973 0 011.335-.353l3.395 1.96a.965.965 0 01.353 1.332.972.972 0 01-.844.49zm34.522-1.528a.972.972 0 01-.982-.98v-3.92c0-.549.432-.98.982-.98.549 0 .981.431.981.98v3.92c0 .548-.432.98-.981.98zm-41.312-2.391a.888.888 0 01-.491-.138l-3.395-1.96a.965.965 0 01-.353-1.332.972.972 0 011.334-.353l3.395 1.96a.967.967 0 01.354 1.333.975.975 0 01-.844.49zm-6.791-3.94a.886.886 0 01-.49-.137l-3.396-1.96a.966.966 0 01-.353-1.333.975.975 0 011.335-.353l3.395 1.96a.967.967 0 01.353 1.333.972.972 0 01-.844.49zm48.103-1.509a.971.971 0 01-.982-.98v-3.92c0-.549.432-.98.982-.98.549 0 .981.431.981.98v3.92c0 .549-.432.98-.981.98zm-54.913-2.411a.887.887 0 01-.491-.137l-3.395-1.96a.966.966 0 01-.353-1.333.975.975 0 011.335-.353l3.395 1.96a.967.967 0 01.353 1.333.95.95 0 01-.844.49zm-6.79-3.939a.888.888 0 01-.491-.138l-3.395-1.96a.965.965 0 01-.353-1.332.973.973 0 011.334-.353l3.395 1.96a.967.967 0 01.354 1.333.952.952 0 01-.844.49zm61.703-1.49a.971.971 0 01-.982-.98v-3.92c0-.549.432-.98.982-.98.549 0 .981.431.981.98v3.92c0 .549-.432.98-.981.98zm-68.494-2.43a.894.894 0 01-.49-.137l-3.396-1.96a.967.967 0 01-.353-1.333.974.974 0 011.335-.353l3.395 1.96a.966.966 0 01.353 1.333.974.974 0 01-.844.49zm-6.79-3.94a.887.887 0 01-.491-.137l-3.395-1.96a.966.966 0 01-.353-1.333.974.974 0 011.334-.353l3.395 1.96a.968.968 0 01.354 1.333.973.973 0 01-.844.49zm75.284-1.47a.971.971 0 01-.982-.98v-3.92c0-.548.432-.98.982-.98.549 0 .981.432.981.98v3.92c0 .549-.432.98-.981.98zm-82.075-2.45a.886.886 0 01-.49-.137l-3.396-1.96a.966.966 0 01-.353-1.333.973.973 0 011.335-.352l3.395 1.96a.965.965 0 01.353 1.332.97.97 0 01-.844.49zm-6.79-3.939a.887.887 0 01-.491-.137l-3.395-1.96a.967.967 0 01-.353-1.333.974.974 0 011.334-.353l3.395 1.96a.967.967 0 01.354 1.333.975.975 0 01-.844.49zm88.865-1.451a.971.971 0 01-.982-.98v-3.919c0-.549.432-.98.982-.98.549 0 .981.431.981.98v3.919c0 .549-.432.98-.981.98zm-95.656-2.469a.886.886 0 01-.49-.137l-3.396-1.96a.967.967 0 01-.353-1.333.975.975 0 011.335-.353l3.395 1.96a.967.967 0 01.353 1.333.97.97 0 01-.844.49zm-6.81-3.94a.886.886 0 01-.49-.137l-3.396-1.96a.966.966 0 01-.353-1.333.973.973 0 011.335-.352l3.395 1.96a.965.965 0 01.353 1.332.947.947 0 01-.844.49zm102.466-1.43a.972.972 0 01-.982-.98v-3.92c0-.549.432-.98.982-.98.549 0 .981.431.981.98v3.92c0 .548-.432.98-.981.98zm-109.256-2.49a.886.886 0 01-.49-.137l-3.396-1.96a.965.965 0 01-.353-1.332.972.972 0 011.334-.353l3.395 1.96c.471.274.628.862.354 1.332a.95.95 0 01-.844.49zm-6.79-3.939a.886.886 0 01-.491-.137l-3.395-1.96a.967.967 0 01-.354-1.333.974.974 0 011.335-.353l3.395 1.96a.967.967 0 01.353 1.333.971.971 0 01-.844.49zm116.046-1.411a.971.971 0 01-.982-.98v-3.92c0-.549.432-.98.982-.98.549 0 .981.431.981.98v3.92c0 .549-.432.98-.981.98zm-122.837-2.509a.886.886 0 01-.49-.137l-3.396-1.96a.966.966 0 01-.353-1.333.974.974 0 011.334-.353l3.395 1.96a.967.967 0 01.354 1.333.972.972 0 01-.844.49zm-6.79-3.939a.887.887 0 01-.491-.138l-3.395-1.96a.965.965 0 01-.354-1.332.972.972 0 011.335-.353l3.395 1.96a.966.966 0 01.353 1.333.974.974 0 01-.844.49zm129.627-1.392a.971.971 0 01-.982-.98v-3.92c0-.549.432-.98.982-.98.549 0 .981.431.981.98v3.92c0 .549-.432.98-.981.98zm-136.418-2.528a.888.888 0 01-.49-.138l-3.396-1.959a.967.967 0 01-.353-1.333.973.973 0 011.334-.353l3.396 1.96a.966.966 0 01.353 1.333.974.974 0 01-.844.49zm-6.79-3.94a.886.886 0 01-.491-.137l-3.395-1.96a.966.966 0 01-.354-1.333.974.974 0 011.335-.353l3.395 1.96a.967.967 0 01.353 1.333.971.971 0 01-.844.49zm143.208-1.372a.971.971 0 01-.982-.98v-3.92c0-.548.432-.98.982-.98.549 0 .981.432.981.98v3.92c0 .549-.432.98-.981.98zM58.72 324.979a.886.886 0 01-.49-.137l-3.396-1.96a.966.966 0 01-.353-1.333.973.973 0 011.334-.352l3.396 1.96a.965.965 0 01.353 1.332.971.971 0 01-.844.49zm-6.79-3.939a.886.886 0 01-.491-.137l-3.395-1.96a.967.967 0 01-.354-1.333.973.973 0 011.335-.353l3.395 1.96a.966.966 0 01.353 1.333.974.974 0 01-.843.49zm156.789-1.353a.971.971 0 01-.982-.98v-3.919c0-.549.432-.98.982-.98.549 0 .981.431.981.98v3.919c0 .549-.432.98-.981.98zm-163.6-2.567a.886.886 0 01-.49-.137l-3.395-1.96a.967.967 0 01-.354-1.333.974.974 0 011.335-.353l3.395 1.96a.966.966 0 01.353 1.333.95.95 0 01-.843.49zm-6.79-3.94a.886.886 0 01-.49-.137l-3.396-1.96a.966.966 0 01-.353-1.333.973.973 0 011.334-.352l3.396 1.96a.965.965 0 01.353 1.332.971.971 0 01-.844.49zm170.39-1.332a.972.972 0 01-.982-.98v-3.92c0-.549.432-.98.982-.98.549 0 .981.431.981.98v3.92c0 .548-.432.98-.981.98zm-177.18-2.588a.886.886 0 01-.491-.137l-3.395-1.96a.966.966 0 01-.354-1.332.973.973 0 011.335-.353l3.395 1.96a.966.966 0 01.353 1.332.971.971 0 01-.843.49zm-6.79-3.939a.886.886 0 01-.491-.137l-3.396-1.96a.967.967 0 01-.353-1.333.974.974 0 011.334-.353l3.396 1.96a.967.967 0 01.353 1.333.971.971 0 01-.844.49zm183.97-1.313a.971.971 0 01-.982-.98v-3.92c0-.549.432-.98.982-.98.549 0 .981.431.981.98v3.92c0 .549-.432.98-.981.98zm-190.761-2.607a.886.886 0 01-.491-.137l-3.434-1.999a.982.982 0 01-.295-1.353.984.984 0 011.354-.294l.197.138 3.14 1.822a.967.967 0 01.353 1.333.918.918 0 01-.824.49zm-6.693-4.096c-.176 0-.373-.059-.53-.157l-3.297-2.117a.98.98 0 01-.294-1.352.983.983 0 011.354-.294l3.297 2.117a.98.98 0 01.295 1.352c-.197.274-.51.451-.825.451zm197.454-1.137a.971.971 0 01-.982-.98v-3.92c0-.549.432-.98.982-.98.549 0 .981.431.981.98v3.92c0 .549-.432.98-.981.98zM4.848 292.816c-.275 0-.55-.117-.746-.333-.765-.862-1.138-1.705-1.138-2.489 0-.039 0-.215.02-.255l.039-.333c.058-.529.55-.941 1.079-.882.53.059.922.529.883 1.078l-.04.353c0 .157.04.549.649 1.235a1.006 1.006 0 01-.079 1.391 1.065 1.065 0 01-.667.235zm203.871-4.488a.971.971 0 01-.982-.98v-3.92c0-.549.432-.98.982-.98.549 0 .981.431.981.98v3.92c0 .549-.432.98-.981.98zm0-7.84a.971.971 0 01-.982-.98v-3.92c0-.548.432-.98.982-.98.549 0 .981.432.981.98v3.92c0 .549-.432.98-.981.98zm0-7.839a.972.972 0 01-.982-.98v-3.92c0-.549.432-.98.982-.98.549 0 .981.431.981.98v3.92c0 .548-.432.98-.981.98zm0-7.84a.971.971 0 01-.982-.98v-3.92c0-.549.432-.98.982-.98.549 0 .981.431.981.98v3.92c0 .549-.432.98-.981.98zm0-7.84a.971.971 0 01-.982-.98v-3.92c0-.549.432-.98.982-.98.549 0 .981.431.981.98v3.92c0 .549-.432.98-.981.98zm0-7.84a.971.971 0 01-.982-.98v-3.92c0-.549.432-.98.982-.98.549 0 .981.431.981.98v3.92c0 .549-.432.98-.981.98zm0-7.84a.971.971 0 01-.982-.98v-3.802c0-.549.432-1.039.982-1.039.549 0 .981.373.981.921h-.981l.981.059v3.861c0 .549-.432.98-.981.98zm-.53-7.781a.96.96 0 01-.942-.725 14.517 14.517 0 00-1.433-3.351c-.275-.471-.118-1.059.353-1.353.471-.274 1.06-.117 1.354.353a16.007 16.007 0 011.629 3.822.993.993 0 01-.687 1.215c-.098.02-.196.039-.274.039zm-3.965-6.683c-.255 0-.49-.098-.687-.275a13.713 13.713 0 00-2.786-2.097l.333-.94.491-.843.137.078a15.827 15.827 0 013.18 2.411c.392.372.392.999.019 1.391a.979.979 0 01-.687.275zm-6.535-4.292a.935.935 0 01-.491-.138l-3.395-1.96a.965.965 0 01-.353-1.332.968.968 0 011.334-.353l3.396 1.96a.966.966 0 01.353 1.333.974.974 0 01-.844.49zm-6.81-3.901a.934.934 0 01-.491-.137l-3.395-1.96a.966.966 0 01-.353-1.333.972.972 0 011.334-.352l3.396 1.959a.967.967 0 01.353 1.333.95.95 0 01-.844.49zm-6.791-3.9a.93.93 0 01-.49-.137l-3.395-1.96a.968.968 0 01-.354-1.333.97.97 0 011.335-.353l3.395 1.96a.967.967 0 01.353 1.333.97.97 0 01-.844.49zm-6.81-3.92a.93.93 0 01-.49-.137l-3.396-1.96a.967.967 0 01-.353-1.333.975.975 0 011.335-.353l3.395 1.96a.967.967 0 01.353 1.333.97.97 0 01-.844.49zm-6.81-3.9a.93.93 0 01-.49-.137l-3.396-1.96a.967.967 0 01-.353-1.333.97.97 0 011.335-.353l3.395 1.96a.966.966 0 01.353 1.333.972.972 0 01-.844.49zm-6.81-3.901a.93.93 0 01-.49-.137l-3.396-1.96a.965.965 0 01-.353-1.332.973.973 0 011.335-.353l3.395 1.96a.965.965 0 01.353 1.332.972.972 0 01-.844.49zm-6.81-3.919a.935.935 0 01-.491-.138l-3.395-1.96a.965.965 0 01-.353-1.332.968.968 0 011.334-.353l3.396 1.96a.966.966 0 01.353 1.333c-.157.313-.491.49-.844.49zm-6.79-3.901a.934.934 0 01-.491-.137l-3.395-1.96a.967.967 0 01-.354-1.333.97.97 0 011.335-.352l3.395 1.959a.968.968 0 01.354 1.333.973.973 0 01-.844.49zm-6.81-3.9a.887.887 0 01-.491-.137l-3.395-1.96a.968.968 0 01-.354-1.333.975.975 0 011.335-.353l3.395 1.96a.967.967 0 01.353 1.333.972.972 0 01-.843.49zm-6.811-3.92a.93.93 0 01-.49-.137l-3.395-1.96a.968.968 0 01-.354-1.333.97.97 0 011.335-.353l3.395 1.96a.967.967 0 01.353 1.333.97.97 0 01-.844.49zm-6.81-3.9a.932.932 0 01-.49-.138l-3.396-1.959a.967.967 0 01-.353-1.333.974.974 0 011.335-.353l3.395 1.96a.966.966 0 01.353 1.333.95.95 0 01-.844.49zm-6.79-3.92a.887.887 0 01-.491-.137l-3.395-1.96a.967.967 0 01-.353-1.333.968.968 0 011.334-.353l3.396 1.96a.966.966 0 01.353 1.333.974.974 0 01-.844.49zm-6.81-3.901a.887.887 0 01-.491-.137l-3.395-1.96a.965.965 0 01-.353-1.332.972.972 0 011.334-.353l3.395 1.96a.966.966 0 01.354 1.332.973.973 0 01-.844.49zm-6.81-3.9a.934.934 0 01-.491-.137l-3.395-1.96a.966.966 0 01-.353-1.333.969.969 0 011.334-.353l3.395 1.96a.968.968 0 01.354 1.333.973.973 0 01-.844.49zm-6.81-3.92a.887.887 0 01-.491-.137l-3.395-1.96a.966.966 0 01-.353-1.333.973.973 0 011.334-.352l3.395 1.96a.966.966 0 01.354 1.332.973.973 0 01-.844.49zm-6.81-3.9a.933.933 0 01-.491-.137l-3.395-1.96a.967.967 0 01-.354-1.333.974.974 0 011.335-.353l3.395 1.96a.967.967 0 01.353 1.333c-.157.314-.49.49-.843.49zm-6.79-3.9a.934.934 0 01-.492-.138l-3.395-1.959a.967.967 0 01-.353-1.333.969.969 0 011.335-.353l3.395 1.96a.966.966 0 01.353 1.333.974.974 0 01-.844.49zm-6.811-3.92a.933.933 0 01-.49-.137l-3.396-1.96a.967.967 0 01-.353-1.333.973.973 0 011.334-.353l3.396 1.96a.966.966 0 01.353 1.333.974.974 0 01-.844.49zm-6.81-3.901a.933.933 0 01-.49-.137l-3.396-1.96a.965.965 0 01-.353-1.332.968.968 0 011.334-.353l3.396 1.96a.965.965 0 01.353 1.332.971.971 0 01-.844.49zm-6.81-3.9a.886.886 0 01-.49-.137l-3.396-1.96a.966.966 0 01-.353-1.333.974.974 0 011.334-.353l3.395 1.96a.967.967 0 01.354 1.333.949.949 0 01-.844.49zm-6.79-3.92a.933.933 0 01-.491-.137l-3.395-1.96a.966.966 0 01-.354-1.333.969.969 0 011.335-.352l3.395 1.959a.967.967 0 01.353 1.333.972.972 0 01-.844.49zm-6.81-3.9a.933.933 0 01-.491-.137l-3.396-1.96a.967.967 0 01-.353-1.333.974.974 0 011.335-.353l3.395 1.96a.967.967 0 01.353 1.333.971.971 0 01-.844.49zm-6.81-3.92a.886.886 0 01-.491-.137l-3.396-1.96a.967.967 0 01-.353-1.333.974.974 0 011.335-.353l3.395 1.96a.967.967 0 01.353 1.333.934.934 0 01-.844.49zm-6.81-3.9a.886.886 0 01-.492-.137l-3.395-1.96a.967.967 0 01-.353-1.333.969.969 0 011.335-.353l3.395 1.96a.966.966 0 01.353 1.333.973.973 0 01-.844.49zm-6.811-3.901a.933.933 0 01-.49-.137l-3.396-1.96a.966.966 0 01-.353-1.333.973.973 0 011.334-.352l3.396 1.96a.965.965 0 01.353 1.332c-.157.314-.49.49-.844.49zm-6.79-3.919a.888.888 0 01-.491-.138l-3.395-1.96a.965.965 0 01-.354-1.332.968.968 0 011.335-.353l3.395 1.96a.966.966 0 01.353 1.333.974.974 0 01-.843.49zm-6.81-3.901a.933.933 0 01-.491-.137l-3.395-1.96a.966.966 0 01-.354-1.333.974.974 0 011.335-.353l3.395 1.96a.967.967 0 01.353 1.333.971.971 0 01-.844.49zm-6.81-3.9a.933.933 0 01-.491-.137l-3.396-1.96a.967.967 0 01-.353-1.333.97.97 0 011.335-.353l3.395 1.96a.967.967 0 01.353 1.333.971.971 0 01-.844.49zm-6.81-3.92a.933.933 0 01-.491-.137l-3.396-1.96a.967.967 0 01-.353-1.333.974.974 0 011.335-.353l3.395 1.96a.967.967 0 01.353 1.333.949.949 0 01-.844.49z" fill="#292C3B"/>
        <path opacity=".2" d="M205.991 318.355c0 12.564-8.891 17.62-19.842 11.29-10.951-6.311-19.841-21.619-19.841-34.182 0-12.563 8.89-17.62 19.841-11.289 10.951 6.311 19.842 21.618 19.842 34.181z" fill="#577B9B"/>
        <path d="M195.982 311.985c0 2.979-1.04 5.096-2.708 6.135-.059.039-2.198 1.45-2.238 1.489-1.746.98-.628-1.234-3.277-2.763-5.338-3.077-9.656-10.525-9.656-16.64 0-3.019-2.806-3.058-1.079-4.057.039-.02 2.531-1.509 2.571-1.529 1.746-.941 4.121-.764 6.751.745 5.299 3.057 9.636 10.505 9.636 16.62z" fill="url(#paint19_linear)"/>
        <path d="M193.489 313.553c0 6.115-4.317 8.585-9.655 5.508-5.339-3.078-9.656-10.525-9.656-16.64s4.317-8.585 9.656-5.508c5.318 3.077 9.655 10.525 9.655 16.64z" fill="url(#paint20_linear)"/>
        <path d="M189.073 311.417c0 1.568-.55 2.685-1.433 3.234-.019.019-2.473 1.43-2.492 1.45-.923.51-.334-.647-1.727-1.45-2.807-1.627-5.083-5.547-5.083-8.761 0-1.588-1.472-1.607-.569-2.137.019-.019 2.649-1.45 2.669-1.47.922-.49 2.178-.411 3.552.392 2.806 1.607 5.083 5.527 5.083 8.742z" fill="url(#paint21_linear)"/>
        <path d="M186.443 312.907c0 3.214-2.276 4.508-5.083 2.901-2.806-1.627-5.083-5.547-5.083-8.761 0-3.215 2.277-4.508 5.083-2.901 2.807 1.627 5.083 5.546 5.083 8.761z" fill="url(#paint22_linear)"/>
        <path d="M249.736 263.633v1.901c1.708 1.176 3.003 2.862 3.651 4.822L225.4 362.591c-1.373 4.606-.039 9.623 3.494 12.916 7.104 6.644 18.742 3.175 21.038-6.272l4.946-24.773-.942-51.253 1.806-19.972a9.448 9.448 0 00-6.006-9.604z" fill="url(#paint23_linear)"/>
        <path d="M255.388 269.984l-28.104 92.607c-1.374 4.606-.039 9.624 3.494 12.916 7.104 6.645 18.742 3.176 21.038-6.271l4.946-24.774-1.374-74.478z" fill="url(#paint24_linear)"/>
        <path d="M238.609 374.958h-.099a8.508 8.508 0 01-4.101-1.568.972.972 0 01-.216-1.372.975.975 0 011.374-.215 6.362 6.362 0 003.159 1.195c.53.059.923.549.864 1.078a.994.994 0 01-.981.882zm3.827-.568a.978.978 0 01-.903-.608.966.966 0 01.53-1.274c1.079-.451 2.021-1.137 2.728-2.019a.972.972 0 011.373-.156c.413.333.491.96.157 1.372-.902 1.136-2.119 2.018-3.513 2.587a.628.628 0 01-.372.098zm-9.99-3.763a.99.99 0 01-.883-.549 8.7 8.7 0 01-.903-3.842l.02-.431c.019-.549.392-1.019 1.02-.941.55.02.962.49.942 1.02v.352c0 1.019.236 2.058.687 2.979a.98.98 0 01-.451 1.314.83.83 0 01-.432.098zm14.719-2.078c-.078 0-.157 0-.216-.02a.96.96 0 01-.726-1.176l.883-3.821a.961.961 0 011.178-.726.96.96 0 01.726 1.176l-.883 3.822a.985.985 0 01-.962.745zm-14.582-5.507c-.098 0-.196-.02-.274-.04a.978.978 0 01-.648-1.215l1.138-3.743c.157-.51.707-.823 1.217-.647a.98.98 0 01.648 1.215l-1.139 3.744a1.008 1.008 0 01-.942.686zm16.349-2.117c-.079 0-.157 0-.216-.02a.958.958 0 01-.726-1.176l.883-3.822a.96.96 0 011.177-.725c.53.118.864.647.726 1.176l-.883 3.822c-.118.431-.51.745-.961.745zm-14.072-5.39c-.098 0-.196-.02-.275-.039a.979.979 0 01-.647-1.215l1.138-3.744a.982.982 0 011.217-.647c.51.157.804.706.647 1.215l-1.138 3.744c-.137.412-.53.686-.942.686zm15.838-2.254c-.079 0-.157 0-.216-.02a.958.958 0 01-.726-1.176l.883-3.821a.961.961 0 011.178-.726.96.96 0 01.726 1.176l-.883 3.822c-.099.431-.511.745-.962.745zm-13.561-5.253c-.099 0-.197-.019-.295-.039a.978.978 0 01-.647-1.215l1.138-3.744a.98.98 0 011.217-.646c.51.157.804.705.647 1.215l-1.138 3.743a.965.965 0 01-.922.686zm15.347-2.391c-.079 0-.157 0-.216-.019a.959.959 0 01-.726-1.176l.883-3.822a.96.96 0 011.177-.725.96.96 0 01.727 1.176l-.884 3.821a1 1 0 01-.961.745zm-13.071-5.115c-.098 0-.196-.02-.275-.039a.98.98 0 01-.647-1.216l1.138-3.763a.982.982 0 011.217-.647.98.98 0 01.647 1.216l-1.138 3.743a.976.976 0 01-.942.706zm14.837-2.509c-.078 0-.157 0-.216-.02a.959.959 0 01-.726-1.176l.883-3.821a.961.961 0 011.178-.726.96.96 0 01.726 1.176l-.883 3.822c-.118.431-.51.745-.962.745zm-12.56-4.978c-.098 0-.197-.02-.295-.039a.98.98 0 01-.647-1.216l1.138-3.743a.965.965 0 011.217-.647c.51.157.804.706.647 1.215l-1.138 3.763c-.118.392-.51.667-.922.667zm2.276-7.507a1.13 1.13 0 01-.274-.039.979.979 0 01-.648-1.215l1.138-3.763a.98.98 0 011.217-.647c.51.157.805.705.648 1.215l-1.139 3.744a1 1 0 01-.942.705zm2.277-7.507c-.098 0-.196-.019-.275-.039a.979.979 0 01-.648-1.215l1.139-3.743a.98.98 0 011.217-.647c.51.157.804.705.647 1.215l-1.138 3.744c-.137.411-.53.685-.942.685zm2.276-7.506c-.098 0-.196-.02-.274-.039a.979.979 0 01-.648-1.215l1.138-3.764a.98.98 0 011.217-.646c.51.156.805.705.648 1.215l-1.139 3.743a.999.999 0 01-.942.706zm2.277-7.507c-.098 0-.196-.019-.294-.039a.978.978 0 01-.648-1.215l1.138-3.744a.98.98 0 011.217-.646c.51.156.805.705.648 1.215l-1.139 3.763c-.117.411-.51.666-.922.666zm2.277-7.487c-.099 0-.197-.019-.295-.039a.979.979 0 01-.647-1.215l1.138-3.744a.98.98 0 011.217-.646c.51.156.804.705.647 1.215l-1.138 3.743a.965.965 0 01-.922.686z" fill="#292C3B"/>
        <path d="M259.45 16.268l-53.048 9.585.53 9.153v.254c.609 10.447 12.973 16.778 27.613 14.132 14.641-2.646 26.044-13.25 25.435-23.696 0-.079-.019-.177-.019-.255l-.511-9.173z" fill="url(#paint25_linear)"/>
        <path d="M206.854 33.79l.019.256c-.019-.079-.019-.158-.019-.256z" fill="url(#paint26_linear)"/>
        <path d="M234.428 47.372c-14.641 2.646-27.005-3.684-27.614-14.131l.099 1.764v.255c.608 10.446 12.972 16.757 27.613 14.131 14.641-2.646 26.043-13.25 25.435-23.696 0-.078-.02-.176-.02-.255l-.098-1.764c.628 10.447-10.755 21.05-25.415 23.696z" fill="url(#paint27_linear)"/>
        <path d="M259.921 24.482l-.02-.256c0 .079 0 .177.02.256z" fill="url(#paint28_linear)"/>
        <path d="M242.631 47.02c.255-.098.49-.216.726-.334l-1.393-24.009-.746.137 1.413 24.206zM245.888 45.452c.236-.137.491-.255.727-.392l-1.335-22.99-.746.137 1.354 23.245zM249.147 43.511c.255-.176.471-.353.726-.529l-1.237-21.52-.745.137 1.256 21.912zM239.315 48.195c.255-.078.49-.156.745-.235l-1.432-24.695-.746.137 1.433 24.793zM255.545 37.69l.706-.882-.961-16.542-.746.138 1.001 17.286zM258.626 32.692a14.28 14.28 0 00.647-1.744l-.647-11.29-.746.138.746 12.896zM252.365 41.003c.235-.216.491-.412.706-.627l-1.118-19.502-.746.137 1.158 19.992zM235.997 49.078c.255-.059.491-.098.746-.157l-1.452-25.048-.746.137 1.452 25.068zM232.681 49.665c.255-.039.49-.078.746-.098L231.974 24.5l-.745.137 1.452 25.028zM225.949 49.92l.746.06-1.394-24.304-.745.137 1.393 24.108zM229.324 49.96c.255 0 .491-.04.746-.06l-1.433-24.813-.745.137 1.432 24.735zM222.574 49.509l.765.117-1.354-23.362-.746.137 1.335 23.108zM208.6 40.925c.255.45.53.901.824 1.313l-.785-13.543-.745.137.706 12.093zM212.211 45.118c.255.196.53.392.785.569l-1.021-17.62-.746.137.982 16.914zM219.158 48.705c.255.078.511.157.766.215l-1.276-22.049-.746.137 1.256 21.697zM215.705 47.334l.765.352-1.158-20.207-.746.137 1.139 19.718z" fill="#FDD65B"/>
        <path d="M259.45 16.405c.609 10.447-10.794 21.05-25.435 23.696-14.64 2.646-27.004-3.685-27.613-14.131-.608-10.447 10.794-21.05 25.435-23.696 14.641-2.646 27.005 3.685 27.613 14.131z" fill="url(#paint29_linear)"/>
        <path d="M233.976 39.591c-14.346 2.587-26.455-3.43-27.535-13.465 0 .216-.019.45 0 .666.609 10.447 12.973 16.758 27.614 14.132 14.64-2.646 26.043-13.25 25.434-23.696-.019-.216-.059-.431-.078-.647.098 10.212-11.089 20.423-25.435 23.01z" fill="url(#paint30_radial)"/>
        <path d="M252.758 17.6c.451 7.801-8.067 15.74-19.018 17.719-10.951 1.98-20.194-2.744-20.646-10.564-.451-7.8 8.066-15.739 19.017-17.718 10.952-1.96 20.195 2.763 20.647 10.564z" fill="url(#paint31_linear)"/>
        <path d="M232.818 7.645c10.598-1.921 19.567 2.45 20.548 9.8 0-.256.02-.51.02-.765-.452-7.8-9.695-12.524-20.647-10.564-10.951 1.98-19.468 9.898-19.017 17.718.02.255.059.51.098.744.118-7.545 8.4-15.032 18.998-16.933z" fill="url(#paint32_radial)"/>
        <path d="M232.19 8.566c10.598-1.921 19.567 2.45 20.548 9.8 0-.256.02-.51.02-.765-.452-7.8-9.695-12.524-20.647-10.564-10.951 1.98-19.468 9.898-19.017 17.718.02.255.059.51.098.745.118-7.527 8.42-15.014 18.998-16.934z" fill="url(#paint33_linear)"/>
        <path d="M242.069 23.531l-3.539 2.065 2.159 1.26-3.338 1.947-2.159-1.26-2.259 1.318-2.704-1.577 2.259-1.318-.845-.494-2.259 1.318-2.704-1.577 2.259-1.318-7.79-4.545 6.299-3.674a12.738 12.738 0 013.861-1.487 11.758 11.758 0 014.017-.15c1.32.174 2.5.564 3.538 1.17 1.603.934 2.322 1.99 2.159 3.168-.156 1.172-1.202 2.324-3.138 3.453l-2.904 1.695.845.493 3.539-2.064 2.704 1.577zm-9.792-1.584l2.882-1.681c1.869-1.09 1.984-2.114.345-3.07a5.05 5.05 0 00-2.593-.683 5.303 5.303 0 00-2.704.721l-3.004 1.753 5.074 2.96z" fill="url(#paint34_linear)"/>
        <path d="M242.069 22.536L238.53 24.6l2.159 1.26-3.338 1.948-2.159-1.26-2.259 1.318-2.704-1.578 2.259-1.317-.845-.494-2.259 1.318-2.704-1.578 2.259-1.317-7.79-4.545 6.299-3.674a12.739 12.739 0 013.861-1.487 11.758 11.758 0 014.017-.15c1.32.174 2.5.563 3.538 1.17 1.603.934 2.322 1.99 2.159 3.167-.156 1.173-1.202 2.325-3.138 3.454l-2.904 1.695.845.493 3.539-2.064 2.704 1.577zm-9.792-1.584l2.882-1.681c1.869-1.091 1.984-2.115.345-3.071a5.05 5.05 0 00-2.593-.682 5.303 5.303 0 00-2.704.72l-3.004 1.754 5.074 2.96z" fill="url(#paint35_linear)"/>
        <path d="M183.519 92.804c-3.709 5.566-8.576 8.643-13.522 9.153-.157.019-8.458.901-8.596.921-5.024.353.157-2.822-3.729-7.899-7.85-10.192-8.046-27.674-.471-39.062 3.749-5.625-2.335-8.016 2.669-8.467.138-.02 9.244-.725 9.381-.725 4.966-.294 9.951 2.019 13.817 7.017 7.811 10.192 8.027 27.674.451 39.062z" fill="url(#paint36_linear)"/>
        <path d="M174.275 93.666c-7.575 11.388-20.096 12.368-27.927 2.176-7.85-10.192-8.046-27.674-.471-39.062 7.576-11.387 20.097-12.367 27.927-2.175 7.851 10.172 8.066 27.674.471 39.062z" fill="url(#paint37_linear)"/>
        <path d="M170.586 88.864c-5.613 8.428-14.857 9.134-20.646 1.607-5.809-7.526-5.947-20.462-.353-28.89 5.613-8.427 14.856-9.133 20.646-1.607 5.789 7.527 5.946 20.462.353 28.89z" fill="url(#paint38_linear)"/>
        <path d="M152.138 89.864c-5.809-7.526-5.947-20.462-.354-28.89 2.002-3.018 4.475-5.017 7.105-6.036-3.415.568-6.751 2.802-9.322 6.644-5.613 8.428-5.456 21.344.353 28.89 3.729 4.84 8.871 6.252 13.561 4.43-4.043.666-8.184-.961-11.343-5.038z" fill="url(#paint39_linear)"/>
        <path d="M159.408 85.287l-2.447-3.776-1.245 2.446-2.308-3.562 1.245-2.446-1.562-2.41 1.559-3.064 1.562 2.41.488-.958-1.563-2.41 1.56-3.065 1.562 2.41 4.491-8.826 4.355 6.72a14.142 14.142 0 011.838 4.164c.384 1.478.515 2.948.393 4.41-.112 1.463-.468 2.783-1.067 3.96-.924 1.815-2.03 2.667-3.319 2.554-1.284-.105-2.595-1.19-3.934-3.256l-2.008-3.1-.488.959 2.447 3.776-1.559 3.064zm1.159-10.862l1.993 3.075c1.293 1.995 2.412 2.063 3.357.205.449-.882.647-1.846.592-2.89a5.888 5.888 0 00-.939-2.934l-2.077-3.206-2.926 5.75z" fill="url(#paint40_linear)"/>
        <path d="M159.898 85.26l-2.447-3.775-1.244 2.446-2.309-3.562 1.245-2.446-1.562-2.41 1.559-3.065 1.562 2.41.488-.958-1.562-2.41 1.559-3.064 1.562 2.41 4.491-8.826 4.355 6.72a14.142 14.142 0 011.838 4.164c.384 1.477.515 2.948.393 4.41-.112 1.463-.468 2.783-1.067 3.96-.924 1.815-2.03 2.666-3.319 2.554-1.283-.105-2.595-1.19-3.933-3.257l-2.009-3.099-.487.959 2.446 3.775-1.559 3.064zm1.159-10.862l1.993 3.076c1.293 1.994 2.412 2.063 3.357.205.449-.883.647-1.846.592-2.89a5.896 5.896 0 00-.938-2.934l-2.078-3.206-2.926 5.75z" fill="url(#paint41_linear)"/>
        <path d="M183.342 54.173c-.098-.137-.196-.294-.294-.43l-.294-.354-9.303.765c.118.156.255.274.373.43.079.099.157.236.236.334l9.282-.745zM177.377 48.725l-9.381.764c.393.216.785.47 1.158.725l9.401-.784c-.393-.254-.785-.49-1.178-.705zM185.796 58.27l-9.264.764c.118.255.236.53.353.784l9.264-.764c-.118-.255-.216-.53-.353-.784zM188.72 68.286l-9.243.764c.039.275.058.549.098.804l9.243-.765c-.039-.274-.059-.529-.098-.803zM187.679 63.248l-9.263.765c.079.274.137.529.216.803l9.263-.764c-.078-.275-.137-.549-.216-.804zM189.053 73.381l-9.224.765c0 .274-.019.548-.019.823l9.224-.765c0-.274.019-.548.019-.823zM178.142 98.587l-9.087.744c-.432.334-.863.647-1.295.922l9.047-.745c.471-.275.903-.588 1.335-.921zM173.961 94.097l-.648.883 9.166-.765c.216-.274.431-.568.647-.882l-9.165.764zM185.579 89.139c.138-.294.295-.569.412-.863l-9.184.765c-.138.294-.275.568-.412.862l9.184-.764zM178.534 84.063c-.078.274-.176.568-.255.842l9.205-.764c.078-.275.176-.549.255-.843l-9.205.764zM188.582 79.221c.04-.274.099-.549.138-.823l-9.224.764c-.039.275-.098.55-.138.824l9.224-.765z" fill="#FDD65B"/>
        <path d="M183.048 53.742c-3.866-5.018-8.851-7.31-13.816-7.017-.02 0-.511.04-1.256.079 4.612.078 9.145 2.371 12.717 7.016 7.85 10.192 8.047 27.675.471 39.062-3.709 5.566-8.576 8.644-13.522 9.153-.118.02 2.198-.059 2.335-.078 4.946-.51 9.813-3.587 13.523-9.153 7.595-11.388 7.379-28.87-.452-39.062z" fill="url(#paint42_linear)"/>
        <path d="M175.08 54.449c-3.768-4.88-8.557-7.076-13.404-6.92 4.082.51 8.027 2.804 11.206 6.94 7.85 10.19 8.046 27.674.471 39.061-3.945 5.939-9.224 9.035-14.503 9.212 5.966.745 12.187-2.47 16.681-9.232 7.595-11.387 7.38-28.89-.451-39.062z" fill="url(#paint43_radial)"/>
    </g>
    <defs>
        <linearGradient id="paint22_linear" x1="181.36" y1="303.456" x2="181.36" y2="316.498" gradientUnits="userSpaceOnUse">
            <stop stop-color="#5389A8"/>
            <stop offset="1" stop-color="#183550"/>
        </linearGradient>
        <linearGradient id="paint0_linear" x1="242.314" y1="279.593" x2="255.755" y2="279.593" gradientUnits="userSpaceOnUse">
            <stop offset=".096" stop-color="#E24DC3"/>
            <stop offset=".859" stop-color="#C738B9"/>
        </linearGradient>
        <linearGradient id="paint42_linear" x1="178.763" y1="46.463" x2="182.283" y2="101.004" gradientUnits="userSpaceOnUse">
            <stop stop-color="#FFBB96"/>
            <stop offset=".227" stop-color="#FFFBC9"/>
            <stop offset=".54" stop-color="#F9B673"/>
            <stop offset=".639" stop-color="#F9B876"/>
            <stop offset=".725" stop-color="#FABE81"/>
            <stop offset=".806" stop-color="#FCC993"/>
            <stop offset=".859" stop-color="#FED2A3"/>
            <stop offset=".97" stop-color="#FFC28C"/>
        </linearGradient>
        <linearGradient id="paint3_linear" x1="1.983" y1="241.933" x2="281.45" y2="241.933" gradientUnits="userSpaceOnUse">
            <stop stop-color="#B82CB4"/>
            <stop offset=".055" stop-color="#DE4AC2"/>
            <stop offset=".071" stop-color="#E953C6"/>
            <stop offset=".131" stop-color="#C436B8"/>
            <stop offset=".288" stop-color="#B82CB4"/>
            <stop offset=".672" stop-color="#D644BF"/>
            <stop offset="1" stop-color="#EC55C7"/>
        </linearGradient>
        <linearGradient id="paint41_linear" x1="176.142" y1="95.499" x2="164.811" y2="75.788" gradientUnits="userSpaceOnUse">
            <stop offset=".035" stop-color="#FFBA78"/>
            <stop offset=".395" stop-color="#FFC987"/>
            <stop offset="1" stop-color="#FEECA8"/>
        </linearGradient>
        <linearGradient id="paint40_linear" x1="160.48" y1="62.169" x2="161.679" y2="85.178" gradientUnits="userSpaceOnUse">
            <stop stop-color="#FFBB96"/>
            <stop offset=".54" stop-color="#F9B673"/>
            <stop offset=".639" stop-color="#F9B876"/>
            <stop offset=".725" stop-color="#FABE81"/>
            <stop offset=".806" stop-color="#FCC993"/>
            <stop offset=".859" stop-color="#FED2A3"/>
            <stop offset=".97" stop-color="#FFC28C"/>
        </linearGradient>
        <linearGradient id="paint39_linear" x1="145.895" y1="90.82" x2="160.56" y2="62.031" gradientUnits="userSpaceOnUse">
            <stop stop-color="#FFBB96"/>
            <stop offset=".227" stop-color="#FFFBC9"/>
            <stop offset=".54" stop-color="#F9B673"/>
            <stop offset=".639" stop-color="#F9B876"/>
            <stop offset=".725" stop-color="#FABE81"/>
            <stop offset=".806" stop-color="#FCC993"/>
            <stop offset=".859" stop-color="#FED2A3"/>
            <stop offset=".97" stop-color="#FFC28C"/>
        </linearGradient>
        <linearGradient id="paint7_linear" x1="235.032" y1="244.089" x2="158.153" y2="259.952" gradientUnits="userSpaceOnUse">
            <stop offset=".035" stop-color="#138BBD"/>
            <stop offset=".226" stop-color="#169AC7"/>
            <stop offset=".595" stop-color="#1FC3DF"/>
            <stop offset="1" stop-color="#2AF6FF"/>
        </linearGradient>
        <linearGradient id="paint8_linear" x1="112.114" y1="117.282" x2="141.549" y2="171.043" gradientUnits="userSpaceOnUse">
            <stop stop-color="#FFBB96"/>
            <stop offset=".227" stop-color="#FFFBC9"/>
            <stop offset=".54" stop-color="#F9B673"/>
            <stop offset=".639" stop-color="#F9B876"/>
            <stop offset=".725" stop-color="#FABE81"/>
            <stop offset=".806" stop-color="#FCC993"/>
            <stop offset=".859" stop-color="#FED2A3"/>
            <stop offset=".97" stop-color="#FFC28C"/>
        </linearGradient>
        <linearGradient id="paint9_linear" x1="115.664" y1="176.245" x2="120.835" y2="129.881" gradientUnits="userSpaceOnUse">
            <stop offset=".035" stop-color="#FFBA78"/>
            <stop offset=".395" stop-color="#FFC987"/>
            <stop offset="1" stop-color="#FEECA8"/>
        </linearGradient>
        <linearGradient id="paint10_linear" x1="123.722" y1="124.611" x2="106.122" y2="209.79" gradientUnits="userSpaceOnUse">
            <stop offset=".035" stop-color="#FFBA78"/>
            <stop offset=".395" stop-color="#FFC987"/>
            <stop offset="1" stop-color="#FEECA8"/>
        </linearGradient>
        <linearGradient id="paint11_linear" x1="115.629" y1="168.894" x2="119.247" y2="136.451" gradientUnits="userSpaceOnUse">
            <stop stop-color="#FFBB96"/>
            <stop offset=".227" stop-color="#FFFBC9"/>
            <stop offset=".54" stop-color="#F9B673"/>
            <stop offset=".639" stop-color="#F9B876"/>
            <stop offset=".725" stop-color="#FABE81"/>
            <stop offset=".806" stop-color="#FCC993"/>
            <stop offset=".859" stop-color="#FED2A3"/>
            <stop offset=".97" stop-color="#FFC28C"/>
        </linearGradient>
        <linearGradient id="paint12_linear" x1="111.565" y1="136.681" x2="123.023" y2="156.545" gradientUnits="userSpaceOnUse">
            <stop stop-color="#FFBB96"/>
            <stop offset=".54" stop-color="#F9B673"/>
            <stop offset=".639" stop-color="#F9B876"/>
            <stop offset=".725" stop-color="#FABE81"/>
            <stop offset=".806" stop-color="#FCC993"/>
            <stop offset=".859" stop-color="#FED2A3"/>
            <stop offset=".97" stop-color="#FFC28C"/>
        </linearGradient>
        <linearGradient id="paint13_linear" x1="140.529" y1="159.157" x2="121.568" y2="146.798" gradientUnits="userSpaceOnUse">
            <stop offset=".035" stop-color="#FFBA78"/>
            <stop offset=".395" stop-color="#FFC987"/>
            <stop offset="1" stop-color="#FEECA8"/>
        </linearGradient>
        <linearGradient id="paint14_linear" x1="118.374" y1="113.852" x2="147.619" y2="167.266" gradientUnits="userSpaceOnUse">
            <stop stop-color="#FFBB96"/>
            <stop offset=".227" stop-color="#FFFBC9"/>
            <stop offset=".54" stop-color="#F9B673"/>
            <stop offset=".639" stop-color="#F9B876"/>
            <stop offset=".725" stop-color="#FABE81"/>
            <stop offset=".806" stop-color="#FCC993"/>
            <stop offset=".859" stop-color="#FED2A3"/>
            <stop offset=".97" stop-color="#FFC28C"/>
        </linearGradient>
        <linearGradient id="paint38_linear" x1="178.03" y1="57.308" x2="131.033" y2="131.629" gradientUnits="userSpaceOnUse">
            <stop offset=".035" stop-color="#FFBA78"/>
            <stop offset=".395" stop-color="#FFC987"/>
            <stop offset="1" stop-color="#FEECA8"/>
        </linearGradient>
        <linearGradient id="paint37_linear" x1="141.893" y1="96.892" x2="162.851" y2="55.75" gradientUnits="userSpaceOnUse">
            <stop offset=".035" stop-color="#FFBA78"/>
            <stop offset=".395" stop-color="#FFC987"/>
            <stop offset="1" stop-color="#FEECA8"/>
        </linearGradient>
        <linearGradient id="paint36_linear" x1="170.827" y1="46.977" x2="174.369" y2="101.872" gradientUnits="userSpaceOnUse">
            <stop stop-color="#FFBB96"/>
            <stop offset=".227" stop-color="#FFFBC9"/>
            <stop offset=".54" stop-color="#F9B673"/>
            <stop offset=".639" stop-color="#F9B876"/>
            <stop offset=".725" stop-color="#FABE81"/>
            <stop offset=".806" stop-color="#FCC993"/>
            <stop offset=".859" stop-color="#FED2A3"/>
            <stop offset=".97" stop-color="#FFC28C"/>
        </linearGradient>
        <linearGradient id="paint18_linear" x1="214.977" y1="256.445" x2="1.58" y2="256.445" gradientUnits="userSpaceOnUse">
            <stop offset=".096" stop-color="#2D6686"/>
            <stop offset=".859" stop-color="#205586"/>
            <stop offset=".97" stop-color="#5093B9"/>
            <stop offset="1" stop-color="#4499D6"/>
        </linearGradient>
        <linearGradient id="paint19_linear" x1="186.222" y1="294.041" x2="186.222" y2="319.851" gradientUnits="userSpaceOnUse">
            <stop stop-color="#1B4A64"/>
            <stop offset="1" stop-color="#405A80"/>
        </linearGradient>
        <linearGradient id="paint20_linear" x1="183.834" y1="295.589" x2="183.834" y2="320.385" gradientUnits="userSpaceOnUse">
            <stop stop-color="#537FA8"/>
            <stop offset=".734" stop-color="#183550"/>
            <stop offset="1" stop-color="#406180"/>
        </linearGradient>
        <linearGradient id="paint21_linear" x1="183.274" y1="301.978" x2="183.274" y2="316.226" gradientUnits="userSpaceOnUse">
            <stop stop-color="#1B4A64"/>
            <stop offset="1" stop-color="#405A80"/>
        </linearGradient>
        <linearGradient id="paint35_linear" x1="252.119" y1="8.121" x2="233.623" y2="17.394" gradientUnits="userSpaceOnUse">
            <stop offset=".035" stop-color="#FFBA78"/>
            <stop offset=".395" stop-color="#FFC987"/>
            <stop offset="1" stop-color="#FEECA8"/>
        </linearGradient>
        <linearGradient id="paint23_linear" x1="255.724" y1="321.287" x2="224.891" y2="321.287" gradientUnits="userSpaceOnUse">
            <stop offset=".096" stop-color="#5F94BA"/>
            <stop offset=".776" stop-color="#95B7D7"/>
        </linearGradient>
        <linearGradient id="paint24_linear" x1="256.712" y1="324.463" x2="226.774" y2="324.463" gradientUnits="userSpaceOnUse">
            <stop offset=".096" stop-color="#2D6686"/>
            <stop offset=".859" stop-color="#205586"/>
            <stop offset=".97" stop-color="#5093B9"/>
            <stop offset="1" stop-color="#4499D6"/>
        </linearGradient>
        <linearGradient id="paint25_linear" x1="207.46" y1="39.968" x2="260.039" y2="36.937" gradientUnits="userSpaceOnUse">
            <stop stop-color="#FFBB96"/>
            <stop offset=".227" stop-color="#FFFBC9"/>
            <stop offset=".54" stop-color="#F9B673"/>
            <stop offset=".639" stop-color="#F9B876"/>
            <stop offset=".725" stop-color="#FABE81"/>
            <stop offset=".806" stop-color="#FCC993"/>
            <stop offset=".859" stop-color="#FED2A3"/>
            <stop offset=".97" stop-color="#FFC28C"/>
        </linearGradient>
        <linearGradient id="paint26_linear" x1="206.856" y1="33.925" x2="206.865" y2="33.925" gradientUnits="userSpaceOnUse">
            <stop stop-color="#FFBB96"/>
            <stop offset=".227" stop-color="#FFFBC9"/>
            <stop offset=".54" stop-color="#F9B673"/>
            <stop offset=".639" stop-color="#F9B876"/>
            <stop offset=".725" stop-color="#FABE81"/>
            <stop offset=".806" stop-color="#FCC993"/>
            <stop offset=".859" stop-color="#FED2A3"/>
            <stop offset=".97" stop-color="#FFC28C"/>
        </linearGradient>
        <linearGradient id="paint27_linear" x1="207.673" y1="43.667" x2="260.252" y2="40.637" gradientUnits="userSpaceOnUse">
            <stop stop-color="#FFBB96"/>
            <stop offset=".227" stop-color="#FFFBC9"/>
            <stop offset=".54" stop-color="#F9B673"/>
            <stop offset=".639" stop-color="#F9B876"/>
            <stop offset=".725" stop-color="#FABE81"/>
            <stop offset=".806" stop-color="#FCC993"/>
            <stop offset=".859" stop-color="#FED2A3"/>
            <stop offset=".97" stop-color="#FFC28C"/>
        </linearGradient>
        <linearGradient id="paint28_linear" x1="259.897" y1="24.353" x2="259.906" y2="24.352" gradientUnits="userSpaceOnUse">
            <stop stop-color="#FFBB96"/>
            <stop offset=".227" stop-color="#FFFBC9"/>
            <stop offset=".54" stop-color="#F9B673"/>
            <stop offset=".639" stop-color="#F9B876"/>
            <stop offset=".725" stop-color="#FABE81"/>
            <stop offset=".806" stop-color="#FCC993"/>
            <stop offset=".859" stop-color="#FED2A3"/>
            <stop offset=".97" stop-color="#FFC28C"/>
        </linearGradient>
        <linearGradient id="paint29_linear" x1="278.452" y1="-48.042" x2="218.506" y2="13.874" gradientUnits="userSpaceOnUse">
            <stop offset=".035" stop-color="#FFBA78"/>
            <stop offset=".395" stop-color="#FFC987"/>
            <stop offset="1" stop-color="#FEECA8"/>
        </linearGradient>
        <linearGradient id="paint34_linear" x1="221.162" y1="21.44" x2="242.078" y2="21.44" gradientUnits="userSpaceOnUse">
            <stop stop-color="#FFBB96"/>
            <stop offset=".54" stop-color="#F9B673"/>
            <stop offset=".639" stop-color="#F9B876"/>
            <stop offset=".725" stop-color="#FABE81"/>
            <stop offset=".806" stop-color="#FCC993"/>
            <stop offset=".859" stop-color="#FED2A3"/>
            <stop offset=".97" stop-color="#FFC28C"/>
        </linearGradient>
        <linearGradient id="paint31_linear" x1="252.723" y1="-8.92" x2="207.912" y2="37.364" gradientUnits="userSpaceOnUse">
            <stop offset=".035" stop-color="#FFBA78"/>
            <stop offset=".395" stop-color="#FFC987"/>
            <stop offset="1" stop-color="#FEECA8"/>
        </linearGradient>
        <linearGradient id="paint33_linear" x1="259.265" y1="-20.558" x2="216.977" y2="23.121" gradientUnits="userSpaceOnUse">
            <stop stop-color="#FFBB96"/>
            <stop offset=".227" stop-color="#FFFBC9"/>
            <stop offset=".54" stop-color="#F9B673"/>
            <stop offset=".639" stop-color="#F9B876"/>
            <stop offset=".725" stop-color="#FABE81"/>
            <stop offset=".806" stop-color="#FCC993"/>
            <stop offset=".859" stop-color="#FED2A3"/>
            <stop offset=".97" stop-color="#FFC28C"/>
        </linearGradient>
        <radialGradient id="paint6_radial" cx="0" cy="0" r="1" gradientUnits="userSpaceOnUse" gradientTransform="matrix(253.981 0 0 253.643 77.167 265.201)">
            <stop stop-color="#A3BBD0"/>
            <stop offset="1" stop-color="#fff"/>
        </radialGradient>
        <radialGradient id="paint32_radial" cx="0" cy="0" r="1" gradientUnits="userSpaceOnUse" gradientTransform="matrix(14.6657 -2.64723 3.1714 17.56957 241.366 4.015)">
            <stop stop-color="#fff"/>
            <stop offset="1" stop-color="#FFFBC9"/>
        </radialGradient>
        <radialGradient id="paint1_radial" cx="0" cy="0" r="1" gradientUnits="userSpaceOnUse" gradientTransform="matrix(28.0095 0 0 27.9723 250.08 288.746)">
            <stop stop-color="#83ACCA"/>
            <stop offset="1" stop-color="#fff"/>
        </radialGradient>
        <radialGradient id="paint17_radial" cx="0" cy="0" r="1" gradientUnits="userSpaceOnUse" gradientTransform="matrix(136.582 0 0 136.4 119.395 240.432)">
            <stop stop-color="#fff"/>
            <stop offset="1" stop-color="#5794C9"/>
        </radialGradient>
        <radialGradient id="paint16_radial" cx="0" cy="0" r="1" gradientUnits="userSpaceOnUse" gradientTransform="matrix(129.112 0 0 128.941 123.311 253.542)">
            <stop stop-color="#7091B8"/>
            <stop offset="1" stop-color="#fff"/>
        </radialGradient>
        <radialGradient id="paint15_radial" cx="0" cy="0" r="1" gradientUnits="userSpaceOnUse" gradientTransform="matrix(23.587 0 0 23.5557 125.918 138.185)">
            <stop stop-color="#fff"/>
            <stop offset="1" stop-color="#FFFBC9"/>
        </radialGradient>
        <radialGradient id="paint30_radial" cx="0" cy="0" r="1" gradientUnits="userSpaceOnUse" gradientTransform="matrix(33.33972 -6.01799 7.20958 39.94113 222.324 37.154)">
            <stop stop-color="#fff"/>
            <stop offset="1" stop-color="#FFFBC9"/>
        </radialGradient>
        <radialGradient id="paint5_radial" cx="0" cy="0" r="1" gradientUnits="userSpaceOnUse" gradientTransform="matrix(110.544 0 0 110.397 214.515 263.524)">
            <stop stop-color="#551841"/>
            <stop offset=".046" stop-color="#4A1539"/>
            <stop offset=".183" stop-color="#2F0D24"/>
            <stop offset=".332" stop-color="#1A0714"/>
            <stop offset=".499" stop-color="#0B0309"/>
            <stop offset=".696" stop-color="#030102"/>
            <stop offset="1"/>
        </radialGradient>
        <radialGradient id="paint4_radial" cx="0" cy="0" r="1" gradientUnits="userSpaceOnUse" gradientTransform="matrix(119.502 0 0 119.344 214.515 261.523)">
            <stop stop-color="#551841"/>
            <stop offset=".046" stop-color="#4A1539"/>
            <stop offset=".183" stop-color="#2F0D24"/>
            <stop offset=".332" stop-color="#1A0714"/>
            <stop offset=".499" stop-color="#0B0309"/>
            <stop offset=".696" stop-color="#030102"/>
            <stop offset="1"/>
        </radialGradient>
        <radialGradient id="paint2_radial" cx="0" cy="0" r="1" gradientUnits="userSpaceOnUse" gradientTransform="matrix(174.147 0 0 173.915 210.628 149.446)">
            <stop stop-color="#551841"/>
            <stop offset=".046" stop-color="#4A1539"/>
            <stop offset=".183" stop-color="#2F0D24"/>
            <stop offset=".332" stop-color="#1A0714"/>
            <stop offset=".499" stop-color="#0B0309"/>
            <stop offset=".696" stop-color="#030102"/>
            <stop offset="1"/>
        </radialGradient>
        <radialGradient id="paint43_radial" cx="0" cy="0" r="1" gradientUnits="userSpaceOnUse" gradientTransform="rotate(20.911 -101.444 502.595) scale(24.4191 22.753)">
            <stop stop-color="#fff"/>
            <stop offset="1" stop-color="#FFFBC9"/>
        </radialGradient>
        <clipPath id="clip0">
            <path fill="#fff" d="M0 0h260v416H0z"/>
        </clipPath>
    </defs>
</svg>
