<svg width="316" height="298" fill="none" xmlns="http://www.w3.org/2000/svg">
    <g filter="url(#filter0_d)">
        <path d="M175.741 136.288H4v24.233h.057c-.057.229-.057.458-.057.688 0 27.67 38.457 50.071 85.899 50.071s85.899-22.401 85.899-50.071c0-.23 0-.459-.057-.688h.057v-24.233h-.057z" fill="url(#paint0_linear)"/>
        <path d="M89.899 205.951C42.457 205.951 4 183.494 4 155.88v4.641h.057c-.057.229-.057.458-.057.687 0 27.671 38.457 50.071 85.899 50.071s85.899-22.4 85.899-50.071c0-.229 0-.458-.057-.687h.057v-4.641c-.057 27.614-38.514 50.071-85.9 50.071z" fill="url(#paint1_linear)"/>
        <path d="M175.741 158v-.688h-.057c.057.23.057.459.057.688z" fill="url(#paint2_linear)"/>
        <path d="M116.166 208.876l2.404-.516v-63.591h-2.404v64.107zM126.982 206.355l2.404-.687v-60.899h-2.404v61.586zM137.741 202.802c.859-.344 1.603-.688 2.404-1.031v-56.946h-2.404v57.977zM105.407 210.423c.801-.058 1.603-.172 2.404-.23v-65.424h-2.404v65.654zM159.316 190.599c.802-.63 1.66-1.317 2.404-2.005v-43.769h-2.404v45.774zM170.132 178.912a34.855 34.855 0 002.403-4.239v-29.848h-2.403v34.087zM148.558 197.704c.801-.458 1.659-.859 2.403-1.317v-51.618h-2.403v52.935zM94.592 211.167c.801 0 1.602-.057 2.403-.057v-66.341h-2.403v66.398zM83.833 211.11c.801.057 1.602.057 2.404.057v-66.398h-2.404v66.341zM62.258 208.589l2.403.516v-64.336h-2.403v63.82zM73.017 210.308c.8.115 1.602.115 2.403.229v-65.768h-2.403v65.539zM51.441 205.954l2.404.687v-61.872h-2.404v61.185zM8.292 176.794c.744 1.317 1.488 2.578 2.404 3.838v-35.863H8.292v32.025zM19.108 189.568c.744.63 1.603 1.26 2.404 1.891v-46.634h-2.404v44.743zM40.683 202.23c.8.344 1.602.63 2.403.974v-58.435h-2.403v57.461zM29.867 197.017c.801.458 1.603.859 2.404 1.26v-53.508h-2.404v52.248z" fill="#FDD65B"/>
        <path d="M89.899 186.704c47.441 0 85.899-22.418 85.899-50.071 0-27.654-38.458-50.071-85.9-50.071C42.459 86.562 4 108.979 4 136.633c0 27.653 38.458 50.071 85.899 50.071z" fill="url(#paint3_linear)"/>
        <path d="M89.899 185.327c-46.412 0-84.125-21.484-85.727-48.295-.058.573-.172 1.146-.172 1.718 0 27.671 38.457 50.072 85.899 50.072s85.899-22.401 85.899-50.072c0-.572-.115-1.145-.172-1.718-1.602 26.811-39.315 48.295-85.727 48.295z" fill="url(#paint4_radial)"/>
        <path d="M154.051 136.633c0 20.681-28.728 37.41-64.21 37.41-35.48 0-64.151-16.729-64.151-37.41 0-20.682 28.728-37.41 64.209-37.41s64.152 16.728 64.152 37.41z" fill="url(#paint5_linear)"/>
        <path d="M92.016 101.056c34.28 0 62.207 15.698 64.038 35.405.057-.687.172-1.317.172-2.005 0-20.681-28.729-37.41-64.21-37.41-35.481 0-64.21 16.786-64.21 37.41 0 .688.115 1.318.172 2.005 1.832-19.707 29.759-35.405 64.038-35.405z" fill="url(#paint6_radial)"/>
        <path d="M89.899 103.233c34.279 0 62.207 15.697 64.038 35.405.057-.688.172-1.318.172-2.005 0-20.682-28.729-37.41-64.21-37.41-35.481 0-64.21 16.728-64.21 37.41 0 .687.115 1.317.172 2.005 1.774-19.708 29.701-35.405 64.038-35.405z" fill="url(#paint7_linear)"/>
        <path d="M134.994 88.395c19.286 6.588 32.277 19.65 29.072 29.218-3.262 9.567-21.518 11.973-40.804 5.442-19.285-6.588-32.276-19.65-29.071-29.218 3.204-9.567 21.517-12.03 40.803-5.442z" fill="url(#paint8_radial)"/>
        <path d="M94.82 124.888c-1.602.286-3.261.687-4.978 1.146-1.488.343-3.033.859-4.75 1.375-1.66.572-3.32 1.145-4.807 1.833l5.15 2.979c.516-.229 1.088-.401 1.66-.63a12.48 12.48 0 001.889-.688c2.918-1.031 5.665-1.89 8.298-2.578a54.831 54.831 0 017.325-1.432c2.289-.229 4.464-.172 6.524.172 2.06.344 4.063 1.088 5.951 2.177 2.232 1.318 3.663 2.692 4.293 4.182.572 1.49.629 2.979 0 4.526-.573 1.489-1.66 3.036-3.205 4.526-1.545 1.489-3.377 2.922-5.494 4.239l6.924 4.01-5.78 3.323-7.039-4.067c-3.548 1.776-7.382 3.38-11.445 4.812a92.674 92.674 0 01-11.846 3.323l-3.72-9.167c1.946-.401 3.949-.802 6.009-1.374 1.774-.459 3.662-.974 5.837-1.662a57.833 57.833 0 006.066-2.349l-5.036-2.922c-1.774.688-3.662 1.318-5.55 1.948-2.862.974-5.495 1.719-7.841 2.235-2.346.515-4.464.859-6.467.916a20.754 20.754 0 01-5.436-.401c-1.66-.343-3.205-.974-4.693-1.833-2.06-1.203-3.434-2.521-4.178-3.896-.744-1.432-.916-2.864-.572-4.411.343-1.547 1.144-3.036 2.46-4.64 1.317-1.547 2.977-3.037 5.037-4.469l-5.78-3.323 5.78-3.323 5.837 3.38c1.717-.802 3.49-1.604 5.322-2.291a99.945 99.945 0 015.38-1.891c1.774-.573 3.49-1.031 5.093-1.489 1.66-.459 3.147-.86 4.52-1.203l3.263 8.937zm-19.342 9.223c.572.344 1.259.459 2.117.401.859-.057 1.889-.286 3.148-.687l-4.35-2.521c-1.716 1.203-2.06 2.12-.915 2.807zm27.526 4.584c-.515-.287-1.316-.401-2.289-.287-.973.115-2.117.344-3.376.745l4.235 2.463c1.087-.687 1.717-1.317 1.888-1.776.229-.515.057-.859-.458-1.145z" fill="url(#paint9_linear)"/>
        <path d="M94.82 122.709c-1.602.287-3.262.688-4.979 1.146-1.487.344-3.033.802-4.75 1.375-1.66.573-3.319 1.146-4.807 1.833l5.15 2.979c.516-.229 1.088-.401 1.66-.63.63-.172 1.26-.401 1.889-.687 2.919-1.032 5.665-1.891 8.298-2.578a54.84 54.84 0 017.325-1.433c2.289-.229 4.464-.172 6.524.172 2.06.344 4.063 1.089 5.952 2.177 2.232 1.318 3.662 2.693 4.292 4.182.572 1.49.629 2.979 0 4.526-.572 1.49-1.66 3.037-3.205 4.526-1.545 1.49-3.376 2.922-5.494 4.24l6.925 4.01-5.78 3.323-7.039-4.068c-3.548 1.776-7.383 3.38-11.446 4.812a92.51 92.51 0 01-11.846 3.323l-3.72-9.166c1.946-.401 3.949-.802 6.01-1.375 1.773-.458 3.662-.974 5.837-1.662a58.06 58.06 0 006.066-2.348l-5.036-2.922c-1.775.687-3.663 1.317-5.552 1.948-2.86.974-5.493 1.718-7.84 2.234-2.346.516-4.464.859-6.467.917a20.84 20.84 0 01-5.436-.401c-1.66-.344-3.205-.974-4.693-1.834-2.003-1.088-3.376-2.406-4.12-3.838-.744-1.432-.916-2.865-.572-4.411.343-1.547 1.144-3.037 2.46-4.584 1.317-1.546 2.976-3.036 5.036-4.468l-5.78-3.323 5.78-3.323 5.838 3.38c1.716-.802 3.49-1.604 5.322-2.291a99.884 99.884 0 015.38-1.891c1.773-.573 3.49-1.031 5.093-1.489 1.66-.459 3.147-.86 4.52-1.203l3.205 8.822zm-19.343 9.224c.572.344 1.26.458 2.118.401.858-.057 1.888-.287 3.147-.688l-4.35-2.52c-1.716 1.26-2.06 2.177-.915 2.807zm27.527 4.64c-.515-.286-1.316-.401-2.289-.286a18.17 18.17 0 00-3.377.745l4.235 2.463c1.087-.687 1.717-1.318 1.889-1.776.229-.516.057-.859-.458-1.146z" fill="url(#paint10_linear)"/>
        <path d="M94.82 122.709c-1.602.287-3.262.688-4.979 1.146-1.487.344-3.033.802-4.75 1.375-1.66.573-3.319 1.146-4.807 1.833l5.15 2.979c.516-.229 1.088-.401 1.66-.63.63-.172 1.26-.401 1.889-.687 2.919-1.032 5.665-1.891 8.298-2.578a54.84 54.84 0 017.325-1.433c2.289-.229 4.464-.172 6.524.172 2.06.344 4.063 1.089 5.952 2.177 2.232 1.318 3.662 2.693 4.292 4.182.572 1.49.629 2.979 0 4.526-.572 1.49-1.66 3.037-3.205 4.526-1.545 1.49-3.376 2.922-5.494 4.24l6.925 4.01-5.78 3.323-7.039-4.068c-3.548 1.776-7.383 3.38-11.446 4.812a92.51 92.51 0 01-11.846 3.323l-3.72-9.166c1.946-.401 3.949-.802 6.01-1.375 1.773-.458 3.662-.974 5.837-1.662a58.06 58.06 0 006.066-2.348l-5.036-2.922c-1.775.687-3.663 1.317-5.552 1.948-2.86.974-5.493 1.718-7.84 2.234-2.346.516-4.464.859-6.467.917a20.84 20.84 0 01-5.436-.401c-1.66-.344-3.205-.974-4.693-1.834-2.003-1.088-3.376-2.406-4.12-3.838-.744-1.432-.916-2.865-.572-4.411.343-1.547 1.144-3.037 2.46-4.584 1.317-1.546 2.976-3.036 5.036-4.468l-5.78-3.323 5.78-3.323 5.838 3.38c1.716-.802 3.49-1.604 5.322-2.291a99.884 99.884 0 015.38-1.891c1.773-.573 3.49-1.031 5.093-1.489 1.66-.459 3.147-.86 4.52-1.203l3.205 8.822zm-19.343 9.224c.572.344 1.26.458 2.118.401.858-.057 1.888-.287 3.147-.688l-4.35-2.52c-1.716 1.26-2.06 2.177-.915 2.807zm27.527 4.64c-.515-.286-1.316-.401-2.289-.286a18.17 18.17 0 00-3.377.745l4.235 2.463c1.087-.687 1.717-1.318 1.889-1.776.229-.516.057-.859-.458-1.146z" fill="url(#paint11_radial)"/>
        <path d="M175.741 109.136H4v24.233h.057c-.057.287-.057.516-.057.745 0 27.671 38.457 50.071 85.899 50.071s85.899-22.4 85.899-50.071c0-.229 0-.458-.057-.687h.057v-24.291h-.057z" fill="url(#paint12_linear)"/>
        <path d="M89.899 178.8C42.457 178.8 4 156.399 4 128.728v4.641h.057c-.057.286-.057.516-.057.745 0 27.671 38.457 50.071 85.899 50.071s85.899-22.4 85.899-50.071c0-.229 0-.459-.057-.688h.057v-4.64c-.057 27.613-38.514 50.014-85.9 50.014z" fill="url(#paint13_linear)"/>
        <path d="M175.741 130.904v-.687h-.057c.057.229.057.458.057.687z" fill="url(#paint14_linear)"/>
        <path d="M116.166 181.719l2.404-.515v-63.592h-2.404v64.107zM126.982 179.197l2.404-.687v-60.842h-2.404v61.529zM137.741 175.645c.859-.343 1.603-.687 2.404-1.031v-56.946h-2.404v57.977zM105.407 183.322c.801-.057 1.603-.172 2.404-.229v-65.425h-2.404v65.654zM159.316 163.443c.802-.63 1.66-1.318 2.404-2.005v-43.77h-2.404v45.775zM170.132 151.812a34.791 34.791 0 002.403-4.24v-29.847h-2.403v34.087zM148.558 170.604c.801-.458 1.659-.859 2.403-1.318v-51.618h-2.403v52.936zM94.592 184.01c.801 0 1.602-.058 2.403-.058v-66.284h-2.403v66.342zM83.833 183.952c.801.058 1.602.058 2.404.058v-66.342h-2.404v66.284zM62.258 181.432l2.403.515v-64.279h-2.403v63.764zM73.017 183.15c.8.115 1.602.115 2.403.23v-65.712h-2.403v65.482zM51.441 178.796l2.404.688v-61.816h-2.404v61.128zM8.292 149.694c.744 1.317 1.488 2.578 2.404 3.838v-35.863H8.292v32.025zM19.108 162.412c.744.63 1.603 1.26 2.404 1.89v-46.634h-2.404v44.744zM40.683 175.073c.8.343 1.602.63 2.403.974v-58.379h-2.403v57.405zM29.867 169.86c.801.459 1.603.86 2.404 1.261v-53.509h-2.404v52.248z" fill="#FDD65B"/>
        <path d="M89.899 159.552c47.441 0 85.899-22.417 85.899-50.071 0-27.653-38.458-50.071-85.9-50.071C42.459 59.41 4 81.828 4 109.48c0 27.654 38.458 50.071 85.899 50.071z" fill="url(#paint15_linear)"/>
        <path d="M89.899 158.231c-46.412 0-84.125-21.483-85.727-48.295-.058.516-.172 1.089-.172 1.719 0 27.671 38.457 50.071 85.899 50.071s85.899-22.4 85.899-50.071c0-.573-.115-1.146-.172-1.719-1.602 26.812-39.315 48.295-85.727 48.295z" fill="url(#paint16_radial)"/>
        <path d="M154.051 109.481c0 20.681-28.728 37.41-64.21 37.41-35.48 0-64.151-16.729-64.151-37.41 0-20.682 28.728-37.41 64.209-37.41s64.152 16.728 64.152 37.41z" fill="url(#paint17_linear)"/>
        <path d="M92.016 73.96c34.28 0 62.207 15.698 64.038 35.406.057-.688.172-1.318.172-2.005 0-20.682-28.729-37.41-64.21-37.41-35.481 0-64.21 16.728-64.21 37.41 0 .687.115 1.317.172 2.005 1.832-19.765 29.759-35.405 64.038-35.405z" fill="url(#paint18_radial)"/>
        <path d="M89.899 76.081c34.279 0 62.207 15.697 64.038 35.405.057-.688.172-1.318.172-2.005 0-20.682-28.729-37.41-64.21-37.41-35.481 0-64.21 16.728-64.21 37.41 0 .687.115 1.317.172 2.005C27.635 91.778 55.562 76.081 89.9 76.081z" fill="url(#paint19_linear)"/>
        <path d="M134.994 61.24c19.286 6.59 32.277 19.651 29.072 29.219-3.262 9.567-21.518 11.973-40.804 5.442-19.285-6.588-32.276-19.65-29.071-29.218 3.204-9.567 21.517-11.973 40.803-5.442z" fill="url(#paint20_radial)"/>
        <path d="M94.82 97.735c-1.602.286-3.261.687-4.978 1.146-1.488.344-3.033.802-4.75 1.375-1.66.573-3.32 1.145-4.807 1.833l5.15 2.979c.516-.229 1.088-.401 1.66-.63a12.48 12.48 0 001.889-.688c2.918-1.031 5.665-1.89 8.298-2.578a54.973 54.973 0 017.325-1.432c2.289-.23 4.464-.172 6.524.172 2.06.344 4.063 1.088 5.951 2.177 2.232 1.318 3.663 2.693 4.293 4.182.572 1.49.629 2.979 0 4.526-.573 1.49-1.66 3.036-3.205 4.526-1.545 1.489-3.377 2.922-5.494 4.239l6.924 4.011-5.78 3.322-7.039-4.067c-3.548 1.776-7.382 3.38-11.445 4.812a92.674 92.674 0 01-11.846 3.323l-3.72-9.166c1.946-.401 3.949-.802 6.009-1.375 1.774-.459 3.662-.974 5.837-1.662a57.833 57.833 0 006.066-2.349l-5.036-2.921c-1.774.687-3.662 1.317-5.55 1.947-2.862.974-5.495 1.719-7.841 2.235-2.346.515-4.464.859-6.467.916a20.754 20.754 0 01-5.436-.401c-1.66-.343-3.205-.974-4.693-1.833-2.06-1.203-3.434-2.521-4.178-3.896-.744-1.432-.916-2.864-.572-4.411.343-1.547 1.144-3.036 2.46-4.64 1.317-1.547 2.977-3.037 5.037-4.469l-5.666-3.266 5.78-3.322 5.837 3.38c1.717-.802 3.491-1.604 5.323-2.292a100.341 100.341 0 015.379-1.89c1.774-.573 3.49-1.032 5.093-1.49 1.66-.458 3.148-.86 4.521-1.203l3.148 8.88zm-19.342 9.224c.572.343 1.259.458 2.117.401.859-.058 1.889-.287 3.148-.688l-4.35-2.521c-1.716 1.203-2.06 2.177-.915 2.808zm27.526 4.583c-.515-.287-1.316-.401-2.289-.287-.973.115-2.117.344-3.376.745l4.235 2.464c1.087-.688 1.717-1.318 1.888-1.776.229-.459.057-.86-.458-1.146z" fill="url(#paint21_linear)"/>
        <path d="M94.82 95.616c-1.602.286-3.261.687-4.978 1.146-1.488.343-3.033.859-4.75 1.374-1.66.573-3.32 1.146-4.807 1.834l5.15 2.979c.516-.229 1.088-.401 1.66-.63a12.48 12.48 0 001.889-.688c2.918-1.031 5.665-1.89 8.298-2.578a54.835 54.835 0 017.325-1.432c2.289-.23 4.464-.172 6.524.172 2.06.343 4.063 1.088 5.951 2.177 2.232 1.317 3.663 2.692 4.293 4.182.572 1.489.629 2.979 0 4.526-.573 1.489-1.66 3.036-3.205 4.526-1.545 1.489-3.377 2.921-5.494 4.239l6.924 4.01-5.78 3.323-7.039-4.067c-3.548 1.776-7.382 3.38-11.445 4.812a92.674 92.674 0 01-11.846 3.323l-3.72-9.167c1.946-.401 3.949-.802 6.009-1.375a109.69 109.69 0 005.837-1.661 57.833 57.833 0 006.066-2.349l-5.036-2.922c-1.774.688-3.662 1.318-5.55 1.948-2.862.974-5.495 1.719-7.841 2.235-2.346.515-4.464.859-6.467.916a20.754 20.754 0 01-5.436-.401c-1.66-.344-3.205-.974-4.693-1.833-2.06-1.203-3.434-2.521-4.178-3.896-.744-1.432-.916-2.864-.572-4.411.343-1.547 1.144-3.036 2.46-4.641 1.317-1.546 2.977-3.036 5.037-4.468l-5.78-3.323 5.78-3.323 5.837 3.38c1.717-.802 3.49-1.604 5.322-2.291a100.286 100.286 0 015.38-1.89c1.774-.574 3.49-1.032 5.093-1.49 1.66-.459 3.147-.86 4.52-1.203l3.263 8.937zm-19.342 9.223c.572.344 1.259.459 2.117.401.859-.057 1.889-.286 3.148-.687l-4.35-2.521c-1.716 1.203-2.06 2.12-.915 2.807zm27.526 4.584c-.515-.287-1.316-.401-2.289-.287-.973.115-2.117.344-3.376.745l4.235 2.463c1.087-.687 1.717-1.317 1.888-1.776.229-.515.057-.859-.458-1.145z" fill="url(#paint22_linear)"/>
        <path d="M94.82 95.616c-1.602.286-3.261.687-4.978 1.146-1.488.343-3.033.859-4.75 1.374-1.66.573-3.32 1.146-4.807 1.834l5.15 2.979c.516-.229 1.088-.401 1.66-.63a12.48 12.48 0 001.889-.688c2.918-1.031 5.665-1.89 8.298-2.578a54.835 54.835 0 017.325-1.432c2.289-.23 4.464-.172 6.524.172 2.06.343 4.063 1.088 5.951 2.177 2.232 1.317 3.663 2.692 4.293 4.182.572 1.489.629 2.979 0 4.526-.573 1.489-1.66 3.036-3.205 4.526-1.545 1.489-3.377 2.921-5.494 4.239l6.924 4.01-5.78 3.323-7.039-4.067c-3.548 1.776-7.382 3.38-11.445 4.812a92.674 92.674 0 01-11.846 3.323l-3.72-9.167c1.946-.401 3.949-.802 6.009-1.375a109.69 109.69 0 005.837-1.661 57.833 57.833 0 006.066-2.349l-5.036-2.922c-1.774.688-3.662 1.318-5.55 1.948-2.862.974-5.495 1.719-7.841 2.235-2.346.515-4.464.859-6.467.916a20.754 20.754 0 01-5.436-.401c-1.66-.344-3.205-.974-4.693-1.833-2.06-1.203-3.434-2.521-4.178-3.896-.744-1.432-.916-2.864-.572-4.411.343-1.547 1.144-3.036 2.46-4.641 1.317-1.546 2.977-3.036 5.037-4.468l-5.78-3.323 5.78-3.323 5.837 3.38c1.717-.802 3.49-1.604 5.322-2.291a100.286 100.286 0 015.38-1.89c1.774-.574 3.49-1.032 5.093-1.49 1.66-.459 3.147-.86 4.52-1.203l3.263 8.937zm-19.342 9.223c.572.344 1.259.459 2.117.401.859-.057 1.889-.286 3.148-.687l-4.35-2.521c-1.716 1.203-2.06 2.12-.915 2.807zm27.526 4.584c-.515-.287-1.316-.401-2.289-.287-.973.115-2.117.344-3.376.745l4.235 2.463c1.087-.687 1.717-1.317 1.888-1.776.229-.515.057-.859-.458-1.145z" fill="url(#paint23_radial)"/>
        <path d="M175.741 80.603H4v24.234h.057c-.057.229-.057.458-.057.687 0 27.671 38.457 50.071 85.899 50.071s85.899-22.4 85.899-50.071c0-.229 0-.458-.057-.687h.057V80.603h-.057z" fill="url(#paint24_linear)"/>
        <path d="M89.899 150.21C42.457 150.21 4 127.81 4 100.196v4.64h.057c-.057.23-.057.459-.057.688 0 27.671 38.457 50.071 85.899 50.071s85.899-22.4 85.899-50.071c0-.229 0-.458-.057-.688h.057v-4.64c-.057 27.614-38.514 50.014-85.9 50.014z" fill="url(#paint25_linear)"/>
        <path d="M175.741 102.316v-.688h-.057c.057.229.057.459.057.688z" fill="url(#paint26_linear)"/>
        <path d="M116.166 153.191l2.404-.515V89.084h-2.404v64.107zM126.982 150.613l2.404-.687V89.084h-2.404v61.529zM137.741 147.118c.859-.344 1.603-.688 2.404-1.032V89.141h-2.404v57.977zM105.407 154.738c.801-.057 1.603-.172 2.404-.229V89.084h-2.404v65.654zM159.316 134.915c.802-.63 1.66-1.318 2.404-2.005V89.14h-2.404v45.775zM170.132 123.228a34.791 34.791 0 002.403-4.24V89.141h-2.403v34.087zM148.558 142.02c.801-.458 1.659-.859 2.403-1.318V89.084h-2.403v52.936zM94.592 155.483c.801 0 1.602-.057 2.403-.057V89.084h-2.403v66.399zM83.833 155.426c.801.057 1.602.057 2.404.057V89.084h-2.404v66.342zM62.258 152.905l2.403.516V89.084h-2.403v63.821zM73.017 154.624c.8.114 1.602.114 2.403.229V89.084h-2.403v65.54zM51.441 150.27l2.404.687V89.084h-2.404v61.186zM8.292 121.109c.744 1.318 1.488 2.578 2.404 3.839V89.084H8.292v32.025zM19.108 133.828c.744.63 1.603 1.26 2.404 1.89V89.084h-2.404v44.744zM40.683 146.546c.8.344 1.602.63 2.403.974V89.084h-2.403v57.462zM29.867 141.333c.801.458 1.603.859 2.404 1.26V89.084h-2.404v52.249z" fill="#FDD65B"/>
        <path d="M89.899 131.02c47.441 0 85.899-22.418 85.899-50.072 0-27.653-38.458-50.07-85.9-50.07C42.459 30.877 4 53.294 4 80.947c0 27.654 38.458 50.072 85.899 50.072z" fill="url(#paint27_linear)"/>
        <path d="M89.899 129.643c-46.412 0-84.125-21.484-85.727-48.296-.058.573-.172 1.146-.172 1.72 0 27.67 38.457 50.07 85.899 50.07s85.899-22.4 85.899-50.07c0-.574-.115-1.147-.172-1.72-1.602 26.812-39.315 48.296-85.727 48.296z" fill="url(#paint28_radial)"/>
        <path d="M154.051 80.948c0 20.682-28.728 37.41-64.21 37.41-35.48 0-64.151-16.785-64.151-37.41 0-20.624 28.728-37.41 64.209-37.41s64.152 16.729 64.152 37.41z" fill="url(#paint29_linear)"/>
        <path d="M92.016 45.372c34.28 0 62.207 15.697 64.038 35.405.057-.687.172-1.318.172-2.005 0-20.682-28.729-37.41-64.21-37.41-35.481 0-64.21 16.728-64.21 37.41 0 .687.115 1.318.172 2.005 1.832-19.708 29.759-35.405 64.038-35.405z" fill="url(#paint30_radial)"/>
        <path d="M89.899 47.492c34.279 0 62.207 15.698 64.038 35.405.057-.687.172-1.317.172-2.005 0-20.681-28.729-37.41-64.21-37.41-35.481 0-64.21 16.729-64.21 37.41 0 .688.115 1.318.172 2.005C27.635 63.19 55.562 47.492 89.9 47.492z" fill="url(#paint31_linear)"/>
        <path d="M134.994 32.71c19.286 6.588 32.277 19.65 29.072 29.217-3.262 9.568-21.518 11.974-40.804 5.443-19.285-6.589-32.276-19.65-29.071-29.218 3.204-9.625 21.517-12.03 40.803-5.442z" fill="url(#paint32_radial)"/>
        <path d="M94.82 69.147c-1.602.287-3.261.688-4.978 1.146-1.488.344-3.033.86-4.75 1.375-1.66.573-3.32 1.146-4.807 1.833l5.15 2.98c.516-.23 1.088-.401 1.66-.63a12.52 12.52 0 001.889-.688c2.918-1.031 5.665-1.89 8.298-2.578a54.818 54.818 0 017.325-1.432c2.289-.23 4.464-.172 6.524.171 2.06.344 4.063 1.089 5.951 2.177 2.232 1.318 3.663 2.693 4.293 4.183.572 1.49.629 2.979 0 4.526-.573 1.489-1.66 3.036-3.205 4.525-1.545 1.49-3.377 2.922-5.494 4.24l6.924 4.01-5.78 3.323-7.039-4.068c-3.548 1.776-7.382 3.38-11.445 4.813a92.603 92.603 0 01-11.846 3.322l-3.72-9.166c1.946-.4 3.949-.802 6.009-1.375 1.774-.458 3.662-.974 5.837-1.661a58.077 58.077 0 006.066-2.35l-5.036-2.92c-1.774.687-3.662 1.317-5.55 1.947-2.862.974-5.495 1.719-7.841 2.234-2.346.516-4.464.86-6.467.917a20.784 20.784 0 01-5.436-.401c-1.66-.344-3.205-.974-4.693-1.833-2.06-1.203-3.434-2.521-4.178-3.896-.744-1.432-.916-2.865-.572-4.411.343-1.547 1.144-3.037 2.46-4.64 1.317-1.548 2.977-3.037 5.037-4.47l-5.78-3.322 5.78-3.323 5.837 3.38c1.717-.802 3.49-1.604 5.322-2.292a100.372 100.372 0 015.38-1.89c1.774-.573 3.49-1.089 5.093-1.49 1.66-.458 3.147-.859 4.52-1.203l3.263 8.937zm-19.342 9.224c.572.344 1.259.458 2.117.401.859-.057 1.889-.286 3.148-.687l-4.35-2.521c-1.716 1.26-2.06 2.177-.915 2.807zm27.526 4.64c-.515-.286-1.316-.4-2.289-.286a18.22 18.22 0 00-3.376.745l4.235 2.463c1.087-.687 1.717-1.317 1.888-1.776.229-.515.057-.859-.458-1.145z" fill="url(#paint33_linear)"/>
        <path d="M94.82 67.026c-1.602.287-3.261.688-4.978 1.146-1.488.344-3.033.802-4.75 1.375-1.66.573-3.32 1.146-4.807 1.833l5.15 2.98c.516-.23 1.088-.402 1.66-.631a12.51 12.51 0 001.889-.688c2.918-1.03 5.665-1.89 8.298-2.578a54.818 54.818 0 017.325-1.432c2.289-.229 4.464-.172 6.524.172 2.06.344 4.063 1.088 5.951 2.177 2.232 1.318 3.663 2.693 4.293 4.182.572 1.49.629 2.98 0 4.526-.573 1.49-1.66 3.036-3.205 4.526-1.545 1.49-3.377 2.922-5.494 4.24l6.924 4.01-5.78 3.322-7.039-4.067c-3.548 1.776-7.382 3.38-11.445 4.812a92.623 92.623 0 01-11.846 3.323l-3.72-9.166c1.946-.401 3.949-.802 6.009-1.375 1.774-.459 3.662-.974 5.837-1.662a58.099 58.099 0 006.066-2.349l-5.036-2.921c-1.774.687-3.662 1.317-5.55 1.947-2.862.974-5.495 1.72-7.841 2.235-2.346.515-4.464.86-6.467.916a20.784 20.784 0 01-5.436-.4c-1.66-.344-3.205-.975-4.693-1.834-2.06-1.203-3.434-2.52-4.178-3.895-.744-1.433-.916-2.865-.572-4.412.343-1.547 1.144-3.036 2.46-4.583 1.317-1.547 2.977-3.036 5.037-4.469l-5.78-3.322 5.78-3.323 5.837 3.38c1.717-.802 3.49-1.604 5.322-2.292a100.285 100.285 0 015.38-1.89c1.774-.573 3.49-1.032 5.093-1.49 1.66-.458 3.147-.86 4.52-1.203l3.263 8.88zM75.479 76.25c.572.343 1.259.458 2.117.4.859-.057 1.889-.286 3.148-.687l-4.35-2.52c-1.716 1.26-2.06 2.177-.915 2.807zm27.526 4.583c-.515-.287-1.316-.401-2.289-.287a18.22 18.22 0 00-3.376.745l4.235 2.464c1.087-.688 1.717-1.318 1.888-1.776.229-.459.057-.86-.458-1.146z" fill="url(#paint34_linear)"/>
        <path d="M94.82 67.026c-1.602.287-3.261.688-4.978 1.146-1.488.344-3.033.802-4.75 1.375-1.66.573-3.32 1.146-4.807 1.833l5.15 2.98c.516-.23 1.088-.402 1.66-.631a12.51 12.51 0 001.889-.688c2.918-1.03 5.665-1.89 8.298-2.578a54.818 54.818 0 017.325-1.432c2.289-.229 4.464-.172 6.524.172 2.06.344 4.063 1.088 5.951 2.177 2.232 1.318 3.663 2.693 4.293 4.182.572 1.49.629 2.98 0 4.526-.573 1.49-1.66 3.036-3.205 4.526-1.545 1.49-3.377 2.922-5.494 4.24l6.924 4.01-5.78 3.322-7.039-4.067c-3.548 1.776-7.382 3.38-11.445 4.812a92.623 92.623 0 01-11.846 3.323l-3.72-9.166c1.946-.401 3.949-.802 6.009-1.375 1.774-.459 3.662-.974 5.837-1.662a58.099 58.099 0 006.066-2.349l-5.036-2.921c-1.774.687-3.662 1.317-5.55 1.947-2.862.974-5.495 1.72-7.841 2.235-2.346.515-4.464.86-6.467.916a20.784 20.784 0 01-5.436-.4c-1.66-.344-3.205-.975-4.693-1.834-2.06-1.203-3.434-2.52-4.178-3.895-.744-1.433-.916-2.865-.572-4.412.343-1.547 1.144-3.036 2.46-4.583 1.317-1.547 2.977-3.036 5.037-4.469l-5.78-3.322 5.78-3.323 5.837 3.38c1.717-.802 3.49-1.604 5.322-2.292a100.285 100.285 0 015.38-1.89c1.774-.573 3.49-1.032 5.093-1.49 1.66-.458 3.147-.86 4.52-1.203l3.263 8.88zM75.479 76.25c.572.343 1.259.458 2.117.4.859-.057 1.889-.286 3.148-.687l-4.35-2.52c-1.716 1.26-2.06 2.177-.915 2.807zm27.526 4.583c-.515-.287-1.316-.401-2.289-.287a18.22 18.22 0 00-3.376.745l4.235 2.464c1.087-.688 1.717-1.318 1.888-1.776.229-.459.057-.86-.458-1.146z" fill="url(#paint35_radial)"/>
        <path d="M175.741 51.56H4v24.234h.057C4 76.081 4 76.31 4 76.54c0 27.671 38.457 50.071 85.899 50.071s85.899-22.4 85.899-50.071c0-.23 0-.458-.057-.688h.057v-24.29h-.057z" fill="url(#paint36_linear)"/>
        <path d="M89.899 121.224C42.457 121.224 4 98.824 4 71.154v4.64h.057C4 76.08 4 76.309 4 76.539c0 27.67 38.457 50.071 85.899 50.071s85.899-22.401 85.899-50.071c0-.23 0-.459-.057-.688h.057v-4.64c-.057 27.613-38.514 50.013-85.9 50.013z" fill="url(#paint37_linear)"/>
        <path d="M175.741 73.33v-.688h-.057c.057.229.057.458.057.687z" fill="url(#paint38_linear)"/>
        <path d="M116.166 124.144l2.404-.515V60.037h-2.404v64.107zM126.982 121.622l2.404-.687V60.093h-2.404v61.529zM137.741 118.07c.859-.343 1.603-.687 2.404-1.031V60.093h-2.404v57.977zM105.407 125.747c.801-.057 1.603-.172 2.404-.229V60.093h-2.404v65.654zM159.316 105.868c.802-.631 1.66-1.318 2.404-2.005v-43.77h-2.404v45.775zM170.132 94.237a34.837 34.837 0 002.403-4.24V60.15h-2.403v34.088zM148.558 113.029c.801-.458 1.659-.859 2.403-1.318V60.093h-2.403v52.936zM94.592 126.435c.801 0 1.602-.058 2.403-.058V60.093h-2.403v66.342zM83.833 126.377c.801.058 1.602.058 2.404.058V60.093h-2.404v66.284zM62.258 123.857l2.403.515V60.093h-2.403v63.764zM73.017 125.633c.8.114 1.602.114 2.403.229V60.093h-2.403v65.54zM51.441 121.221l2.404.688V60.093h-2.404v61.128zM8.292 92.118c.744 1.318 1.488 2.579 2.404 3.839V60.094H8.292v32.024zM19.108 104.836c.744.631 1.603 1.261 2.404 1.891V60.093h-2.404v44.743zM40.683 117.497c.8.344 1.602.631 2.403.974V60.093h-2.403v57.404zM29.867 112.285c.801.459 1.603.86 2.404 1.261V60.037h-2.404v52.248z" fill="#FDD65B"/>
        <path d="M89.899 101.977c47.441 0 85.899-22.418 85.899-50.071 0-27.654-38.458-50.071-85.9-50.071C42.459 1.835 4 24.252 4 51.905c0 27.654 38.458 50.072 85.899 50.072z" fill="url(#paint39_linear)"/>
        <path d="M89.899 100.656c-46.412 0-84.125-21.483-85.727-48.295C4.114 52.877 4 53.45 4 54.08c0 27.67 38.457 50.071 85.899 50.071s85.899-22.4 85.899-50.071c0-.573-.115-1.146-.172-1.719-1.602 26.812-39.315 48.295-85.727 48.295z" fill="url(#paint40_radial)"/>
        <path d="M154.051 51.906c0 20.681-28.728 37.41-64.21 37.41-35.48 0-64.151-16.729-64.151-37.41 0-20.682 28.728-37.41 64.209-37.41s64.152 16.728 64.152 37.41z" fill="url(#paint41_linear)"/>
        <path d="M92.016 16.386c34.28 0 62.207 15.697 64.038 35.405.057-.688.172-1.318.172-2.006 0-20.681-28.729-37.41-64.21-37.41-35.481 0-64.21 16.729-64.21 37.41 0 .688.115 1.318.172 2.006 1.832-19.708 29.759-35.405 64.038-35.405z" fill="url(#paint42_radial)"/>
        <path d="M89.899 18.506c34.279 0 62.207 15.697 64.038 35.405.057-.688.172-1.318.172-2.005 0-20.682-28.729-37.41-64.21-37.41-35.481 0-64.21 16.728-64.21 37.41 0 .687.115 1.317.172 2.005C27.635 34.203 55.562 18.506 89.9 18.506z" fill="url(#paint43_linear)"/>
        <path d="M119 56.576l-11.164 6.362 6.811 3.88-10.532 6.002-6.81-3.881-7.127 4.06-8.531-4.86 7.126-4.061-2.668-1.52-7.126 4.06-8.531-4.86 7.127-4.062L53 43.693l19.87-11.322a40.815 40.815 0 0112.182-4.581c4.283-.867 8.508-1.02 12.673-.46 4.166.533 7.888 1.733 11.164 3.6 5.056 2.881 7.326 6.135 6.811 9.763-.491 3.614-3.791 7.161-9.9 10.642l-9.163 5.221 2.668 1.52 11.164-6.36 8.531 4.86zm-30.894-4.88l9.093-5.182c5.898-3.36 6.261-6.515 1.088-9.462-2.457-1.4-5.184-2.1-8.18-2.1-3.019-.014-5.862.726-8.53 2.22l-9.48 5.401 16.01 9.122z" fill="url(#paint44_linear)"/>
        <path d="M119 55.576l-11.164 6.362 6.811 3.88-10.532 6.002-6.81-3.881-7.127 4.06-8.531-4.86 7.126-4.061-2.668-1.52-7.126 4.06-8.531-4.86 7.127-4.062L53 42.693l19.87-11.322a40.815 40.815 0 0112.182-4.581c4.283-.867 8.508-1.02 12.673-.46 4.166.533 7.888 1.733 11.164 3.6 5.056 2.881 7.326 6.135 6.811 9.763-.491 3.614-3.791 7.161-9.9 10.642l-9.163 5.221 2.668 1.52 11.164-6.36 8.531 4.86zm-30.894-4.88l9.093-5.182c5.898-3.36 6.261-6.515 1.088-9.462-2.457-1.4-5.184-2.1-8.18-2.1-3.019-.014-5.862.726-8.53 2.22l-9.48 5.401 16.01 9.122z" fill="url(#paint45_linear)"/>
        <path d="M312 172.098H140.202v24.234h.057c0 .229-.057.458-.057.687 0 27.671 38.457 50.071 85.899 50.071S312 224.69 312 197.019c0-.229 0-.458-.057-.687H312v-24.234z" fill="url(#paint46_linear)"/>
        <path d="M140.202 193.179v.688c0-.229.057-.459 0-.688z" fill="url(#paint47_linear)"/>
        <path d="M226.101 241.762c-47.442 0-85.899-22.4-85.899-50.071v4.64h.057c0 .229-.057.459-.057.688 0 27.671 38.457 50.071 85.899 50.071S312 224.69 312 197.019c0-.229 0-.459-.057-.688H312v-4.64c0 27.671-38.457 50.071-85.899 50.071z" fill="url(#paint48_linear)"/>
        <path d="M312 193.867v-.688h-.058c0 .229.058.459.058.688z" fill="url(#paint49_linear)"/>
        <path d="M252.426 244.738l2.403-.516v-63.591h-2.403v64.107zM263.185 242.16l2.403-.688v-60.841h-2.403v61.529zM274.001 238.608c.858-.344 1.602-.688 2.404-1.031v-56.946h-2.404v57.977zM241.609 246.285c.802-.058 1.603-.172 2.404-.23v-65.424h-2.404v65.654zM295.575 226.405c.801-.63 1.66-1.318 2.404-2.005v-43.769h-2.404v45.774zM306.334 214.774a34.864 34.864 0 002.404-4.239v-29.848h-2.404v34.087zM284.76 233.566c.801-.458 1.659-.859 2.403-1.317v-51.618h-2.403v52.935zM230.851 246.972c.801 0 1.602-.057 2.403-.057v-66.284h-2.403v66.341zM220.035 246.972c.801.057 1.603.057 2.404.057v-66.398h-2.404v66.341zM198.46 244.451l2.404.516v-64.336h-2.404v63.82zM209.276 246.17c.802.115 1.603.115 2.404.229v-65.768h-2.404v65.539zM187.644 241.816l2.403.688v-61.873h-2.403v61.185zM144.494 212.656c.744 1.318 1.488 2.578 2.404 3.838v-35.863h-2.404v32.025zM155.311 225.374c.744.63 1.602 1.26 2.403 1.89v-46.633h-2.403v44.743zM176.885 238.035c.801.344 1.602.63 2.403.974v-58.378h-2.403v57.404zM166.069 232.823c.802.458 1.603.859 2.404 1.26v-53.508h-2.404v52.248z" fill="#FDD65B"/>
        <path d="M226.101 222.515c47.441 0 85.899-22.418 85.899-50.072 0-27.653-38.458-50.071-85.899-50.071s-85.899 22.418-85.899 50.071c0 27.654 38.458 50.072 85.899 50.072z" fill="url(#paint50_linear)"/>
        <path d="M226.101 221.194c-46.412 0-84.125-21.484-85.727-48.295-.057.572-.172 1.145-.172 1.718 0 27.671 38.457 50.071 85.899 50.071S312 202.288 312 174.617c0-.573-.114-1.146-.172-1.718-1.602 26.811-39.315 48.295-85.727 48.295z" fill="url(#paint51_radial)"/>
        <path d="M226.101 209.853c35.462 0 64.21-16.749 64.21-37.41 0-20.661-28.748-37.41-64.21-37.41-35.462 0-64.209 16.749-64.209 37.41 0 20.661 28.747 37.41 64.209 37.41z" fill="url(#paint52_linear)"/>
        <path d="M228.218 136.923c34.28 0 62.207 15.697 64.038 35.405.058-.687.172-1.318.172-2.005 0-20.682-28.728-37.41-64.21-37.41-35.481 0-64.209 16.728-64.209 37.41 0 .687.114 1.318.171 2.005 1.832-19.708 29.759-35.405 64.038-35.405z" fill="url(#paint53_radial)"/>
        <path d="M226.101 139.043c34.28 0 62.207 15.698 64.038 35.405.057-.687.172-1.317.172-2.005 0-20.681-28.729-37.41-64.21-37.41-35.481 0-64.209 16.729-64.209 37.41 0 .688.114 1.318.171 2.005 1.832-19.707 29.759-35.405 64.038-35.405z" fill="url(#paint54_linear)"/>
        <path d="M271.196 124.261c19.286 6.588 32.277 19.65 29.072 29.217-3.262 9.568-21.518 11.974-40.803 5.443-19.286-6.589-32.277-19.651-29.072-29.218 3.205-9.625 21.518-12.031 40.803-5.442z" fill="url(#paint55_radial)"/>
        <path d="M231.08 160.696c-1.603.287-3.262.688-4.979 1.146-1.488.344-3.033.802-4.75 1.375-1.66.573-3.319 1.146-4.807 1.833l5.15 2.979c.515-.229 1.088-.401 1.66-.63a12.577 12.577 0 001.888-.687c2.919-1.032 5.666-1.891 8.298-2.578a54.843 54.843 0 017.326-1.433c2.289-.229 4.463-.172 6.524.172 2.06.344 4.063 1.089 5.951 2.177 2.232 1.318 3.663 2.693 4.292 4.182.573 1.49.63 2.979 0 4.526-.572 1.49-1.659 3.037-3.204 4.526-1.546 1.49-3.377 2.922-5.494 4.24l6.924 4.01-5.78 3.437-7.039-4.067c-3.548 1.776-7.382 3.38-11.445 4.812a92.689 92.689 0 01-11.847 3.323l-3.719-9.167c1.945-.401 3.948-.802 6.009-1.375 1.716-.458 3.662-.973 5.837-1.661a57.915 57.915 0 006.066-2.349l-5.036-2.922c-1.774.688-3.663 1.318-5.551 1.948-2.862.974-5.494 1.719-7.84 2.235-2.347.515-4.464.859-6.467.916a20.757 20.757 0 01-5.437-.401c-1.659-.344-3.204-.974-4.692-1.833-2.061-1.203-3.434-2.521-4.178-3.896-.744-1.432-.916-2.864-.572-4.411.343-1.547 1.144-3.036 2.46-4.641 1.317-1.546 2.976-3.036 5.037-4.468l-5.781-3.323 5.781-3.323 5.837 3.38c1.717-.802 3.491-1.604 5.322-2.291a99.902 99.902 0 015.379-1.891c1.774-.573 3.491-1.031 5.094-1.489 1.659-.459 3.147-.86 4.521-1.203l3.262 8.822zm-19.401 9.224c.573.344 1.259.458 2.118.401.858-.057 1.888-.287 3.147-.688l-4.349-2.52c-1.717 1.26-2.06 2.177-.916 2.807zm27.584 4.583c-.515-.286-1.316-.401-2.289-.286-.973.114-2.117.343-3.376.744l4.234 2.464c1.088-.688 1.717-1.318 1.889-1.776.172-.458 0-.802-.458-1.146z" fill="url(#paint56_linear)"/>
        <path d="M231.08 158.577c-1.603.287-3.262.688-4.979 1.146-1.488.344-3.033.859-4.75 1.375-1.66.573-3.319 1.146-4.807 1.833l5.15 2.979c.515-.229 1.088-.401 1.66-.63a12.474 12.474 0 001.888-.688c2.919-1.031 5.666-1.89 8.298-2.578a54.992 54.992 0 017.326-1.432c2.289-.229 4.463-.172 6.524.172 2.06.344 4.063 1.089 5.951 2.177 2.232 1.318 3.663 2.693 4.292 4.182.573 1.49.63 2.979 0 4.526-.572 1.49-1.659 3.036-3.204 4.526-1.546 1.49-3.377 2.922-5.494 4.239l6.867 4.068-5.723 3.323-7.039-4.068c-3.548 1.776-7.382 3.38-11.445 4.813a92.68 92.68 0 01-11.847 3.322l-3.719-9.166c1.945-.401 3.948-.802 6.009-1.375 1.716-.458 3.662-.974 5.837-1.661a58.361 58.361 0 006.066-2.349l-5.036-2.922c-1.774.688-3.663 1.318-5.551 1.948-2.862.974-5.494 1.719-7.84 2.234-2.347.516-4.464.86-6.467.917a20.8 20.8 0 01-5.437-.401c-1.659-.344-3.204-.974-4.692-1.833-2.061-1.204-3.434-2.521-4.178-3.896-.744-1.432-.916-2.865-.572-4.411.343-1.547 1.144-3.037 2.46-4.641 1.317-1.547 2.976-3.036 5.037-4.469l-5.781-3.322 5.781-3.323 5.837 3.38c1.717-.802 3.491-1.604 5.322-2.292a100.76 100.76 0 015.379-1.89c1.774-.573 3.491-1.089 5.094-1.49a197.35 197.35 0 014.521-1.203l3.262 8.88zm-19.401 9.224c.573.343 1.259.458 2.118.401.858-.058 1.888-.287 3.147-.688l-4.349-2.52c-1.717 1.203-2.06 2.177-.916 2.807zm27.584 4.583c-.515-.287-1.316-.401-2.289-.287-.973.115-2.117.344-3.376.745l4.234 2.464c1.088-.688 1.717-1.318 1.889-1.776.172-.459 0-.86-.458-1.146z" fill="url(#paint57_linear)"/>
        <path d="M231.08 158.577c-1.603.287-3.262.688-4.979 1.146-1.488.344-3.033.859-4.75 1.375-1.66.573-3.319 1.146-4.807 1.833l5.15 2.979c.515-.229 1.088-.401 1.66-.63a12.474 12.474 0 001.888-.688c2.919-1.031 5.666-1.89 8.298-2.578a54.992 54.992 0 017.326-1.432c2.289-.229 4.463-.172 6.524.172 2.06.344 4.063 1.089 5.951 2.177 2.232 1.318 3.663 2.693 4.292 4.182.573 1.49.63 2.979 0 4.526-.572 1.49-1.659 3.036-3.204 4.526-1.546 1.49-3.377 2.922-5.494 4.239l6.867 4.068-5.723 3.323-7.039-4.068c-3.548 1.776-7.382 3.38-11.445 4.813a92.68 92.68 0 01-11.847 3.322l-3.719-9.166c1.945-.401 3.948-.802 6.009-1.375 1.716-.458 3.662-.974 5.837-1.661a58.361 58.361 0 006.066-2.349l-5.036-2.922c-1.774.688-3.663 1.318-5.551 1.948-2.862.974-5.494 1.719-7.84 2.234-2.347.516-4.464.86-6.467.917a20.8 20.8 0 01-5.437-.401c-1.659-.344-3.204-.974-4.692-1.833-2.061-1.204-3.434-2.521-4.178-3.896-.744-1.432-.916-2.865-.572-4.411.343-1.547 1.144-3.037 2.46-4.641 1.317-1.547 2.976-3.036 5.037-4.469l-5.781-3.322 5.781-3.323 5.837 3.38c1.717-.802 3.491-1.604 5.322-2.292a100.76 100.76 0 015.379-1.89c1.774-.573 3.491-1.089 5.094-1.49a197.35 197.35 0 014.521-1.203l3.262 8.88zm-19.401 9.224c.573.343 1.259.458 2.118.401.858-.058 1.888-.287 3.147-.688l-4.349-2.52c-1.717 1.203-2.06 2.177-.916 2.807zm27.584 4.583c-.515-.287-1.316-.401-2.289-.287-.973.115-2.117.344-3.376.745l4.234 2.464c1.088-.688 1.717-1.318 1.889-1.776.172-.459 0-.86-.458-1.146z" fill="url(#paint58_radial)"/>
        <path d="M312 144.998H140.202v24.234h.057c0 .229-.057.458-.057.687 0 27.671 38.457 50.071 85.899 50.071S312 197.59 312 169.919c0-.229 0-.458-.057-.687H312v-24.234z" fill="url(#paint59_linear)"/>
        <path d="M140.202 166.023v.687c0-.229.057-.458 0-.687z" fill="url(#paint60_linear)"/>
        <path d="M226.101 214.662c-47.442 0-85.899-22.4-85.899-50.071v4.64h.057c0 .229-.057.458-.057.688 0 27.67 38.457 50.071 85.899 50.071S312 197.589 312 169.919c0-.23 0-.459-.057-.688H312v-4.64c0 27.613-38.457 50.071-85.899 50.071z" fill="url(#paint61_linear)"/>
        <path d="M312 166.71v-.687h-.058c0 .229.058.458.058.687z" fill="url(#paint62_linear)"/>
        <path d="M252.426 217.586l2.403-.515v-63.592h-2.403v64.107zM263.185 215.008l2.403-.687v-60.842h-2.403v61.529zM274.001 211.512c.858-.343 1.602-.687 2.404-1.031v-56.946h-2.404v57.977zM241.609 219.133c.802-.057 1.603-.172 2.404-.229v-65.425h-2.404v65.654zM295.575 199.31c.801-.631 1.66-1.318 2.404-2.005v-43.77h-2.404v45.775zM306.334 187.623a34.875 34.875 0 002.404-4.24v-29.848h-2.404v34.088zM284.76 206.415c.801-.459 1.659-.86 2.403-1.318v-51.618h-2.403v52.936zM230.851 219.878c.801 0 1.602-.058 2.403-.058v-66.341h-2.403v66.399zM220.035 219.82c.801.058 1.603.058 2.404.058v-66.399h-2.404v66.341zM198.46 217.3l2.404.515v-64.336h-2.404V217.3zM209.276 219.018c.802.115 1.603.115 2.404.23v-65.769h-2.404v65.539zM187.644 214.664l2.403.688v-61.873h-2.403v61.185zM144.494 185.504c.744 1.318 1.488 2.578 2.404 3.838v-35.863h-2.404v32.025zM155.311 198.278c.744.631 1.602 1.261 2.403 1.891v-46.634h-2.403v44.743zM176.885 210.941c.801.343 1.602.63 2.403.973v-58.435h-2.403v57.462zM166.069 205.727c.802.458 1.603.86 2.404 1.261v-53.509h-2.404v52.248z" fill="#FDD65B"/>
        <path d="M226.101 195.414c47.441 0 85.899-22.417 85.899-50.071 0-27.653-38.458-50.07-85.899-50.07s-85.899 22.417-85.899 50.07c0 27.654 38.458 50.071 85.899 50.071z" fill="url(#paint63_linear)"/>
        <path d="M226.101 194.037c-46.412 0-84.125-21.483-85.727-48.295-.057.573-.172 1.146-.172 1.719 0 27.671 38.457 50.071 85.899 50.071S312 175.132 312 147.461c0-.573-.114-1.146-.172-1.719-1.602 26.812-39.315 48.295-85.727 48.295z" fill="url(#paint64_radial)"/>
        <path d="M290.311 145.343c0 20.682-28.729 37.41-64.21 37.41-35.481 0-64.209-16.728-64.209-37.41 0-20.682 28.728-37.41 64.209-37.41s64.21 16.728 64.21 37.41z" fill="url(#paint65_linear)"/>
        <path d="M228.218 109.767c34.28 0 62.207 15.697 64.038 35.405.058-.688.172-1.318.172-2.005 0-20.682-28.728-37.411-64.21-37.411-35.481 0-64.209 16.729-64.209 37.411 0 .687.114 1.317.171 2.005 1.832-19.708 29.759-35.405 64.038-35.405z" fill="url(#paint66_radial)"/>
        <path d="M226.101 111.943c34.28 0 62.207 15.698 64.038 35.405.057-.687.172-1.318.172-2.005 0-20.682-28.729-37.41-64.21-37.41-35.481 0-64.209 16.728-64.209 37.41 0 .687.114 1.318.171 2.005 1.832-19.765 29.759-35.405 64.038-35.405z" fill="url(#paint67_linear)"/>
        <path d="M271.197 97.105c19.286 6.589 32.276 19.651 29.072 29.218-3.262 9.567-21.575 12.031-40.861 5.443-19.286-6.589-32.277-19.651-29.072-29.218 3.262-9.567 21.575-12.03 40.861-5.443z" fill="url(#paint68_radial)"/>
        <path d="M231.08 133.597c-1.603.287-3.262.688-4.979 1.146-1.488.344-3.033.859-4.75 1.375-1.66.573-3.319 1.146-4.807 1.833l5.15 2.979c.515-.229 1.088-.401 1.66-.63a12.577 12.577 0 001.888-.687c2.919-1.032 5.666-1.891 8.298-2.578a54.843 54.843 0 017.326-1.433c2.289-.229 4.463-.172 6.524.172 2.06.344 4.063 1.089 5.951 2.177 2.232 1.318 3.663 2.693 4.292 4.182.573 1.49.63 2.979 0 4.526-.572 1.49-1.659 3.037-3.204 4.526-1.546 1.49-3.377 2.922-5.494 4.239l6.924 4.011-5.78 3.38-7.039-4.068c-3.548 1.776-7.382 3.38-11.445 4.813a92.68 92.68 0 01-11.847 3.322l-3.719-9.166c1.945-.401 3.948-.802 6.009-1.375 1.716-.458 3.662-.974 5.837-1.661a58.361 58.361 0 006.066-2.349l-5.036-2.922c-1.774.688-3.663 1.318-5.551 1.948-2.862.974-5.494 1.719-7.84 2.234-2.347.516-4.464.86-6.467.917a20.8 20.8 0 01-5.437-.401c-1.659-.344-3.204-.974-4.692-1.833-2.061-1.204-3.434-2.521-4.178-3.896-.744-1.432-.916-2.865-.572-4.411.343-1.547 1.144-3.037 2.46-4.641 1.317-1.547 2.976-3.036 5.037-4.468l-5.781-3.323 5.781-3.323 5.837 3.38c1.717-.802 3.491-1.604 5.322-2.292a100.76 100.76 0 015.379-1.89c1.774-.573 3.491-1.031 5.094-1.49a197.35 197.35 0 014.521-1.203l3.262 8.88zm-19.401 9.167c.573.343 1.259.458 2.118.401.858-.058 1.888-.287 3.147-.688l-4.349-2.521c-1.717 1.261-2.06 2.177-.916 2.808zm27.584 4.64c-.515-.286-1.316-.401-2.289-.286-.973.114-2.117.343-3.376.744l4.234 2.464c1.088-.688 1.717-1.318 1.889-1.776.172-.516 0-.86-.458-1.146z" fill="url(#paint69_linear)"/>
        <path d="M231.08 131.421c-1.603.286-3.262.687-4.979 1.145-1.488.344-3.033.803-4.75 1.375-1.66.573-3.319 1.146-4.807 1.834l5.15 2.979c.515-.229 1.088-.401 1.66-.63a12.474 12.474 0 001.888-.688c2.919-1.031 5.666-1.89 8.298-2.578a54.833 54.833 0 017.326-1.432c2.289-.229 4.463-.172 6.524.172 2.06.343 4.063 1.088 5.951 2.177 2.232 1.317 3.663 2.692 4.292 4.182.573 1.489.63 2.979 0 4.526-.572 1.489-1.659 3.036-3.204 4.526-1.546 1.489-3.377 2.921-5.494 4.239l6.924 4.01-5.78 3.438-7.039-4.068c-3.548 1.776-7.382 3.38-11.445 4.812a92.526 92.526 0 01-11.847 3.323l-3.719-9.166c1.945-.401 3.948-.802 6.009-1.375 1.716-.458 3.662-.974 5.837-1.661a58.361 58.361 0 006.066-2.349l-5.036-2.922c-1.774.687-3.663 1.318-5.551 1.948-2.862.974-5.494 1.718-7.84 2.234-2.347.516-4.464.859-6.467.917a20.843 20.843 0 01-5.437-.401c-1.659-.344-3.204-.974-4.692-1.834-2.061-1.203-3.434-2.52-4.178-3.895-.744-1.433-.916-2.865-.572-4.412.343-1.546 1.144-3.036 2.46-4.64 1.317-1.547 2.976-3.036 5.037-4.469l-5.781-3.322 5.838-3.381 5.837 3.381c1.717-.802 3.491-1.605 5.322-2.292a100.5 100.5 0 015.38-1.891c1.774-.572 3.49-1.031 5.093-1.489a197.35 197.35 0 014.521-1.203l3.205 8.88zm-19.401 9.223c.573.344 1.259.459 2.118.401.858-.057 1.888-.286 3.147-.687l-4.349-2.521c-1.717 1.261-2.06 2.177-.916 2.807zm27.584 4.583c-.515-.286-1.316-.401-2.289-.286-.973.115-2.117.344-3.376.745l4.234 2.463c1.088-.687 1.717-1.317 1.889-1.776.172-.458 0-.859-.458-1.146z" fill="url(#paint70_linear)"/>
        <path d="M231.08 131.421c-1.603.286-3.262.687-4.979 1.145-1.488.344-3.033.803-4.75 1.375-1.66.573-3.319 1.146-4.807 1.834l5.15 2.979c.515-.229 1.088-.401 1.66-.63a12.474 12.474 0 001.888-.688c2.919-1.031 5.666-1.89 8.298-2.578a54.833 54.833 0 017.326-1.432c2.289-.229 4.463-.172 6.524.172 2.06.343 4.063 1.088 5.951 2.177 2.232 1.317 3.663 2.692 4.292 4.182.573 1.489.63 2.979 0 4.526-.572 1.489-1.659 3.036-3.204 4.526-1.546 1.489-3.377 2.921-5.494 4.239l6.924 4.01-5.78 3.438-7.039-4.068c-3.548 1.776-7.382 3.38-11.445 4.812a92.526 92.526 0 01-11.847 3.323l-3.719-9.166c1.945-.401 3.948-.802 6.009-1.375 1.716-.458 3.662-.974 5.837-1.661a58.361 58.361 0 006.066-2.349l-5.036-2.922c-1.774.687-3.663 1.318-5.551 1.948-2.862.974-5.494 1.718-7.84 2.234-2.347.516-4.464.859-6.467.917a20.843 20.843 0 01-5.437-.401c-1.659-.344-3.204-.974-4.692-1.834-2.061-1.203-3.434-2.52-4.178-3.895-.744-1.433-.916-2.865-.572-4.412.343-1.546 1.144-3.036 2.46-4.64 1.317-1.547 2.976-3.036 5.037-4.469l-5.781-3.322 5.838-3.381 5.837 3.381c1.717-.802 3.491-1.605 5.322-2.292a100.5 100.5 0 015.38-1.891c1.774-.572 3.49-1.031 5.093-1.489a197.35 197.35 0 014.521-1.203l3.205 8.88zm-19.401 9.223c.573.344 1.259.459 2.118.401.858-.057 1.888-.286 3.147-.687l-4.349-2.521c-1.717 1.261-2.06 2.177-.916 2.807zm27.584 4.583c-.515-.286-1.316-.401-2.289-.286-.973.115-2.117.344-3.376.745l4.234 2.463c1.088-.687 1.717-1.317 1.889-1.776.172-.458 0-.859-.458-1.146z" fill="url(#paint71_radial)"/>
        <path d="M312 116.414H140.202v24.233h.057c0 .23-.057.459-.057.688 0 27.671 38.457 50.071 85.899 50.071S312 169.006 312 141.335c0-.229 0-.458-.057-.688H312v-24.233z" fill="url(#paint72_linear)"/>
        <path d="M140.202 137.495v.688c0-.23.057-.459 0-.688z" fill="url(#paint73_linear)"/>
        <path d="M226.101 186.078c-47.442 0-85.899-22.4-85.899-50.071v4.64h.057c0 .229-.057.458-.057.688 0 27.67 38.457 50.071 85.899 50.071S312 169.005 312 141.335c0-.23 0-.459-.057-.688H312v-4.64c0 27.671-38.457 50.071-85.899 50.071z" fill="url(#paint74_linear)"/>
        <path d="M312 138.183v-.688h-.058c0 .229.058.458.058.688z" fill="url(#paint75_linear)"/>
        <path d="M252.426 188.998l2.403-.516V124.89h-2.403v64.108zM263.185 186.476l2.403-.688v-60.841h-2.403v61.529zM274.001 182.924c.858-.344 1.602-.688 2.404-1.032v-56.945h-2.404v57.977zM241.609 190.6c.802-.057 1.603-.171 2.404-.229v-65.424h-2.404V190.6zM295.575 170.721c.801-.63 1.66-1.318 2.404-2.005v-43.769h-2.404v45.774zM306.334 159.09a34.864 34.864 0 002.404-4.239v-29.848h-2.404v34.087zM284.76 177.882c.801-.458 1.659-.859 2.403-1.317v-51.618h-2.403v52.935zM230.851 191.288c.801 0 1.602-.057 2.403-.057v-66.284h-2.403v66.341zM220.035 191.231c.801.057 1.603.057 2.404.057v-66.341h-2.404v66.284zM198.46 188.71l2.404.516v-64.279h-2.404v63.763zM209.276 190.429c.802.114 1.603.114 2.404.229v-65.711h-2.404v65.482zM187.644 186.075l2.403.687v-61.815h-2.403v61.128zM144.494 156.972c.744 1.318 1.488 2.578 2.404 3.838v-35.863h-2.404v32.025zM155.311 169.69c.744.63 1.602 1.26 2.403 1.89v-46.633h-2.403v44.743zM176.885 182.351c.801.344 1.602.63 2.403.974v-58.378h-2.403v57.404zM166.069 177.139c.802.458 1.603.859 2.404 1.26V124.89h-2.404v52.249z" fill="#FDD65B"/>
        <path d="M226.101 166.83c47.441 0 85.899-22.417 85.899-50.071 0-27.653-38.458-50.07-85.899-50.07s-85.899 22.417-85.899 50.07c0 27.654 38.458 50.071 85.899 50.071z" fill="url(#paint76_linear)"/>
        <path d="M226.101 165.511c-46.412 0-84.125-21.484-85.727-48.353-.057.573-.172 1.146-.172 1.719 0 27.671 38.457 50.071 85.899 50.071S312 146.548 312 118.877c0-.573-.114-1.146-.172-1.719-1.602 26.869-39.315 48.353-85.727 48.353z" fill="url(#paint77_radial)"/>
        <path d="M226.101 154.169c35.462 0 64.21-16.749 64.21-37.41 0-20.661-28.748-37.41-64.21-37.41-35.462 0-64.209 16.749-64.209 37.41 0 20.661 28.747 37.41 64.209 37.41z" fill="url(#paint78_linear)"/>
        <path d="M228.218 81.239c34.28 0 62.207 15.697 64.038 35.405.058-.688.172-1.318.172-2.005 0-20.682-28.728-37.41-64.21-37.41-35.481 0-64.209 16.728-64.209 37.41 0 .687.114 1.317.171 2.005 1.832-19.765 29.759-35.405 64.038-35.405z" fill="url(#paint79_radial)"/>
        <path d="M226.101 83.36c34.28 0 62.207 15.697 64.038 35.404.057-.687.172-1.318.172-2.005 0-20.682-28.729-37.41-64.21-37.41-35.481 0-64.209 16.728-64.209 37.41 0 .687.114 1.318.171 2.005 1.832-19.707 29.759-35.405 64.038-35.405z" fill="url(#paint80_linear)"/>
        <path d="M255 121.933l-10.826 6.223 6.605 3.797-10.213 5.871-6.604-3.797-6.911 3.973-8.272-4.756 6.91-3.972-2.587-1.488-6.911 3.973-8.272-4.755 6.911-3.973L191 109.33l19.268-11.076a39.365 39.365 0 0111.813-4.482c4.153-.848 8.249-.998 12.289-.45 4.04.522 7.648 1.696 10.826 3.523 4.902 2.818 7.103 6.001 6.604 9.55-.477 3.535-3.677 7.006-9.6 10.411l-8.885 5.107 2.587 1.488 10.826-6.223 8.272 4.755zm-29.957-4.775l8.817-5.069c5.719-3.287 6.07-6.373 1.055-9.256-2.383-1.37-5.027-2.055-7.932-2.055-2.928-.013-5.685.711-8.272 2.172l-9.192 5.284 15.524 8.924z" fill="url(#paint81_linear)"/>
        <path d="M255 120.933l-10.826 6.223 6.605 3.797-10.213 5.871-6.604-3.797-6.911 3.973-8.272-4.756 6.91-3.972-2.587-1.488-6.911 3.973-8.272-4.755 6.911-3.973L191 108.33l19.268-11.076a39.365 39.365 0 0111.813-4.482c4.153-.848 8.249-.998 12.289-.45 4.04.522 7.648 1.696 10.826 3.523 4.902 2.818 7.103 6.001 6.604 9.55-.477 3.535-3.677 7.006-9.6 10.411l-8.885 5.107 2.587 1.488 10.826-6.223 8.272 4.755zm-29.957-4.775l8.817-5.069c5.719-3.287 6.07-6.373 1.055-9.256-2.383-1.37-5.027-2.055-7.932-2.055-2.928-.013-5.685.711-8.272 2.172l-9.192 5.284 15.524 8.924z" fill="url(#paint82_linear)"/>
        <path d="M183.581 214.948H11.841v24.234h.057c0 .229-.057.458-.057.687 0 27.671 38.457 50.071 85.899 50.071s85.899-22.4 85.899-50.071c0-.229 0-.458-.058-.687h.058v-24.234h-.058z" fill="url(#paint83_linear)"/>
        <path d="M97.682 284.612c-47.442 0-85.899-22.4-85.899-50.071v4.641h.057c0 .229-.057.458-.057.687 0 27.671 38.457 50.071 85.9 50.071 47.441 0 85.898-22.4 85.898-50.071 0-.229 0-.458-.057-.687h.057v-4.641c0 27.671-38.457 50.071-85.899 50.071z" fill="url(#paint84_linear)"/>
        <path d="M183.581 236.717v-.688h-.058c.058.23.058.459.058.688z" fill="url(#paint85_linear)"/>
        <path d="M124.007 287.532l2.403-.516v-63.591h-2.403v64.107zM134.823 285.01l2.404-.687v-60.842h-2.404v61.529zM145.582 281.458l2.404-1.031v-56.946h-2.404v57.977zM113.191 289.135c.802-.057 1.603-.172 2.404-.229v-65.425h-2.404v65.654zM167.157 269.255c.801-.63 1.66-1.317 2.404-2.005v-43.769h-2.404v45.774zM177.973 257.624a34.989 34.989 0 002.403-4.239v-29.848h-2.403v34.087zM156.398 276.417c.802-.459 1.66-.86 2.404-1.318v-51.618h-2.404v52.936zM102.433 289.822c.801 0 1.602-.057 2.403-.057v-66.284h-2.403v66.341zM91.616 289.822c.801.058 1.603.058 2.404.058v-66.399h-2.404v66.341zM70.041 287.302l2.404.515v-64.336H70.04v63.821zM80.857 289.02c.802.115 1.603.115 2.404.229v-65.768h-2.404v65.539zM59.282 284.609l2.404.687v-61.815h-2.404v61.128zM16.133 255.506c.744 1.318 1.488 2.578 2.403 3.839v-35.864h-2.403v32.025zM26.892 268.224c.744.63 1.602 1.261 2.403 1.891v-46.634h-2.403v44.743zM48.467 280.885c.801.344 1.602.63 2.403.974v-58.378h-2.403v57.404zM37.708 275.673c.801.458 1.602.859 2.404 1.26v-53.508h-2.404v52.248z" fill="#FDD65B"/>
        <path d="M97.682 265.365c47.441 0 85.899-22.418 85.899-50.071 0-27.654-38.458-50.072-85.899-50.072-47.44 0-85.899 22.418-85.899 50.072 0 27.653 38.459 50.071 85.9 50.071z" fill="url(#paint86_linear)"/>
        <path d="M97.682 264.044c-46.412 0-84.125-21.484-85.727-48.295-.057.573-.172 1.146-.172 1.718 0 27.671 38.457 50.072 85.9 50.072 47.441 0 85.898-22.401 85.898-50.072 0-.572-.114-1.145-.172-1.718-1.545 26.811-39.258 48.295-85.727 48.295z" fill="url(#paint87_radial)"/>
        <path d="M161.891 215.293c0 20.682-28.728 37.411-64.21 37.411-35.48 0-64.152-16.729-64.152-37.411 0-20.681 28.729-37.41 64.21-37.41 35.481 0 64.152 16.786 64.152 37.41z" fill="url(#paint88_linear)"/>
        <path d="M99.857 179.773c34.279 0 62.207 15.698 64.038 35.405.057-.687.172-1.317.172-2.005 0-20.681-28.729-37.41-64.21-37.41-35.481 0-64.21 16.729-64.21 37.41 0 .688.115 1.318.172 2.005 1.774-19.707 29.759-35.405 64.038-35.405z" fill="url(#paint89_radial)"/>
        <path d="M97.682 181.894c34.28 0 62.207 15.697 64.038 35.405.057-.688.172-1.318.172-2.006 0-20.681-28.729-37.41-64.21-37.41-35.481 0-64.21 16.729-64.21 37.41 0 .688.115 1.318.172 2.006 1.832-19.708 29.759-35.405 64.038-35.405z" fill="url(#paint90_linear)"/>
        <path d="M126 219.933l-10.826 6.223 6.605 3.797-10.213 5.871-6.604-3.797-6.91 3.973-8.273-4.756 6.91-3.972-2.587-1.488-6.91 3.973-8.273-4.755 6.91-3.973L62 207.33l19.268-11.076a39.35 39.35 0 0111.813-4.481c4.153-.848 8.249-.999 12.289-.451 4.04.522 7.648 1.696 10.826 3.523 4.902 2.818 7.103 6.001 6.604 9.55-.477 3.536-3.677 7.006-9.6 10.411l-8.885 5.108 2.587 1.487 10.826-6.223 8.272 4.755zm-29.957-4.775l8.817-5.068c5.719-3.288 6.07-6.373 1.055-9.257-2.383-1.37-5.027-2.055-7.932-2.055-2.928-.013-5.685.711-8.272 2.173l-9.192 5.283 15.524 8.924z" fill="url(#paint91_linear)"/>
        <path d="M126 218.933l-10.826 6.223 6.605 3.797-10.213 5.871-6.604-3.797-6.91 3.973-8.273-4.756 6.91-3.972-2.587-1.488-6.91 3.973-8.273-4.755 6.91-3.973L62 206.33l19.268-11.076a39.35 39.35 0 0111.813-4.481c4.153-.848 8.249-.999 12.289-.451 4.04.522 7.648 1.696 10.826 3.523 4.902 2.818 7.103 6.001 6.604 9.55-.477 3.536-3.677 7.006-9.6 10.411l-8.885 5.108 2.587 1.487 10.826-6.223 8.272 4.755zm-29.957-4.775l8.817-5.068c5.719-3.288 6.07-6.373 1.055-9.257-2.383-1.37-5.027-2.055-7.932-2.055-2.928-.013-5.685.711-8.272 2.173l-9.192 5.283 15.524 8.924z" fill="url(#paint92_linear)"/>
    </g>
    <defs>
        <linearGradient id="paint46_linear" x1="141.037" y1="209.627" x2="310.077" y2="209.627" gradientUnits="userSpaceOnUse">
            <stop stop-color="#FFBB96"/>
            <stop offset=".227" stop-color="#FFFBC9"/>
            <stop offset=".54" stop-color="#F9B673"/>
            <stop offset=".639" stop-color="#F9B876"/>
            <stop offset=".725" stop-color="#FABE81"/>
            <stop offset=".806" stop-color="#FCC993"/>
            <stop offset=".859" stop-color="#FED2A3"/>
            <stop offset=".97" stop-color="#FFC28C"/>
        </linearGradient>
        <linearGradient id="paint92_linear" x1="156.746" y1="175.48" x2="100.501" y2="204.099" gradientUnits="userSpaceOnUse">
            <stop offset=".035" stop-color="#FFBA78"/>
            <stop offset=".395" stop-color="#FFC987"/>
            <stop offset="1" stop-color="#FEECA8"/>
        </linearGradient>
        <linearGradient id="paint1_linear" x1="4.819" y1="183.579" x2="173.859" y2="183.579" gradientUnits="userSpaceOnUse">
            <stop stop-color="#FFBB96"/>
            <stop offset=".227" stop-color="#FFFBC9"/>
            <stop offset=".54" stop-color="#F9B673"/>
            <stop offset=".639" stop-color="#F9B876"/>
            <stop offset=".725" stop-color="#FABE81"/>
            <stop offset=".806" stop-color="#FCC993"/>
            <stop offset=".859" stop-color="#FED2A3"/>
            <stop offset=".97" stop-color="#FFC28C"/>
        </linearGradient>
        <linearGradient id="paint2_linear" x1="175.73" y1="157.666" x2="175.759" y2="157.666" gradientUnits="userSpaceOnUse">
            <stop stop-color="#FFBB96"/>
            <stop offset=".227" stop-color="#FFFBC9"/>
            <stop offset=".54" stop-color="#F9B673"/>
            <stop offset=".639" stop-color="#F9B876"/>
            <stop offset=".725" stop-color="#FABE81"/>
            <stop offset=".806" stop-color="#FCC993"/>
            <stop offset=".859" stop-color="#FED2A3"/>
            <stop offset=".97" stop-color="#FFC28C"/>
        </linearGradient>
        <linearGradient id="paint3_linear" x1="248.561" y1="-23.24" x2="80.395" y2="145.815" gradientUnits="userSpaceOnUse">
            <stop offset=".035" stop-color="#FFBA78"/>
            <stop offset=".395" stop-color="#FFC987"/>
            <stop offset="1" stop-color="#FEECA8"/>
        </linearGradient>
        <linearGradient id="paint91_linear" x1="62.039" y1="213.629" x2="126.027" y2="213.629" gradientUnits="userSpaceOnUse">
            <stop stop-color="#FFBB96"/>
            <stop offset=".54" stop-color="#F9B673"/>
            <stop offset=".639" stop-color="#F9B876"/>
            <stop offset=".725" stop-color="#FABE81"/>
            <stop offset=".806" stop-color="#FCC993"/>
            <stop offset=".859" stop-color="#FED2A3"/>
            <stop offset=".97" stop-color="#FFC28C"/>
        </linearGradient>
        <linearGradient id="paint5_linear" x1="158.891" y1="67.098" x2="33.181" y2="193.471" gradientUnits="userSpaceOnUse">
            <stop offset=".035" stop-color="#FFBA78"/>
            <stop offset=".395" stop-color="#FFC987"/>
            <stop offset="1" stop-color="#FEECA8"/>
        </linearGradient>
        <linearGradient id="paint90_linear" x1="189.827" y1="118.386" x2="71.194" y2="237.645" gradientUnits="userSpaceOnUse">
            <stop stop-color="#FFBB96"/>
            <stop offset=".227" stop-color="#FFFBC9"/>
            <stop offset=".54" stop-color="#F9B673"/>
            <stop offset=".639" stop-color="#F9B876"/>
            <stop offset=".725" stop-color="#FABE81"/>
            <stop offset=".806" stop-color="#FCC993"/>
            <stop offset=".859" stop-color="#FED2A3"/>
            <stop offset=".97" stop-color="#FFC28C"/>
        </linearGradient>
        <linearGradient id="paint7_linear" x1="182.003" y1="39.699" x2="63.372" y2="158.958" gradientUnits="userSpaceOnUse">
            <stop stop-color="#FFBB96"/>
            <stop offset=".227" stop-color="#FFFBC9"/>
            <stop offset=".54" stop-color="#F9B673"/>
            <stop offset=".639" stop-color="#F9B876"/>
            <stop offset=".725" stop-color="#FABE81"/>
            <stop offset=".806" stop-color="#FCC993"/>
            <stop offset=".859" stop-color="#FED2A3"/>
            <stop offset=".97" stop-color="#FFC28C"/>
        </linearGradient>
        <linearGradient id="paint88_linear" x1="166.713" y1="145.784" x2="41.004" y2="272.158" gradientUnits="userSpaceOnUse">
            <stop offset=".035" stop-color="#FFBA78"/>
            <stop offset=".395" stop-color="#FFC987"/>
            <stop offset="1" stop-color="#FEECA8"/>
        </linearGradient>
        <linearGradient id="paint9_linear" x1="57.812" y1="137.105" x2="121.813" y2="137.105" gradientUnits="userSpaceOnUse">
            <stop stop-color="#FFBB96"/>
            <stop offset=".227" stop-color="#FFFBC9"/>
            <stop offset=".54" stop-color="#F9B673"/>
            <stop offset=".639" stop-color="#F9B876"/>
            <stop offset=".725" stop-color="#FABE81"/>
            <stop offset=".806" stop-color="#FCC993"/>
            <stop offset=".859" stop-color="#FED2A3"/>
            <stop offset=".97" stop-color="#FFC28C"/>
        </linearGradient>
        <linearGradient id="paint10_linear" x1="152.537" y1="100.31" x2="97.942" y2="130.073" gradientUnits="userSpaceOnUse">
            <stop offset=".035" stop-color="#FFBA78"/>
            <stop offset=".395" stop-color="#FFC987"/>
            <stop offset="1" stop-color="#FEECA8"/>
        </linearGradient>
        <linearGradient id="paint86_linear" x1="256.383" y1="55.446" x2="88.217" y2="224.501" gradientUnits="userSpaceOnUse">
            <stop offset=".035" stop-color="#FFBA78"/>
            <stop offset=".395" stop-color="#FFC987"/>
            <stop offset="1" stop-color="#FEECA8"/>
        </linearGradient>
        <linearGradient id="paint12_linear" x1="4.819" y1="146.652" x2="173.859" y2="146.652" gradientUnits="userSpaceOnUse">
            <stop stop-color="#FFBB96"/>
            <stop offset=".227" stop-color="#FFFBC9"/>
            <stop offset=".54" stop-color="#F9B673"/>
            <stop offset=".639" stop-color="#F9B876"/>
            <stop offset=".725" stop-color="#FABE81"/>
            <stop offset=".806" stop-color="#FCC993"/>
            <stop offset=".859" stop-color="#FED2A3"/>
            <stop offset=".97" stop-color="#FFC28C"/>
        </linearGradient>
        <linearGradient id="paint13_linear" x1="4.819" y1="156.447" x2="173.859" y2="156.447" gradientUnits="userSpaceOnUse">
            <stop stop-color="#FFBB96"/>
            <stop offset=".227" stop-color="#FFFBC9"/>
            <stop offset=".54" stop-color="#F9B673"/>
            <stop offset=".639" stop-color="#F9B876"/>
            <stop offset=".725" stop-color="#FABE81"/>
            <stop offset=".806" stop-color="#FCC993"/>
            <stop offset=".859" stop-color="#FED2A3"/>
            <stop offset=".97" stop-color="#FFC28C"/>
        </linearGradient>
        <linearGradient id="paint14_linear" x1="175.73" y1="130.533" x2="175.759" y2="130.533" gradientUnits="userSpaceOnUse">
            <stop stop-color="#FFBB96"/>
            <stop offset=".227" stop-color="#FFFBC9"/>
            <stop offset=".54" stop-color="#F9B673"/>
            <stop offset=".639" stop-color="#F9B876"/>
            <stop offset=".725" stop-color="#FABE81"/>
            <stop offset=".806" stop-color="#FCC993"/>
            <stop offset=".859" stop-color="#FED2A3"/>
            <stop offset=".97" stop-color="#FFC28C"/>
        </linearGradient>
        <linearGradient id="paint15_linear" x1="248.56" y1="-50.371" x2="80.395" y2="118.684" gradientUnits="userSpaceOnUse">
            <stop offset=".035" stop-color="#FFBA78"/>
            <stop offset=".395" stop-color="#FFC987"/>
            <stop offset="1" stop-color="#FEECA8"/>
        </linearGradient>
        <linearGradient id="paint85_linear" x1="183.553" y1="236.351" x2="183.581" y2="236.351" gradientUnits="userSpaceOnUse">
            <stop stop-color="#FFBB96"/>
            <stop offset=".227" stop-color="#FFFBC9"/>
            <stop offset=".54" stop-color="#F9B673"/>
            <stop offset=".639" stop-color="#F9B876"/>
            <stop offset=".725" stop-color="#FABE81"/>
            <stop offset=".806" stop-color="#FCC993"/>
            <stop offset=".859" stop-color="#FED2A3"/>
            <stop offset=".97" stop-color="#FFC28C"/>
        </linearGradient>
        <linearGradient id="paint17_linear" x1="158.891" y1="39.966" x2="33.181" y2="166.34" gradientUnits="userSpaceOnUse">
            <stop offset=".035" stop-color="#FFBA78"/>
            <stop offset=".395" stop-color="#FFC987"/>
            <stop offset="1" stop-color="#FEECA8"/>
        </linearGradient>
        <linearGradient id="paint84_linear" x1="12.642" y1="262.265" x2="181.682" y2="262.265" gradientUnits="userSpaceOnUse">
            <stop stop-color="#FFBB96"/>
            <stop offset=".227" stop-color="#FFFBC9"/>
            <stop offset=".54" stop-color="#F9B673"/>
            <stop offset=".639" stop-color="#F9B876"/>
            <stop offset=".725" stop-color="#FABE81"/>
            <stop offset=".806" stop-color="#FCC993"/>
            <stop offset=".859" stop-color="#FED2A3"/>
            <stop offset=".97" stop-color="#FFC28C"/>
        </linearGradient>
        <linearGradient id="paint19_linear" x1="182.003" y1="12.568" x2="63.372" y2="131.826" gradientUnits="userSpaceOnUse">
            <stop stop-color="#FFBB96"/>
            <stop offset=".227" stop-color="#FFFBC9"/>
            <stop offset=".54" stop-color="#F9B673"/>
            <stop offset=".639" stop-color="#F9B876"/>
            <stop offset=".725" stop-color="#FABE81"/>
            <stop offset=".806" stop-color="#FCC993"/>
            <stop offset=".859" stop-color="#FED2A3"/>
            <stop offset=".97" stop-color="#FFC28C"/>
        </linearGradient>
        <linearGradient id="paint83_linear" x1="12.642" y1="252.47" x2="181.682" y2="252.47" gradientUnits="userSpaceOnUse">
            <stop stop-color="#FFBB96"/>
            <stop offset=".227" stop-color="#FFFBC9"/>
            <stop offset=".54" stop-color="#F9B673"/>
            <stop offset=".639" stop-color="#F9B876"/>
            <stop offset=".725" stop-color="#FABE81"/>
            <stop offset=".806" stop-color="#FCC993"/>
            <stop offset=".859" stop-color="#FED2A3"/>
            <stop offset=".97" stop-color="#FFC28C"/>
        </linearGradient>
        <linearGradient id="paint21_linear" x1="57.812" y1="109.973" x2="121.813" y2="109.973" gradientUnits="userSpaceOnUse">
            <stop stop-color="#FFBB96"/>
            <stop offset=".227" stop-color="#FFFBC9"/>
            <stop offset=".54" stop-color="#F9B673"/>
            <stop offset=".639" stop-color="#F9B876"/>
            <stop offset=".725" stop-color="#FABE81"/>
            <stop offset=".806" stop-color="#FCC993"/>
            <stop offset=".859" stop-color="#FED2A3"/>
            <stop offset=".97" stop-color="#FFC28C"/>
        </linearGradient>
        <linearGradient id="paint22_linear" x1="152.538" y1="73.18" x2="97.943" y2="102.943" gradientUnits="userSpaceOnUse">
            <stop offset=".035" stop-color="#FFBA78"/>
            <stop offset=".395" stop-color="#FFC987"/>
            <stop offset="1" stop-color="#FEECA8"/>
        </linearGradient>
        <linearGradient id="paint82_linear" x1="285.746" y1="77.48" x2="229.501" y2="106.099" gradientUnits="userSpaceOnUse">
            <stop offset=".035" stop-color="#FFBA78"/>
            <stop offset=".395" stop-color="#FFC987"/>
            <stop offset="1" stop-color="#FEECA8"/>
        </linearGradient>
        <linearGradient id="paint24_linear" x1="4.819" y1="118.086" x2="173.859" y2="118.086" gradientUnits="userSpaceOnUse">
            <stop stop-color="#FFBB96"/>
            <stop offset=".227" stop-color="#FFFBC9"/>
            <stop offset=".54" stop-color="#F9B673"/>
            <stop offset=".639" stop-color="#F9B876"/>
            <stop offset=".725" stop-color="#FABE81"/>
            <stop offset=".806" stop-color="#FCC993"/>
            <stop offset=".859" stop-color="#FED2A3"/>
            <stop offset=".97" stop-color="#FFC28C"/>
        </linearGradient>
        <linearGradient id="paint25_linear" x1="4.819" y1="127.882" x2="173.859" y2="127.882" gradientUnits="userSpaceOnUse">
            <stop stop-color="#FFBB96"/>
            <stop offset=".227" stop-color="#FFFBC9"/>
            <stop offset=".54" stop-color="#F9B673"/>
            <stop offset=".639" stop-color="#F9B876"/>
            <stop offset=".725" stop-color="#FABE81"/>
            <stop offset=".806" stop-color="#FCC993"/>
            <stop offset=".859" stop-color="#FED2A3"/>
            <stop offset=".97" stop-color="#FFC28C"/>
        </linearGradient>
        <linearGradient id="paint26_linear" x1="175.73" y1="101.969" x2="175.759" y2="101.969" gradientUnits="userSpaceOnUse">
            <stop stop-color="#FFBB96"/>
            <stop offset=".227" stop-color="#FFFBC9"/>
            <stop offset=".54" stop-color="#F9B673"/>
            <stop offset=".639" stop-color="#F9B876"/>
            <stop offset=".725" stop-color="#FABE81"/>
            <stop offset=".806" stop-color="#FCC993"/>
            <stop offset=".859" stop-color="#FED2A3"/>
            <stop offset=".97" stop-color="#FFC28C"/>
        </linearGradient>
        <linearGradient id="paint27_linear" x1="248.561" y1="-78.937" x2="80.395" y2="90.118" gradientUnits="userSpaceOnUse">
            <stop offset=".035" stop-color="#FFBA78"/>
            <stop offset=".395" stop-color="#FFC987"/>
            <stop offset="1" stop-color="#FEECA8"/>
        </linearGradient>
        <linearGradient id="paint81_linear" x1="191.039" y1="115.628" x2="255.027" y2="115.628" gradientUnits="userSpaceOnUse">
            <stop stop-color="#FFBB96"/>
            <stop offset=".54" stop-color="#F9B673"/>
            <stop offset=".639" stop-color="#F9B876"/>
            <stop offset=".725" stop-color="#FABE81"/>
            <stop offset=".806" stop-color="#FCC993"/>
            <stop offset=".859" stop-color="#FED2A3"/>
            <stop offset=".97" stop-color="#FFC28C"/>
        </linearGradient>
        <linearGradient id="paint29_linear" x1="158.891" y1="11.401" x2="33.181" y2="137.775" gradientUnits="userSpaceOnUse">
            <stop offset=".035" stop-color="#FFBA78"/>
            <stop offset=".395" stop-color="#FFC987"/>
            <stop offset="1" stop-color="#FEECA8"/>
        </linearGradient>
        <linearGradient id="paint80_linear" x1="318.222" y1="19.847" x2="199.59" y2="139.106" gradientUnits="userSpaceOnUse">
            <stop stop-color="#FFBB96"/>
            <stop offset=".227" stop-color="#FFFBC9"/>
            <stop offset=".54" stop-color="#F9B673"/>
            <stop offset=".639" stop-color="#F9B876"/>
            <stop offset=".725" stop-color="#FABE81"/>
            <stop offset=".806" stop-color="#FCC993"/>
            <stop offset=".859" stop-color="#FED2A3"/>
            <stop offset=".97" stop-color="#FFC28C"/>
        </linearGradient>
        <linearGradient id="paint31_linear" x1="182.003" y1="-15.997" x2="63.372" y2="103.262" gradientUnits="userSpaceOnUse">
            <stop stop-color="#FFBB96"/>
            <stop offset=".227" stop-color="#FFFBC9"/>
            <stop offset=".54" stop-color="#F9B673"/>
            <stop offset=".639" stop-color="#F9B876"/>
            <stop offset=".725" stop-color="#FABE81"/>
            <stop offset=".806" stop-color="#FCC993"/>
            <stop offset=".859" stop-color="#FED2A3"/>
            <stop offset=".97" stop-color="#FFC28C"/>
        </linearGradient>
        <linearGradient id="paint78_linear" x1="295.109" y1="47.245" x2="169.4" y2="173.619" gradientUnits="userSpaceOnUse">
            <stop offset=".035" stop-color="#FFBA78"/>
            <stop offset=".395" stop-color="#FFC987"/>
            <stop offset="1" stop-color="#FEECA8"/>
        </linearGradient>
        <linearGradient id="paint33_linear" x1="57.812" y1="81.409" x2="121.813" y2="81.409" gradientUnits="userSpaceOnUse">
            <stop stop-color="#FFBB96"/>
            <stop offset=".227" stop-color="#FFFBC9"/>
            <stop offset=".54" stop-color="#F9B673"/>
            <stop offset=".639" stop-color="#F9B876"/>
            <stop offset=".725" stop-color="#FABE81"/>
            <stop offset=".806" stop-color="#FCC993"/>
            <stop offset=".859" stop-color="#FED2A3"/>
            <stop offset=".97" stop-color="#FFC28C"/>
        </linearGradient>
        <linearGradient id="paint34_linear" x1="152.538" y1="44.614" x2="97.943" y2="74.377" gradientUnits="userSpaceOnUse">
            <stop offset=".035" stop-color="#FFBA78"/>
            <stop offset=".395" stop-color="#FFC987"/>
            <stop offset="1" stop-color="#FEECA8"/>
        </linearGradient>
        <linearGradient id="paint76_linear" x1="384.778" y1="-43.093" x2="216.612" y2="125.962" gradientUnits="userSpaceOnUse">
            <stop offset=".035" stop-color="#FFBA78"/>
            <stop offset=".395" stop-color="#FFC987"/>
            <stop offset="1" stop-color="#FEECA8"/>
        </linearGradient>
        <linearGradient id="paint36_linear" x1="4.819" y1="89.081" x2="173.859" y2="89.081" gradientUnits="userSpaceOnUse">
            <stop stop-color="#FFBB96"/>
            <stop offset=".227" stop-color="#FFFBC9"/>
            <stop offset=".54" stop-color="#F9B673"/>
            <stop offset=".639" stop-color="#F9B876"/>
            <stop offset=".725" stop-color="#FABE81"/>
            <stop offset=".806" stop-color="#FCC993"/>
            <stop offset=".859" stop-color="#FED2A3"/>
            <stop offset=".97" stop-color="#FFC28C"/>
        </linearGradient>
        <linearGradient id="paint37_linear" x1="4.819" y1="98.876" x2="173.859" y2="98.876" gradientUnits="userSpaceOnUse">
            <stop stop-color="#FFBB96"/>
            <stop offset=".227" stop-color="#FFFBC9"/>
            <stop offset=".54" stop-color="#F9B673"/>
            <stop offset=".639" stop-color="#F9B876"/>
            <stop offset=".725" stop-color="#FABE81"/>
            <stop offset=".806" stop-color="#FCC993"/>
            <stop offset=".859" stop-color="#FED2A3"/>
            <stop offset=".97" stop-color="#FFC28C"/>
        </linearGradient>
        <linearGradient id="paint38_linear" x1="175.73" y1="72.963" x2="175.759" y2="72.963" gradientUnits="userSpaceOnUse">
            <stop stop-color="#FFBB96"/>
            <stop offset=".227" stop-color="#FFFBC9"/>
            <stop offset=".54" stop-color="#F9B673"/>
            <stop offset=".639" stop-color="#F9B876"/>
            <stop offset=".725" stop-color="#FABE81"/>
            <stop offset=".806" stop-color="#FCC993"/>
            <stop offset=".859" stop-color="#FED2A3"/>
            <stop offset=".97" stop-color="#FFC28C"/>
        </linearGradient>
        <linearGradient id="paint39_linear" x1="248.561" y1="-107.942" x2="80.395" y2="61.112" gradientUnits="userSpaceOnUse">
            <stop offset=".035" stop-color="#FFBA78"/>
            <stop offset=".395" stop-color="#FFC987"/>
            <stop offset="1" stop-color="#FEECA8"/>
        </linearGradient>
        <linearGradient id="paint75_linear" x1="311.948" y1="137.812" x2="311.977" y2="137.812" gradientUnits="userSpaceOnUse">
            <stop stop-color="#FFBB96"/>
            <stop offset=".227" stop-color="#FFFBC9"/>
            <stop offset=".54" stop-color="#F9B673"/>
            <stop offset=".639" stop-color="#F9B876"/>
            <stop offset=".725" stop-color="#FABE81"/>
            <stop offset=".806" stop-color="#FCC993"/>
            <stop offset=".859" stop-color="#FED2A3"/>
            <stop offset=".97" stop-color="#FFC28C"/>
        </linearGradient>
        <linearGradient id="paint41_linear" x1="158.891" y1="-17.604" x2="33.181" y2="108.77" gradientUnits="userSpaceOnUse">
            <stop offset=".035" stop-color="#FFBA78"/>
            <stop offset=".395" stop-color="#FFC987"/>
            <stop offset="1" stop-color="#FEECA8"/>
        </linearGradient>
        <linearGradient id="paint74_linear" x1="141.037" y1="163.726" x2="310.077" y2="163.726" gradientUnits="userSpaceOnUse">
            <stop stop-color="#FFBB96"/>
            <stop offset=".227" stop-color="#FFFBC9"/>
            <stop offset=".54" stop-color="#F9B673"/>
            <stop offset=".639" stop-color="#F9B876"/>
            <stop offset=".725" stop-color="#FABE81"/>
            <stop offset=".806" stop-color="#FCC993"/>
            <stop offset=".859" stop-color="#FED2A3"/>
            <stop offset=".97" stop-color="#FFC28C"/>
        </linearGradient>
        <linearGradient id="paint43_linear" x1="182.003" y1="-45.002" x2="63.372" y2="74.256" gradientUnits="userSpaceOnUse">
            <stop stop-color="#FFBB96"/>
            <stop offset=".227" stop-color="#FFFBC9"/>
            <stop offset=".54" stop-color="#F9B673"/>
            <stop offset=".639" stop-color="#F9B876"/>
            <stop offset=".725" stop-color="#FABE81"/>
            <stop offset=".806" stop-color="#FCC993"/>
            <stop offset=".859" stop-color="#FED2A3"/>
            <stop offset=".97" stop-color="#FFC28C"/>
        </linearGradient>
        <linearGradient id="paint44_linear" x1="53.04" y1="50.132" x2="119.028" y2="50.132" gradientUnits="userSpaceOnUse">
            <stop stop-color="#FFBB96"/>
            <stop offset=".54" stop-color="#F9B673"/>
            <stop offset=".639" stop-color="#F9B876"/>
            <stop offset=".725" stop-color="#FABE81"/>
            <stop offset=".806" stop-color="#FCC993"/>
            <stop offset=".859" stop-color="#FED2A3"/>
            <stop offset=".97" stop-color="#FFC28C"/>
        </linearGradient>
        <linearGradient id="paint45_linear" x1="150.706" y1="11.158" x2="92.915" y2="40.823" gradientUnits="userSpaceOnUse">
            <stop offset=".035" stop-color="#FFBA78"/>
            <stop offset=".395" stop-color="#FFC987"/>
            <stop offset="1" stop-color="#FEECA8"/>
        </linearGradient>
        <linearGradient id="paint0_linear" x1="4.819" y1="173.783" x2="173.859" y2="173.783" gradientUnits="userSpaceOnUse">
            <stop stop-color="#FFBB96"/>
            <stop offset=".227" stop-color="#FFFBC9"/>
            <stop offset=".54" stop-color="#F9B673"/>
            <stop offset=".639" stop-color="#F9B876"/>
            <stop offset=".725" stop-color="#FABE81"/>
            <stop offset=".806" stop-color="#FCC993"/>
            <stop offset=".859" stop-color="#FED2A3"/>
            <stop offset=".97" stop-color="#FFC28C"/>
        </linearGradient>
        <linearGradient id="paint47_linear" x1="140.218" y1="193.509" x2="140.248" y2="193.509" gradientUnits="userSpaceOnUse">
            <stop stop-color="#FFBB96"/>
            <stop offset=".227" stop-color="#FFFBC9"/>
            <stop offset=".54" stop-color="#F9B673"/>
            <stop offset=".639" stop-color="#F9B876"/>
            <stop offset=".725" stop-color="#FABE81"/>
            <stop offset=".806" stop-color="#FCC993"/>
            <stop offset=".859" stop-color="#FED2A3"/>
            <stop offset=".97" stop-color="#FFC28C"/>
        </linearGradient>
        <linearGradient id="paint48_linear" x1="141.037" y1="219.422" x2="310.077" y2="219.422" gradientUnits="userSpaceOnUse">
            <stop stop-color="#FFBB96"/>
            <stop offset=".227" stop-color="#FFFBC9"/>
            <stop offset=".54" stop-color="#F9B673"/>
            <stop offset=".639" stop-color="#F9B876"/>
            <stop offset=".725" stop-color="#FABE81"/>
            <stop offset=".806" stop-color="#FCC993"/>
            <stop offset=".859" stop-color="#FED2A3"/>
            <stop offset=".97" stop-color="#FFC28C"/>
        </linearGradient>
        <linearGradient id="paint49_linear" x1="311.948" y1="193.509" x2="311.977" y2="193.509" gradientUnits="userSpaceOnUse">
            <stop stop-color="#FFBB96"/>
            <stop offset=".227" stop-color="#FFFBC9"/>
            <stop offset=".54" stop-color="#F9B673"/>
            <stop offset=".639" stop-color="#F9B876"/>
            <stop offset=".725" stop-color="#FABE81"/>
            <stop offset=".806" stop-color="#FCC993"/>
            <stop offset=".859" stop-color="#FED2A3"/>
            <stop offset=".97" stop-color="#FFC28C"/>
        </linearGradient>
        <linearGradient id="paint50_linear" x1="384.778" y1="12.604" x2="216.612" y2="181.659" gradientUnits="userSpaceOnUse">
            <stop offset=".035" stop-color="#FFBA78"/>
            <stop offset=".395" stop-color="#FFC987"/>
            <stop offset="1" stop-color="#FEECA8"/>
        </linearGradient>
        <linearGradient id="paint73_linear" x1="140.218" y1="137.812" x2="140.248" y2="137.812" gradientUnits="userSpaceOnUse">
            <stop stop-color="#FFBB96"/>
            <stop offset=".227" stop-color="#FFFBC9"/>
            <stop offset=".54" stop-color="#F9B673"/>
            <stop offset=".639" stop-color="#F9B876"/>
            <stop offset=".725" stop-color="#FABE81"/>
            <stop offset=".806" stop-color="#FCC993"/>
            <stop offset=".859" stop-color="#FED2A3"/>
            <stop offset=".97" stop-color="#FFC28C"/>
        </linearGradient>
        <linearGradient id="paint52_linear" x1="295.109" y1="102.942" x2="169.4" y2="229.316" gradientUnits="userSpaceOnUse">
            <stop offset=".035" stop-color="#FFBA78"/>
            <stop offset=".395" stop-color="#FFC987"/>
            <stop offset="1" stop-color="#FEECA8"/>
        </linearGradient>
        <linearGradient id="paint72_linear" x1="141.037" y1="153.931" x2="310.077" y2="153.931" gradientUnits="userSpaceOnUse">
            <stop stop-color="#FFBB96"/>
            <stop offset=".227" stop-color="#FFFBC9"/>
            <stop offset=".54" stop-color="#F9B673"/>
            <stop offset=".639" stop-color="#F9B876"/>
            <stop offset=".725" stop-color="#FABE81"/>
            <stop offset=".806" stop-color="#FCC993"/>
            <stop offset=".859" stop-color="#FED2A3"/>
            <stop offset=".97" stop-color="#FFC28C"/>
        </linearGradient>
        <linearGradient id="paint54_linear" x1="318.222" y1="75.543" x2="199.59" y2="194.802" gradientUnits="userSpaceOnUse">
            <stop stop-color="#FFBB96"/>
            <stop offset=".227" stop-color="#FFFBC9"/>
            <stop offset=".54" stop-color="#F9B673"/>
            <stop offset=".639" stop-color="#F9B876"/>
            <stop offset=".725" stop-color="#FABE81"/>
            <stop offset=".806" stop-color="#FCC993"/>
            <stop offset=".859" stop-color="#FED2A3"/>
            <stop offset=".97" stop-color="#FFC28C"/>
        </linearGradient>
        <linearGradient id="paint70_linear" x1="288.755" y1="109.018" x2="234.161" y2="138.781" gradientUnits="userSpaceOnUse">
            <stop offset=".035" stop-color="#FFBA78"/>
            <stop offset=".395" stop-color="#FFC987"/>
            <stop offset="1" stop-color="#FEECA8"/>
        </linearGradient>
        <linearGradient id="paint56_linear" x1="194.03" y1="172.947" x2="258.031" y2="172.947" gradientUnits="userSpaceOnUse">
            <stop stop-color="#FFBB96"/>
            <stop offset=".227" stop-color="#FFFBC9"/>
            <stop offset=".54" stop-color="#F9B673"/>
            <stop offset=".639" stop-color="#F9B876"/>
            <stop offset=".725" stop-color="#FABE81"/>
            <stop offset=".806" stop-color="#FCC993"/>
            <stop offset=".859" stop-color="#FED2A3"/>
            <stop offset=".97" stop-color="#FFC28C"/>
        </linearGradient>
        <linearGradient id="paint57_linear" x1="288.755" y1="136.154" x2="234.161" y2="165.917" gradientUnits="userSpaceOnUse">
            <stop offset=".035" stop-color="#FFBA78"/>
            <stop offset=".395" stop-color="#FFC987"/>
            <stop offset="1" stop-color="#FEECA8"/>
        </linearGradient>
        <linearGradient id="paint69_linear" x1="194.03" y1="145.811" x2="258.031" y2="145.811" gradientUnits="userSpaceOnUse">
            <stop stop-color="#FFBB96"/>
            <stop offset=".227" stop-color="#FFFBC9"/>
            <stop offset=".54" stop-color="#F9B673"/>
            <stop offset=".639" stop-color="#F9B876"/>
            <stop offset=".725" stop-color="#FABE81"/>
            <stop offset=".806" stop-color="#FCC993"/>
            <stop offset=".859" stop-color="#FED2A3"/>
            <stop offset=".97" stop-color="#FFC28C"/>
        </linearGradient>
        <linearGradient id="paint59_linear" x1="141.037" y1="182.49" x2="310.077" y2="182.49" gradientUnits="userSpaceOnUse">
            <stop stop-color="#FFBB96"/>
            <stop offset=".227" stop-color="#FFFBC9"/>
            <stop offset=".54" stop-color="#F9B673"/>
            <stop offset=".639" stop-color="#F9B876"/>
            <stop offset=".725" stop-color="#FABE81"/>
            <stop offset=".806" stop-color="#FCC993"/>
            <stop offset=".859" stop-color="#FED2A3"/>
            <stop offset=".97" stop-color="#FFC28C"/>
        </linearGradient>
        <linearGradient id="paint60_linear" x1="140.218" y1="166.373" x2="140.248" y2="166.373" gradientUnits="userSpaceOnUse">
            <stop stop-color="#FFBB96"/>
            <stop offset=".227" stop-color="#FFFBC9"/>
            <stop offset=".54" stop-color="#F9B673"/>
            <stop offset=".639" stop-color="#F9B876"/>
            <stop offset=".725" stop-color="#FABE81"/>
            <stop offset=".806" stop-color="#FCC993"/>
            <stop offset=".859" stop-color="#FED2A3"/>
            <stop offset=".97" stop-color="#FFC28C"/>
        </linearGradient>
        <linearGradient id="paint61_linear" x1="141.037" y1="192.286" x2="310.077" y2="192.286" gradientUnits="userSpaceOnUse">
            <stop stop-color="#FFBB96"/>
            <stop offset=".227" stop-color="#FFFBC9"/>
            <stop offset=".54" stop-color="#F9B673"/>
            <stop offset=".639" stop-color="#F9B876"/>
            <stop offset=".725" stop-color="#FABE81"/>
            <stop offset=".806" stop-color="#FCC993"/>
            <stop offset=".859" stop-color="#FED2A3"/>
            <stop offset=".97" stop-color="#FFC28C"/>
        </linearGradient>
        <linearGradient id="paint62_linear" x1="311.948" y1="166.373" x2="311.977" y2="166.373" gradientUnits="userSpaceOnUse">
            <stop stop-color="#FFBB96"/>
            <stop offset=".227" stop-color="#FFFBC9"/>
            <stop offset=".54" stop-color="#F9B673"/>
            <stop offset=".639" stop-color="#F9B876"/>
            <stop offset=".725" stop-color="#FABE81"/>
            <stop offset=".806" stop-color="#FCC993"/>
            <stop offset=".859" stop-color="#FED2A3"/>
            <stop offset=".97" stop-color="#FFC28C"/>
        </linearGradient>
        <linearGradient id="paint63_linear" x1="384.779" y1="-14.533" x2="216.612" y2="154.522" gradientUnits="userSpaceOnUse">
            <stop offset=".035" stop-color="#FFBA78"/>
            <stop offset=".395" stop-color="#FFC987"/>
            <stop offset="1" stop-color="#FEECA8"/>
        </linearGradient>
        <linearGradient id="paint67_linear" x1="318.221" y1="48.407" x2="199.59" y2="167.665" gradientUnits="userSpaceOnUse">
            <stop stop-color="#FFBB96"/>
            <stop offset=".227" stop-color="#FFFBC9"/>
            <stop offset=".54" stop-color="#F9B673"/>
            <stop offset=".639" stop-color="#F9B876"/>
            <stop offset=".725" stop-color="#FABE81"/>
            <stop offset=".806" stop-color="#FCC993"/>
            <stop offset=".859" stop-color="#FED2A3"/>
            <stop offset=".97" stop-color="#FFC28C"/>
        </linearGradient>
        <linearGradient id="paint65_linear" x1="295.109" y1="75.805" x2="169.4" y2="202.178" gradientUnits="userSpaceOnUse">
            <stop offset=".035" stop-color="#FFBA78"/>
            <stop offset=".395" stop-color="#FFC987"/>
            <stop offset="1" stop-color="#FEECA8"/>
        </linearGradient>
        <radialGradient id="paint79_radial" cx="0" cy="0" r="1" gradientUnits="userSpaceOnUse" gradientTransform="matrix(80.6872 0 0 82.2397 200.613 104.915)">
            <stop stop-color="#fff"/>
            <stop offset="1" stop-color="#FEECA8"/>
        </radialGradient>
        <radialGradient id="paint66_radial" cx="0" cy="0" r="1" gradientUnits="userSpaceOnUse" gradientTransform="matrix(47.4831 0 0 47.5343 256.324 104.326)">
            <stop stop-color="#fff"/>
            <stop offset="1"/>
        </radialGradient>
        <radialGradient id="paint68_radial" cx="0" cy="0" r="1" gradientUnits="userSpaceOnUse" gradientTransform="rotate(-71.234 212.524 -127.96) scale(18.2995 36.907)">
            <stop stop-color="#F49587"/>
            <stop offset=".116" stop-color="#BD7368"/>
            <stop offset=".236" stop-color="#8B554D"/>
            <stop offset=".359" stop-color="#603B35"/>
            <stop offset=".483" stop-color="#3E2622"/>
            <stop offset=".609" stop-color="#231513"/>
            <stop offset=".735" stop-color="#0F0908"/>
            <stop offset=".864" stop-color="#040202"/>
            <stop offset="1"/>
        </radialGradient>
        <radialGradient id="paint58_radial" cx="0" cy="0" r="1" gradientUnits="userSpaceOnUse" gradientTransform="matrix(57.2827 0 0 57.3447 182.232 175.011)">
            <stop stop-color="#F49587"/>
            <stop offset=".116" stop-color="#BD7368"/>
            <stop offset=".236" stop-color="#8B554D"/>
            <stop offset=".359" stop-color="#603B35"/>
            <stop offset=".483" stop-color="#3E2622"/>
            <stop offset=".609" stop-color="#231513"/>
            <stop offset=".735" stop-color="#0F0908"/>
            <stop offset=".864" stop-color="#040202"/>
            <stop offset="1"/>
        </radialGradient>
        <radialGradient id="paint55_radial" cx="0" cy="0" r="1" gradientUnits="userSpaceOnUse" gradientTransform="matrix(5.8871 -17.32657 34.94486 11.87334 265.311 141.567)">
            <stop stop-color="#F49587"/>
            <stop offset=".116" stop-color="#BD7368"/>
            <stop offset=".236" stop-color="#8B554D"/>
            <stop offset=".359" stop-color="#603B35"/>
            <stop offset=".483" stop-color="#3E2622"/>
            <stop offset=".609" stop-color="#231513"/>
            <stop offset=".735" stop-color="#0F0908"/>
            <stop offset=".864" stop-color="#040202"/>
            <stop offset="1"/>
        </radialGradient>
        <radialGradient id="paint71_radial" cx="0" cy="0" r="1" gradientUnits="userSpaceOnUse" gradientTransform="matrix(57.2827 0 0 57.3446 182.232 147.875)">
            <stop stop-color="#F49587"/>
            <stop offset=".116" stop-color="#BD7368"/>
            <stop offset=".236" stop-color="#8B554D"/>
            <stop offset=".359" stop-color="#603B35"/>
            <stop offset=".483" stop-color="#3E2622"/>
            <stop offset=".609" stop-color="#231513"/>
            <stop offset=".735" stop-color="#0F0908"/>
            <stop offset=".864" stop-color="#040202"/>
            <stop offset="1"/>
        </radialGradient>
        <radialGradient id="paint53_radial" cx="0" cy="0" r="1" gradientUnits="userSpaceOnUse" gradientTransform="matrix(47.4825 0 0 47.5338 256.324 131.462)">
            <stop stop-color="#fff"/>
            <stop offset="1"/>
        </radialGradient>
        <radialGradient id="paint51_radial" cx="0" cy="0" r="1" gradientUnits="userSpaceOnUse" gradientTransform="matrix(107.942 0 0 108.059 189.171 209.277)">
            <stop stop-color="#fff"/>
            <stop offset="1" stop-color="#FEECA8"/>
        </radialGradient>
        <radialGradient id="paint42_radial" cx="0" cy="0" r="1" gradientUnits="userSpaceOnUse" gradientTransform="matrix(80.6872 0 0 82.2397 64.41 40.062)">
            <stop stop-color="#fff"/>
            <stop offset="1" stop-color="#FEECA8"/>
        </radialGradient>
        <radialGradient id="paint40_radial" cx="0" cy="0" r="1" gradientUnits="userSpaceOnUse" gradientTransform="matrix(107.942 0 0 108.059 52.969 88.74)">
            <stop stop-color="#fff"/>
            <stop offset="1" stop-color="#FEECA8"/>
        </radialGradient>
        <radialGradient id="paint35_radial" cx="0" cy="0" r="1" gradientUnits="userSpaceOnUse" gradientTransform="matrix(57.2827 0 0 57.3446 46.014 83.471)">
            <stop stop-color="#F49587"/>
            <stop offset=".116" stop-color="#BD7368"/>
            <stop offset=".236" stop-color="#8B554D"/>
            <stop offset=".359" stop-color="#603B35"/>
            <stop offset=".483" stop-color="#3E2622"/>
            <stop offset=".609" stop-color="#231513"/>
            <stop offset=".735" stop-color="#0F0908"/>
            <stop offset=".864" stop-color="#040202"/>
            <stop offset="1"/>
        </radialGradient>
        <radialGradient id="paint77_radial" cx="0" cy="0" r="1" gradientUnits="userSpaceOnUse" gradientTransform="matrix(107.942 0 0 108.059 189.171 153.536)">
            <stop stop-color="#fff"/>
            <stop offset="1" stop-color="#FEECA8"/>
        </radialGradient>
        <radialGradient id="paint32_radial" cx="0" cy="0" r="1" gradientUnits="userSpaceOnUse" gradientTransform="rotate(-71.234 99.463 -65.088) scale(18.2995 36.907)">
            <stop stop-color="#F49587"/>
            <stop offset=".116" stop-color="#BD7368"/>
            <stop offset=".236" stop-color="#8B554D"/>
            <stop offset=".359" stop-color="#603B35"/>
            <stop offset=".483" stop-color="#3E2622"/>
            <stop offset=".609" stop-color="#231513"/>
            <stop offset=".735" stop-color="#0F0908"/>
            <stop offset=".864" stop-color="#040202"/>
            <stop offset="1"/>
        </radialGradient>
        <radialGradient id="paint64_radial" cx="0" cy="0" r="1" gradientUnits="userSpaceOnUse" gradientTransform="matrix(107.942 0 0 108.059 189.171 182.121)">
            <stop stop-color="#fff"/>
            <stop offset="1" stop-color="#FEECA8"/>
        </radialGradient>
        <radialGradient id="paint30_radial" cx="0" cy="0" r="1" gradientUnits="userSpaceOnUse" gradientTransform="matrix(47.483 0 0 47.5343 120.106 39.922)">
            <stop stop-color="#fff"/>
            <stop offset="1"/>
        </radialGradient>
        <radialGradient id="paint28_radial" cx="0" cy="0" r="1" gradientUnits="userSpaceOnUse" gradientTransform="matrix(107.942 0 0 108.059 52.969 117.726)">
            <stop stop-color="#fff"/>
            <stop offset="1" stop-color="#FEECA8"/>
        </radialGradient>
        <radialGradient id="paint23_radial" cx="0" cy="0" r="1" gradientUnits="userSpaceOnUse" gradientTransform="matrix(57.2827 0 0 57.3446 46.014 112.036)">
            <stop stop-color="#F49587"/>
            <stop offset=".116" stop-color="#BD7368"/>
            <stop offset=".236" stop-color="#8B554D"/>
            <stop offset=".359" stop-color="#603B35"/>
            <stop offset=".483" stop-color="#3E2622"/>
            <stop offset=".609" stop-color="#231513"/>
            <stop offset=".735" stop-color="#0F0908"/>
            <stop offset=".864" stop-color="#040202"/>
            <stop offset="1"/>
        </radialGradient>
        <radialGradient id="paint20_radial" cx="0" cy="0" r="1" gradientUnits="userSpaceOnUse" gradientTransform="matrix(5.8871 -17.32657 34.94486 11.87334 129.092 78.59)">
            <stop stop-color="#F49587"/>
            <stop offset=".116" stop-color="#BD7368"/>
            <stop offset=".236" stop-color="#8B554D"/>
            <stop offset=".359" stop-color="#603B35"/>
            <stop offset=".483" stop-color="#3E2622"/>
            <stop offset=".609" stop-color="#231513"/>
            <stop offset=".735" stop-color="#0F0908"/>
            <stop offset=".864" stop-color="#040202"/>
            <stop offset="1"/>
        </radialGradient>
        <radialGradient id="paint18_radial" cx="0" cy="0" r="1" gradientUnits="userSpaceOnUse" gradientTransform="matrix(47.4825 0 0 47.5338 120.106 68.487)">
            <stop stop-color="#fff"/>
            <stop offset="1"/>
        </radialGradient>
        <radialGradient id="paint16_radial" cx="0" cy="0" r="1" gradientUnits="userSpaceOnUse" gradientTransform="matrix(107.942 0 0 108.059 52.969 146.314)">
            <stop stop-color="#fff"/>
            <stop offset="1" stop-color="#FEECA8"/>
        </radialGradient>
        <radialGradient id="paint11_radial" cx="0" cy="0" r="1" gradientUnits="userSpaceOnUse" gradientTransform="matrix(57.2827 0 0 57.3447 46.014 139.167)">
            <stop stop-color="#F49587"/>
            <stop offset=".116" stop-color="#BD7368"/>
            <stop offset=".236" stop-color="#8B554D"/>
            <stop offset=".359" stop-color="#603B35"/>
            <stop offset=".483" stop-color="#3E2622"/>
            <stop offset=".609" stop-color="#231513"/>
            <stop offset=".735" stop-color="#0F0908"/>
            <stop offset=".864" stop-color="#040202"/>
            <stop offset="1"/>
        </radialGradient>
        <radialGradient id="paint87_radial" cx="0" cy="0" r="1" gradientUnits="userSpaceOnUse" gradientTransform="matrix(107.942 0 0 108.059 60.752 252.127)">
            <stop stop-color="#fff"/>
            <stop offset="1" stop-color="#FEECA8"/>
        </radialGradient>
        <radialGradient id="paint8_radial" cx="0" cy="0" r="1" gradientUnits="userSpaceOnUse" gradientTransform="rotate(-71.234 138.338 -37.24) scale(18.2995 36.907)">
            <stop stop-color="#F49587"/>
            <stop offset=".116" stop-color="#BD7368"/>
            <stop offset=".236" stop-color="#8B554D"/>
            <stop offset=".359" stop-color="#603B35"/>
            <stop offset=".483" stop-color="#3E2622"/>
            <stop offset=".609" stop-color="#231513"/>
            <stop offset=".735" stop-color="#0F0908"/>
            <stop offset=".864" stop-color="#040202"/>
            <stop offset="1"/>
        </radialGradient>
        <radialGradient id="paint89_radial" cx="0" cy="0" r="1" gradientUnits="userSpaceOnUse" gradientTransform="matrix(80.6872 0 0 82.2397 72.252 203.449)">
            <stop stop-color="#fff"/>
            <stop offset="1" stop-color="#FEECA8"/>
        </radialGradient>
        <radialGradient id="paint6_radial" cx="0" cy="0" r="1" gradientUnits="userSpaceOnUse" gradientTransform="matrix(47.483 0 0 47.5343 120.106 95.619)">
            <stop stop-color="#fff"/>
            <stop offset="1"/>
        </radialGradient>
        <radialGradient id="paint4_radial" cx="0" cy="0" r="1" gradientUnits="userSpaceOnUse" gradientTransform="matrix(107.942 0 0 108.059 52.969 173.41)">
            <stop stop-color="#fff"/>
            <stop offset="1" stop-color="#FEECA8"/>
        </radialGradient>
        <filter id="filter0_d" x="0" y="0" width="316" height="298" filterUnits="userSpaceOnUse" color-interpolation-filters="sRGB">
            <feFlood flood-opacity="0" result="BackgroundImageFix"/>
            <feColorMatrix in="SourceAlpha" values="0 0 0 0 0 0 0 0 0 0 0 0 0 0 0 0 0 0 127 0"/>
            <feOffset dy="4"/>
            <feGaussianBlur stdDeviation="2"/>
            <feColorMatrix values="0 0 0 0 0.1125 0 0 0 0 0.13125 0 0 0 0 0.225 0 0 0 0.2 0"/>
            <feBlend in2="BackgroundImageFix" result="effect1_dropShadow"/>
            <feBlend in="SourceGraphic" in2="effect1_dropShadow" result="shape"/>
        </filter>
    </defs>
</svg>
