<svg width="328" height="346" fill="none" xmlns="http://www.w3.org/2000/svg">
    <g filter="url(#filter0_d)">
        <path d="M248.404 191.059c25.543 14.742 38.088 33.925 38.088 52.902 0 18.977-12.545 38.159-38.088 52.902C222.867 311.602 189.334 319 155.746 319s-67.121-7.398-92.659-22.137C37.544 282.12 25 262.938 25 243.961c0-18.977 12.544-38.16 38.087-52.902 25.538-14.739 59.071-22.137 92.659-22.137 33.588 0 67.121 7.398 92.658 22.137z" stroke="url(#paint0_linear)" stroke-width="2"/>
    </g>
    <path d="M24.83 106.471l117.053 168.73L300.54 67.996 213.677 22.06l-80.188 164.742-53.198-84.243-55.46 3.912z" fill="url(#paint1_linear)"/>
    <path d="M80.292 102.561l53.198 84.243 18.064-37.017L107.823 80.5 80.292 102.56z" fill="url(#paint2_radial)"/>
    <path d="M80.292 102.562l27.531-22.06-55.531 3.932-26.404 21.975 54.404-3.847z" fill="url(#paint3_radial)"/>
    <path d="M300.54 67.996L141.884 275.202l27.459-22.041L328 45.956l-27.46 22.04z" fill="url(#paint4_radial)"/>
    <path d="M241.209 0l-27.531 22.06 86.862 45.937L328 45.956 241.209 0z" fill="url(#paint5_radial)"/>
    <path d="M300.54 67.996L328 45.956l-29.346 13.08-84.976-36.975 86.862 45.935z" fill="url(#paint6_radial)"/>
    <path d="M80.292 102.561l53.198 84.243 18.064-37.017L107.823 80.5 80.292 102.56z" fill="url(#paint7_radial)"/>
    <path d="M80.292 102.562l27.531-22.06-55.531 3.932-26.404 21.975 54.404-3.847z" fill="url(#paint8_radial)"/>
    <path d="M300.54 67.996L141.884 275.202l27.459-22.041L328 45.956l-27.46 22.04z" fill="url(#paint9_radial)"/>
    <path d="M241.209 0l-27.531 22.06 86.862 45.937L328 45.956 241.209 0z" fill="url(#paint10_radial)"/>
    <path d="M300.54 67.996L328 45.956l-29.346 13.08-84.976-36.975 86.862 45.935z" fill="url(#paint11_radial)"/>
    <path d="M107.822 80.5L77.639 97.178l-51.752 9.229 51.588-1.839 56.014 82.235-49.907-84.55 24.24-21.755z" fill="url(#paint12_radial)"/>
    <defs>
        <radialGradient id="paint6_radial" cx="0" cy="0" r="1" gradientUnits="userSpaceOnUse" gradientTransform="rotate(67.84 109.04 212.523) scale(45.1919 68.6715)">
            <stop stop-color="#B7FFFF"/>
            <stop offset="1" stop-color="#7CEBFC"/>
        </radialGradient>
        <radialGradient id="paint12_radial" cx="0" cy="0" r="1" gradientUnits="userSpaceOnUse" gradientTransform="rotate(71.035 -53.938 114.833) scale(72.7313 57.1527)">
            <stop stop-color="#fff"/>
            <stop offset="1" stop-color="#96ECFF"/>
        </radialGradient>
        <radialGradient id="paint11_radial" cx="0" cy="0" r="1" gradientUnits="userSpaceOnUse" gradientTransform="rotate(67.84 109.04 212.523) scale(45.1919 68.6715)">
            <stop stop-color="#B7FFFF"/>
            <stop offset="1" stop-color="#7CEBFC"/>
        </radialGradient>
        <radialGradient id="paint2_radial" cx="0" cy="0" r="1" gradientUnits="userSpaceOnUse" gradientTransform="rotate(67.84 109.04 212.523) scale(45.1919 68.6715)">
            <stop stop-color="#B7FFFF"/>
            <stop offset="1" stop-color="#7CEBFC"/>
        </radialGradient>
        <radialGradient id="paint3_radial" cx="0" cy="0" r="1" gradientUnits="userSpaceOnUse" gradientTransform="rotate(67.84 109.04 212.523) scale(45.1919 68.6715)">
            <stop stop-color="#B7FFFF"/>
            <stop offset="1" stop-color="#7CEBFC"/>
        </radialGradient>
        <radialGradient id="paint4_radial" cx="0" cy="0" r="1" gradientUnits="userSpaceOnUse" gradientTransform="rotate(67.84 109.04 212.523) scale(45.1919 68.6715)">
            <stop stop-color="#B7FFFF"/>
            <stop offset="1" stop-color="#7CEBFC"/>
        </radialGradient>
        <radialGradient id="paint5_radial" cx="0" cy="0" r="1" gradientUnits="userSpaceOnUse" gradientTransform="rotate(67.84 109.04 212.523) scale(45.1919 68.6715)">
            <stop stop-color="#B7FFFF"/>
            <stop offset="1" stop-color="#7CEBFC"/>
        </radialGradient>
        <radialGradient id="paint10_radial" cx="0" cy="0" r="1" gradientUnits="userSpaceOnUse" gradientTransform="rotate(67.84 109.04 212.523) scale(45.1919 68.6715)">
            <stop stop-color="#B7FFFF"/>
            <stop offset="1" stop-color="#7CEBFC"/>
        </radialGradient>
        <radialGradient id="paint7_radial" cx="0" cy="0" r="1" gradientUnits="userSpaceOnUse" gradientTransform="rotate(67.84 109.04 212.523) scale(45.1919 68.6715)">
            <stop stop-color="#B7FFFF"/>
            <stop offset="1" stop-color="#7CEBFC"/>
        </radialGradient>
        <radialGradient id="paint8_radial" cx="0" cy="0" r="1" gradientUnits="userSpaceOnUse" gradientTransform="rotate(67.84 109.04 212.523) scale(45.1919 68.6715)">
            <stop stop-color="#B7FFFF"/>
            <stop offset="1" stop-color="#7CEBFC"/>
        </radialGradient>
        <radialGradient id="paint9_radial" cx="0" cy="0" r="1" gradientUnits="userSpaceOnUse" gradientTransform="rotate(67.84 109.04 212.523) scale(45.1919 68.6715)">
            <stop stop-color="#B7FFFF"/>
            <stop offset="1" stop-color="#7CEBFC"/>
        </radialGradient>
        <linearGradient id="paint0_linear" x1="62.588" y1="297.729" x2="155.701" y2="136.4" gradientUnits="userSpaceOnUse">
            <stop stop-color="#3ED983"/>
            <stop offset="1" stop-color="#C6FAE0"/>
        </linearGradient>
        <linearGradient id="paint1_linear" x1="227.942" y1="176.935" x2="-99.412" y2="-83.154" gradientUnits="userSpaceOnUse">
            <stop offset=".035" stop-color="#51CEDF"/>
            <stop offset=".317" stop-color="#549EE2"/>
            <stop offset=".86" stop-color="#57BCDC"/>
            <stop offset="1" stop-color="#4ABAC9"/>
        </linearGradient>
        <filter id="filter0_d" x="0" y="145.922" width="311.492" height="200.078" filterUnits="userSpaceOnUse" color-interpolation-filters="sRGB">
            <feFlood flood-opacity="0" result="BackgroundImageFix"/>
            <feColorMatrix in="SourceAlpha" values="0 0 0 0 0 0 0 0 0 0 0 0 0 0 0 0 0 0 127 0"/>
            <feOffset dy="2"/>
            <feGaussianBlur stdDeviation="12"/>
            <feColorMatrix values="0 0 0 0 0 0 0 0 0 0.901961 0 0 0 0 0.462745 0 0 0 0.6 0"/>
            <feBlend in2="BackgroundImageFix" result="effect1_dropShadow"/>
            <feBlend in="SourceGraphic" in2="effect1_dropShadow" result="shape"/>
        </filter>
    </defs>
</svg>
