<svg width="423" height="348" fill="none" xmlns="http://www.w3.org/2000/svg">
    <g filter="url(#filter0_d)">
        <path d="M198.862 280a1.698 1.698 0 01-1.428-.81 1.6 1.6 0 01.616-2.204l5.648-3.176c.779-.453 1.753-.162 2.208.616a1.601 1.601 0 01-.617 2.204l-5.648 3.176c-.227.129-.52.194-.779.194zm-5.616-1.62c-.292 0-.552-.065-.811-.227l-5.583-3.306c-.779-.453-1.039-1.458-.585-2.203.455-.778 1.461-1.037 2.208-.584l5.583 3.306c.779.454 1.038 1.458.584 2.204-.292.518-.844.81-1.396.81zm16.912-4.732a1.698 1.698 0 01-1.428-.81 1.6 1.6 0 01.616-2.204l5.648-3.175c.779-.422 1.786-.162 2.208.615a1.601 1.601 0 01-.617 2.204l-5.648 3.176c-.227.097-.487.194-.779.194zm-28.078-1.879a1.47 1.47 0 01-.812-.227l-5.583-3.306c-.779-.453-1.038-1.458-.584-2.203.454-.778 1.461-1.037 2.207-.584l5.583 3.306c.779.454 1.039 1.458.585 2.204-.292.55-.844.81-1.396.81zm39.406-4.505a1.703 1.703 0 01-1.428-.81 1.601 1.601 0 01.617-2.204l5.648-3.176c.779-.453 1.753-.162 2.207.616a1.6 1.6 0 01-.616 2.204l-5.649 3.176a1.735 1.735 0 01-.779.194zm-50.605-2.074c-.292 0-.552-.065-.811-.227l-5.583-3.305c-.779-.454-1.039-1.459-.585-2.204.455-.778 1.461-1.037 2.208-.583l5.583 3.305c.779.454 1.038 1.458.584 2.204-.292.518-.844.81-1.396.81zm61.902-4.31a1.703 1.703 0 01-1.429-.81 1.601 1.601 0 01.617-2.204l5.648-3.176a1.605 1.605 0 012.207.616 1.599 1.599 0 01-.616 2.203l-5.648 3.176c-.228.13-.52.195-.779.195zm-73.068-2.269c-.292 0-.552-.064-.812-.227l-5.583-3.305c-.779-.454-1.038-1.458-.584-2.204.454-.778 1.461-1.037 2.207-.583l5.583 3.305c.779.454 1.039 1.459.585 2.204-.325.519-.844.81-1.396.81zm84.364-4.115a1.702 1.702 0 01-1.429-.811c-.454-.777-.162-1.75.617-2.203l2.305-1.297v-1.944c0-.907.714-1.62 1.623-1.62s1.623.713 1.623 1.62v2.884c0 .584-.325 1.134-.812 1.426l-3.116 1.75a1.86 1.86 0 01-.811.195zm-95.563-2.463c-.292 0-.552-.065-.811-.227l-5.583-3.306c-.779-.453-1.039-1.458-.585-2.203.455-.778 1.461-1.038 2.208-.584l5.583 3.306c.779.453 1.038 1.458.584 2.203a1.608 1.608 0 01-1.396.811zm-11.166-6.579a1.47 1.47 0 01-.812-.227l-5.583-3.305c-.779-.454-1.038-1.459-.584-2.204.454-.778 1.461-1.037 2.207-.584l5.583 3.306c.78.454 1.039 1.458.585 2.204-.325.518-.844.81-1.396.81zm109.845-2.107a1.606 1.606 0 01-1.623-1.62v-6.481c0-.908.714-1.621 1.623-1.621s1.623.713 1.623 1.621v6.481c0 .907-.714 1.62-1.623 1.62zm-121.044-4.504c-.292 0-.552-.065-.811-.227l-5.583-3.306c-.779-.453-1.039-1.458-.585-2.203.455-.778 1.461-1.037 2.208-.584l5.583 3.306c.779.454 1.038 1.458.584 2.204-.292.551-.844.81-1.396.81zm-11.198-6.579c-.293 0-.552-.065-.812-.227l-5.583-3.305c-.779-.454-1.039-1.459-.584-2.204.454-.778 1.46-1.037 2.207-.583l5.583 3.305c.779.454 1.039 1.459.584 2.204a1.57 1.57 0 01-1.395.81zM248.298 231c-.551 0-1.071-.259-1.363-.778-.487-.745-.227-1.75.519-2.236l5.519-3.435a1.664 1.664 0 012.239.519c.487.745.228 1.75-.519 2.236l-5.518 3.435c-.292.162-.584.259-.877.259zm-144.512-5.315c-.292 0-.552-.064-.811-.226l-5.583-3.306c-.78-.454-1.04-1.458-.585-2.204.455-.777 1.461-1.037 2.208-.583l5.583 3.306c.779.453 1.038 1.458.584 2.203-.292.519-.844.81-1.396.81zm155.516-1.555c-.551 0-1.071-.259-1.363-.778-.487-.745-.227-1.75.519-2.236l5.519-3.435a1.665 1.665 0 012.239.518c.487.746.228 1.75-.519 2.236l-5.518 3.436c-.26.194-.584.259-.877.259zm-166.715-5.023c-.292 0-.551-.065-.811-.227l-5.583-3.306c-.78-.453-1.039-1.458-.584-2.203.454-.778 1.46-1.037 2.207-.584l5.583 3.306c.78.454 1.039 1.458.584 2.204-.292.518-.811.81-1.395.81zm177.752-1.815c-.552 0-1.071-.259-1.363-.778-.487-.745-.228-1.75.519-2.236l.454-.259v-4.148c0-.908.714-1.621 1.623-1.621s1.623.713 1.623 1.621v5.055c0 .551-.292 1.07-.779 1.361l-1.201.746a1.527 1.527 0 01-.876.259zm-188.918-4.764c-.292 0-.552-.065-.811-.227l-5.616-3.305c-.779-.454-1.038-1.459-.584-2.204.454-.778 1.46-1.037 2.207-.583l5.583 3.305c.78.454 1.039 1.458.585 2.204-.26.518-.812.81-1.364.81zm-11.198-6.611c-.293 0-.552-.065-.812-.227l-5.583-3.273c-.78-.454-1.039-1.458-.584-2.204.454-.778 1.46-1.037 2.207-.583l5.583 3.305c.78.454 1.039 1.459.584 2.204-.292.519-.844.778-1.395.778zm-11.167-6.579c-.292 0-.551-.065-.811-.227l-5.583-3.305c-.78-.454-1.04-1.459-.585-2.204.455-.778 1.461-1.037 2.208-.583l5.583 3.305c.779.454 1.038 1.459.584 2.204-.292.519-.844.81-1.396.81zm-7.433-6.546a1.609 1.609 0 01-1.396-.81 1.6 1.6 0 01.617-2.204l5.648-3.208a1.642 1.642 0 012.207.615 1.6 1.6 0 01-.616 2.204l-5.649 3.208c-.26.13-.551.195-.811.195zm11.264-6.449a1.61 1.61 0 01-1.396-.81c-.455-.778-.163-1.75.617-2.204l5.648-3.208a1.642 1.642 0 012.207.615c.454.778.162 1.75-.617 2.204l-5.648 3.208c-.26.13-.52.195-.811.195zm11.296-6.417a1.61 1.61 0 01-1.396-.81c-.455-.778-.162-1.75.617-2.204l5.648-3.208a1.642 1.642 0 012.207.616c.454.777.162 1.75-.617 2.203l-5.648 3.209c-.26.129-.552.194-.811.194zm11.263-6.417a1.607 1.607 0 01-1.395-.81 1.6 1.6 0 01.616-2.203l5.648-3.209c.78-.421 1.786-.162 2.208.616a1.6 1.6 0 01-.617 2.204l-5.648 3.208c-.26.13-.52.194-.812.194zm11.296-6.416a1.61 1.61 0 01-1.395-.81c-.455-.778-.163-1.75.616-2.204l5.648-3.208a1.643 1.643 0 012.208.615c.454.778.162 1.75-.617 2.204l-5.648 3.208a1.86 1.86 0 01-.812.195zm11.264-6.449a1.609 1.609 0 01-1.396-.81c-.454-.778-.162-1.75.617-2.204l5.648-3.208a1.64 1.64 0 012.207.615c.455.778.163 1.75-.616 2.204l-5.648 3.208c-.26.13-.52.195-.812.195zm11.264-6.417a1.609 1.609 0 01-1.396-.81c-.455-.778-.162-1.75.617-2.204l5.648-3.208a1.642 1.642 0 012.207.616c.454.777.162 1.75-.617 2.203l-5.648 3.209a1.766 1.766 0 01-.811.194zm11.296-6.417a1.607 1.607 0 01-1.396-.81c-.454-.778-.162-1.75.617-2.203l5.648-3.209a1.642 1.642 0 012.207.616c.455.778.162 1.75-.617 2.204l-5.648 3.208c-.259.13-.552.194-.811.194zm11.263-6.449a1.607 1.607 0 01-1.395-.81 1.6 1.6 0 01.616-2.204l5.648-3.208a1.643 1.643 0 012.208.616 1.601 1.601 0 01-.617 2.204l-5.648 3.208c-.26.13-.519.194-.812.194zm11.264-6.416a1.608 1.608 0 01-1.396-.811 1.6 1.6 0 01.617-2.203l5.648-3.209c.779-.453 1.753-.162 2.207.616a1.6 1.6 0 01-.616 2.204l-5.648 3.208c-.26.13-.52.195-.812.195zm11.296-6.417a1.61 1.61 0 01-1.396-.81 1.601 1.601 0 01.617-2.204l5.648-3.208a1.64 1.64 0 012.207.616c.455.777.163 1.75-.616 2.203l-5.648 3.209c-.26.129-.552.194-.812.194zm11.264-6.449a1.609 1.609 0 01-1.396-.81 1.601 1.601 0 01.617-2.204l1.623-.94a1.577 1.577 0 01-.033-1.685 1.643 1.643 0 012.208-.616l1.72.973c.519.291.811.81.811 1.393s-.324 1.134-.811 1.394l-3.928 2.236a1.276 1.276 0 01-.811.259zm-3.441-6.417a1.54 1.54 0 01-.811-.227l-5.648-3.208a1.636 1.636 0 01-.617-2.204 1.641 1.641 0 012.207-.615l5.681 3.24a1.637 1.637 0 01.616 2.204c-.292.519-.844.81-1.428.81zm-11.264-6.449c-.259 0-.551-.065-.811-.227l-5.616-3.208a1.637 1.637 0 01-.616-2.204 1.641 1.641 0 012.207-.615l5.648 3.208a1.637 1.637 0 01.617 2.204 1.663 1.663 0 01-1.429.842zm-11.263-6.449c-.26 0-.552-.065-.812-.227l-5.615-3.176a1.637 1.637 0 01-.617-2.203 1.642 1.642 0 012.207-.616l5.648 3.208a1.637 1.637 0 01.617 2.204c-.325.518-.876.81-1.428.81z" fill="url(#paint0_radial)"/>
        <path d="M100 240c9.941 0 18-8.059 18-18s-8.059-18-18-18-18 8.059-18 18 8.059 18 18 18z" fill="url(#paint1_radial)"/>
        <path d="M100 230a8 8 0 100-16 8 8 0 000 16z" fill="url(#paint2_radial)"/>
        <path opacity=".95" d="M341.288 171.293c-8.912-8.202-16.117-18.49-20.951-29.727-2.939-6.827-.711-13.986 4.645-16.072 6.873-2.703 13.556-7.159 18.771-13.181 4.787 1.328 11.565 0 13.177-5.784 1.659-5.879.332-12.374-2.939-15.788 5.925-25.222 2.844-51.44-27.587-69.362-30.431-17.922-45.41-2.323-53.468 21.62-3.982-.902-8.106 2.37-9.812 8.249-1.659 5.784 2.559 13.56 6.589 17.4.805 9.577 3.365 19.438 6.967 28.304 2.797 6.875.854 14.224-4.55 16.12-8.911 3.129-19.103 3.177-29.436.047-13.699-4.172-26.781 2.798-31.047 17.78l-7.395 25.981c-1.422 5.026 1.138 11.331 5.736 14.034L336.5 245.397c4.598 2.702 9.48.853 10.95-4.22l7.394-25.981c4.219-14.935-1.706-33.046-13.556-43.903z" fill="url(#paint3_linear)"/>
        <path d="M242.647 113.166c10.333 3.129 20.524 3.082 29.435-.047 4.361-1.517 6.4-6.638 5.594-12.185-.711-.19-1.47-.379-2.181-.569-5.972-1.801-11.85-1.517-16.874.616-.427.19-33.086 12.849-33.465 13.086-.332.19-.522.284-.664.427 5.309-2.703 11.661-3.272 18.155-1.328z" fill="url(#paint4_linear)"/>
        <path d="M293.223 15.596c-.142.095-.189.142-.331.19.521-.238.995-.475 1.564-.713-.664.285-1.138.475-1.233.523z" fill="url(#paint5_linear)"/>
        <path d="M357.83 112.692c5.356-2.086 10.618-5.262 15.121-9.434.19-.143 9.812-3.082 12.561-4.457 1.991-.996 3.603-2.655 4.266-5.073 1.659-5.879.332-12.374-2.939-15.788 5.925-25.223 2.844-51.441-27.587-69.363-13.604-8.012-24.079-9.34-32.28-6.21-.616.237-26.023 10.098-32.28 12.564 8.106-2.845 18.439-1.423 31.711 6.4 30.432 17.921 33.513 44.14 27.588 69.363 3.318 3.366 4.645 9.909 2.939 15.788-1.659 5.784-8.438 7.111-13.178 5.784-5.214 6.021-11.897 10.478-18.771 13.18-5.356 2.086-7.536 9.293-4.645 16.072 4.835 11.237 12.04 21.525 20.951 29.727 11.803 10.857 17.728 29.016 13.462 43.998l-7.394 25.981c-.522 1.849-1.517 3.272-2.844 4.22 7.442-2.797 30.383-11.663 30.763-11.758 2.275-.617 4.124-2.418 4.929-5.215l7.395-25.982c4.266-14.982-1.659-33.093-13.462-43.997-8.911-8.202-16.116-18.491-20.951-29.727-2.939-6.78-.711-13.986 4.645-16.073z" fill="url(#paint6_linear)"/>
        <path d="M324.698 141.14c-2.939-6.827-.711-13.986 4.645-16.072 6.541-2.561 12.846-6.733 17.918-12.327-1.233 0-2.418-.142-3.508-.474-5.214 6.021-11.898 10.478-18.771 13.18-5.356 2.086-7.537 9.293-4.645 16.072 4.835 11.237 12.04 21.525 20.951 29.727 11.803 10.857 17.728 29.016 13.462 43.998l-7.395 25.981c-.663 2.371-2.133 3.983-3.934 4.836 3.697.806 7.11-1.138 8.295-5.215l7.395-25.982c4.266-14.981-1.659-33.093-13.462-43.997-8.911-8.202-16.116-18.49-20.951-29.727z" fill="url(#paint7_radial)"/>
        <path d="M242.647 113.166c7.394 2.228 14.694 2.844 21.52 1.849-5.546.237-11.329-.475-17.159-2.276-4.219-1.28-8.295-1.375-12.135-.664 2.512.048 5.119.285 7.774 1.091z" fill="url(#paint8_radial)"/>
        <path d="M360.248 90.076c5.925-25.223 2.844-51.441-27.587-69.362-11.424-6.733-22.658-8.487-30.194-7.065 6.683-.095 14.552 2.229 23.842 7.728 30.432 17.922 33.513 44.14 27.588 69.363 3.318 3.366 4.645 9.909 2.938 15.788-.9 3.224-3.46 5.025-6.304 5.784 4.361.332 9.291-1.375 10.665-6.164 1.754-5.879 2.37-12.658-.948-16.072z" fill="url(#paint9_radial)"/>
        <path d="M62.005 111.06c5.878-5.215 10.902-11.805 14.694-19.012 2.276-4.409 1.564-9.103-1.327-10.525-3.792-1.849-7.252-4.836-9.812-8.819-2.891.806-6.73-.19-7.205-3.935-.474-3.84.853-8.06 3.034-10.24-1.327-16.5 2.654-33.52 21.851-44.71 19.15-11.188 26.592-.853 29.247 14.84 2.417-.521 4.503 1.66 5.024 5.5.474 3.793-2.607 8.771-5.309 11.237-1.279 6.21-3.602 12.611-6.399 18.3-2.18 4.41-1.706 9.246 1.28 10.573 4.93 2.181 10.807 2.37 17.112.474 8.342-2.513 15.31 2.181 16.543 11.995l2.133 17.021c.426 3.271-1.612 7.349-4.503 9.055L58.64 159.372c-2.892 1.707-5.594.38-6.02-2.892l-2.086-17.02c-1.232-9.767 3.697-21.525 11.471-28.4z" fill="url(#paint10_linear)"/>
        <path d="M103.149 10.597a.647.647 0 00-.19-.143c-.047-.047-.284-.142-.663-.332.332.142.616.332.853.475z" fill="url(#paint11_linear)"/>
        <path d="M106.183 65.923c-.427.142-.854.19-1.28.284-.948 3.604-.19 6.97 2.228 8.06 4.929 2.181 10.807 2.371 17.111.475 3.935-1.186 7.584-.712 10.476 1.137-.047-.094-.19-.142-.379-.284-.19-.142-18.155-8.866-18.344-9.008-2.797-1.517-6.21-1.754-9.812-.664z" fill="url(#paint12_linear)"/>
        <path d="M52.62 156.48l-2.086-17.02c-1.232-9.814 3.745-21.525 11.519-28.4 5.877-5.215 10.902-11.805 14.694-19.011 2.275-4.41 1.564-9.104-1.327-10.526-3.792-1.849-7.253-4.836-9.812-8.818-2.892.806-6.731-.19-7.205-3.935-.474-3.84.853-8.06 3.033-10.241-1.327-16.5 2.655-33.52 21.852-44.709 8.39-4.883 14.505-5.69 18.96-3.698-3.46-1.707-17.348-8.487-17.727-8.629C80.017-.64 73.808.023 65.228 5.05c-19.15 11.189-23.178 28.21-21.851 44.709-2.18 2.133-3.508 6.353-3.034 10.24.19 1.613.995 2.703 2.038 3.367 1.47.9 6.826 2.94 6.92 3.081a24.876 24.876 0 008.011 6.354c2.94 1.422 3.603 6.163 1.328 10.525-3.745 7.254-8.817 13.844-14.694 19.012-7.774 6.874-12.751 18.632-11.519 28.399l2.133 17.021c.237 1.849 1.138 3.034 2.418 3.461.237.094 13.604 6.59 17.253 8.297-.758-.664-1.422-1.612-1.611-3.035z" fill="url(#paint13_linear)"/>
        <path d="M54.705 67.632c.38 3.034 2.892 4.22 5.357 4.172-.901-.664-1.517-1.707-1.707-3.13-.474-3.84.853-8.059 3.034-10.24-1.328-16.499 2.654-33.52 21.851-44.709 6.542-3.793 11.661-5.073 15.738-4.551-4.504-2.228-10.713-1.565-19.387 3.46-19.15 11.19-23.18 28.21-21.852 44.71-2.18 2.228-3.508 6.448-3.034 10.288z" fill="url(#paint14_radial)"/>
        <path d="M52.62 156.481l-2.085-17.021c-1.233-9.814 3.744-21.525 11.518-28.399 5.878-5.215 10.902-11.806 14.694-19.012 2.275-4.41 1.564-9.103-1.327-10.525-3.792-1.85-7.252-4.836-9.812-8.819-.853.237-1.801.285-2.702.19 2.418 3.319 5.499 5.926 8.864 7.586 2.939 1.422 3.603 6.163 1.327 10.525-3.744 7.254-8.816 13.844-14.694 19.012-7.82 6.874-12.75 18.585-11.566 28.399l2.133 17.021c.332 2.75 2.276 3.982 4.598 3.366-.474-.616-.805-1.375-.948-2.323z" fill="url(#paint15_radial)"/>
    </g>
    <defs>
        <radialGradient id="paint7_radial" cx="0" cy="0" r="1" gradientUnits="userSpaceOnUse" gradientTransform="matrix(31.9865 0 0 31.9936 373.244 186.069)">
            <stop stop-color="#fff"/>
            <stop offset="1" stop-color="#65FFB4"/>
        </radialGradient>
        <radialGradient id="paint15_radial" cx="0" cy="0" r="1" gradientUnits="userSpaceOnUse" gradientTransform="matrix(19.4649 0 0 37.1257 60.779 103.217)">
            <stop stop-color="#fff"/>
            <stop offset="1" stop-color="#93F2FF"/>
        </radialGradient>
        <radialGradient id="paint1_radial" cx="0" cy="0" r="1" gradientUnits="userSpaceOnUse" gradientTransform="translate(100.001 222.002) scale(18.0051)">
            <stop stop-color="#00CB68"/>
            <stop offset="1" stop-color="#00CB68" stop-opacity="0"/>
        </radialGradient>
        <radialGradient id="paint2_radial" cx="0" cy="0" r="1" gradientUnits="userSpaceOnUse" gradientTransform="translate(100.001 222.001) scale(8.00225)">
            <stop stop-color="#00CB68"/>
            <stop offset="1" stop-color="#00CB68" stop-opacity="0"/>
        </radialGradient>
        <radialGradient id="paint14_radial" cx="0" cy="0" r="1" gradientUnits="userSpaceOnUse" gradientTransform="matrix(27.4744 0 0 27.4805 74.535 30.544)">
            <stop stop-color="#fff"/>
            <stop offset="1" stop-color="#93F2FF"/>
        </radialGradient>
        <radialGradient id="paint9_radial" cx="0" cy="0" r="1" gradientUnits="userSpaceOnUse" gradientTransform="matrix(46.5089 0 0 23.6803 381.262 67.816)">
            <stop stop-color="#fff"/>
            <stop offset="1" stop-color="#65FFB4"/>
        </radialGradient>
        <radialGradient id="paint8_radial" cx="0" cy="0" r="1" gradientUnits="userSpaceOnUse" gradientTransform="matrix(22.6112 0 0 .91771 273.181 113.75)">
            <stop stop-color="#fff"/>
            <stop offset="1" stop-color="#65FFB4"/>
        </radialGradient>
        <radialGradient id="paint0_radial" cx="0" cy="0" r="1" gradientUnits="userSpaceOnUse" gradientTransform="matrix(195.00007 79.0002 -78.87215 194.68402 129 143)">
            <stop stop-color="#1694FF"/>
            <stop offset=".304" stop-color="#1597C5"/>
            <stop offset=".807" stop-color="#00CB68"/>
        </radialGradient>
        <linearGradient id="paint6_linear" x1="311.777" y1="12.333" x2="398.569" y2="222.532" gradientUnits="userSpaceOnUse">
            <stop stop-color="#57EAA2"/>
            <stop offset=".384" stop-color="#00A957"/>
            <stop offset=".591" stop-color="#00CB68"/>
            <stop offset=".768" stop-color="#57EAA2"/>
            <stop offset="1" stop-color="#00CB68"/>
        </linearGradient>
        <linearGradient id="paint5_linear" x1="293.646" y1="15.403" x2="293.668" y2="15.457" gradientUnits="userSpaceOnUse">
            <stop stop-color="#FEDFA7"/>
            <stop offset=".157" stop-color="#FEECB2"/>
            <stop offset=".384" stop-color="#FFA98C"/>
            <stop offset=".487" stop-color="#FFAD8E"/>
            <stop offset=".591" stop-color="#FFB993"/>
            <stop offset=".696" stop-color="#FECD9C"/>
            <stop offset=".768" stop-color="#FEE0A4"/>
            <stop offset="1" stop-color="#FFB792"/>
        </linearGradient>
        <linearGradient id="paint4_linear" x1="249.648" y1="104.301" x2="280.79" y2="179.724" gradientUnits="userSpaceOnUse">
            <stop stop-color="#8CF5C2"/>
            <stop offset=".384" stop-color="#00AC58"/>
            <stop offset=".591" stop-color="#008041"/>
            <stop offset=".768" stop-color="#FEE0A4"/>
            <stop offset="1" stop-color="#FFB792"/>
        </linearGradient>
        <linearGradient id="paint10_linear" x1="124.487" y1="96.614" x2="-47.719" y2="62.383" gradientUnits="userSpaceOnUse">
            <stop offset=".035" stop-color="#138BBD"/>
            <stop offset=".226" stop-color="#169AC7"/>
            <stop offset=".595" stop-color="#1FC3DF"/>
            <stop offset="1" stop-color="#2AF6FF"/>
        </linearGradient>
        <linearGradient id="paint11_linear" x1="102.609" y1="10.015" x2="102.892" y2="10.699" gradientUnits="userSpaceOnUse">
            <stop stop-color="#1BB0D4"/>
            <stop offset=".157" stop-color="#43E8E1"/>
            <stop offset=".384" stop-color="#1BB0D4"/>
            <stop offset=".486" stop-color="#1EB4D5"/>
            <stop offset=".589" stop-color="#27C0D8"/>
            <stop offset=".693" stop-color="#35D4DC"/>
            <stop offset=".768" stop-color="#43E8E1"/>
            <stop offset="1" stop-color="#1BB0D4"/>
        </linearGradient>
        <linearGradient id="paint12_linear" x1="123.03" y1="67.337" x2="95.489" y2="98.314" gradientUnits="userSpaceOnUse">
            <stop stop-color="#1BB0D4"/>
            <stop offset=".157" stop-color="#43E8E1"/>
            <stop offset=".384" stop-color="#1BB0D4"/>
            <stop offset=".486" stop-color="#1EB4D5"/>
            <stop offset=".589" stop-color="#27C0D8"/>
            <stop offset=".693" stop-color="#35D4DC"/>
            <stop offset=".768" stop-color="#43E8E1"/>
            <stop offset="1" stop-color="#1BB0D4"/>
        </linearGradient>
        <linearGradient id="paint13_linear" x1="86.413" y1="3.274" x2="24.792" y2="155.954" gradientUnits="userSpaceOnUse">
            <stop stop-color="#1BB0D4"/>
            <stop offset=".157" stop-color="#6EFFF9"/>
            <stop offset=".384" stop-color="#1BB0D4"/>
            <stop offset=".486" stop-color="#1EB4D5"/>
            <stop offset=".589" stop-color="#27C0D8"/>
            <stop offset=".693" stop-color="#35D4DC"/>
            <stop offset=".768" stop-color="#43E8E1"/>
            <stop offset="1" stop-color="#1BB0D4"/>
        </linearGradient>
        <linearGradient id="paint3_linear" x1="7.811" y1="175.005" x2="509.187" y2="181.159" gradientUnits="userSpaceOnUse">
            <stop offset=".035" stop-color="#00341B"/>
            <stop offset=".317" stop-color="#00CB68"/>
            <stop offset=".86" stop-color="#58E8A2"/>
            <stop offset="1" stop-color="#96FAC9"/>
        </linearGradient>
        <filter id="filter0_d" x="0" y="0" width="423" height="348" filterUnits="userSpaceOnUse" color-interpolation-filters="sRGB">
            <feFlood flood-opacity="0" result="BackgroundImageFix"/>
            <feColorMatrix in="SourceAlpha" values="0 0 0 0 0 0 0 0 0 0 0 0 0 0 0 0 0 0 127 0"/>
            <feOffset dy="36"/>
            <feGaussianBlur stdDeviation="16"/>
            <feColorMatrix values="0 0 0 0 0.133333 0 0 0 0 0.180392 0 0 0 0 0.227451 0 0 0 0.15 0"/>
            <feBlend in2="BackgroundImageFix" result="effect1_dropShadow"/>
            <feBlend in="SourceGraphic" in2="effect1_dropShadow" result="shape"/>
        </filter>
    </defs>
</svg>
