<svg width="1920" height="686" fill="none" xmlns="http://www.w3.org/2000/svg">
    <g filter="url(#filter0_d)">
        <path d="M-4.5 101.311l.516.272a429.96 429.96 0 007.937 4.049c6.947 3.46 17.128 8.341 30.081 14.03 25.904 11.378 62.9 25.992 107.283 38.944 88.744 25.898 207.137 45.187 325.471 18.565 30.513-6.864 62.356-14.52 95.33-22.449 222.267-53.44 495.982-119.25 760.952-38.475 152.86 46.599 254.54 12.463 342.29-23.723 7.32-3.02 14.54-6.053 21.69-9.052 78.2-32.828 147-61.707 235.45-27.746v393.908c-402.79-128.917-761.08-70.676-1138.135 37.308-188.588 54.008-386.121 65.423-536.542 63.326-75.203-1.048-138.614-5.474-183.22-9.637-22.302-2.081-39.903-4.097-51.925-5.592a1023.093 1023.093 0 01-13.74-1.794c-1.499-.208-2.65-.371-3.438-.485V101.311z" stroke="#006ECC" stroke-width="3"/>
    </g>
    <g filter="url(#filter1_di)">
        <path d="M476.5 190.742C241.5 243.67-2 143.653-2 143.653v414.856s411.5 49.813 787.5-57.987c376-107.8 733-191.861 1134.5-62.656V49.474c-194.55-75.655-327 122.978-620.5 55.651s-588 32.69-823 85.617z" fill="#006ECC"/>
    </g>
    <defs>
        <filter id="filter0_d" x="-22" y="23" width="1962" height="545" filterUnits="userSpaceOnUse" color-interpolation-filters="sRGB">
            <feFlood flood-opacity="0" result="BackgroundImageFix"/>
            <feColorMatrix in="SourceAlpha" values="0 0 0 0 0 0 0 0 0 0 0 0 0 0 0 0 0 0 127 0"/>
            <feOffset/>
            <feGaussianBlur stdDeviation="8"/>
            <feColorMatrix values="0 0 0 0 0.225 0 0 0 0 0.642892 0 0 0 0 1 0 0 0 0.6 0"/>
            <feBlend in2="BackgroundImageFix" result="effect1_dropShadow"/>
            <feBlend in="SourceGraphic" in2="effect1_dropShadow" result="shape"/>
        </filter>
        <filter id="filter1_di" x="-34" y="0" width="1986" height="602" filterUnits="userSpaceOnUse" color-interpolation-filters="sRGB">
            <feFlood flood-opacity="0" result="BackgroundImageFix"/>
            <feColorMatrix in="SourceAlpha" values="0 0 0 0 0 0 0 0 0 0 0 0 0 0 0 0 0 0 127 0"/>
            <feOffset/>
            <feGaussianBlur stdDeviation="16"/>
            <feColorMatrix values="0 0 0 0 0 0 0 0 0 0.431373 0 0 0 0 0.8 0 0 0 0.4 0"/>
            <feBlend in2="BackgroundImageFix" result="effect1_dropShadow"/>
            <feBlend in="SourceGraphic" in2="effect1_dropShadow" result="shape"/>
            <feColorMatrix in="SourceAlpha" values="0 0 0 0 0 0 0 0 0 0 0 0 0 0 0 0 0 0 127 0" result="hardAlpha"/>
            <feOffset dy="4"/>
            <feGaussianBlur stdDeviation="16"/>
            <feComposite in2="hardAlpha" operator="arithmetic" k2="-1" k3="1"/>
            <feColorMatrix values="0 0 0 0 0.3875 0 0 0 0 0.71777 0 0 0 0 1 0 0 0 0.6 0"/>
            <feBlend in2="shape" result="effect2_innerShadow"/>
        </filter>
    </defs>
</svg>
