<svg xmlns="http://www.w3.org/2000/svg" width="100" height="100">
    <path d="M93.777 26.898c-.879-4.835-5.054-8.359-9.902-9.46-7.25-1.54-20.676-2.637-35.2-2.637-14.515 0-28.152 1.097-35.413 2.636-4.84 1.102-9.024 4.403-9.899 9.461-.886 5.5-1.761 13.204-1.761 23.102s.875 17.602 1.976 23.102c.883 4.835 5.059 8.359 9.899 9.46 7.699 1.54 20.898 2.637 35.421 2.637 14.524 0 27.727-1.097 35.426-2.636 4.836-1.102 9.016-4.403 9.899-9.461.879-5.5 1.976-13.426 2.199-23.102-.445-9.898-1.547-17.602-2.645-23.102zm-56.976 38.5V34.602L63.637 50zm0 0" fill="#e74c3c"/>
</svg>
