<svg width="1360" height="1614" fill="none" xmlns="http://www.w3.org/2000/svg">
    <path fill-rule="evenodd" clip-rule="evenodd" d="M674.572 748.025c120.207 140.8 57.003 352.925 116.747 527.875 79.05 231.48 374.831 428.73 287.531 655.94-84.792 220.66-408.386 214.51-640.226 261.94-177.288 36.26-348.93-15.59-530.081-22.56-216.926-8.34-449.077 91.26-634.914-22.25-199.307-121.74-319.149-353.2-356.359-583.25-37.2-229.99 36.01-462.87 154.943-661.986 113.118-189.382 281.436-348.697 490.758-419.04 193.932-65.173 398.302 5.743 598.186 53.095 184.285 43.656 390.191 65.904 513.415 210.236z" fill="url(#paint0_linear)"/>
    <defs>
        <linearGradient id="paint0_linear" x1="706.826" y1="778.612" x2="-.281" y2="1485.72" gradientUnits="userSpaceOnUse">
            <stop stop-color="#324B61"/>
            <stop offset="1" stop-color="#324B61" stop-opacity="0"/>
        </linearGradient>
    </defs>
</svg>
