<svg width="1232" height="288" fill="none" xmlns="http://www.w3.org/2000/svg">
    <path fill-rule="evenodd" clip-rule="evenodd" d="M133.172 130.295c46.14 3.64 72.466 52.312 113.954 72.677 54.894 26.946 142.051 9.528 166.783 65.127 24.019 53.996-34.271 110.114-66.872 159.481-24.93 37.751-64.438 58.928-97.692 89.719-39.823 36.873-63.254 95.519-116.173 108.304-56.754 13.711-118.856-6.02-166.1-40.108-47.234-34.082-75.46-88.193-89.634-144.415-13.482-53.475-11.89-111.393 12.678-160.831 22.762-45.804 71.426-69.395 115.131-96.359 40.295-24.86 80.627-57.327 127.925-53.595z" fill="url(#paint0_linear)"/>
    <path fill-rule="evenodd" clip-rule="evenodd" d="M737.172-303.705c46.14 3.64 72.466 52.312 113.954 72.677 54.894 26.946 142.051 9.528 166.784 65.127 24.02 53.996-34.272 110.114-66.873 159.48-24.93 37.752-64.438 58.929-97.692 89.72-39.823 36.873-63.254 95.519-116.173 108.304-56.754 13.711-118.856-6.02-166.1-40.108-47.234-34.082-75.46-88.192-89.634-144.415-13.482-53.475-11.89-111.393 12.678-160.831 22.762-45.804 71.426-69.395 115.131-96.359 40.295-24.86 80.627-57.327 127.925-53.595z" fill="url(#paint1_linear)"/>
    <path fill-rule="evenodd" clip-rule="evenodd" d="M1329.53 265.688c27.5 37.229 8 89.017 19.82 133.697 15.64 59.117 85.92 113.518 60.15 168.642-25.03 53.534-105.62 46.302-164.27 54.044-44.85 5.921-86.74-10.032-131.79-14.96-53.95-5.902-113.603 14.848-157.947-16.734-47.558-33.87-73.368-93.702-78.595-151.725-5.226-58.012 17.134-114.798 50.299-162.357 31.545-45.236 76.323-82.001 129.763-95.856 49.51-12.837 99.23 8.448 148.24 23.777 45.19 14.133 96.15 23.308 124.33 61.472z" fill="url(#paint2_linear)"/>
    <defs>
        <linearGradient id="paint0_linear" x1="144.281" y1="130" x2="144.281" y2="380" gradientUnits="userSpaceOnUse">
            <stop stop-color="#324B61"/>
            <stop offset="1" stop-color="#324B61" stop-opacity="0"/>
        </linearGradient>
        <linearGradient id="paint1_linear" x1="748.281" y1="-304" x2="743" y2="164" gradientUnits="userSpaceOnUse">
            <stop stop-color="#324B61"/>
            <stop offset="1" stop-color="#324B61" stop-opacity="0"/>
        </linearGradient>
        <linearGradient id="paint2_linear" x1="1337.04" y1="273.884" x2="1148.25" y2="437.766" gradientUnits="userSpaceOnUse">
            <stop stop-color="#324B61"/>
            <stop offset="1" stop-color="#324B61" stop-opacity="0"/>
        </linearGradient>
    </defs>
</svg>
