<svg width="631" height="554" fill="none" xmlns="http://www.w3.org/2000/svg">
    <g filter="url(#filter0_d)">
        <path d="M217.834 496.084L34.238 390.093c-15.16-8.754-13.265-24.03 4.236-34.122l314.688-181.763c17.501-10.092 43.92-11.207 59.08-2.453l183.541 105.991c15.16 8.754 13.265 24.031-4.236 34.122L276.859 493.631c-17.446 10.092-43.921 11.207-59.025 2.453z" fill="url(#paint0_radial)"/>
        <path d="M217.835 491.233L34.239 385.242c-15.16-8.754-13.265-24.031 4.236-34.123l314.744-181.762c17.501-10.092 43.92-11.207 59.08-2.453l183.54 105.991c15.161 8.753 13.266 24.03-4.236 34.122L276.915 488.78c-17.501 10.091-43.976 11.206-59.08 2.453z" fill="url(#paint1_linear)"/>
        <path d="M211.257 411.781c-.558-1.728-2.787-3.735-6.521-5.91-3.623-2.119-7.023-3.345-10.2-3.68-3.177-.334-5.964.168-8.416 1.617-2.564 1.45-3.512 3.067-2.954 4.851.557 1.728 2.786 3.735 6.577 5.91 3.678 2.119 7.022 3.345 10.144 3.68 3.121.334 5.908-.167 8.416-1.617 2.564-1.45 3.567-3.067 2.954-4.851zm-10.646 3.067c-1.616-.391-3.734-1.338-6.354-2.9-2.619-1.561-4.292-2.732-5.016-3.679-.725-.948-.502-1.729.557-2.342 1.059-.613 2.397-.725 4.013-.335 1.617.391 3.79 1.338 6.41 2.9 2.62 1.505 4.292 2.732 4.961 3.679.668.948.501 1.729-.558 2.342-1.059.613-2.396.725-4.013.335zm46.429-23.696c-.558-1.729-2.787-3.736-6.522-5.91-3.622-2.119-7.022-3.346-10.199-3.68-3.177-.335-5.964.167-8.417 1.617-2.563 1.449-3.511 3.066-2.954 4.85.558 1.729 2.787 3.736 6.577 5.91 3.679 2.119 7.023 3.346 10.144 3.68 3.122.335 5.908-.167 8.417-1.617 2.563-1.505 3.567-3.122 2.954-4.85zm-10.646 3.01c-1.616-.39-3.734-1.338-6.354-2.899-2.62-1.505-4.292-2.732-5.016-3.68-.725-.948-.502-1.728.557-2.341 1.059-.614 2.397-.725 4.013-.335 1.616.39 3.79 1.338 6.41 2.899 2.619 1.506 4.291 2.732 4.96 3.68.669.948.502 1.729-.557 2.342-1.059.669-2.397.781-4.013.334zm-7.246 7.304c-.557-1.728-2.731-3.735-6.521-5.91-3.623-2.118-7.023-3.345-10.2-3.68-3.177-.334-5.964.168-8.472 1.617-2.564 1.45-3.511 3.067-2.954 4.851.558 1.729 2.787 3.736 6.577 5.91 3.679 2.119 7.023 3.346 10.144 3.68 3.121.335 5.908-.167 8.416-1.617 2.62-1.45 3.623-3.066 3.01-4.851zm-10.645 3.067c-1.617-.39-3.735-1.338-6.354-2.899-2.62-1.561-4.292-2.732-5.017-3.68-.724-.948-.501-1.729.558-2.342 1.059-.613 2.396-.725 4.013-.334 1.616.39 3.79 1.338 6.409 2.899 2.62 1.505 4.292 2.732 4.961 3.68.669.948.502 1.728-.557 2.341-1.059.614-2.397.725-4.013.335zm-25.138 17.619c-.557-1.729-2.786-3.736-6.521-5.91-3.623-2.119-7.023-3.346-10.2-3.68-3.177-.335-5.963.167-8.416 1.617-2.564 1.449-3.511 3.066-2.954 4.85.558 1.729 2.787 3.736 6.577 5.91 3.679 2.119 7.023 3.346 10.144 3.68 3.121.335 5.908-.167 8.416-1.617 2.564-1.505 3.512-3.122 2.954-4.85zm-10.645 3.066c-1.617-.39-3.735-1.338-6.354-2.899-2.62-1.505-4.292-2.732-5.016-3.68-.725-.948-.502-1.728.557-2.342 1.059-.613 2.397-.724 4.013-.334 1.616.39 3.79 1.338 6.41 2.899 2.619 1.505 4.291 2.732 4.96 3.68.669.948.502 1.728-.557 2.342-1.059.613-2.397.724-4.013.334zm107.404-58.933c-.557-1.729-2.787-3.736-6.521-5.91-3.623-2.119-7.023-3.346-10.2-3.68-3.177-.335-5.964.167-8.416 1.617-2.564 1.449-3.512 3.066-2.954 4.85.557 1.729 2.787 3.736 6.577 5.911 3.678 2.118 7.022 3.345 10.144 3.679 3.121.335 5.908-.167 8.416-1.617 2.564-1.505 3.567-3.122 2.954-4.85zm-10.646 3.011c-1.616-.391-3.734-1.339-6.354-2.9-2.619-1.561-4.291-2.732-5.016-3.68-.725-.947-.502-1.728.557-2.341 1.059-.614 2.397-.725 4.013-.335 1.617.39 3.79 1.338 6.41 2.899 2.62 1.506 4.292 2.732 4.961 3.68.668.948.501 1.729-.558 2.342-1.059.613-2.396.725-4.013.335zm46.429-23.696c-.558-1.729-2.787-3.736-6.521-5.911-3.623-2.118-7.023-3.345-10.2-3.679-3.177-.335-5.964.167-8.416 1.616-2.564 1.45-3.512 3.067-2.954 4.851.557 1.729 2.786 3.736 6.576 5.91 3.679 2.119 7.023 3.346 10.144 3.68 3.122.335 5.909-.167 8.417-1.617 2.564-1.505 3.567-3.122 2.954-4.85zm-10.646 3.066c-1.616-.39-3.734-1.338-6.354-2.899-2.62-1.506-4.292-2.732-5.016-3.68-.725-.948-.502-1.728.557-2.342 1.059-.613 2.397-.725 4.013-.334 1.617.39 3.79 1.338 6.41 2.899 2.619 1.505 4.292 2.732 4.96 3.68.669.948.502 1.728-.557 2.342-1.059.613-2.397.724-4.013.334zm-7.246 7.248c-.557-1.728-2.787-3.735-6.521-5.91-3.623-2.119-7.023-3.345-10.2-3.68-3.177-.334-5.963.168-8.416 1.617-2.564 1.45-3.511 3.067-2.954 4.851.557 1.728 2.787 3.736 6.577 5.91 3.679 2.119 7.023 3.345 10.144 3.68 3.121.334 5.908-.167 8.416-1.617 2.564-1.45 3.567-3.067 2.954-4.851zm-10.645 3.067c-1.617-.39-3.735-1.338-6.354-2.899-2.62-1.506-4.292-2.732-5.017-3.68-.724-.948-.501-1.729.558-2.342 1.059-.613 2.396-.725 4.013-.335 1.616.391 3.79 1.339 6.409 2.9 2.62 1.505 4.292 2.732 4.961 3.68.669.947.502 1.728-.557 2.341-1.059.614-2.397.725-4.013.335zM272.232 376.6c-.557-1.729-2.786-3.736-6.521-5.911-3.623-2.118-7.022-3.345-10.199-3.679-3.177-.335-5.964.167-8.472 1.617-2.564 1.449-3.512 3.066-2.954 4.85.557 1.729 2.786 3.736 6.576 5.91 3.623 2.119 7.023 3.346 10.145 3.68 3.121.335 5.908-.167 8.416-1.617 2.619-1.505 3.623-3.122 3.009-4.85zm-10.645 3.066c-1.617-.39-3.735-1.338-6.354-2.899-2.62-1.561-4.292-2.732-5.016-3.68-.725-.948-.502-1.728.557-2.342 1.059-.613 2.397-.725 4.013-.334 1.616.39 3.79 1.338 6.41 2.899 2.619 1.505 4.291 2.732 4.96 3.68.669.948.502 1.728-.557 2.342-1.059.613-2.397.724-4.013.334zm92.522-50.347c-.557-1.728-2.786-3.736-6.521-5.91-3.623-2.119-7.023-3.345-10.2-3.68-3.177-.335-5.963.167-8.472 1.617-2.563 1.45-3.511 3.066-2.954 4.851.558 1.728 2.787 3.735 6.577 5.91 3.623 2.118 7.023 3.345 10.144 3.68 3.122.334 5.908-.168 8.417-1.617 2.619-1.506 3.622-3.123 3.009-4.851zm-10.645 3.011c-1.617-.391-3.735-1.338-6.354-2.9-2.62-1.505-4.292-2.732-5.017-3.679-.724-.948-.501-1.729.558-2.342 1.059-.613 2.396-.725 4.013-.335 1.616.391 3.79 1.338 6.41 2.9 2.619 1.505 4.291 2.732 4.96 3.679.669.948.502 1.729-.557 2.342-1.059.669-2.397.781-4.013.335zm46.428-23.696c-.557-1.729-2.787-3.736-6.521-5.91-3.623-2.119-7.023-3.346-10.2-3.68-3.177-.335-5.964.167-8.472 1.617-2.564 1.449-3.511 3.066-2.954 4.85.558 1.729 2.787 3.736 6.577 5.91 3.679 2.119 7.023 3.346 10.144 3.68 3.121.335 5.908-.167 8.416-1.617 2.62-1.505 3.623-3.122 3.01-4.85zm-10.646 3.066c-1.616-.39-3.734-1.338-6.353-2.899-2.62-1.505-4.292-2.732-5.017-3.68-.724-.948-.501-1.728.558-2.342 1.059-.613 2.396-.724 4.013-.334 1.616.39 3.79 1.338 6.409 2.899 2.62 1.506 4.292 2.732 4.961 3.68.669.948.501 1.728-.558 2.342-1.058.613-2.396.725-4.013.334zm-7.245 7.248c-.558-1.728-2.787-3.735-6.521-5.91-3.623-2.118-7.023-3.345-10.2-3.679-3.177-.335-5.964.167-8.472 1.616-2.564 1.45-3.512 3.067-2.954 4.851.557 1.729 2.787 3.736 6.577 5.91 3.678 2.119 7.023 3.346 10.144 3.68 3.121.335 5.908-.167 8.416-1.617 2.62-1.449 3.623-3.066 3.01-4.851zm-10.646 3.067c-1.616-.39-3.734-1.338-6.354-2.899-2.619-1.506-4.292-2.732-5.016-3.68-.725-.948-.502-1.729.557-2.342 1.059-.613 2.397-.725 4.013-.334 1.617.39 3.79 1.338 6.41 2.899 2.62 1.505 4.292 2.732 4.96 3.68.669.948.502 1.728-.557 2.341-1.059.614-2.397.725-4.013.335zm46.484-23.696c-.557-1.728-2.787-3.736-6.521-5.91-3.623-2.119-7.023-3.345-10.2-3.68-3.177-.335-5.963.167-8.472 1.617-2.563 1.45-3.511 3.066-2.954 4.851.558 1.728 2.787 3.735 6.577 5.91 3.679 2.118 7.023 3.345 10.144 3.68 3.122.334 5.908-.168 8.417-1.617 2.563-1.506 3.567-3.123 3.009-4.851zm-10.645 3.011c-1.617-.391-3.735-1.338-6.354-2.9-2.62-1.505-4.292-2.732-5.017-3.679-.724-.948-.501-1.729.558-2.342 1.059-.613 2.396-.725 4.013-.335 1.616.391 3.79 1.338 6.409 2.9 2.62 1.505 4.292 2.732 4.961 3.679.669.948.502 1.729-.557 2.342-1.115.614-2.453.725-4.013.335zm61.365-51.741c.558 1.728 2.787 3.735 6.577 5.91 3.679 2.119 7.023 3.345 10.144 3.68 3.122.334 5.908-.168 8.417-1.617 2.563-1.45 3.511-3.067 2.954-4.851-.558-1.728-2.787-3.736-6.522-5.91-3.622-2.119-7.022-3.345-10.199-3.68-3.177-.334-5.964.167-8.472 1.617-2.508 1.505-3.456 3.122-2.899 4.851zm10.646-3.011c1.616.39 3.79 1.338 6.41 2.899 2.619 1.506 4.292 2.732 4.96 3.68.669.948.502 1.728-.557 2.342-1.059.613-2.397.725-4.013.334-1.616-.39-3.734-1.338-6.354-2.899s-4.292-2.732-5.016-3.68c-.725-.948-.502-1.728.557-2.342 1.059-.613 2.397-.724 4.013-.334zm-18.337 26.818c-.558-1.728-2.787-3.735-6.521-5.91-3.623-2.118-7.023-3.345-10.2-3.68-3.177-.334-5.964.168-8.472 1.617-2.564 1.45-3.511 3.067-2.954 4.851.557 1.728 2.787 3.736 6.577 5.91 3.678 2.119 7.023 3.345 10.144 3.68 3.121.334 5.908-.167 8.416-1.617 2.62-1.45 3.623-3.067 3.01-4.851zm-10.646 3.067c-1.616-.39-3.734-1.338-6.354-2.899-2.619-1.506-4.292-2.732-5.016-3.68-.725-.948-.502-1.729.557-2.342 1.059-.613 2.397-.725 4.013-.335 1.617.391 3.79 1.339 6.41 2.9 2.62 1.505 4.292 2.732 4.961 3.68.668.947.501 1.728-.558 2.341-1.059.614-2.396.725-4.013.335zm28.537-13.381c-.557-1.729-2.787-3.736-6.521-5.911-3.623-2.118-7.023-3.345-10.2-3.679-3.177-.335-5.964.167-8.472 1.616-2.564 1.45-3.511 3.067-2.954 4.851.558 1.729 2.787 3.736 6.577 5.91 3.623 2.119 7.023 3.346 10.144 3.68 3.121.335 5.908-.167 8.416-1.617 2.62-1.505 3.623-3.122 3.01-4.85zm-10.645 3.066c-1.617-.39-3.735-1.338-6.354-2.899-2.62-1.506-4.292-2.732-5.017-3.68-.724-.948-.501-1.728.558-2.342 1.059-.613 2.396-.725 4.013-.334 1.616.39 3.79 1.338 6.409 2.899 2.62 1.505 4.292 2.732 4.961 3.68.669.948.502 1.728-.557 2.342-1.059.613-2.397.724-4.013.334zm-25.138 17.619c-.557-1.729-2.786-3.736-6.521-5.91-3.623-2.119-7.023-3.346-10.2-3.68-3.176-.335-5.963.167-8.471 1.617-2.564 1.449-3.512 3.066-2.954 4.85.557 1.729 2.786 3.736 6.576 5.911 3.679 2.118 7.023 3.345 10.144 3.679 3.122.335 5.909-.167 8.417-1.617 2.619-1.505 3.623-3.122 3.009-4.85zm-10.645 3.066c-1.617-.39-3.735-1.338-6.354-2.899-2.62-1.505-4.292-2.732-5.016-3.68-.725-.948-.502-1.728.557-2.342 1.059-.613 2.397-.724 4.013-.334 1.616.39 3.79 1.338 6.41 2.899 2.619 1.506 4.291 2.732 4.96 3.68.669.948.502 1.728-.557 2.342-1.059.613-2.397.725-4.013.334z" fill="url(#paint2_linear)"/>
        <path opacity=".5" d="M512.624 321.346c-14.603 8.42-38.402 8.42-53.117-.111-14.714-8.475-14.77-22.246-.167-30.666 14.603-8.419 38.403-8.419 53.117.112 14.715 8.475 14.826 22.191.167 30.665z" fill="url(#paint3_linear)"/>
        <path opacity=".5" d="M541.607 304.62c-14.603 8.419-38.403 8.419-53.117-.112-14.715-8.475-14.77-22.246-.167-30.665s38.402-8.419 53.117.111c14.714 8.475 14.825 22.191.167 30.666z" fill="url(#paint4_linear)"/>
        <path opacity=".3" d="M134.507 395.446l-12.652-7.304c-10.255-5.91-8.973-16.28 2.898-23.138l21.738-12.545c11.872-6.858 29.819-7.583 40.074-1.673l12.652 7.304c10.256 5.91 8.974 16.281-2.898 23.139l-21.737 12.544c-11.872 6.858-29.819 7.583-40.075 1.673z" fill="#00E676"/>
    </g>
    <path d="M184.976 302.547c0 8.387-2.942 14.336-7.713 17.213-.148.097-8.157 4.973-8.306 5.046-4.968 2.731-1.78-3.486-9.344-7.777-15.178-8.655-27.488-29.598-27.488-46.787 0-8.508-7.96-8.557-3.09-11.41.148-.073 9.096-5.12 9.245-5.193 4.944-2.657 11.717-2.17 19.183 2.097 15.202 8.679 27.513 29.622 27.513 46.811z" fill="url(#paint5_linear)"/>
    <path d="M175.977 307.813c0 17.189-12.31 24.113-27.488 15.458C133.311 314.616 121 293.673 121 276.484c0-17.188 12.311-24.112 27.489-15.457 15.178 8.679 27.488 29.598 27.488 46.786z" fill="url(#paint6_linear)"/>
    <path d="M168.833 303.741c0 12.703-9.097 17.822-20.32 11.435-11.223-6.388-20.32-21.87-20.32-34.596 0-12.703 9.097-17.823 20.32-11.435s20.32 21.894 20.32 34.596z" fill="url(#paint7_linear)"/>
    <path d="M150.367 313.421c-11.222-6.388-20.319-21.87-20.319-34.596 0-4.56 1.186-8.095 3.189-10.533-3.14 2.268-5.068 6.461-5.068 12.288 0 12.702 9.097 28.184 20.32 34.596 7.218 4.096 13.522 3.438 17.131-.902-3.708 2.658-9.171 2.609-15.253-.853z" fill="url(#paint8_linear)"/>
    <path d="M151.408 303.472l-4.883-2.789.003 3.397-4.607-2.632-.004-3.396-3.118-1.781-.004-4.255 3.117 1.781-.001-1.331-3.118-1.78-.005-4.255 3.118 1.781-.015-12.256 8.693 4.965a17.705 17.705 0 014.424 3.559 16.204 16.204 0 012.953 4.643c.707 1.676 1.062 3.331 1.064 4.965.003 2.521-.747 4.081-2.25 4.681-1.494.605-3.576.145-6.249-1.382l-4.008-2.289.002 1.331 4.883 2.789.005 4.254zm-4.895-12.629l3.978 2.272c2.58 1.474 3.869.921 3.866-1.659-.002-1.225-.331-2.399-.987-3.52a7.347 7.347 0 00-2.72-2.708l-4.146-2.369.009 7.984z" fill="url(#paint9_linear)"/>
    <path d="M151.943 303.17l-4.884-2.79.004 3.397-4.608-2.631-.004-3.397-3.117-1.781-.005-4.254 3.117 1.78-.001-1.33-3.118-1.781-.005-4.255 3.118 1.781-.014-12.256 8.692 4.965a17.728 17.728 0 014.425 3.559 16.236 16.236 0 012.952 4.643c.708 1.676 1.063 3.331 1.064 4.965.003 2.521-.747 4.082-2.25 4.681-1.493.605-3.576.145-6.248-1.381l-4.009-2.29.002 1.331 4.884 2.789.005 4.255zm-4.896-12.629l3.978 2.271c2.58 1.474 3.869.921 3.866-1.659-.002-1.225-.33-2.399-.987-3.52a7.344 7.344 0 00-2.719-2.708l-4.147-2.368.009 7.984z" fill="url(#paint10_linear)"/>
    <path d="M158.08 256.148c-.197-.121-.395-.268-.593-.365-.173-.098-.371-.171-.544-.268l-9.146 5.193c.222.121.445.219.692.341.148.097.321.195.47.292l9.121-5.193zM148.118 252.322l-9.196 5.242c.568.073 1.137.195 1.706.341l9.22-5.242a23.971 23.971 0 00-1.73-.341zM163.493 259.952l-9.097 5.193c.322.244.618.537.915.78l9.097-5.193c-.321-.268-.618-.536-.915-.78zM173.432 270.655l-9.073 5.168c.223.317.445.634.668.927l9.072-5.169a29.708 29.708 0 00-.667-.926zM168.857 265.073l-9.072 5.169c.272.292.519.585.766.878l9.073-5.169a8.88 8.88 0 00-.767-.878zM177.287 276.628l-9.048 5.145c.198.341.371.658.544.999l9.048-5.168a43.036 43.036 0 00-.544-.976zM183.418 311.956l-8.924 5.071c-.223.585-.445 1.17-.692 1.707l8.874-5.071c.272-.537.495-1.098.742-1.707zM175.953 308.495c0 .463-.025.902-.074 1.341l8.998-5.12c.025-.439.049-.878.049-1.341l-8.973 5.12zM184.579 297.182c-.049-.414-.074-.804-.148-1.219l-9.023 5.145c.074.414.099.804.173 1.219l8.998-5.145zM173.777 294.306c.124.365.223.755.322 1.121l9.023-5.144c-.099-.366-.198-.756-.322-1.122l-9.023 5.145zM180.871 283.87c-.148-.342-.272-.707-.445-1.073l-9.047 5.144c.148.342.297.707.445 1.073l9.047-5.144z" fill="#FDD65B"/>
    <path d="M157.487 255.786c-7.465-4.243-14.239-4.73-19.183-2.097-.024.024-.494.268-1.236.683 4.821-2.024 11.149-1.366 18.071 2.584 15.178 8.655 27.488 29.598 27.488 46.786 0 8.387-2.941 14.336-7.712 17.213-.124.073 2.224-1.073 2.373-1.17 4.771-2.877 7.712-8.826 7.712-17.213-.024-17.213-12.335-38.156-27.513-46.786z" fill="url(#paint11_linear)"/>
    <path d="M149.7 260.271c-7.268-4.145-13.769-4.584-18.688-2.17 4.573-1.268 10.283-.317 16.439 3.194 15.178 8.655 27.488 29.598 27.488 46.786 0 8.948-3.337 15.116-8.677 17.749 6.724-1.852 10.951-8.557 10.951-18.773-.024-17.188-12.335-38.131-27.513-46.786z" fill="url(#paint12_radial)"/>
    <g filter="url(#filter1_f)">
        <path d="M287.412 105.405l-56.388 10.116.564 9.66v.269c.646 11.026 13.789 17.708 29.351 14.915 15.562-2.793 27.683-13.984 27.036-25.01 0-.083-.021-.186-.021-.269l-.542-9.681z" fill="url(#paint13_linear)"/>
        <path d="M231.506 123.898l.021.271c-.021-.084-.021-.167-.021-.271z" fill="url(#paint14_linear)"/>
        <path d="M260.815 138.234c-15.562 2.793-28.704-3.889-29.351-14.915l.104 1.862v.269c.647 11.026 13.789 17.687 29.352 14.915 15.562-2.793 27.682-13.984 27.036-25.01 0-.083-.021-.186-.021-.269l-.105-1.862c.668 11.026-11.431 22.217-27.015 25.01z" fill="url(#paint15_linear)"/>
        <path d="M287.914 114.075l-.021-.27c0 .083 0 .187.021.27z" fill="url(#paint16_linear)"/>
        <path d="M269.534 137.862c.271-.103.522-.227.772-.352l-1.481-25.34-.793.144 1.502 25.548zM272.997 136.207c.25-.144.522-.269.772-.413l-1.419-24.266-.792.145 1.439 24.534zM276.46 134.159c.271-.186.501-.372.772-.558l-1.314-22.714-.793.145 1.335 23.127zM266.009 139.103c.271-.083.522-.166.793-.249l-1.523-26.064-.793.144 1.523 26.169zM283.261 128.016l.751-.931-1.022-17.46-.793.145 1.064 18.246zM286.536 122.74c.271-.599.501-1.22.688-1.841l-.688-11.915-.793.145.793 13.611zM279.881 131.511c.251-.227.522-.434.751-.662l-1.189-20.583-.793.145 1.231 21.1zM262.483 140.035c.271-.062.522-.104.793-.166l-1.544-26.437-.793.145 1.544 26.458zM258.958 140.655c.271-.042.521-.083.792-.104l-1.543-26.458-.793.145 1.544 26.417zM251.802 140.924l.793.062-1.481-25.651-.793.145 1.481 25.444zM255.39 140.965c.271 0 .522-.042.793-.062l-1.523-26.189-.793.145 1.523 26.106zM248.214 140.489l.814.124-1.439-24.658-.793.145 1.418 24.389zM233.361 131.429c.272.476.564.951.877 1.386l-.835-14.295-.793.145.751 12.764zM237.199 135.856c.271.206.564.413.835.6l-1.085-18.598-.793.145 1.043 17.853zM244.585 139.641c.271.083.542.166.814.228l-1.356-23.273-.793.145 1.335 22.9zM240.913 138.193l.814.373-1.231-21.328-.793.145 1.21 20.81z" fill="#FDD65B"/>
        <path d="M287.412 105.55c.647 11.026-11.473 22.217-27.036 25.01-15.562 2.792-28.705-3.889-29.351-14.915-.647-11.026 11.473-22.218 27.036-25.01 15.562-2.793 28.704 3.889 29.351 14.915z" fill="url(#paint17_linear)"/>
        <path d="M260.334 130.021c-15.249 2.731-28.121-3.62-29.268-14.211 0 .227-.021.475 0 .703.647 11.026 13.789 17.687 29.351 14.915 15.563-2.793 27.683-13.984 27.036-25.01-.021-.228-.062-.455-.083-.683.104 10.778-11.787 21.556-27.036 24.286z" fill="url(#paint18_radial)"/>
        <path d="M280.298 106.811c.48 8.234-8.573 16.612-20.214 18.701-11.64 2.089-21.466-2.896-21.946-11.15-.479-8.233 8.574-16.611 20.215-18.7 11.64-2.07 21.466 2.916 21.945 11.149z" fill="url(#paint19_linear)"/>
        <path d="M259.103 96.303c11.265-2.027 20.799 2.586 21.842 10.343 0-.268.02-.537.02-.806-.479-8.234-10.305-13.219-21.945-11.15-11.641 2.089-20.694 10.446-20.215 18.7.021.269.063.538.105.786.125-7.964 8.928-15.866 20.193-17.873z" fill="url(#paint20_radial)"/>
        <path d="M258.436 97.275c11.265-2.027 20.799 2.586 21.842 10.343 0-.269.02-.538.02-.807-.479-8.233-10.305-13.218-21.945-11.15-11.641 2.09-20.694 10.447-20.215 18.701.021.269.063.538.105.786.125-7.943 8.949-15.846 20.193-17.873z" fill="url(#paint21_linear)"/>
        <path d="M268.937 113.071l-3.762 2.179 2.295 1.329-3.548 2.056-2.295-1.33-2.401 1.391-2.874-1.665 2.401-1.391-.899-.52-2.401 1.391-2.874-1.665 2.401-1.391-8.28-4.797 6.695-3.878a13.614 13.614 0 014.104-1.569 12.581 12.581 0 014.27-.158c1.403.183 2.657.594 3.761 1.234 1.703.986 2.468 2.101 2.295 3.343-.166 1.238-1.278 2.453-3.336 3.646l-3.087 1.788.899.521 3.761-2.179 2.875 1.665zm-10.409-1.672l3.063-1.775c1.988-1.151 2.11-2.231.367-3.241-.828-.479-1.746-.719-2.756-.719a5.668 5.668 0 00-2.874.76l-3.193 1.85 5.393 3.125z" fill="url(#paint22_linear)"/>
        <path d="M268.937 112.02l-3.762 2.179 2.295 1.329-3.548 2.056-2.295-1.329-2.401 1.391-2.874-1.665 2.401-1.391-.899-.521-2.401 1.391-2.874-1.665 2.401-1.391-8.28-4.797 6.695-3.878a13.614 13.614 0 014.104-1.569 12.607 12.607 0 014.27-.158c1.403.183 2.657.594 3.761 1.234 1.703.987 2.468 2.101 2.295 3.344-.166 1.238-1.278 2.453-3.336 3.645l-3.087 1.788.899.521 3.761-2.179 2.875 1.665zm-10.409-1.672l3.063-1.774c1.988-1.152 2.11-2.232.367-3.241-.828-.48-1.746-.72-2.756-.72a5.669 5.669 0 00-2.874.761l-3.193 1.85 5.393 3.124z" fill="url(#paint23_linear)"/>
    </g>
    <path d="M229.06 222.42c-4.642 6.932-10.734 10.765-16.924 11.399-.196.025-10.586 1.123-10.758 1.148-6.288.439.196-3.515-4.667-9.838-9.825-12.693-10.071-34.467-.59-48.65 4.692-7.005-2.923-9.983 3.341-10.545.172-.024 11.569-.903 11.741-.903 6.214-.366 12.453 2.514 17.292 8.739 9.776 12.693 10.047 34.467.565 48.65z" fill="url(#paint24_linear)"/>
    <path d="M217.491 223.495c-9.481 14.182-25.152 15.403-34.953 2.709-9.825-12.693-10.071-34.467-.589-48.649 9.481-14.183 25.152-15.403 34.953-2.71 9.825 12.669 10.095 34.467.589 48.65z" fill="url(#paint25_linear)"/>
    <path d="M212.873 217.514c-7.025 10.496-18.594 11.375-25.84 2.002-7.27-9.374-7.442-25.485-.442-35.981 7.025-10.497 18.594-11.376 25.84-2.002 7.246 9.374 7.443 25.484.442 35.981z" fill="url(#paint26_linear)"/>
    <path d="M189.784 218.759c-7.271-9.374-7.443-25.484-.442-35.981 2.505-3.759 5.6-6.249 8.892-7.518-4.274.708-8.45 3.49-11.668 8.275-7.025 10.496-6.828 26.583.442 35.981 4.667 6.029 11.103 7.787 16.973 5.516-5.06.83-10.242-1.196-14.197-6.273z" fill="url(#paint27_linear)"/>
    <path d="M198.884 213.058l-3.062-4.703-1.558 3.047-2.89-4.437 1.558-3.046-1.955-3.002 1.952-3.816 1.955 3.002.61-1.194-1.955-3.002 1.951-3.816 1.955 3.002 5.622-10.993 5.451 8.37a17.58 17.58 0 012.299 5.186c.481 1.84.645 3.671.492 5.493-.14 1.821-.585 3.465-1.335 4.931-1.156 2.261-2.541 3.321-4.154 3.181-1.606-.131-3.247-1.483-4.923-4.056l-2.514-3.86-.61 1.194 3.062 4.702-1.951 3.817zm1.451-13.529l2.494 3.83c1.618 2.485 3.018 2.57 4.202.256.562-1.099.809-2.299.74-3.6a7.323 7.323 0 00-1.174-3.654l-2.601-3.993-3.661 7.161z" fill="url(#paint28_linear)"/>
    <path d="M199.497 213.025l-3.062-4.703-1.558 3.047-2.889-4.436 1.558-3.047-1.955-3.002 1.951-3.816 1.955 3.002.61-1.193-1.955-3.002 1.952-3.816 1.955 3.001 5.621-10.992 5.451 8.37a17.59 17.59 0 012.3 5.185c.48 1.84.644 3.671.492 5.493-.141 1.822-.586 3.465-1.335 4.931-1.157 2.261-2.541 3.322-4.154 3.181-1.607-.131-3.248-1.482-4.924-4.056l-2.514-3.859-.61 1.193 3.063 4.703-1.952 3.816zm1.451-13.528l2.494 3.83c1.618 2.484 3.019 2.57 4.202.256.562-1.099.809-2.3.741-3.601a7.317 7.317 0 00-1.175-3.653l-2.6-3.993-3.662 7.161z" fill="url(#paint29_linear)"/>
    <path d="M228.839 174.307c-.123-.17-.246-.366-.369-.537l-.368-.439-11.643.952c.147.195.319.342.467.537.098.122.196.293.294.415l11.619-.928zM221.373 167.522l-11.741.952c.491.268.982.586 1.449.903l11.766-.976a23.143 23.143 0 00-1.474-.879zM231.909 179.41l-11.594.952c.148.317.295.659.443.976l11.593-.952c-.147-.317-.27-.659-.442-.976zM235.569 191.884l-11.569.952c.049.342.074.684.123 1.001l11.569-.952c-.049-.342-.074-.659-.123-1.001zM234.267 185.61l-11.593.952c.098.342.172.659.27 1.001l11.594-.952c-.099-.342-.172-.684-.271-1.001zM235.987 198.23l-11.544.952c0 .342-.025.683-.025 1.025l11.545-.952c0-.342.024-.683.024-1.025zM222.33 229.623l-11.373.927c-.54.415-1.081.806-1.621 1.147l11.323-.927c.59-.342 1.13-.732 1.671-1.147zM217.098 224.031l-.811 1.099 11.471-.952c.27-.342.54-.708.811-1.099l-11.471.952zM231.639 217.855c.172-.366.368-.708.516-1.074l-11.496.952c-.172.366-.344.708-.515 1.074l11.495-.952zM222.821 211.533c-.098.342-.221.708-.319 1.05l11.52-.952c.098-.342.221-.684.319-1.05l-11.52.952zM235.397 205.504c.049-.342.123-.684.172-1.026l-11.545.952c-.049.342-.122.684-.171 1.026l11.544-.952z" fill="#FDD65B"/>
    <path d="M228.471 173.77c-4.839-6.249-11.078-9.105-17.292-8.739-.025 0-.639.049-1.572.098 5.772.097 11.446 2.953 15.916 8.739 9.825 12.693 10.071 34.467.59 48.65-4.643 6.932-10.734 10.765-16.924 11.399-.147.025 2.751-.073 2.923-.097 6.19-.635 12.281-4.467 16.924-11.4 9.506-14.182 9.235-35.956-.565-48.65z" fill="url(#paint30_linear)"/>
    <path d="M218.498 174.65c-4.716-6.078-10.709-8.812-16.776-8.617 5.109.635 10.046 3.491 14.025 8.641 9.825 12.694 10.071 34.468.59 48.65-4.938 7.397-11.545 11.253-18.152 11.473 7.467.928 15.253-3.076 20.878-11.497 9.506-14.183 9.236-35.981-.565-48.65z" fill="url(#paint31_radial)"/>
    <g filter="url(#filter2_f)">
        <path d="M282.993 46.834c-3.349 5.051-7.743 7.843-12.207 8.306-.142.018-7.636.818-7.76.836-4.536.32.142-2.561-3.366-7.167-7.087-9.248-7.264-25.112-.425-35.445 3.383-5.105-2.109-7.274 2.409-7.683.124-.018 8.345-.658 8.469-.658 4.482-.267 8.982 1.831 12.472 6.367 7.051 9.247 7.246 25.111.408 35.444z" fill="url(#paint32_linear)"/>
        <path d="M274.648 47.618c-6.839 10.333-18.142 11.222-25.211 1.974-7.087-9.248-7.264-25.112-.425-35.445 6.839-10.333 18.142-11.222 25.211-1.974 7.086 9.23 7.281 25.112.425 35.445z" fill="url(#paint33_linear)"/>
        <path d="M271.317 43.26c-5.066 7.648-13.411 8.288-18.638 1.459-5.244-6.83-5.368-18.568-.318-26.215 5.067-7.648 13.411-8.288 18.638-1.459 5.226 6.83 5.368 18.568.318 26.215z" fill="url(#paint34_linear)"/>
        <path d="M254.663 44.167c-5.244-6.829-5.368-18.567-.319-26.214 1.807-2.74 4.039-4.553 6.413-5.478-3.082.516-6.094 2.543-8.415 6.029-5.067 7.647-4.925 19.368.319 26.215 3.366 4.392 8.008 5.673 12.242 4.019-3.65.605-7.388-.871-10.24-4.57z" fill="url(#paint35_linear)"/>
        <path d="M261.227 40.013l-2.209-3.426-1.124 2.22-2.084-3.232 1.124-2.22-1.41-2.187 1.407-2.78 1.41 2.187.441-.87-1.411-2.187 1.408-2.78 1.41 2.187 4.055-8.009 3.931 6.098a12.851 12.851 0 011.659 3.778c.346 1.34.465 2.675.355 4.002-.102 1.327-.423 2.525-.963 3.593-.834 1.647-1.833 2.42-2.996 2.317-1.159-.095-2.343-1.08-3.552-2.955l-1.813-2.812-.44.87 2.209 3.426-1.407 2.78zm1.046-9.856l1.799 2.79c1.167 1.81 2.177 1.873 3.031.187.405-.8.583-1.675.534-2.623a5.37 5.37 0 00-.847-2.662l-1.876-2.91-2.641 5.218z" fill="url(#paint36_linear)"/>
        <path d="M261.67 39.99l-2.209-3.426-1.124 2.22-2.083-3.233 1.123-2.22-1.41-2.187 1.408-2.78 1.41 2.187.44-.87-1.41-2.186 1.407-2.78 1.41 2.186 4.055-8.009 3.932 6.099a12.873 12.873 0 011.658 3.777c.347 1.341.465 2.675.355 4.003-.101 1.327-.422 2.524-.963 3.592-.834 1.648-1.833 2.42-2.996 2.318-1.159-.095-2.343-1.08-3.551-2.955l-1.813-2.812-.44.87 2.209 3.426-1.408 2.78zm1.046-9.856l1.799 2.79c1.167 1.81 2.178 1.872 3.031.187.405-.801.584-1.676.534-2.623a5.369 5.369 0 00-.847-2.663l-1.875-2.909-2.642 5.218z" fill="url(#paint37_linear)"/>
        <path d="M282.833 11.781c-.089-.124-.178-.266-.266-.39l-.266-.321-8.398.694c.107.142.231.248.337.39.071.09.142.214.213.303l8.38-.676zM277.448 6.837l-8.469.694c.355.195.709.426 1.046.658l8.486-.712a16.85 16.85 0 00-1.063-.64zM285.048 15.498l-8.362.694c.106.231.212.48.318.712l8.363-.694c-.107-.231-.195-.48-.319-.712zM287.687 24.587l-8.344.693c.035.25.053.498.088.73l8.345-.694c-.035-.249-.053-.48-.089-.73zM286.748 20.016l-8.362.694c.071.248.124.48.195.729l8.362-.694c-.071-.249-.124-.498-.195-.73zM287.988 29.21l-8.327.694c0 .249-.017.498-.017.747l8.326-.694c0-.249.018-.498.018-.747zM278.138 52.082l-8.203.676c-.39.302-.78.587-1.169.836l8.167-.676c.425-.249.815-.533 1.205-.836zM274.364 48.009l-.585.8 8.274-.694c.195-.249.39-.515.585-.8l-8.274.694zM284.852 43.509c.124-.267.266-.516.372-.783l-8.291.694c-.124.267-.248.516-.372.783l8.291-.694zM278.492 38.903c-.071.249-.159.516-.23.764l8.309-.693c.071-.25.159-.498.23-.765l-8.309.694zM287.563 34.51c.036-.25.089-.498.124-.747l-8.327.694c-.035.248-.088.498-.124.746l8.327-.693z" fill="#FDD65B"/>
        <path d="M282.568 11.39c-3.49-4.553-7.99-6.634-12.473-6.367-.017 0-.46.035-1.134.07 4.164.072 8.256 2.153 11.481 6.368 7.086 9.248 7.264 25.112.425 35.445-3.348 5.05-7.742 7.843-12.207 8.305-.106.018 1.984-.053 2.108-.07 4.465-.463 8.859-3.255 12.207-8.306 6.857-10.333 6.662-26.197-.407-35.445z" fill="url(#paint38_linear)"/>
        <path d="M275.374 12.03c-3.401-4.428-7.724-6.42-12.1-6.277 3.685.462 7.246 2.543 10.116 6.295 7.087 9.248 7.264 25.112.425 35.445-3.561 5.39-8.327 8.2-13.092 8.36 5.386.675 11.002-2.242 15.059-8.378 6.856-10.332 6.661-26.214-.408-35.444z" fill="url(#paint39_radial)"/>
    </g>
    <defs>
        <linearGradient id="paint17_linear" x1="307.61" y1="37.529" x2="244.356" y2="103.326" gradientUnits="userSpaceOnUse">
            <stop offset=".035" stop-color="#FFBA78"/>
            <stop offset=".395" stop-color="#FFC987"/>
            <stop offset="1" stop-color="#FEECA8"/>
        </linearGradient>
        <linearGradient id="paint36_linear" x1="262.194" y1="19.036" x2="263.288" y2="39.914" gradientUnits="userSpaceOnUse">
            <stop stop-color="#FFBB96"/>
            <stop offset=".54" stop-color="#F9B673"/>
            <stop offset=".639" stop-color="#F9B876"/>
            <stop offset=".725" stop-color="#FABE81"/>
            <stop offset=".806" stop-color="#FCC993"/>
            <stop offset=".859" stop-color="#FED2A3"/>
            <stop offset=".97" stop-color="#FFC28C"/>
        </linearGradient>
        <linearGradient id="paint1_linear" x1="252.499" y1="496.811" x2="267.022" y2="146.423" gradientUnits="userSpaceOnUse">
            <stop stop-color="#002442"/>
            <stop offset=".421" stop-color="#0070D0"/>
            <stop offset=".99" stop-color="#0057A0"/>
        </linearGradient>
        <linearGradient id="paint2_linear" x1="506.873" y1="279.552" x2="219.852" y2="492.814" gradientUnits="userSpaceOnUse">
            <stop offset=".056" stop-color="#00CB68"/>
            <stop offset=".561" stop-color="#fff"/>
            <stop offset=".565" stop-color="#FFFDFE"/>
            <stop offset="1" stop-color="#00CB68"/>
        </linearGradient>
        <linearGradient id="paint3_linear" x1="459.394" y1="290.567" x2="486.039" y2="336.697" gradientUnits="userSpaceOnUse">
            <stop stop-color="#00E676"/>
            <stop offset="1" stop-color="#004B8B"/>
        </linearGradient>
        <linearGradient id="paint4_linear" x1="488.377" y1="273.84" x2="515.021" y2="319.97" gradientUnits="userSpaceOnUse">
            <stop stop-color="#00E676"/>
            <stop offset="1" stop-color="#004B8B"/>
        </linearGradient>
        <linearGradient id="paint5_linear" x1="140.123" y1="253.247" x2="176.491" y2="320.505" gradientUnits="userSpaceOnUse">
            <stop stop-color="#FFBB96"/>
            <stop offset=".227" stop-color="#FFFBC9"/>
            <stop offset=".54" stop-color="#F9B673"/>
            <stop offset=".639" stop-color="#F9B876"/>
            <stop offset=".725" stop-color="#FABE81"/>
            <stop offset=".806" stop-color="#FCC993"/>
            <stop offset=".859" stop-color="#FED2A3"/>
            <stop offset=".97" stop-color="#FFC28C"/>
        </linearGradient>
        <linearGradient id="paint6_linear" x1="144.594" y1="326.594" x2="150.949" y2="268.902" gradientUnits="userSpaceOnUse">
            <stop offset=".035" stop-color="#FFBA78"/>
            <stop offset=".395" stop-color="#FFC987"/>
            <stop offset="1" stop-color="#FEECA8"/>
        </linearGradient>
        <linearGradient id="paint7_linear" x1="154.745" y1="262.363" x2="133.101" y2="368.429" gradientUnits="userSpaceOnUse">
            <stop offset=".035" stop-color="#FFBA78"/>
            <stop offset=".395" stop-color="#FFC987"/>
            <stop offset="1" stop-color="#FEECA8"/>
        </linearGradient>
        <linearGradient id="paint8_linear" x1="144.551" y1="317.448" x2="148.997" y2="277.08" gradientUnits="userSpaceOnUse">
            <stop stop-color="#FFBB96"/>
            <stop offset=".227" stop-color="#FFFBC9"/>
            <stop offset=".54" stop-color="#F9B673"/>
            <stop offset=".639" stop-color="#F9B876"/>
            <stop offset=".725" stop-color="#FABE81"/>
            <stop offset=".806" stop-color="#FCC993"/>
            <stop offset=".859" stop-color="#FED2A3"/>
            <stop offset=".97" stop-color="#FFC28C"/>
        </linearGradient>
        <linearGradient id="paint9_linear" x1="139.432" y1="277.377" x2="153.595" y2="302.24" gradientUnits="userSpaceOnUse">
            <stop stop-color="#FFBB96"/>
            <stop offset=".54" stop-color="#F9B673"/>
            <stop offset=".639" stop-color="#F9B876"/>
            <stop offset=".725" stop-color="#FABE81"/>
            <stop offset=".806" stop-color="#FCC993"/>
            <stop offset=".859" stop-color="#FED2A3"/>
            <stop offset=".97" stop-color="#FFC28C"/>
        </linearGradient>
        <linearGradient id="paint10_linear" x1="175.915" y1="305.337" x2="152.21" y2="289.692" gradientUnits="userSpaceOnUse">
            <stop offset=".035" stop-color="#FFBA78"/>
            <stop offset=".395" stop-color="#FFC987"/>
            <stop offset="1" stop-color="#FEECA8"/>
        </linearGradient>
        <linearGradient id="paint11_linear" x1="148.008" y1="248.98" x2="184.141" y2="315.805" gradientUnits="userSpaceOnUse">
            <stop stop-color="#FFBB96"/>
            <stop offset=".227" stop-color="#FFFBC9"/>
            <stop offset=".54" stop-color="#F9B673"/>
            <stop offset=".639" stop-color="#F9B876"/>
            <stop offset=".725" stop-color="#FABE81"/>
            <stop offset=".806" stop-color="#FCC993"/>
            <stop offset=".859" stop-color="#FED2A3"/>
            <stop offset=".97" stop-color="#FFC28C"/>
        </linearGradient>
        <linearGradient id="paint13_linear" x1="232.148" y1="130.418" x2="288.035" y2="127.175" gradientUnits="userSpaceOnUse">
            <stop stop-color="#FFBB96"/>
            <stop offset=".227" stop-color="#FFFBC9"/>
            <stop offset=".54" stop-color="#F9B673"/>
            <stop offset=".639" stop-color="#F9B876"/>
            <stop offset=".725" stop-color="#FABE81"/>
            <stop offset=".806" stop-color="#FCC993"/>
            <stop offset=".859" stop-color="#FED2A3"/>
            <stop offset=".97" stop-color="#FFC28C"/>
        </linearGradient>
        <linearGradient id="paint14_linear" x1="231.508" y1="124.041" x2="231.518" y2="124.041" gradientUnits="userSpaceOnUse">
            <stop stop-color="#FFBB96"/>
            <stop offset=".227" stop-color="#FFFBC9"/>
            <stop offset=".54" stop-color="#F9B673"/>
            <stop offset=".639" stop-color="#F9B876"/>
            <stop offset=".725" stop-color="#FABE81"/>
            <stop offset=".806" stop-color="#FCC993"/>
            <stop offset=".859" stop-color="#FED2A3"/>
            <stop offset=".97" stop-color="#FFC28C"/>
        </linearGradient>
        <linearGradient id="paint15_linear" x1="232.377" y1="134.324" x2="288.263" y2="131.08" gradientUnits="userSpaceOnUse">
            <stop stop-color="#FFBB96"/>
            <stop offset=".227" stop-color="#FFFBC9"/>
            <stop offset=".54" stop-color="#F9B673"/>
            <stop offset=".639" stop-color="#F9B876"/>
            <stop offset=".725" stop-color="#FABE81"/>
            <stop offset=".806" stop-color="#FCC993"/>
            <stop offset=".859" stop-color="#FED2A3"/>
            <stop offset=".97" stop-color="#FFC28C"/>
        </linearGradient>
        <linearGradient id="paint16_linear" x1="287.888" y1="113.939" x2="287.897" y2="113.938" gradientUnits="userSpaceOnUse">
            <stop stop-color="#FFBB96"/>
            <stop offset=".227" stop-color="#FFFBC9"/>
            <stop offset=".54" stop-color="#F9B673"/>
            <stop offset=".639" stop-color="#F9B876"/>
            <stop offset=".725" stop-color="#FABE81"/>
            <stop offset=".806" stop-color="#FCC993"/>
            <stop offset=".859" stop-color="#FED2A3"/>
            <stop offset=".97" stop-color="#FFC28C"/>
        </linearGradient>
        <linearGradient id="paint38_linear" x1="278.7" y1="4.785" x2="281.91" y2="54.273" gradientUnits="userSpaceOnUse">
            <stop stop-color="#FFBB96"/>
            <stop offset=".227" stop-color="#FFFBC9"/>
            <stop offset=".54" stop-color="#F9B673"/>
            <stop offset=".639" stop-color="#F9B876"/>
            <stop offset=".725" stop-color="#FABE81"/>
            <stop offset=".806" stop-color="#FCC993"/>
            <stop offset=".859" stop-color="#FED2A3"/>
            <stop offset=".97" stop-color="#FFC28C"/>
        </linearGradient>
        <linearGradient id="paint37_linear" x1="276.334" y1="49.281" x2="266.025" y2="31.44" gradientUnits="userSpaceOnUse">
            <stop offset=".035" stop-color="#FFBA78"/>
            <stop offset=".395" stop-color="#FFC987"/>
            <stop offset="1" stop-color="#FEECA8"/>
        </linearGradient>
        <linearGradient id="paint19_linear" x1="280.262" y1="78.82" x2="232.978" y2="128.005" gradientUnits="userSpaceOnUse">
            <stop offset=".035" stop-color="#FFBA78"/>
            <stop offset=".395" stop-color="#FFC987"/>
            <stop offset="1" stop-color="#FEECA8"/>
        </linearGradient>
        <linearGradient id="paint21_linear" x1="287.216" y1="66.537" x2="242.594" y2="112.953" gradientUnits="userSpaceOnUse">
            <stop stop-color="#FFBB96"/>
            <stop offset=".227" stop-color="#FFFBC9"/>
            <stop offset=".54" stop-color="#F9B673"/>
            <stop offset=".639" stop-color="#F9B876"/>
            <stop offset=".725" stop-color="#FABE81"/>
            <stop offset=".806" stop-color="#FCC993"/>
            <stop offset=".859" stop-color="#FED2A3"/>
            <stop offset=".97" stop-color="#FFC28C"/>
        </linearGradient>
        <linearGradient id="paint22_linear" x1="246.714" y1="110.863" x2="268.946" y2="110.863" gradientUnits="userSpaceOnUse">
            <stop stop-color="#FFBB96"/>
            <stop offset=".54" stop-color="#F9B673"/>
            <stop offset=".639" stop-color="#F9B876"/>
            <stop offset=".725" stop-color="#FABE81"/>
            <stop offset=".806" stop-color="#FCC993"/>
            <stop offset=".859" stop-color="#FED2A3"/>
            <stop offset=".97" stop-color="#FFC28C"/>
        </linearGradient>
        <linearGradient id="paint23_linear" x1="279.619" y1="96.806" x2="260.015" y2="106.704" gradientUnits="userSpaceOnUse">
            <stop offset=".035" stop-color="#FFBA78"/>
            <stop offset=".395" stop-color="#FFC987"/>
            <stop offset="1" stop-color="#FEECA8"/>
        </linearGradient>
        <linearGradient id="paint24_linear" x1="213.174" y1="165.345" x2="217.565" y2="233.717" gradientUnits="userSpaceOnUse">
            <stop stop-color="#FFBB96"/>
            <stop offset=".227" stop-color="#FFFBC9"/>
            <stop offset=".54" stop-color="#F9B673"/>
            <stop offset=".639" stop-color="#F9B876"/>
            <stop offset=".725" stop-color="#FABE81"/>
            <stop offset=".806" stop-color="#FCC993"/>
            <stop offset=".859" stop-color="#FED2A3"/>
            <stop offset=".97" stop-color="#FFC28C"/>
        </linearGradient>
        <linearGradient id="paint25_linear" x1="176.962" y1="227.513" x2="202.989" y2="176.168" gradientUnits="userSpaceOnUse">
            <stop offset=".035" stop-color="#FFBA78"/>
            <stop offset=".395" stop-color="#FFC987"/>
            <stop offset="1" stop-color="#FEECA8"/>
        </linearGradient>
        <linearGradient id="paint26_linear" x1="222.19" y1="178.212" x2="163.781" y2="271.034" gradientUnits="userSpaceOnUse">
            <stop offset=".035" stop-color="#FFBA78"/>
            <stop offset=".395" stop-color="#FFC987"/>
            <stop offset="1" stop-color="#FEECA8"/>
        </linearGradient>
        <linearGradient id="paint27_linear" x1="181.971" y1="219.949" x2="200.182" y2="184.022" gradientUnits="userSpaceOnUse">
            <stop stop-color="#FFBB96"/>
            <stop offset=".227" stop-color="#FFFBC9"/>
            <stop offset=".54" stop-color="#F9B673"/>
            <stop offset=".639" stop-color="#F9B876"/>
            <stop offset=".725" stop-color="#FABE81"/>
            <stop offset=".806" stop-color="#FCC993"/>
            <stop offset=".859" stop-color="#FED2A3"/>
            <stop offset=".97" stop-color="#FFC28C"/>
        </linearGradient>
        <linearGradient id="paint28_linear" x1="200.226" y1="184.265" x2="201.712" y2="212.923" gradientUnits="userSpaceOnUse">
            <stop stop-color="#FFBB96"/>
            <stop offset=".54" stop-color="#F9B673"/>
            <stop offset=".639" stop-color="#F9B876"/>
            <stop offset=".725" stop-color="#FABE81"/>
            <stop offset=".806" stop-color="#FCC993"/>
            <stop offset=".859" stop-color="#FED2A3"/>
            <stop offset=".97" stop-color="#FFC28C"/>
        </linearGradient>
        <linearGradient id="paint29_linear" x1="219.827" y1="225.777" x2="205.75" y2="201.167" gradientUnits="userSpaceOnUse">
            <stop offset=".035" stop-color="#FFBA78"/>
            <stop offset=".395" stop-color="#FFC987"/>
            <stop offset="1" stop-color="#FEECA8"/>
        </linearGradient>
        <linearGradient id="paint30_linear" x1="223.108" y1="164.704" x2="227.471" y2="232.635" gradientUnits="userSpaceOnUse">
            <stop stop-color="#FFBB96"/>
            <stop offset=".227" stop-color="#FFFBC9"/>
            <stop offset=".54" stop-color="#F9B673"/>
            <stop offset=".639" stop-color="#F9B876"/>
            <stop offset=".725" stop-color="#FABE81"/>
            <stop offset=".806" stop-color="#FCC993"/>
            <stop offset=".859" stop-color="#FED2A3"/>
            <stop offset=".97" stop-color="#FFC28C"/>
        </linearGradient>
        <linearGradient id="paint32_linear" x1="271.535" y1="5.251" x2="274.766" y2="55.061" gradientUnits="userSpaceOnUse">
            <stop stop-color="#FFBB96"/>
            <stop offset=".227" stop-color="#FFFBC9"/>
            <stop offset=".54" stop-color="#F9B673"/>
            <stop offset=".639" stop-color="#F9B876"/>
            <stop offset=".725" stop-color="#FABE81"/>
            <stop offset=".806" stop-color="#FCC993"/>
            <stop offset=".859" stop-color="#FED2A3"/>
            <stop offset=".97" stop-color="#FFC28C"/>
        </linearGradient>
        <linearGradient id="paint33_linear" x1="245.415" y1="50.545" x2="264.49" y2="13.292" gradientUnits="userSpaceOnUse">
            <stop offset=".035" stop-color="#FFBA78"/>
            <stop offset=".395" stop-color="#FFC987"/>
            <stop offset="1" stop-color="#FEECA8"/>
        </linearGradient>
        <linearGradient id="paint34_linear" x1="278.038" y1="14.626" x2="235.298" y2="81.866" gradientUnits="userSpaceOnUse">
            <stop offset=".035" stop-color="#FFBA78"/>
            <stop offset=".395" stop-color="#FFC987"/>
            <stop offset="1" stop-color="#FEECA8"/>
        </linearGradient>
        <linearGradient id="paint35_linear" x1="249.028" y1="45.034" x2="262.375" y2="18.967" gradientUnits="userSpaceOnUse">
            <stop stop-color="#FFBB96"/>
            <stop offset=".227" stop-color="#FFFBC9"/>
            <stop offset=".54" stop-color="#F9B673"/>
            <stop offset=".639" stop-color="#F9B876"/>
            <stop offset=".725" stop-color="#FABE81"/>
            <stop offset=".806" stop-color="#FCC993"/>
            <stop offset=".859" stop-color="#FED2A3"/>
            <stop offset=".97" stop-color="#FFC28C"/>
        </linearGradient>
        <radialGradient id="paint18_radial" cx="0" cy="0" r="1" gradientUnits="userSpaceOnUse" gradientTransform="matrix(35.43838 -6.35173 7.55912 42.17483 247.948 127.449)">
            <stop stop-color="#fff"/>
            <stop offset="1" stop-color="#FFFBC9"/>
        </radialGradient>
        <radialGradient id="paint0_radial" cx="0" cy="0" r="1" gradientUnits="userSpaceOnUse" gradientTransform="matrix(280.299 0 0 280.394 290.486 504.598)">
            <stop stop-color="#fff"/>
            <stop offset=".432" stop-color="#0085F8"/>
            <stop offset="1" stop-color="#00427A"/>
        </radialGradient>
        <radialGradient id="paint20_radial" cx="0" cy="0" r="1" gradientUnits="userSpaceOnUse" gradientTransform="matrix(15.58889 -2.79404 3.32516 18.55217 268.189 92.473)">
            <stop stop-color="#fff"/>
            <stop offset="1" stop-color="#FFFBC9"/>
        </radialGradient>
        <radialGradient id="paint39_radial" cx="0" cy="0" r="1" gradientUnits="userSpaceOnUse" gradientTransform="rotate(21.01 67.813 749.516) scale(22.0586 20.6325)">
            <stop stop-color="#fff"/>
            <stop offset="1" stop-color="#FFFBC9"/>
        </radialGradient>
        <radialGradient id="paint12_radial" cx="0" cy="0" r="1" gradientUnits="userSpaceOnUse" gradientTransform="matrix(29.7097 0 0 29.3019 157.51 279.248)">
            <stop stop-color="#fff"/>
            <stop offset="1" stop-color="#FFFBC9"/>
        </radialGradient>
        <radialGradient id="paint31_radial" cx="0" cy="0" r="1" gradientUnits="userSpaceOnUse" gradientTransform="rotate(20.817 -418.007 683.22) scale(30.5433 28.3555)">
            <stop stop-color="#fff"/>
            <stop offset="1" stop-color="#FFFBC9"/>
        </radialGradient>
        <filter id="filter1_f" x="229" y="88" width="61" height="55" filterUnits="userSpaceOnUse" color-interpolation-filters="sRGB">
            <feFlood flood-opacity="0" result="BackgroundImageFix"/>
            <feBlend in="SourceGraphic" in2="BackgroundImageFix" result="shape"/>
            <feGaussianBlur stdDeviation="1" result="effect1_foregroundBlur"/>
        </filter>
        <filter id="filter2_f" x="239" y="0" width="54" height="61" filterUnits="userSpaceOnUse" color-interpolation-filters="sRGB">
            <feFlood flood-opacity="0" result="BackgroundImageFix"/>
            <feBlend in="SourceGraphic" in2="BackgroundImageFix" result="shape"/>
            <feGaussianBlur stdDeviation="2.5" result="effect1_foregroundBlur"/>
        </filter>
        <filter id="filter0_d" x="0" y="161" width="630.077" height="392.988" filterUnits="userSpaceOnUse" color-interpolation-filters="sRGB">
            <feFlood flood-opacity="0" result="BackgroundImageFix"/>
            <feColorMatrix in="SourceAlpha" values="0 0 0 0 0 0 0 0 0 0 0 0 0 0 0 0 0 0 127 0"/>
            <feOffset dy="28"/>
            <feGaussianBlur stdDeviation="12"/>
            <feColorMatrix values="0 0 0 0 0.133333 0 0 0 0 0.180392 0 0 0 0 0.227451 0 0 0 0.2 0"/>
            <feBlend in2="BackgroundImageFix" result="effect1_dropShadow"/>
            <feBlend in="SourceGraphic" in2="effect1_dropShadow" result="shape"/>
        </filter>
    </defs>
</svg>
