<svg width="16" height="16" fill="none" xmlns="http://www.w3.org/2000/svg">
    <path d="M10.823 16H2.49a1.835 1.835 0 01-1.834-1.833v-9c0-1.012.822-1.834 1.834-1.834h.333a.5.5 0 010 1H2.49a.834.834 0 00-.834.834v9c0 .459.374.833.834.833h8.333c.46 0 .833-.374.833-.833v-.334a.5.5 0 011 0v.334A1.835 1.835 0 0110.823 16z" fill="#006ECC"/>
    <path d="M13.49 12h-7a1.835 1.835 0 01-1.834-1.833V1.833C4.656.822 5.478 0 6.49 0h7c1.011 0 1.833.822 1.833 1.833v8.334A1.835 1.835 0 0113.49 12zm-7-11a.835.835 0 00-.834.833v8.334c0 .459.374.833.834.833h7c.459 0 .833-.374.833-.833V1.833A.834.834 0 0013.49 1h-7z" fill="#006ECC"/>
</svg>
