<svg width="16" height="16" fill="none" xmlns="http://www.w3.org/2000/svg">
    <path d="M11.16 5.66L8.869 7.954l2.293 2.293a.625.625 0 11-.884.883L7.984 8.837l-2.292 2.292a.623.623 0 01-.884 0 .625.625 0 010-.883L7.1 7.953 4.808 5.661a.625.625 0 11.884-.884l2.292 2.292 2.293-2.292a.625.625 0 11.884.884zm2.497-3.317A7.948 7.948 0 008 0a7.948 7.948 0 00-5.657 2.343A7.948 7.948 0 000 8c0 2.137.832 4.146 2.343 5.657A7.948 7.948 0 008 16a7.987 7.987 0 004.14-1.153.625.625 0 10-.648-1.069A6.739 6.739 0 018 14.75 6.758 6.758 0 011.25 8 6.758 6.758 0 018 1.25 6.758 6.758 0 0114.75 8c0 1.33-.396 2.626-1.145 3.746a.625.625 0 101.04.695A7.97 7.97 0 0016 8a7.948 7.948 0 00-2.343-5.657z" fill="#9AA7B6"/>
</svg>
