<svg width="16" height="16" fill="none" xmlns="http://www.w3.org/2000/svg">
    <g clip-path="url(#clip0)">
        <path d="M15.063.938A3.18 3.18 0 0012.799 0a3.18 3.18 0 00-2.263.938L1.589 9.884a.625.625 0 00-.16.275L.023 15.207a.625.625 0 00.773.77l5.049-1.435a.625.625 0 00.272-1.042l-3.183-3.193 7.416-7.416 2.758 2.758-5.677 5.662a.625.625 0 10.882.885l6.75-6.731A3.18 3.18 0 0016 3.201a3.18 3.18 0 00-.937-2.263zM4.482 13.63l-2.956.84.828-2.974 2.128 2.134zm9.698-9.05l-.187.186-2.76-2.759.186-.185a1.939 1.939 0 011.38-.572c.521 0 1.011.203 1.38.572.368.368.572.858.572 1.38 0 .52-.204 1.01-.571 1.378z" fill="#006ECC"/>
    </g>
    <defs>
        <clipPath id="clip0">
            <path d="M0 0h16v16H0V0z" fill="#fff"/>
        </clipPath>
    </defs>
</svg>
