<svg width="16" height="16" fill="none" xmlns="http://www.w3.org/2000/svg">
    <path fill-rule="evenodd" clip-rule="evenodd" d="M15.94 7.81c-.125-.183-3.153-4.477-7.94-4.477-4.107 0-7.768 4.27-7.922 4.452a.335.335 0 000 .43c.154.182 3.815 4.452 7.922 4.452 4.107 0 7.767-4.27 7.921-4.452a.333.333 0 00.02-.404zM1.515 8c.4.407 1.01.982 1.765 1.55C4.654 10.587 6.337 11.468 8 11.468c1.663 0 3.346-.88 4.721-1.916a16.1 16.1 0 001.81-1.596 11.575 11.575 0 00-1.562-1.515C11.719 5.442 10.024 4.533 8 4.533c-1.663 0-3.346.88-4.721 1.916A16.08 16.08 0 001.514 8z" fill="#808A98"/>
    <path fill-rule="evenodd" clip-rule="evenodd" d="M8 6.533A1.47 1.47 0 006.533 8 1.47 1.47 0 008 9.467 1.47 1.47 0 009.467 8 1.47 1.47 0 008 6.533zM5.333 8A2.67 2.67 0 018 5.333 2.67 2.67 0 0110.667 8 2.67 2.67 0 018 10.667 2.67 2.67 0 015.333 8z" fill="#808A98"/>
</svg>
