<svg width="32" height="32" fill="none" xmlns="http://www.w3.org/2000/svg">
    <path d="M28.138 20.13c0 6.538-6.136 11.87-12.23 11.87-6.093 0-12.046-5.375-12.046-11.87C3.862 7 16.676 0 16.676 0c-2.03 1.869-5.02 7.245 0 9 2.322.812 4.887-1.241 5.327-3.627 0 0 6.135 6.368 6.135 14.757z" fill="#F7550F"/>
    <path opacity=".2" d="M21.49 11.07s3.617 2.96 3.617 8.933c0 4.663-3.741 8.9-8.893 8.9-5.153 0-9.32-4.229-9.32-8.9 0-9.273 9.32-16.514 9.32-16.514s-.778 6.33.605 7.58c1.374 1.251 4.671 0 4.671 0z" fill="#fff"/>
    <path d="M11.986 20.318l5.194-6.36c.136-.166.403-.03.348.178l-1.268 4.78h3.521a.3.3 0 01.233.49l-5.003 6.126c-.144.176-.422.015-.342-.197l1.713-4.527h-4.164a.3.3 0 01-.232-.49z" fill="#fff"/>
</svg>
