<svg width="16" height="16" fill="none" xmlns="http://www.w3.org/2000/svg">
    <g clip-path="url(#clip0)">
        <path d="M14.736 2.097C13.987 1.379 12.933 1 11.687 1c-1.36 0-2.537.557-3.4 1.61-.1.123-.191.246-.272.365a4.823 4.823 0 00-.262-.36C6.904 1.56 5.714 1 4.313 1c-1.246 0-2.3.38-3.05 1.097C.426 2.9 0 4.074 0 5.587c0 1.467.893 3.228 2.654 5.233 1.343 1.53 2.984 2.945 4.072 3.759C7.1 14.859 7.55 15 8 15c.45 0 .9-.14 1.274-.421a27.86 27.86 0 002.01-1.673.585.585 0 00.023-.85.643.643 0 00-.883-.022c-.867.79-1.574 1.339-1.918 1.597a.85.85 0 01-1.012 0c-1.038-.777-2.604-2.127-3.885-3.586C2.066 8.288 1.25 6.746 1.25 5.586c0-2.797 1.665-3.384 3.063-3.384 2.402 0 3.055 2.218 3.083 2.317l.003.008a.593.593 0 00.013.04l.007.017a.631.631 0 00.017.039l.008.015a.635.635 0 00.022.038l.008.012a.57.57 0 00.028.04l.005.006a.635.635 0 001.077-.157.46.46 0 00.01-.028l.005-.013a3.99 3.99 0 01.694-1.21c.624-.746 1.43-1.124 2.395-1.124 1.397 0 3.062.587 3.062 3.384 0 1.121-.761 2.572-2.262 4.314a.585.585 0 00.082.845.638.638 0 00.398.139c.18 0 .358-.074.482-.218C15.166 8.676 16 7.014 16 5.586c0-1.512-.425-2.686-1.264-3.49z" fill="#808A98"/>
    </g>
    <defs>
        <clipPath id="clip0">
            <path d="M0 0h16v16H0V0z" fill="#fff"/>
        </clipPath>
    </defs>
</svg>
