<svg width="24" height="24" fill="none" xmlns="http://www.w3.org/2000/svg">
    <path d="M12 2.182h4.8c1.2 0 1.854.218 2.182.436.545.218.982.437 1.418.873.436.436.655.873.873 1.418.218.436.327 1.091.436 2.182.11 1.309.11 1.636.11 4.8 0 3.164 0 3.6-.11 4.8-.109 1.2-.218 1.855-.436 2.182-.218.545-.437.982-.873 1.418-.436.436-.873.654-1.418.873-.436.218-1.091.327-2.182.436-1.2.218-1.636.218-4.8.218-3.164 0-3.6 0-4.8-.109-1.2 0-1.855-.218-2.182-.436-.545-.218-.982-.437-1.418-.873-.436-.436-.655-.873-.873-1.418-.218-.436-.327-1.091-.436-2.182-.11-1.31-.11-1.636-.11-4.8 0-3.164 0-3.6.11-4.8.109-1.2.218-1.855.436-2.182.218-.545.437-.982.873-1.418.436-.436.873-.655 1.418-.873C5.455 2.51 6.11 2.4 7.2 2.291c1.2-.11 1.527-.11 4.8-.11zM12 0C8.727 0 8.29 0 7.09.11 5.783.217 4.91.326 4.146.654a6.396 6.396 0 00-2.072 1.418A6.396 6.396 0 00.655 4.145C.327 4.91.109 5.782.109 7.091 0 8.29 0 8.727 0 12c0 3.273 0 3.71.11 4.91.108 1.308.217 2.18.545 2.945a6.396 6.396 0 001.418 2.072 6.397 6.397 0 002.072 1.419c.764.327 1.637.545 2.946.545C8.4 24 8.727 24 12 24c3.273 0 3.71 0 4.91-.11 1.308-.108 2.18-.217 2.945-.544a6.398 6.398 0 002.072-1.419 6.397 6.397 0 001.419-2.072c.327-.764.545-1.637.545-2.946C24 15.6 24 15.273 24 12c0-3.273 0-3.71-.11-4.91-.108-1.308-.217-2.18-.544-2.945a6.397 6.397 0 00-1.419-2.072A6.396 6.396 0 0019.855.655C19.09.327 18.218.109 16.909.109 15.6 0 15.273 0 12 0z" fill="#E1306C"/>
    <path d="M12 5.891a6.1 6.1 0 00-6.11 6.11A6.1 6.1 0 0012 18.108 6.1 6.1 0 0018.11 12 6.1 6.1 0 0012 5.891zm0 10.146A4.027 4.027 0 017.964 12 4.027 4.027 0 0112 7.964 4.027 4.027 0 0116.036 12c-.109 2.182-1.854 4.037-4.036 4.037zM19.855 5.564c0 .763-.655 1.418-1.419 1.418a1.444 1.444 0 01-1.418-1.418c0-.764.655-1.419 1.418-1.419.764 0 1.419.655 1.419 1.419z" fill="#E1306C"/>
</svg>
