<svg width="150" height="117" fill="none" xmlns="http://www.w3.org/2000/svg">
    <g clip-path="url(#clip0)">
        <path d="M27.268 116.035v-7.709c0-2.907-1.85-4.846-4.846-4.89-1.585-.044-3.215.485-4.317 2.203-.837-1.366-2.202-2.203-4.053-2.203-1.321 0-2.599.397-3.612 1.806v-1.497H7.753v12.29h2.687v-6.828c0-2.159 1.19-3.26 2.996-3.26 1.762 0 2.687 1.146 2.687 3.26v6.828h2.687v-6.828c0-2.159 1.234-3.26 2.996-3.26 1.806 0 2.687 1.146 2.687 3.26v6.828h2.775zM67.312 103.7h-4.36V100h-2.688v3.745h-2.555v2.466h2.51v5.595c0 2.864 1.102 4.538 4.274 4.538 1.145 0 2.511-.353 3.348-.97l-.749-2.29c-.793.484-1.674.705-2.379.705-1.321 0-1.762-.837-1.762-2.071v-5.551h4.361V103.7zm22.82-.308c-1.542 0-2.555.705-3.26 1.806V103.7h-2.643v12.291h2.687v-6.916c0-2.027.881-3.172 2.643-3.172.529 0 1.101.088 1.674.308l.837-2.511c-.617-.176-1.365-.308-1.938-.308zm-34.538 1.322c-1.277-.837-3.083-1.278-5.022-1.278-3.127 0-5.11 1.498-5.11 3.921 0 2.026 1.498 3.26 4.23 3.612l1.277.176c1.453.221 2.158.573 2.158 1.278 0 .969-.969 1.498-2.819 1.498s-3.216-.573-4.097-1.278l-1.277 2.071c1.453 1.101 3.303 1.586 5.33 1.586 3.568 0 5.595-1.674 5.595-4.009 0-2.159-1.63-3.304-4.318-3.701l-1.277-.176c-1.145-.132-2.07-.396-2.07-1.189 0-.881.88-1.454 2.334-1.454 1.586 0 3.084.573 3.833 1.057l1.233-2.114zm71.762-1.322c-1.541 0-2.555.705-3.259 1.806V103.7h-2.644v12.291h2.688v-6.916c0-2.027.881-3.172 2.643-3.172a4.67 4.67 0 011.674.308l.837-2.511c-.617-.176-1.41-.308-1.939-.308zm-34.493 6.476c0 3.744 2.6 6.476 6.564 6.476 1.85 0 3.084-.397 4.449-1.454l-1.277-2.159c-1.013.705-2.071 1.102-3.216 1.102-2.159-.044-3.7-1.586-3.7-3.921 0-2.379 1.585-3.921 3.7-3.921 1.145 0 2.203.397 3.216 1.102l1.277-2.159c-1.321-1.057-2.555-1.454-4.45-1.454-3.964-.088-6.563 2.643-6.563 6.388zm25.066 0V103.7h-2.687v1.498c-.837-1.101-2.115-1.806-3.877-1.806-3.436 0-6.167 2.687-6.167 6.476 0 3.744 2.687 6.476 6.167 6.476 1.762 0 3.04-.705 3.877-1.807v1.498h2.687v-6.167zm-9.956 0c0-2.159 1.41-3.921 3.745-3.921 2.202 0 3.7 1.718 3.7 3.921 0 2.247-1.498 3.921-3.7 3.921-2.335.044-3.745-1.763-3.745-3.921zm-32.335-6.476c-3.612 0-6.123 2.643-6.123 6.476 0 3.921 2.643 6.476 6.3 6.476 1.85 0 3.568-.485 5.066-1.718l-1.322-1.983a5.714 5.714 0 01-3.568 1.278c-1.718 0-3.304-.793-3.7-2.996h9.162c.044-.352.044-.661.044-1.013-.044-3.877-2.378-6.52-5.859-6.52zm-.044 2.423c1.718 0 2.82 1.101 3.128 2.996h-6.388c.265-1.807 1.366-2.996 3.26-2.996zm67.181 4.053V98.766h-2.687v6.432c-.837-1.101-2.115-1.806-3.877-1.806-3.436 0-6.167 2.687-6.167 6.476 0 3.744 2.687 6.476 6.167 6.476 1.762 0 3.04-.705 3.877-1.807v1.498h2.687v-6.167zm-9.956 0c0-2.159 1.41-3.921 3.745-3.921 2.202 0 3.7 1.718 3.7 3.921 0 2.247-1.498 3.921-3.7 3.921-2.335.044-3.745-1.763-3.745-3.921zm-90.44 0V103.7H39.69v1.498c-.837-1.101-2.158-1.806-3.876-1.806-3.436 0-6.168 2.687-6.168 6.476 0 3.744 2.687 6.476 6.168 6.476 1.762 0 3.04-.705 3.876-1.807v1.498h2.688v-6.167zm-9.956 0c0-2.159 1.41-3.921 3.744-3.921 2.203 0 3.7 1.718 3.7 3.921 0 2.247-1.497 3.921-3.7 3.921-2.335.044-3.745-1.763-3.745-3.921zm114.801 4.361c.177 0 .353.044.485.088s.264.132.396.265c.133.132.221.264.265.396.044.132.088.308.088.485 0 .176-.044.308-.088.484-.044.132-.177.264-.265.397-.132.132-.264.176-.396.264a1.583 1.583 0 01-.485.088c-.176 0-.352-.044-.484-.088a1.042 1.042 0 01-.397-.264c-.132-.133-.22-.221-.264-.397a1.582 1.582 0 01-.088-.484c0-.177.044-.309.088-.485.044-.132.132-.264.264-.396.132-.133.265-.177.397-.265.176-.044.308-.088.484-.088zm0 2.203a.834.834 0 00.353-.088c.132-.044.22-.133.308-.221s.132-.176.22-.308c.044-.132.088-.22.088-.352a.83.83 0 00-.088-.353c-.044-.132-.132-.22-.22-.308s-.176-.132-.308-.22c-.132-.045-.221-.089-.353-.089-.132 0-.264.044-.396.089-.132.044-.22.132-.309.22-.088.088-.132.176-.22.308-.044.132-.088.22-.088.353 0 .132.044.264.088.352.044.132.132.22.22.308.089.088.177.177.309.221.176.044.264.088.396.088zm.088-1.542a.83.83 0 01.353.088c.088.044.132.176.132.264a.339.339 0 01-.088.221.716.716 0 01-.264.132l.352.44h-.308l-.353-.44h-.132v.44h-.264v-1.145h.572zm-.264.22v.309h.264c.044 0 .133 0 .133-.045.044-.044.044-.044.044-.132 0-.044 0-.088-.044-.132-.044-.044-.089-.044-.133-.044h-.264v.044z" fill="#010101"/>
        <path d="M95.287 9.912H54.714v72.907h40.573V9.912z" fill="#F26522"/>
        <path d="M57.313 46.344c0-14.802 6.916-27.974 17.709-36.432C67.137 3.7 57.181 0 46.344 0 20.749 0 0 20.749 0 46.344c0 25.594 20.749 46.343 46.344 46.343 10.793 0 20.748-3.7 28.634-9.912-10.749-8.458-17.665-21.63-17.665-36.431z" fill="#E51B24"/>
        <path d="M150 46.344c0 25.594-20.748 46.343-46.343 46.343-10.793 0-20.75-3.7-28.635-9.912 10.793-8.502 17.71-21.674 17.71-36.431a46.218 46.218 0 00-17.71-36.432C82.908 3.7 92.82 0 103.657 0 129.252 0 150 20.749 150 46.344zm-4.405 28.722v-1.498h.617v-.308h-1.542v.308h.617v1.498h.308zm2.952 0V73.26h-.485l-.529 1.233-.528-1.233h-.485v1.806h.309V73.7l.484 1.19h.353l.484-1.19v1.366h.397z" fill="#F99F1C"/>
    </g>
    <defs>
        <clipPath id="clip0">
            <path fill="#fff" d="M0 0h150v116.696H0z"/>
        </clipPath>
    </defs>
</svg>
