<svg width="16" height="16" fill="none" xmlns="http://www.w3.org/2000/svg">
    <path d="M13.657 2.343A7.948 7.948 0 008 0a7.948 7.948 0 00-5.657 2.343A7.948 7.948 0 000 8c0 2.137.832 4.146 2.343 5.657A7.948 7.948 0 008 16a7.987 7.987 0 004.14-1.153.625.625 0 10-.648-1.069A6.739 6.739 0 018 14.75 6.758 6.758 0 011.25 8 6.758 6.758 0 018 1.25 6.758 6.758 0 0114.75 8c0 1.33-.396 2.626-1.145 3.746a.625.625 0 101.04.695A7.97 7.97 0 0016 8a7.948 7.948 0 00-2.343-5.657z" fill="#006ECC"/>
    <path d="M9.092 10.173a.563.563 0 01-.568.558H7.263v.602a.673.673 0 01-.68.667H6.51a.673.673 0 01-.679-.667v-.602h-.596a.563.563 0 01-.568-.558c0-.308.254-.558.568-.558h.596v-.588h-.596a.563.563 0 01-.568-.557c0-.308.254-.558.568-.558h.596V4.667c0-.369.304-.667.68-.667h2.484c.913 0 1.642.23 2.187.692.545.458.818 1.068.818 1.83 0 .777-.26 1.386-.778 1.83-.519.44-1.24.664-2.164.675H7.263v.588h1.26c.314 0 .569.25.569.558zm-1.83-2.26h1.71c.515 0 .91-.116 1.182-.347.273-.23.409-.575.409-1.033 0-.41-.135-.745-.403-1.006-.266-.26-.633-.395-1.102-.406H7.263v2.791z" fill="#006ECC"/>
</svg>
