<svg width="190" height="87" fill="none" xmlns="http://www.w3.org/2000/svg">
    <path d="M93.113 48.813h2.953v6.618h2.133l3.828-6.618h3.228l-4.594 7.767v.054l4.868 8.476h-3.337L98.254 58h-2.132v7.11h-2.954V48.812h-.055v.001zm19.034 4.321c3.552 0 6.452 2.57 6.452 6.125 0 3.61-2.844 6.126-6.398 6.126-3.556 0-6.4-2.516-6.4-6.126-.054-3.609 2.789-6.125 6.346-6.125zm8.749.272h2.789v9.19h3.665v-9.188h2.788v9.188h3.665v-9.188h2.789V65.11h-15.587V53.406h-.109zm23.956-.272c3.335 0 5.195 2.462 5.195 5.525-.01.384-.046.768-.109 1.147h-8.04c.164 2.023 1.75 3.118 3.501 3.118 1.202 0 2.406-.548 3.335-1.258l1.149 2.079c-1.203 1.037-3.008 1.694-4.703 1.694-3.884 0-6.29-2.789-6.29-6.126 0-3.663 2.46-6.179 5.962-6.179zm6.561 9.516c1.423-.22 2.462-1.421 2.462-5.579v-3.663h8.533V65.11h-2.9v-9.353h-2.844v1.312c0 5.086-1.366 8.04-5.251 8.15v-2.57.001zm19.307-9.516c3.335 0 5.195 2.462 5.195 5.525a8.028 8.028 0 01-.109 1.147h-8.04c.165 2.023 1.751 3.118 3.502 3.118 1.201 0 2.405-.548 3.335-1.258l1.149 2.079c-1.204 1.037-3.009 1.694-4.704 1.694-3.882 0-6.289-2.789-6.289-6.126 0-3.663 2.461-6.179 5.961-6.179zm7.602.272h2.898v4.486h1.423l2.844-4.484h3.226l-3.719 5.577v.056l4.156 6.069h-3.389l-3.063-4.757h-1.53v4.757h-2.902V53.406h.056zm-66.175 9.463c1.914 0 3.5-1.477 3.5-3.665 0-2.133-1.586-3.665-3.502-3.665-1.912 0-3.444 1.48-3.444 3.665 0 2.188 1.53 3.665 3.446 3.665zm34.947-5.086c0-1.531-1.04-2.461-2.353-2.461-1.475 0-2.57.984-2.843 2.461h5.196zm25.868 0c0-1.531-1.038-2.461-2.35-2.461-1.479 0-2.572.984-2.846 2.461h5.196z" fill="#2D3540"/>
    <path d="M133.968 13.318v27.62a.748.748 0 01-.765.765h-5.634a.744.744 0 01-.711-.47.73.73 0 01-.053-.295v-27.62a.761.761 0 01.218-.546.754.754 0 01.546-.219h5.634a.745.745 0 01.765.765zm43.972-.764c.219 0 .493.108.765.328.165.163.165.436.11.656l-9.298 27.673a.78.78 0 01-.711.493h-5.031c-.328 0-.602-.165-.711-.493l-5.417-16.133-5.414 16.132a.78.78 0 01-.711.493h-5.031c-.328 0-.602-.164-.711-.493l-9.298-27.674c-.055-.218-.055-.437.109-.654.11-.22.384-.329.601-.329h6.29c.328 0 .602.218.712.546l4.976 16.353 5.47-16.353a.777.777 0 01.71-.493h4.43c.328 0 .602.165.711.493l5.47 16.353 4.977-16.353a.756.756 0 01.711-.546H177.94zm9.515 0c.383 0 .711.328.765.764v27.62a.761.761 0 01-.218.546.753.753 0 01-.547.219h-5.633a.744.744 0 01-.711-.47.748.748 0 01-.054-.295v-27.62a.748.748 0 01.765-.764h5.633zM123.522 40.72c.328.383.055.928-.438.928h-6.892a.88.88 0 01-.71-.328l-1.148-1.42c-2.407 1.529-5.252 2.46-8.259 2.46-8.421 0-15.258-6.836-15.258-15.26 0-8.422 6.837-15.259 15.258-15.259 8.423 0 15.259 6.837 15.259 15.26 0 3.009-.875 5.852-2.407 8.258l4.595 5.36v.001zM65.931 54.118c1.423.548 1.97 2.68 2.079 3.61.22 1.696-.272 2.352-.82 2.352-.547 0-1.314-.656-2.133-1.969-.82-1.314-1.149-2.79-.71-3.556.272-.493.873-.71 1.586-.437h-.002zM57.619 60.3c.875 0 1.86.383 2.735 1.148 1.694 1.422 2.187 3.063 1.312 4.266-.493.602-1.312.984-2.242.984-.93 0-1.914-.328-2.57-.93-1.532-1.312-1.969-3.501-.986-4.703.384-.493.986-.765 1.75-.765zm-19.14 15.805C17.693 76.104.85 59.26.85 38.476.85 17.694 17.696.85 38.477.85c20.782 0 37.628 16.845 37.628 37.626A37.86 37.86 0 0170.8 57.783c-.11.163-.384.11-.439-.11-1.312-9.242-6.945-14.33-15.149-15.86-.712-.11-.82-.547.11-.656 2.515-.22 6.07-.165 7.929.163.109-.93.165-1.914.165-2.898 0-13.728-11.158-24.886-24.886-24.886-13.726 0-24.884 11.158-24.884 24.886s11.158 24.886 24.886 24.886h1.147a33.571 33.571 0 01-.493-6.728c.056-1.532.384-1.751 1.04-.548 3.446 5.962 8.369 11.322 17.993 13.455 7.876 1.75 15.751 3.773 24.228 14.547.765.93-.382 1.914-1.257 1.15C72.55 77.524 64.674 75.01 57.51 75.01c-8.04.056-13.509 1.094-19.033 1.094h.001zm71.369-41.51l-3.008-3.665c-.327-.382-.053-.984.438-.984h6.344c.328-.876.493-1.86.493-2.844 0-4.539-3.391-8.477-8.04-8.477-4.648 0-8.04 3.938-8.04 8.477s3.392 8.423 8.04 8.423c1.312.054 2.626-.328 3.773-.93z" fill="#FF8C00"/>
</svg>
