<svg width="24" height="24" fill="none" xmlns="http://www.w3.org/2000/svg">
    <g clip-path="url(#clip0)">
        <path d="M11.953 18.563c-4.312 0-6.32-3.62-6.403-3.773a.938.938 0 011.65-.892c.002.003.406.726 1.21 1.429 1.032.903 2.224 1.36 3.543 1.36 3.208 0 4.739-2.762 4.753-2.79a.938.938 0 011.65.893c-.084.154-2.09 3.773-6.403 3.773zm6.256 3.708a.937.937 0 10-.971-1.604A10.107 10.107 0 0112 22.125C6.417 22.125 1.875 17.583 1.875 12S6.417 1.875 12 1.875 22.125 6.417 22.125 12c0 1.996-.594 3.94-1.717 5.62a.937.937 0 101.559 1.042A11.95 11.95 0 0024 12c0-3.205-1.248-6.219-3.515-8.485A11.922 11.922 0 0012 0a11.922 11.922 0 00-8.485 3.515A11.922 11.922 0 000 12c0 3.205 1.248 6.219 3.515 8.485A11.922 11.922 0 0012 24a11.98 11.98 0 006.21-1.73zm.307-12.521a2.346 2.346 0 00-2.344-2.344 2.346 2.346 0 00-2.344 2.344.937.937 0 101.875 0 .47.47 0 01.938 0 .937.937 0 101.875 0zm-8.297 0a2.346 2.346 0 00-2.344-2.344A2.346 2.346 0 005.531 9.75a.937.937 0 101.875 0 .47.47 0 01.938 0 .937.937 0 101.875 0z" fill="#1DC368"/>
    </g>
    <defs>
        <clipPath id="clip0">
            <path fill="#fff" d="M0 0h24v24H0z"/>
        </clipPath>
    </defs>
</svg>
