<svg width="624" height="469" fill="none" xmlns="http://www.w3.org/2000/svg">
    <path d="M572.738 79.105c0-5.584-1.864-9.772-5.127-11.633L453.437 2.326c-4.194-2.792-8.855-3.257-15.379.466 25.165 13.96 96.932 54.908 134.68 76.313z" fill="url(#paint0_linear)"/>
    <path d="M453.437 2.326c-4.194-2.792-8.854-3.257-15.379.466-1.398.93-2.796 1.86-4.194 3.257-18.641 14.425-36.815 48.86-53.592 69.334l115.573 66.076c19.107-23.732 40.077-66.077 61.98-73.987 3.263-.93 6.525-.93 8.855.465L453.437 2.327z" fill="url(#paint1_linear)"/>
    <path d="M384 69.799c-1.398 1.861-2.796 3.722-4.194 5.118l115.573 66.077c1.398-1.861 2.796-3.257 4.194-5.119L384 69.799z" fill="url(#paint2_linear)"/>
    <g filter="url(#filter0_d)">
        <path d="M298.718 134.479c0 14.891 5.126 25.593 13.514 30.712.466 0 192.932 111.678 193.398 111.678 8.855 4.653 3.263-6.049 16.311-13.96 26.563-15.355 48-52.582 48-82.828 0-14.89 13.981-15.356 5.592-20.009-.466 0-194.796-111.678-194.796-112.144-8.854-4.653-20.505-3.722-33.553 3.723-26.563 14.89-48.466 52.117-48.466 82.828z" fill="url(#paint3_linear)"/>
        <path d="M493.514 246.623c0 30.711 21.437 42.81 48 27.454 26.563-15.356 48-52.582 48-82.828 0-30.246-21.437-42.81-48-27.454-26.563 14.89-48 52.116-48 82.828z" fill="url(#paint4_linear)"/>
        <path d="M212.039 415.071v27.92c0 8.841 9.786 14.425 17.243 9.306l311.301-213.12v-68.403c0-6.049-6.524-9.306-11.651-6.049L239.534 362.954c-17.243 11.634-27.495 31.177-27.495 52.117z" fill="url(#paint5_linear)"/>
        <path d="M212.039 442.991v-27.92c0-20.94 10.252-40.483 27.495-52.116l289.398-197.764c2.33-1.396 5.126-1.862 7.456-.466L340.66 52.116c-2.33-.93-5.126-.93-7.456.466L43.806 250.346c-17.243 12.098-27.495 31.642-27.495 52.116v27.92c0 5.118 3.262 8.841 7.456 10.237l194.33 112.144c-3.728-1.862-6.058-5.119-6.058-9.772z" fill="url(#paint6_linear)"/>
        <path d="M212.038 442.99v-27.919c0-20.94 10.252-40.484 27.495-52.117L528.931 165.19c1.398-.93 3.262-1.396 4.66-1.396-2.33-2.792-6.524-4.188-10.252-1.861L233.941 360.162c-17.243 11.633-27.495 31.177-27.495 52.117v27.919c0 5.584 4.194 9.772 8.854 10.703-2.33-1.862-3.262-4.654-3.262-7.911z" fill="url(#paint7_radial)"/>
        <path d="M248.854 438.337l6.058-3.722-1.398 6.514-4.66-2.792z" fill="url(#paint8_linear)"/>
        <path d="M257.242 429.031v-12.098c0-18.613 9.32-35.831 24.233-46.068l267.961-195.437c1.864-1.396 4.66-1.396 6.525-.465l-4.195-2.792c-1.864-.931-4.194-.931-6.524.465L277.747 367.608c-15.379 10.237-24.233 27.92-24.233 46.067v26.524l-4.194-1.861-3.262 2.326 11.65 6.515 5.592-9.772c-3.728-1.396-6.058-4.653-6.058-8.376z" fill="url(#paint9_linear)"/>
        <path d="M257.242 416.467v30.712L539.65 253.603c12.582-8.376 20.038-22.336 20.038-37.691v-36.296c0-5.118-6.058-8.376-10.252-5.584L281.475 369.469c-14.913 11.168-24.233 28.851-24.233 46.998z" fill="url(#paint10_linear)"/>
        <path d="M26.563 334.569h-.466c-1.398-.465-2.796-1.861-2.796-3.722v-27.92c0-18.613 9.32-35.83 24.233-46.067L336.932 59.096l7.456-4.188 181.748 104.698L235.34 356.905c-19.107 13.029-30.758 34.899-30.758 58.166v22.335L26.562 334.569z" fill="url(#paint11_linear)"/>
        <path opacity=".5" d="M34.019 334.104h-.466c-1.398-.465-2.796-1.861-2.796-3.722v-27.92c0-18.613 9.32-35.83 24.233-46.067L344.388 58.631l3.728-1.861-3.262-2.327-7.456 4.188L48 256.395c-15.379 10.237-24.233 27.919-24.233 46.067v27.92c0 1.861 1.398 3.257 2.796 3.722h.466l178.019 102.372v-3.723L34.019 334.104z" fill="#002E56"/>
        <path d="M370.951 250.81l127.223-86.55L338.33 71.194l-128.156 87.482c-5.126 3.257-4.66 10.702.466 13.494l137.01 79.571c6.99 4.188 16.311 3.723 23.301-.931z" fill="url(#paint12_linear)"/>
        <path d="M230.213 156.815c6.524-4.188 14.447-4.653 20.971-.931l118.369 68.869c5.126 3.257 5.592 10.702.466 13.959-6.99 4.654-15.845 5.119-23.301.931l-116.039-67.472c-5.592-3.258-6.058-11.633-.466-15.356z" fill="url(#paint13_linear)"/>
        <path d="M230.214 160.537c6.524-4.188 14.446-4.653 20.971-.931l118.369 68.869c5.126 3.257 5.592 10.702.466 13.959-6.991 4.654-15.845 5.119-23.301.931l-116.505-67.472c-5.127-3.723-5.593-11.634 0-15.356z" fill="#000"/>
        <path d="M230.213 156.815c6.524-4.188 14.447-4.653 20.971-.931l118.369 68.869c5.126 3.257 5.592 10.702.466 13.959-6.99 4.654-15.845 5.119-23.301.931l-116.039-67.472c-5.592-3.258-6.058-11.633-.466-15.356z" fill="url(#paint14_linear)"/>
        <path d="M252.116 142.39l86.68-58.631 139.34 80.967-86.68 59.096-139.34-81.432z" fill="url(#paint15_linear)"/>
        <path d="M267.961 195.902l24.233-16.752c2.33-1.396 5.126-1.396 7.456-.465l29.359 17.217c1.864.931 1.864 3.723 0 4.653l-24.233 16.752c-2.33 1.396-5.126 1.396-7.456.465l-29.359-17.217c-1.865-.93-1.865-3.257 0-4.653z" fill="#000"/>
        <path d="M267.961 194.041l24.233-16.752c2.33-1.396 5.126-1.396 7.456-.465l29.359 17.217c1.864.931 1.864 3.723 0 4.653l-24.233 16.752c-2.33 1.396-5.126 1.396-7.456.465l-29.359-17.217c-1.865-.93-1.865-3.257 0-4.653z" fill="url(#paint16_linear)"/>
        <path d="M329.009 197.298l-24.233 16.752c-2.33 1.396-5.126 1.396-7.456.465l-29.359-17.217-1.399-1.396c-.466 1.396 0 2.792 1.399 3.257l29.359 17.217c2.33 1.396 5.126 1.396 7.456-.465l24.233-16.752c.932-.931 1.398-1.861.932-3.257 0 .465-.466 1.396-.932 1.396z" fill="url(#paint17_radial)"/>
        <path d="M48.466 313.63v20.009l132.815 76.779v-20.475L48.466 313.63z" fill="url(#paint18_linear)"/>
        <path d="M53.592 331.778v-15.356l-5.126-2.792v20.009l132.815 76.779v-5.119L53.592 331.778z" fill="#70789C"/>
        <path d="M237.203 201.021l-25.165-14.425c-4.194-2.327-11.184-2.327-15.379.931-4.194 2.792-4.194 7.445.466 9.771l25.166 14.426c4.194 2.326 11.184 2.326 15.378-.931 4.194-3.257 4.194-7.445-.466-9.772zm49.864 27.92l-25.165-14.426c-4.194-2.326-11.184-2.326-15.378.931-4.195 2.792-4.195 7.445.466 9.772l25.165 14.425c4.194 2.327 11.184 2.327 15.378-.931 3.728-2.791 3.728-6.979-.466-9.771zm8.855 24.662l25.165 14.425c4.194 2.327 11.184 2.327 15.378-.931 4.194-2.792 4.194-7.445-.466-9.771L310.834 242.9c-4.194-2.326-11.184-2.326-15.378.931-3.729 2.792-3.729 7.445.466 9.772zm-84.35-34.9l-25.165-14.425c-4.194-2.326-11.184-2.326-15.379.931-4.194 2.792-4.194 7.445.466 9.772l25.165 14.425c4.195 2.327 11.185 2.327 15.379-.931 3.728-2.792 3.728-7.445-.466-9.772zm49.398 28.385l-25.165-14.425c-4.194-2.326-11.184-2.326-15.379.931-4.194 2.792-4.194 7.445.467 9.772l25.165 14.425c4.194 2.327 11.184 2.327 15.378-.931 3.728-2.792 3.728-7.445-.466-9.772zm49.398 28.385l-25.165-14.425c-4.194-2.326-11.184-2.326-15.378.931-4.195 2.792-4.195 7.445.466 9.772l25.165 14.425c4.194 2.326 11.184 2.326 15.378-.931 3.728-2.792 3.728-7.445-.466-9.772zm-124.893-38.622l-25.165-14.425c-4.194-2.327-11.185-2.327-15.379.931-4.194 2.792-4.194 7.445.466 9.772l25.165 14.425c4.195 2.326 11.185 2.326 15.379-.931 3.728-3.257 3.728-7.445-.466-9.772zm49.398 28.385l-25.165-14.425c-4.194-2.327-11.184-2.327-15.379.931-4.194 2.792-4.194 7.445.466 9.771l25.165 14.426c4.195 2.326 11.185 2.326 15.379-.931 3.728-3.257 3.728-7.445-.466-9.772zm49.398 28.385l-25.165-14.425c-4.194-2.327-11.184-2.327-15.379.931-4.194 2.792-4.194 7.445.466 9.771l25.166 14.426c4.194 2.326 11.184 2.326 15.378-.931 4.194-3.257 3.728-7.445-.466-9.772zm-124.893-39.087l-25.165-14.426c-4.194-2.326-11.185-2.326-15.379.931-4.194 2.792-4.194 7.445.466 9.772l25.165 14.425c4.194 2.327 11.185 2.327 15.379-.931 3.728-2.792 3.728-6.979-.466-9.771zm49.398 28.385l-25.165-14.426c-4.194-2.326-11.185-2.326-15.379.931-4.194 2.792-4.194 7.445.466 9.772l25.165 14.425c4.195 2.327 11.185 2.327 15.379-.931 3.728-2.792 3.728-6.98-.466-9.771zm49.398 28.384l-25.165-14.425c-4.194-2.326-11.184-2.326-15.379.931-4.194 2.792-4.194 7.445.466 9.772l25.165 14.425c4.195 2.327 11.185 2.327 15.379-.931 4.194-2.792 3.728-7.445-.466-9.772zm-124.893-38.622l-25.165-14.425c-4.194-2.326-11.185-2.326-15.379.931-4.194 2.792-4.194 7.445.466 9.772l25.165 14.425c4.194 2.326 11.185 2.326 15.379-.931 3.728-2.792 3.728-7.445-.466-9.772zm49.398 28.385l-25.165-14.425c-4.194-2.327-11.185-2.327-15.379.931-4.194 2.792-4.194 7.445.466 9.772l25.165 14.425c4.194 2.326 11.185 2.326 15.379-.931 4.194-3.257 3.728-7.445-.466-9.772zm49.398 28.385l-25.165-14.425c-4.194-2.327-11.185-2.327-15.379.931-4.194 2.792-4.194 7.445.466 9.772l25.165 14.425c4.195 2.326 11.185 2.326 15.379-.931 4.194-3.257 3.728-7.445-.466-9.772z" fill="url(#paint19_linear)"/>
        <path d="M237.203 197.764l-25.165-14.425c-4.194-2.327-11.184-2.327-15.379.93-4.194 2.792-4.194 7.445.466 9.772l25.166 14.425c4.194 2.327 11.184 2.327 15.378-.93 4.194-2.792 4.194-7.446-.466-9.772zm49.864 28.385l-25.165-14.426c-4.194-2.326-11.184-2.326-15.378.931-4.195 2.792-4.195 7.445.466 9.772l25.165 14.425c4.194 2.327 11.184 2.327 15.378-.931 3.728-3.257 3.728-7.445-.466-9.771zm8.855 24.197l25.165 14.425c4.194 2.326 11.184 2.326 15.378-.931 4.194-2.792 4.194-7.445-.466-9.772l-25.165-14.425c-4.194-2.327-11.184-2.327-15.378.931-3.729 2.792-3.729 7.445.466 9.772zm-84.35-34.9l-25.165-14.425c-4.194-2.327-11.184-2.327-15.379.931-4.194 2.792-4.194 7.445.466 9.771l25.165 14.426c4.195 2.326 11.185 2.326 15.379-.931 3.728-2.792 3.728-6.98-.466-9.772zm49.398 28.385l-25.165-14.425c-4.194-2.327-11.184-2.327-15.379.931-4.194 2.792-4.194 7.445.467 9.771l25.165 14.426c4.194 2.326 11.184 2.326 15.378-.931 3.728-2.792 3.728-6.98-.466-9.772zm49.398 28.385l-25.165-14.425c-4.194-2.327-11.184-2.327-15.378.93-4.195 2.792-4.195 7.446.466 9.772l25.165 14.425c4.194 2.327 11.184 2.327 15.378-.93 3.728-2.792 3.728-6.98-.466-9.772zm-124.893-38.622l-25.165-14.425c-4.194-2.327-11.185-2.327-15.379.93-4.194 2.792-4.194 7.446.466 9.772l25.165 14.425c4.195 2.327 11.185 2.327 15.379-.93 3.728-2.792 3.728-7.446-.466-9.772zm49.398 28.385l-25.165-14.425c-4.194-2.327-11.184-2.327-15.379.93-4.194 2.792-4.194 7.446.466 9.772l25.165 14.425c4.195 2.327 11.185 2.327 15.379-.93 3.728-2.792 3.728-7.446-.466-9.772zm49.398 28.385l-25.165-14.425c-4.194-2.327-11.184-2.327-15.379.93-4.194 2.792-4.194 7.445.466 9.772l25.166 14.425c4.194 2.327 11.184 2.327 15.378-.93 4.194-3.258 3.728-7.446-.466-9.772zm-124.893-38.622l-25.165-14.426c-4.194-2.326-11.185-2.326-15.379.931-4.194 2.792-4.194 7.445.466 9.772l25.165 14.425c4.194 2.327 11.185 2.327 15.379-.931 3.728-3.257 3.728-7.445-.466-9.771zm49.398 27.919l-25.165-14.425c-4.194-2.327-11.185-2.327-15.379.931-4.194 2.792-4.194 7.445.466 9.772l25.165 14.425c4.195 2.326 11.185 2.326 15.379-.931 3.728-2.792 3.728-6.98-.466-9.772zm49.398 28.385l-25.165-14.425c-4.194-2.327-11.184-2.327-15.379.931-4.194 2.792-4.194 7.445.466 9.771l25.165 14.426c4.195 2.326 11.185 2.326 15.379-.931 4.194-2.792 3.728-6.98-.466-9.772zm-124.893-38.622l-25.165-14.425c-4.194-2.327-11.185-2.327-15.379.931-4.194 2.791-4.194 7.445.466 9.771l25.165 14.426c4.194 2.326 11.185 2.326 15.379-.931 3.728-2.792 3.728-7.445-.466-9.772zm49.398 28.385l-25.165-14.425c-4.194-2.327-11.185-2.327-15.379.93-4.194 2.792-4.194 7.446.466 9.772l25.165 14.425c4.194 2.327 11.185 2.327 15.379-.93 4.194-2.792 3.728-7.445-.466-9.772zm49.398 28.385l-25.165-14.425c-4.194-2.327-11.185-2.327-15.379.93-4.194 2.792-4.194 7.446.466 9.772l25.165 14.425c4.195 2.327 11.185 2.327 15.379-.93 4.194-2.792 3.728-7.446-.466-9.772z" fill="url(#paint20_linear)"/>
        <path d="M232.078 326.194l-25.165-14.425c-4.195-2.327-11.185-2.327-15.379.93-4.194 2.792-4.194 7.445.466 9.772l25.165 14.425c4.194 2.327 11.185 2.327 15.379-.931 4.194-2.792 3.728-7.445-.466-9.771z" fill="url(#paint21_linear)"/>
        <path d="M133.281 269.424l-25.165-14.425c-4.194-2.327-11.185-2.327-15.379.93-4.194 2.792-4.194 7.446.466 9.772l25.165 14.425c4.194 2.327 11.185 2.327 15.379-.93 3.728-2.792 3.728-7.445-.466-9.772z" fill="url(#paint22_linear)"/>
        <path d="M182.679 297.809l-25.165-14.425c-4.194-2.327-11.184-2.327-15.378.931-4.195 2.792-4.195 7.445.466 9.771l25.165 14.426c4.194 2.326 11.184 2.326 15.378-.931 4.194-2.792 3.728-7.445-.466-9.772z" fill="url(#paint23_linear)"/>
        <path d="M171.028 211.722l25.165 14.426c4.195 2.326 11.185 2.326 15.379-.931 2.33-1.861 3.262-3.723 2.796-6.049-.466 1.396-1.398 2.792-2.796 3.722-4.194 2.792-11.184 3.258-15.379.931l-25.165-14.425c-1.864-.931-2.796-2.327-3.262-3.723-.466 2.327.466 4.654 3.262 6.049z" fill="url(#paint24_radial)"/>
        <path d="M118.835 247.553L144 261.978c4.194 2.327 11.184 2.327 15.378-.93 2.33-1.861 3.262-3.723 2.796-6.049-.466 1.396-1.398 2.792-2.796 3.722-4.194 2.792-11.184 3.257-15.378.931l-25.165-14.425c-1.864-.931-2.797-2.327-3.263-3.723-.466 2.327.466 4.653 3.263 6.049z" fill="url(#paint25_radial)"/>
        <path d="M197.125 193.575L222.29 208c4.194 2.327 11.185 2.327 15.379-.93 2.33-1.862 3.262-3.723 2.796-6.05-.466 1.396-1.398 2.792-2.796 3.723-4.194 2.792-11.185 3.257-15.379.931l-25.165-14.426c-1.864-.93-2.796-2.326-3.262-3.722-.466 2.327.466 4.653 3.262 6.049z" fill="url(#paint26_radial)"/>
        <path d="M144.931 229.405l25.165 14.425c4.194 2.327 11.184 2.327 15.378-.93 2.331-1.862 3.263-3.723 2.797-6.05-.466 1.396-1.398 2.792-2.797 3.723-4.194 2.792-11.184 3.257-15.378.931l-25.165-14.425c-1.864-.931-2.796-2.327-3.262-3.723-.466 2.327.466 4.653 3.262 6.049z" fill="url(#paint27_radial)"/>
        <path d="M246.524 221.96l25.165 14.425c4.194 2.327 11.184 2.327 15.378-.93 2.33-1.862 3.262-3.723 2.796-6.049-.466 1.396-1.398 2.792-2.796 3.722-4.194 2.792-11.184 3.257-15.378.931l-25.165-14.425c-1.865-.931-2.797-2.327-3.263-3.723-.466 2.327.466 4.653 3.263 6.049z" fill="url(#paint28_radial)"/>
        <path d="M234.873 271.75c2.33-1.862 3.262-3.723 2.796-6.05-.466 1.396-1.398 2.792-2.796 3.723-4.194 2.792-11.185 3.257-15.379.931l-25.165-14.425c-1.864-.931-2.796-2.327-3.262-3.723-.466 2.327.466 4.653 3.262 6.049l25.165 14.425c4.66 2.327 11.185 1.862 15.379-.93z" fill="url(#paint29_radial)"/>
        <path d="M260.97 253.602c2.33-1.861 3.262-3.722 2.796-6.049-.466 1.396-1.398 2.792-2.796 3.723-4.195 2.792-11.185 3.257-15.379.93l-25.165-14.425c-1.864-.93-2.796-2.326-3.262-3.722-.466 2.326.466 4.653 3.262 6.049l25.165 14.425c4.194 2.327 11.184 1.861 15.379-.931z" fill="url(#paint30_radial)"/>
        <path d="M208.776 289.432c2.33-1.861 3.262-3.722 2.796-6.049-.466 1.396-1.398 2.792-2.796 3.723-4.194 2.792-11.185 3.257-15.379.93l-25.165-14.425c-1.864-.93-2.796-2.326-3.262-3.722-.466 2.326.466 4.653 3.262 6.049l25.165 14.425c4.66 2.327 11.185 2.327 15.379-.931z" fill="url(#paint31_radial)"/>
        <path d="M310.368 280.126c-4.194 2.792-11.184 3.257-15.379.93l-25.165-14.425c-1.864-.93-2.796-2.326-3.262-3.722-.466 2.326.466 4.653 3.262 6.049l25.165 14.425c4.195 2.327 11.185 2.327 15.379-.931 2.33-1.861 3.262-3.722 2.796-6.049 0 .931-.932 2.327-2.796 3.723z" fill="url(#paint32_radial)"/>
        <path d="M336.466 261.978c-4.195 2.792-11.185 3.258-15.379.931l-25.165-14.425c-1.864-.931-2.796-2.327-3.262-3.723-.466 2.327.466 4.654 3.262 6.049l25.165 14.426c4.194 2.326 11.184 2.326 15.379-.931 2.33-1.861 3.262-3.723 2.796-6.049 0 1.396-.932 2.792-2.796 3.722z" fill="url(#paint33_radial)"/>
        <path d="M284.737 297.808c-4.194 2.792-11.184 3.258-15.378.931l-25.166-14.425c-1.864-.931-2.796-2.327-3.262-3.723-.466 2.327.466 4.653 3.262 6.049l25.166 14.426c4.194 2.326 11.184 2.326 15.378-.931 2.33-1.861 3.262-3.723 2.796-6.049-.466 1.396-1.398 2.792-2.796 3.722z" fill="url(#paint34_radial)"/>
        <path d="M258.64 315.956c-4.195 2.792-11.185 3.257-15.379.93l-25.165-14.425c-1.864-.931-2.796-2.326-3.262-3.722-.466 2.326.466 4.653 3.262 6.049l25.165 14.425c4.194 2.327 11.184 2.327 15.379-.931 2.33-1.861 3.262-3.722 2.796-6.049-.466 1.396-1.398 2.327-2.796 3.723z" fill="url(#paint35_radial)"/>
        <path d="M183.144 305.254c-4.194 2.792-11.184 3.257-15.378.931l-25.165-14.426c-1.864-.93-2.796-2.326-3.262-3.722-.466 2.326.466 4.653 3.262 6.049l25.165 14.425c4.194 2.327 11.184 2.327 15.378-.93 2.33-1.862 3.263-3.723 2.797-6.05-.466 1.396-1.399 2.792-2.797 3.723z" fill="url(#paint36_radial)"/>
        <path d="M232.543 333.638c-4.194 2.792-11.185 3.258-15.379.931l-25.165-14.425c-1.864-.931-2.796-2.327-3.262-3.723-.466 2.327.466 4.654 3.262 6.05l25.165 14.425c4.194 2.326 11.185 2.326 15.379-.931 2.33-1.861 3.262-3.723 2.796-6.049-.466 1.396-1.398 2.792-2.796 3.722z" fill="url(#paint37_radial)"/>
        <path d="M133.281 277.334c-4.195 2.792-11.185 3.258-15.379.931L92.737 263.84c-1.864-.931-2.796-2.327-3.262-3.723-.466 2.327.466 4.653 3.262 6.049l25.165 14.426c4.194 2.326 11.184 2.326 15.379-.931 2.33-1.861 3.262-3.723 2.796-6.049 0 .93-.932 2.326-2.796 3.722z" fill="url(#paint38_radial)"/>
        <path d="M244.66 183.804v-3.723l22.835-14.425 1.864.465-22.835 14.891v3.722l-1.864-.93z" fill="url(#paint39_radial)"/>
        <path d="M246.058 184.734v-3.722l22.369-14.891 1.864.931-22.369 14.89v3.723l-1.864-.931z" fill="#000"/>
        <path d="M328.077 232.198v-3.723l22.835-14.891 1.398.931-22.369 14.891v3.722l-1.864-.93z" fill="url(#paint40_radial)"/>
        <path d="M329.009 232.663v-3.258l22.835-14.89 1.398.931-22.369 14.89v3.723l-1.864-1.396z" fill="#000"/>
        <path d="M284.272 194.04l10.252-6.979c1.398-.931 3.729-.931 5.127 0l13.048 7.445c1.398.93 1.398 2.792 0 4.188l-9.786 6.98c-1.398.93-3.728.93-5.126 0l-13.049-7.446c-1.864-.93-1.864-2.792-.466-4.188z" fill="url(#paint41_linear)"/>
        <path d="M361.164 146.578c-1.864-.931-5.592-.931-7.456.465-1.864 1.396-1.864 3.257 0 4.188 1.864.931 5.592.931 7.456-.465 1.864-.931 1.864-2.792 0-4.188zm9.321-7.911s-.466 0-.466-.465l-3.728 2.326s.466 0 .466.466c7.456 3.722 7.456 10.702 0 15.356l3.728 1.861c9.32-6.049 9.32-14.425 0-19.544zm14.912-9.306s-.466 0-.466-.466l-3.728 2.327s.466 0 .466.465c15.379 8.376 15.845 22.801 0 32.573l3.728 1.861c17.709-11.167 17.709-27.454 0-36.76zm-7.456 4.653s-.466 0-.466-.465l-3.728 2.326s.466 0 .466.465c11.65 6.05 11.65 16.752 0 23.732l3.728 1.861c13.515-8.375 13.515-20.939 0-27.919z" fill="url(#paint42_linear)"/>
    </g>
    <path d="M301.843 146.502l10.53-2.698 3.579 2.067-18.893 4.414-1.326.242c-2.283.357-4.283.04-5.999-.95l-1.116-.696 2.63-1.556c.147.119.42.294.817.523.464.268.917.436 1.359.504.45.072.987.038 1.613-.102l1.459-.37 5.822-9.88 3.569 2.06-4.044 6.442zM307.986 157.129c.59.34 1.23.523 1.923.548.692.026 1.314-.113 1.867-.414l2.994 1.728c-.818.464-1.782.765-2.895.906a10.65 10.65 0 01-3.358-.128 9.889 9.889 0 01-3.05-1.122c-1.709-.987-2.515-2.078-2.419-3.272.103-1.2 1.112-2.352 3.027-3.457l.21-.122c1.841-1.063 3.8-1.628 5.878-1.696 2.077-.068 3.97.391 5.679 1.377 1.495.864 2.265 1.801 2.309 2.813.059 1.012-.612 1.931-2.011 2.756l-2.994-1.729c.604-.366.913-.765.928-1.199.022-.438-.269-.831-.873-1.18-.744-.429-1.58-.597-2.508-.504-.913.094-1.978.491-3.193 1.193l-.332.191c-1.23.71-1.926 1.329-2.088 1.856-.162.528.14 1.012.906 1.455zM322.858 168.431l-3.204-1.85 9.369-5.409-4-2.309-9.369 5.409-3.193-1.843 11.954-6.901 10.397 6.002-11.954 6.901zM330.581 173.145c-1.754-1.012-2.645-2.148-2.674-3.406-.022-1.255.862-2.399 2.651-3.432l.31-.179a12.645 12.645 0 013.911-1.454 12.234 12.234 0 014.154-.127c1.37.195 2.6.608 3.69 1.237 1.636.944 2.405 1.984 2.31 3.119-.089 1.14-1.079 2.256-2.972 3.349l-1.304.752-7.613-4.394c-.677.51-.994 1.05-.95 1.62.052.574.475 1.09 1.271 1.55 1.23.71 2.637 1.007 4.22.893l-.188 1.919a11.585 11.585 0 01-3.535-.204 11.192 11.192 0 01-3.281-1.243zm9.446-5.875c-.633-.366-1.363-.54-2.188-.523-.817.021-1.679.23-2.585.625l4.442 2.564.254-.146c.692-.417 1.046-.842 1.06-1.276.022-.438-.305-.853-.983-1.244zM352.689 171.85l-9.381 5.415 3.282 1.894 9.38-5.415 3.204 1.85-9.38 5.415 3.281 1.894 9.381-5.415 3.193 1.844-11.955 6.901-16.153-9.325 11.955-6.902 3.193 1.844zM366.621 193.696l-3.204-1.85 4.596-2.654-3.966-2.289-4.597 2.653-3.193-1.843 11.955-6.902 3.193 1.844-4.795 2.768 3.966 2.29 4.795-2.769 3.204 1.85-11.954 6.902zM374.686 191.323a12.456 12.456 0 013.856-1.435 12.11 12.11 0 014.121-.109c1.37.204 2.623.634 3.757 1.289 1.613.931 2.434 1.975 2.464 3.131.037 1.161-.733 2.265-2.309 3.311l-.796.485a12.32 12.32 0 01-5.955 1.664c-2.129.047-4.055-.427-5.778-1.422-1.724-.995-2.549-2.109-2.475-3.342.081-1.229 1.071-2.392 2.972-3.489l.143-.083zm2.961 1.977c-1.134.655-1.79 1.28-1.966 1.875-.17.591.143 1.117.939 1.576.773.446 1.672.625 2.696.536 1.031-.094 2.198-.517 3.502-1.27 1.112-.642 1.757-1.265 1.934-1.869.176-.603-.129-1.133-.917-1.588-.781-.451-1.691-.623-2.729-.516-1.032.102-2.184.52-3.459 1.256z" fill="#fff"/>
    <path fill="#444854" d="M441.555 17.011l38.984 20.645-1.057.833L440.5 17.844zM433.573 26.087l55.572 29.43-1.056.832-55.572-29.43zM427.592 35.163l35.666 18.888-1.056.833-35.666-18.889zM420.611 45.239l60.55 32.066-1.057.832-60.55-32.066zM413.63 55.315l48.937 25.916-1.056.832-48.937-25.916zM406.648 65.39l65.526 34.702-1.057.832-65.525-34.701zM521.034 58.983l14.93 7.907-1.057.832-14.93-7.906zM512.053 67.06l14.93 7.906-1.057.832-14.93-7.906zM504.071 77.135l14.93 7.907-1.057.832-14.93-7.907zM498.09 86.21l14.93 7.907-1.057.833-14.93-7.907zM491.109 96.287l14.93 7.906-1.057.833-14.93-7.907zM484.128 106.363l14.93 7.906-1.057.833-14.93-7.907z"/>
    <defs>
        <linearGradient id="paint21_linear" x1="228.591" y1="292.568" x2="209.671" y2="328.682" gradientUnits="userSpaceOnUse">
            <stop offset=".595" stop-color="#006ECC"/>
            <stop offset="1" stop-color="#1694FF"/>
        </linearGradient>
        <linearGradient id="paint42_linear" x1="422.714" y1="258.146" x2="348.815" y2="84.413" gradientUnits="userSpaceOnUse">
            <stop offset=".172" stop-color="#D4D1D8"/>
            <stop offset="1" stop-color="#fff"/>
        </linearGradient>
        <linearGradient id="paint1_linear" x1="448.617" y1="113.23" x2="498.444" y2="28.219" gradientUnits="userSpaceOnUse">
            <stop offset=".005" stop-color="#E6E7E8"/>
            <stop offset=".125" stop-color="#EEEFF0"/>
            <stop offset=".389" stop-color="#FBFBFB"/>
            <stop offset=".641" stop-color="#fff"/>
        </linearGradient>
        <linearGradient id="paint2_linear" x1="441.344" y1="102.823" x2="431.634" y2="120.076" gradientUnits="userSpaceOnUse">
            <stop stop-color="#fff"/>
            <stop offset="1"/>
        </linearGradient>
        <linearGradient id="paint3_linear" x1="401.659" y1="213.04" x2="468.719" y2="98.569" gradientUnits="userSpaceOnUse">
            <stop offset=".783" stop-color="#1E1F21"/>
            <stop offset=".86" stop-color="#2C2D30"/>
            <stop offset=".929" stop-color="#3C3E42"/>
            <stop offset="1" stop-color="#252628"/>
        </linearGradient>
        <linearGradient id="paint4_linear" x1="517.017" y1="203.507" x2="721.943" y2="329.996" gradientUnits="userSpaceOnUse">
            <stop offset=".035" stop-color="#1E1F21"/>
            <stop offset=".31" stop-color="#2C2E30"/>
            <stop offset=".84" stop-color="#515359"/>
            <stop offset="1" stop-color="#5D6066"/>
        </linearGradient>
        <linearGradient id="paint5_linear" x1="280.81" y1="283.538" x2="663.3" y2="383.285" gradientUnits="userSpaceOnUse">
            <stop offset=".025" stop-color="#01315A"/>
            <stop offset=".514" stop-color="#004B8B"/>
            <stop offset=".995" stop-color="#1694FF"/>
        </linearGradient>
        <linearGradient id="paint6_linear" x1="158.6" y1="417.179" x2="371.603" y2="67.502" gradientUnits="userSpaceOnUse">
            <stop stop-color="#004B8B"/>
            <stop offset=".148" stop-color="#1694FF"/>
            <stop offset=".232" stop-color="#004B8B"/>
            <stop offset=".68" stop-color="#006ECC"/>
            <stop offset="1" stop-color="#1694FF"/>
        </linearGradient>
        <linearGradient id="paint41_linear" x1="304.493" y1="214.777" x2="292.805" y2="177.362" gradientUnits="userSpaceOnUse">
            <stop stop-color="#0E0E0F"/>
            <stop offset=".185" stop-color="#131415"/>
            <stop offset=".429" stop-color="#232326"/>
            <stop offset=".708" stop-color="#3C3D41"/>
            <stop offset="1" stop-color="#5D6066"/>
        </linearGradient>
        <linearGradient id="paint8_linear" x1="251.313" y1="435.683" x2="268.86" y2="459.113" gradientUnits="userSpaceOnUse">
            <stop offset=".419" stop-color="#46474D"/>
            <stop offset=".535" stop-color="#62656B"/>
            <stop offset=".697" stop-color="#252628"/>
        </linearGradient>
        <linearGradient id="paint9_linear" x1="380.044" y1="347.555" x2="327.541" y2="474.577" gradientUnits="userSpaceOnUse">
            <stop offset=".419" stop-color="#46474D"/>
            <stop offset=".535" stop-color="#62656B"/>
            <stop offset=".697" stop-color="#252628"/>
        </linearGradient>
        <linearGradient id="paint10_linear" x1="380.563" y1="298.585" x2="690.398" y2="445.501" gradientUnits="userSpaceOnUse">
            <stop stop-color="#1694FF"/>
            <stop offset="1" stop-color="#000D18"/>
        </linearGradient>
        <linearGradient id="paint11_linear" x1="244.663" y1="-95.691" x2="293.073" y2="445.132" gradientUnits="userSpaceOnUse">
            <stop stop-color="#A3A3A3"/>
            <stop offset="1" stop-color="#1F1F1F"/>
        </linearGradient>
        <linearGradient id="paint12_linear" x1="379.753" y1="328.937" x2="329.052" y2="23.456" gradientUnits="userSpaceOnUse">
            <stop stop-color="#004B8B"/>
            <stop offset="1" stop-color="#001B33"/>
        </linearGradient>
        <linearGradient id="paint13_linear" x1="295.604" y1="146.537" x2="305.933" y2="264.084" gradientUnits="userSpaceOnUse">
            <stop offset=".045" stop-color="#5D6066"/>
            <stop offset="1" stop-color="#37383C"/>
        </linearGradient>
        <linearGradient id="paint14_linear" x1="295.604" y1="146.537" x2="305.933" y2="264.084" gradientUnits="userSpaceOnUse">
            <stop offset=".045" stop-color="#5D6066"/>
            <stop offset="1" stop-color="#37383C"/>
        </linearGradient>
        <linearGradient id="paint15_linear" x1="403.572" y1="271.777" x2="341.792" y2="81.144" gradientUnits="userSpaceOnUse">
            <stop offset=".03" stop-color="#00E676"/>
            <stop offset=".618" stop-color="#4C9BE8"/>
            <stop offset="1" stop-color="#2AF6FF"/>
        </linearGradient>
        <linearGradient id="paint16_linear" x1="293.45" y1="186.623" x2="333.119" y2="265.869" gradientUnits="userSpaceOnUse">
            <stop offset=".045" stop-color="#72757D"/>
            <stop offset="1" stop-color="#37383C"/>
        </linearGradient>
        <linearGradient id="paint23_linear" x1="179.11" y1="264.224" x2="160.189" y2="300.336" gradientUnits="userSpaceOnUse">
            <stop offset=".035" stop-color="#FFA98C"/>
            <stop offset=".317" stop-color="#FFB892"/>
            <stop offset=".86" stop-color="#FEE1A3"/>
            <stop offset="1" stop-color="#FEECA8"/>
        </linearGradient>
        <linearGradient id="paint18_linear" x1="58" y1="372" x2="153.672" y2="321.396" gradientUnits="userSpaceOnUse">
            <stop stop-color="#1694FF"/>
            <stop offset=".762" stop-color="#000D18"/>
        </linearGradient>
        <linearGradient id="paint19_linear" x1="200.156" y1="185.882" x2="235.84" y2="377.107" gradientUnits="userSpaceOnUse">
            <stop stop-color="#2C4E6C"/>
            <stop offset="1" stop-color="#1D1224"/>
        </linearGradient>
        <linearGradient id="paint20_linear" x1="204.693" y1="180.769" x2="227.229" y2="361.326" gradientUnits="userSpaceOnUse">
            <stop stop-color="#7E9AB4"/>
            <stop offset=".397" stop-color="#AFC5DF"/>
            <stop offset="1" stop-color="#7E9AB4"/>
        </linearGradient>
        <linearGradient id="paint0_linear" x1="509.342" y1="34.167" x2="493.193" y2="62.094" gradientUnits="userSpaceOnUse">
            <stop offset=".005" stop-color="#D1D3D4"/>
            <stop offset="1" stop-color="#F1F2F2"/>
        </linearGradient>
        <linearGradient id="paint22_linear" x1="129.628" y1="235.878" x2="110.707" y2="271.99" gradientUnits="userSpaceOnUse">
            <stop offset=".645" stop-color="#D74467"/>
            <stop offset="1" stop-color="#FF6376"/>
        </linearGradient>
        <radialGradient id="paint33_radial" cx="0" cy="0" r="1" gradientUnits="userSpaceOnUse" gradientTransform="matrix(18.3514 0 0 18.3241 316.009 256.028)">
            <stop stop-color="#fff"/>
            <stop offset="1" stop-color="#7E9AB4"/>
        </radialGradient>
        <radialGradient id="paint17_radial" cx="0" cy="0" r="1" gradientUnits="userSpaceOnUse" gradientTransform="matrix(23.7796 0 0 23.7442 298.468 206.262)">
            <stop stop-color="#fff"/>
            <stop offset="1"/>
        </radialGradient>
        <radialGradient id="paint25_radial" cx="0" cy="0" r="1" gradientUnits="userSpaceOnUse" gradientTransform="matrix(18.3514 0 0 18.3241 138.922 252.771)">
            <stop stop-color="#fff"/>
            <stop offset="1" stop-color="#7E9AB4"/>
        </radialGradient>
        <radialGradient id="paint26_radial" cx="0" cy="0" r="1" gradientUnits="userSpaceOnUse" gradientTransform="matrix(18.3514 0 0 18.3241 217.212 198.792)">
            <stop stop-color="#fff"/>
            <stop offset="1" stop-color="#7E9AB4"/>
        </radialGradient>
        <radialGradient id="paint27_radial" cx="0" cy="0" r="1" gradientUnits="userSpaceOnUse" gradientTransform="matrix(18.3514 0 0 18.3241 165.018 234.622)">
            <stop stop-color="#fff"/>
            <stop offset="1" stop-color="#7E9AB4"/>
        </radialGradient>
        <radialGradient id="paint28_radial" cx="0" cy="0" r="1" gradientUnits="userSpaceOnUse" gradientTransform="matrix(18.3514 0 0 18.3241 266.611 227.178)">
            <stop stop-color="#fff"/>
            <stop offset="1" stop-color="#7E9AB4"/>
        </radialGradient>
        <radialGradient id="paint29_radial" cx="0" cy="0" r="1" gradientUnits="userSpaceOnUse" gradientTransform="matrix(18.3514 0 0 18.1969 214.417 263.394)">
            <stop stop-color="#fff"/>
            <stop offset="1" stop-color="#7E9AB4"/>
        </radialGradient>
        <radialGradient id="paint30_radial" cx="0" cy="0" r="1" gradientUnits="userSpaceOnUse" gradientTransform="matrix(18.3514 0 0 18.3241 240.64 245.085)">
            <stop stop-color="#fff"/>
            <stop offset="1" stop-color="#7F9BB4"/>
        </radialGradient>
        <radialGradient id="paint31_radial" cx="0" cy="0" r="1" gradientUnits="userSpaceOnUse" gradientTransform="matrix(18.3514 0 0 18.3241 188.319 281.155)">
            <stop stop-color="#fff"/>
            <stop offset="1" stop-color="#7E9AB4"/>
        </radialGradient>
        <radialGradient id="paint32_radial" cx="0" cy="0" r="1" gradientUnits="userSpaceOnUse" gradientTransform="matrix(18.3514 0 0 18.3241 289.912 274.175)">
            <stop stop-color="#fff"/>
            <stop offset="1" stop-color="#7E9AB4"/>
        </radialGradient>
        <radialGradient id="paint24_radial" cx="0" cy="0" r="1" gradientUnits="userSpaceOnUse" gradientTransform="matrix(18.3514 0 0 18.3241 191.116 216.94)">
            <stop stop-color="#fff"/>
            <stop offset="1" stop-color="#7E9AB4"/>
        </radialGradient>
        <radialGradient id="paint34_radial" cx="0" cy="0" r="1" gradientUnits="userSpaceOnUse" gradientTransform="matrix(18.3514 0 0 18.3241 264.281 291.858)">
            <stop stop-color="#fff"/>
            <stop offset="1" stop-color="#7E9AB4"/>
        </radialGradient>
        <radialGradient id="paint35_radial" cx="0" cy="0" r="1" gradientUnits="userSpaceOnUse" gradientTransform="matrix(18.3514 0 0 18.3241 238.183 310.005)">
            <stop stop-color="#fff"/>
            <stop offset="1" stop-color="#7E9AB4"/>
        </radialGradient>
        <radialGradient id="paint36_radial" cx="0" cy="0" r="1" gradientUnits="userSpaceOnUse" gradientTransform="matrix(18.3514 0 0 18.3241 162.688 299.303)">
            <stop stop-color="#fff"/>
            <stop offset="1" stop-color="#7E9AB4"/>
        </radialGradient>
        <radialGradient id="paint37_radial" cx="0" cy="0" r="1" gradientUnits="userSpaceOnUse" gradientTransform="matrix(18.3514 0 0 18.3241 212.086 327.688)">
            <stop stop-color="#fff"/>
            <stop offset="1" stop-color="#7E9AB4"/>
        </radialGradient>
        <radialGradient id="paint38_radial" cx="0" cy="0" r="1" gradientUnits="userSpaceOnUse" gradientTransform="matrix(18.3514 0 0 18.3241 112.824 271.384)">
            <stop stop-color="#fff"/>
            <stop offset="1" stop-color="#7E9AB4"/>
        </radialGradient>
        <radialGradient id="paint39_radial" cx="0" cy="0" r="1" gradientUnits="userSpaceOnUse" gradientTransform="matrix(10.9776 0 0 10.9612 256.995 175.141)">
            <stop stop-color="#fff"/>
            <stop offset="1"/>
        </radialGradient>
        <radialGradient id="paint40_radial" cx="0" cy="0" r="1" gradientUnits="userSpaceOnUse" gradientTransform="matrix(10.978 0 0 10.9617 340.288 223.414)">
            <stop stop-color="#fff"/>
            <stop offset="1"/>
        </radialGradient>
        <radialGradient id="paint7_radial" cx="0" cy="0" r="1" gradientUnits="userSpaceOnUse" gradientTransform="matrix(154.736 0 0 154.506 118.838 322.621)">
            <stop stop-color="#fff"/>
            <stop offset="1" stop-color="#C8E6FF"/>
        </radialGradient>
        <filter id="filter0_d" x="8.311" y="43.084" width="589.204" height="425.166" filterUnits="userSpaceOnUse" color-interpolation-filters="sRGB">
            <feFlood flood-opacity="0" result="BackgroundImageFix"/>
            <feColorMatrix in="SourceAlpha" values="0 0 0 0 0 0 0 0 0 0 0 0 0 0 0 0 0 0 127 0"/>
            <feOffset dy="6"/>
            <feGaussianBlur stdDeviation="4"/>
            <feColorMatrix values="0 0 0 0 0.11375 0 0 0 0 0.123958 0 0 0 0 0.175 0 0 0 0.7 0"/>
            <feBlend in2="BackgroundImageFix" result="effect1_dropShadow"/>
            <feBlend in="SourceGraphic" in2="effect1_dropShadow" result="shape"/>
        </filter>
    </defs>
</svg>
