<svg width="20" height="20" fill="none" xmlns="http://www.w3.org/2000/svg">
    <path d="M7.114 10.367c-1.586 0-2.868 1.281-2.844 2.852a2.816 2.816 0 001.387 2.37 2.76 2.76 0 01-.45-1.472c-.023-1.57 1.258-2.851 2.844-2.851.313 0 .613.05.895.14V8.262a6.183 6.183 0 00-.895-.067h-.043v2.313a2.938 2.938 0 00-.894-.14zM13.969.938H13.133a4.803 4.803 0 001.816 2.894 4.84 4.84 0 01-.98-2.894z" fill="#EE1C52"/>
    <path d="M18.75 5.723c-.309 0-.605-.032-.898-.086V7.89a7.748 7.748 0 01-3.063-.621 8 8 0 01-1.742-1.016l.015 6.95a5.813 5.813 0 01-1.742 4.132 5.925 5.925 0 01-3.312 1.656 6.18 6.18 0 01-.895.067 5.933 5.933 0 01-3.644-1.235 5.953 5.953 0 004.586 2.133c.3 0 .601-.023.894-.066a5.926 5.926 0 003.313-1.657 5.813 5.813 0 001.742-4.132l-.059-6.95c.532.41 1.114.754 1.742 1.016.973.41 2.004.621 3.063.621" fill="#EE1C52"/>
    <path d="M3.836 9.926a5.945 5.945 0 014.172-1.73v-.833a6.183 6.183 0 00-.895-.066c-1.593 0-3.09.613-4.215 1.73a5.853 5.853 0 00-1.734 4.157 5.82 5.82 0 001.742 4.156c.18.176.364.34.559.488a5.818 5.818 0 01-1.367-3.746 5.89 5.89 0 011.738-4.156zM17.852 5.637V4.8h-.008a4.767 4.767 0 01-2.89-.969 4.772 4.772 0 002.898 1.805z" fill="#69C9D0"/>
    <path d="M7.89 16.883c.372.02.727-.031 1.055-.137a2.815 2.815 0 001.95-2.668l.003-4.648V.938h2.235a4.865 4.865 0 01-.094-.899H9.961v8.488l-.004 4.649a2.815 2.815 0 01-1.95 2.668c-.327.11-.683.16-1.054.136a2.866 2.866 0 01-1.297-.394 2.85 2.85 0 002.235 1.297z" fill="#69C9D0"/>
    <path d="M8.008 18.992a5.925 5.925 0 003.312-1.656 5.813 5.813 0 001.742-4.133l-.015-6.95c.531.411 1.113.755 1.742 1.017.973.41 2.004.62 3.063.62V5.638a4.772 4.772 0 01-2.899-1.805A4.786 4.786 0 0113.137.938h-2.239v8.488l-.003 4.648a2.815 2.815 0 01-1.95 2.668c-.328.11-.683.16-1.054.137a2.85 2.85 0 01-2.235-1.293 2.81 2.81 0 01-1.386-2.371c-.024-1.57 1.257-2.852 2.843-2.852.313 0 .614.051.895.14V8.192a5.945 5.945 0 00-4.172 1.73 5.85 5.85 0 00-1.734 4.153c0 1.383.48 2.696 1.367 3.746a5.941 5.941 0 003.644 1.235c.301.004.602-.02.895-.063z" fill="#fff"/>
</svg>
