<svg width="150" height="49" fill="none" xmlns="http://www.w3.org/2000/svg">
    <g clip-path="url(#clip0)">
        <path d="M44.193.871L31.59 32.753l-5.11-27.12C25.9 2.613 23.519.871 20.906.871H.29L0 2.207c4.24.929 9.06 2.439 11.963 4.007 1.8.987 2.265 1.8 2.903 4.123l9.64 37.398H37.34L56.97.871H44.193zm17.944 0L52.091 47.677h12.137L74.274.813H62.137v.058zm69.512 12.66l3.659 17.596h-10.047l6.388-17.596zm-1.8-12.66c-2.323 0-4.297 1.336-5.168 3.426l-18.177 43.438h12.718l2.555-7.026h15.563l1.452 7.026H150L140.186.871h-10.337zM77.584 15.505c-.058 6.737 6.04 10.511 10.627 12.776 4.704 2.323 6.33 3.775 6.272 5.807-.058 3.136-3.775 4.53-7.259 4.588-6.097.116-9.64-1.626-12.427-2.962L72.59 45.935c2.846 1.278 8.072 2.439 13.473 2.497 12.718 0 21.08-6.272 21.08-16.028.058-12.37-17.073-13.066-16.957-18.583.058-1.684 1.626-3.484 5.168-3.949 1.742-.232 6.504-.406 11.963 2.09l2.149-9.93c-2.904-1.045-6.679-2.09-11.324-2.09-12.08.058-20.5 6.446-20.558 15.563z" fill="url(#paint0_linear)"/>
    </g>
    <defs>
        <linearGradient id="paint0_linear" x1="0" y1="24.39" x2="149.826" y2="24.39" gradientUnits="userSpaceOnUse">
            <stop stop-color="#23205E"/>
            <stop offset="1" stop-color="#044DA0"/>
        </linearGradient>
        <clipPath id="clip0">
            <path fill="#fff" d="M0 0h150v48.432H0z"/>
        </clipPath>
    </defs>
</svg>
