<svg width="24" height="24" fill="none" xmlns="http://www.w3.org/2000/svg">
    <path fill-rule="evenodd" clip-rule="evenodd" d="M23.828 6.006c-.301-.215-1.505-.215-2.61-.215-1.204 0-2.308 0-2.61.107-.2.108-.803 1.505-1.505 3.009-.803 1.719-1.807 3.33-2.51 3.223-.803 0-.602-2.794-.602-4.835 0-1.29-.2-1.719-.401-1.826-.402-.323-1.606-.645-1.606-.645S8.37 4.502 7.868 6.221c.703.107 1.907-.108 1.405 5.05 0 .214-.602 2.363-2.208-.538-.401-.752-2.007-5.05-2.61-5.05-1.907 0-3.714-.107-4.316.215-.602.43.803 3.331 3.212 7.306 1.907 3.223 4.015 5.802 7.529 6.447.702.107 2.409.107 2.91-.108.402-.215-.1-3.008 1.205-3.33.602-.108 2.71 2.9 3.513 3.33.502.215 1.606.322 2.71.215 1.205 0 2.61.107 2.71-.752.302-1.934-3.613-4.513-3.713-5.694-.1-.86 1.405-2.471 2.208-3.653.903-1.29 2.007-3.009 1.405-3.653z" fill="#45668E"/>
</svg>
