<svg width="300" height="58" fill="none" xmlns="http://www.w3.org/2000/svg">
    <g clip-path="url(#clip0)">
        <path d="M14.45 30.2L6.093 48.963H0l9.178-20.064c-4.318-2.193-7.19-6.162-7.19-13.49C1.987 5.135 8.491 0 16.23 0h7.876v48.962h-5.272V30.2H14.45zM18.83 4.45h-2.81c-4.244 0-8.356 2.81-8.356 10.954 0 7.876 3.764 10.411 8.356 10.411h2.81V4.45z" fill="red"/>
        <path d="M49.515 14.45v34.512h-5.271V33.484H36.3v15.478h-5.34V14.449h5.34v14.655h7.944V14.449h5.271zm27.46 41.29h-4.792v-6.778H57.39v6.779H52.6V44.58h2.125c3.147-7.327 3.49-18.007 3.49-27.185V14.45h16.025v30.132h2.741v11.16h-.005zm-8.013-36.979h-5.957v.617c0 7.259-.343 17.87-3.215 25.197h9.178V18.761h-.006zm22.736 30.68c-7.122 0-11.502-5.682-11.502-16.294 0-11.096 3.084-19.177 10.411-19.177 5.751 0 9.52 4.311 9.52 16.025v2.947h-14.38c0 7.807 2.193 11.913 6.436 11.913 3.016 0 5.409-1.37 6.78-2.33l1.233 4.106c-2.193 1.714-5.072 2.81-8.498 2.81zM85.81 28.556h8.835c0-5.889-.96-10.206-4.038-10.206-3.29 0-4.455 4.043-4.797 10.206zm25.134 3.215v17.19h-5.34V14.45h5.34v15.957l8.287-15.957h5.409l-8.561 16.231 9.794 18.282h-5.825l-9.104-17.19zm15.609-.063c0-10.822 4.18-17.738 12.256-17.738 3.078 0 4.86.822 6.368 1.781l-.754 5.066c-1.439-1.233-3.49-2.399-5.683-2.399-3.837 0-6.573 4.312-6.573 13.01 0 8.63 2.056 13.559 6.368 13.559 2.604 0 4.586-1.028 5.819-2.125l1.234 3.97c-1.85 1.576-4.038 2.604-7.19 2.604-7.39.005-11.845-5.951-11.845-17.728zM181.917 48.962h-20.954l-.48 8.15h-2.673V46.156h1.439c2.399-1.987 3.558-7.464 4.244-14.449.685-7.259.891-18.081 1.096-31.708h17.116v46.157h3.359v10.954h-2.673l-.474-8.15zM178.284 2.81h-10.611c-.205 12.393-.548 21.845-1.096 28.898-.617 7.328-1.714 12.188-3.558 14.45h15.271V2.81h-.006zM199.244 46.837c4.586 0 6.985-3.695 6.985-3.695l1.028 2.598s-2.604 3.907-8.081 3.907c-7.328 0-10.686-6.642-10.686-17.939s4.244-17.944 10.069-17.944c5.957 0 9.789 6.23 8.698 18.492h-15.614c.143 9.447 2.604 14.58 7.601 14.58zm-7.533-17.116h12.536c.549-9.172-2.193-13.285-5.682-13.285-3.633 0-6.58 4.655-6.854 13.285zM228.354 32.32h-11.777v16.642h-3.215V14.449h3.215v15.272h11.777V14.449h3.215v34.513h-3.215V32.319zM239.182 14.45h3.215v12.803h2.536c6.574 0 10.817 3.558 10.817 10.755 0 7.327-4.517 10.953-11.022 10.953h-5.546V14.45zm3.215 15.34V46.43h2.057c4.86 0 8.149-2.392 8.149-8.355 0-5.82-2.878-8.287-7.807-8.287h-2.399zM264.454 17.122v31.84h-3.147V14.449h14.586v2.673h-11.439zM296.916 24.929c0-1.782.137-3.29.274-4.723h-.206c-.479 1.508-1.096 2.947-1.85 4.449l-11.228 24.312h-2.741V14.45h3.015v23.97c0 1.85-.137 3.352-.274 4.86h.206c.479-1.576 1.165-3.078 1.85-4.586l11.234-24.244H300v34.512h-3.078V24.93h-.006z" fill="#000"/>
    </g>
    <defs>
        <clipPath id="clip0">
            <path fill="#fff" d="M0 0h300v57.111H0z"/>
        </clipPath>
    </defs>
</svg>
