<svg width="16" height="16" fill="none" xmlns="http://www.w3.org/2000/svg">
    <g clip-path="url(#clip0)">
        <path d="M13.957 1.166a3.99 3.99 0 00-5.637 0L2.386 7.1a.469.469 0 10.663.663L8.983 1.83c1.152-1.152 3.159-1.152 4.31 0a3.051 3.051 0 010 4.31l-8.286 8.38c-.709.709-1.944.709-2.653 0a1.877 1.877 0 010-2.652l7.956-8.05a.72.72 0 01.994 0 .705.705 0 010 .996L3.681 12.53c-.158.158-.158.505 0 .663.183.183.48.183.663 0l7.623-7.717c.64-.64.64-1.681 0-2.321-.62-.62-1.701-.62-2.32 0L1.69 11.204a2.832 2.832 0 000 3.978 2.789 2.789 0 001.99.818c.751 0 1.458-.286 1.989-.818l8.287-8.38a3.99 3.99 0 000-5.636z" fill="#808A98"/>
    </g>
    <defs>
        <clipPath id="clip0">
            <path fill="#fff" d="M0 0h16v16H0z"/>
        </clipPath>
    </defs>
</svg>
