<svg width="1767" height="1776" fill="none" xmlns="http://www.w3.org/2000/svg">
    <path fill-rule="evenodd" clip-rule="evenodd" d="M955.571 748.025c120.209 140.8 56.999 352.925 116.749 527.875 79.05 231.48 374.83 428.73 287.53 655.94-84.79 220.66-408.387 214.51-640.226 261.94-177.289 36.26-348.931-15.59-530.082-22.56-216.925-8.34-449.076 91.26-634.914-22.25-199.306-121.74-319.149-353.2-356.358-583.25-37.202-229.99 36.013-462.87 154.942-661.986 113.118-189.382 281.437-348.697 490.758-419.04 193.933-65.173 398.303 5.743 598.186 53.095 184.286 43.656 390.191 65.904 513.415 210.236z" fill="url(#paint0_linear)"/>
    <defs>
        <linearGradient id="paint0_linear" x1="987.825" y1="778.612" x2="280.719" y2="1485.72" gradientUnits="userSpaceOnUse">
            <stop stop-color="#324B61"/>
            <stop offset="1" stop-color="#324B61" stop-opacity="0"/>
        </linearGradient>
    </defs>
</svg>
