<svg width="343" height="406" fill="none" xmlns="http://www.w3.org/2000/svg">
    <path fill-rule="evenodd" clip-rule="evenodd" d="M133.172 130.295c46.14 3.64 72.466 52.312 113.954 72.677 54.894 26.946 142.051 9.528 166.783 65.127 24.019 53.996-34.271 110.114-66.872 159.481-24.93 37.751-64.438 58.928-97.692 89.719-39.823 36.873-63.254 95.519-116.173 108.304-56.754 13.711-118.856-6.02-166.1-40.108-47.234-34.082-75.46-88.193-89.634-144.415-13.482-53.475-11.89-111.393 12.678-160.831 22.762-45.804 71.426-69.395 115.131-96.359 40.295-24.86 80.627-57.327 127.925-53.595z" fill="url(#paint0_linear)"/>
    <defs>
        <linearGradient id="paint0_linear" x1="144.281" y1="130" x2="144.281" y2="380" gradientUnits="userSpaceOnUse">
            <stop stop-color="#324B61"/>
            <stop offset="1" stop-color="#324B61" stop-opacity="0"/>
        </linearGradient>
    </defs>
</svg>
