<svg width="80" height="80" fill="none" xmlns="http://www.w3.org/2000/svg">
    <g clip-path="url(#clip0)">
        <path d="M19.628 16.355l-2.202 1.299 2.236-1.293-.034-.006z" fill="#D1D1D1"/>
        <path d="M65.704 49.891l-10.402 6.006v-.003a10.095 10.095 0 01-.354-2.56l-.013-44.02c0-3.544-2.27-7.744-4.977-8.987-.975-.448-1.85-.42-2.542-.012l-.002-.002-29.988 17.34s-2.815 1.65-3.13 5.111c-.264 2.89 0 7.325 0 7.325l10.285-5.938c.22.844.343 1.696.343 2.514l.013 44.021c0 3.544 2.27 7.744 4.977 8.987.974.448 1.848.42 2.54.013h.002l.002.001 30.117-17.36s2.814-1.65 3.13-5.111c.263-2.889 0-7.325 0-7.325z" fill="#C8CED6"/>
        <path d="M19.947 17.678c-.965-.443-1.832-.42-2.521-.024 0 0-2.815 1.65-3.13 5.11-.264 2.89 0 7.325 0 7.325l10.286-5.939c-.73-2.81-2.553-5.515-4.635-6.472zM29.407 32.66l14.372-8.335v4.822l-14.372 8.335V32.66zM47.004 22.441l4.104-2.377v4.822l-4.104 2.377V22.44zM29.407 44.497l14.372-8.335v4.821l-14.372 8.335v-4.821zM47.004 34.278l4.104-2.377v4.821L47.004 39.1v-4.821zM29.407 56.333l14.372-8.335v4.822l-14.372 8.335v-4.822zM47.004 46.114l4.104-2.377v4.822l-4.104 2.377v-4.822z" fill="#8392A5"/>
        <path d="M65.704 49.891l-31.63 18.253v7.705c0 1.879-.622 3.252-1.62 3.838l.002-.002.002.002 30.116-17.36s2.815-1.65 3.13-5.11c.264-2.89 0-7.326 0-7.326z" fill="#E8EDEF"/>
    </g>
    <defs>
        <clipPath id="clip0">
            <path fill="#fff" d="M0 0h80v80H0z"/>
        </clipPath>
    </defs>
</svg>
