<svg width="24" height="24" fill="none" xmlns="http://www.w3.org/2000/svg">
    <path d="M21.103 15.098C21.103 20 16.502 24 11.931 24c-4.57 0-9.035-4.032-9.035-8.902C2.896 5.25 12.506 0 12.506 0c-1.522 1.402-3.764 5.434 0 6.75 1.743.61 3.666-.931 3.996-2.72 0 0 4.601 4.776 4.601 11.068z" fill="#F2B109"/>
    <path opacity=".2" d="M16.118 8.302s2.712 2.22 2.712 6.7c0 3.498-2.806 6.675-6.67 6.675s-6.99-3.171-6.99-6.674c0-6.955 6.99-12.386 6.99-12.386s-.583 4.747.454 5.685c1.031.938 3.504 0 3.504 0z" fill="#fff"/>
</svg>
