<svg width="80" height="80" fill="none" xmlns="http://www.w3.org/2000/svg">
    <g clip-path="url(#clip0)">
        <path d="M45.399 36.427l-.567 1.538-36.41 21.302-2.969.212 1.32-1.672 37.306-21.38h1.32z" fill="#424242"/>
        <path d="M75.875 54.838a1.428 1.428 0 00-.72-1.22l-29.776-17.19-39.926 23.05c0 1.819.97 3.498 2.544 4.407l26.626 15.372c1.715.99 3.828.99 5.543 0l32.78-18.926a5.861 5.861 0 002.93-5.076v-.418l-.001.001z" fill="#E8EDEF"/>
        <path d="M75.154 56.12l-34.988 20.2a5.544 5.544 0 01-5.543 0L5.453 59.479c0 1.818.97 3.497 2.544 4.406l26.626 15.372c1.715.99 3.828.99 5.543 0l32.78-18.926a5.861 5.861 0 002.93-5.076v-.386c0 .486-.24.972-.722 1.25z" fill="#C8CED6"/>
        <path d="M75.874 54.838l.002.03v-.031h-.002z" fill="#D1D1D1"/>
        <path d="M13.363 54.825l3.609 2.108 23.986-13.858-3.58-2.05-24.015 13.8z" fill="#212938"/>
        <path d="M19.27 58.236l-4.98 2.89v.267l1.9 1.1 4.998-2.868v-.287l-1.918-1.102z" fill="#284363"/>
        <path d="M16.202 62.228l-1.912-1.102v.267l1.9 1.1 4.998-2.868v-.287l-4.986 2.89z" fill="#212938"/>
        <path d="M21.793 59.675l-4.98 2.89v.267l2.634 1.532 4.999-2.867v-.288l-2.654-1.534z" fill="#284363"/>
        <path d="M19.46 64.1l-2.648-1.535v.267l2.635 1.532 4.999-2.867v-.288l-4.987 2.89z" fill="#212938"/>
        <path d="M27.392 56.458l-4.98 2.89v.267l2.635 1.532 4.998-2.868v-.287l-2.653-1.534z" fill="#284363"/>
        <path d="M25.059 60.882l-2.647-1.534v.267l2.635 1.532 4.998-2.868v-.287l-4.986 2.89z" fill="#212938"/>
        <path d="M32.595 57.213l-4.98 2.89v.267l2.635 1.532 4.998-2.868v-.287l-2.653-1.534z" fill="#284363"/>
        <path d="M30.262 61.637l-2.647-1.534v.267l2.635 1.532 4.998-2.868v-.287l-4.986 2.89z" fill="#212938"/>
        <path d="M36.551 58.67l-4.98 2.89v.267l2.635 1.532 4.999-2.868v-.287L36.55 58.67z" fill="#284363"/>
        <path d="M34.218 63.094L31.57 61.56v.267l2.635 1.532 4.999-2.868v-.287l-4.987 2.89z" fill="#212938"/>
        <path d="M42.12 55.462l-4.98 2.89v.267l2.636 1.532 4.998-2.867v-.288l-2.653-1.534z" fill="#284363"/>
        <path d="M39.787 59.887l-2.646-1.535v.267l2.635 1.532 4.998-2.867v-.288l-4.987 2.89z" fill="#212938"/>
        <path d="M47.806 52.203l-4.98 2.89v.267l2.635 1.532 4.998-2.867v-.288l-2.653-1.534z" fill="#284363"/>
        <path d="M45.473 56.627l-2.647-1.534v.267l2.635 1.532 4.998-2.867v-.288l-4.986 2.89z" fill="#212938"/>
        <path d="M38.192 53.981l-4.98 2.89v.267l2.635 1.532 4.998-2.867v-.288l-2.653-1.534z" fill="#284363"/>
        <path d="M35.858 58.405l-2.646-1.534v.267l2.635 1.532 4.998-2.867v-.288l-4.986 2.89z" fill="#212938"/>
        <path d="M43.828 50.707l-4.98 2.89v.267l2.634 1.532 4.999-2.868v-.287l-2.653-1.534z" fill="#284363"/>
        <path d="M41.494 55.131l-2.646-1.534v.267l2.634 1.532 4.999-2.868v-.287l-4.987 2.89z" fill="#212938"/>
        <path d="M49.475 47.507l-4.98 2.89v.267l2.634 1.532 4.999-2.868v-.287l-2.653-1.534z" fill="#284363"/>
        <path d="M47.141 51.93l-2.646-1.533v.267l2.634 1.532 4.999-2.868v-.287l-4.987 2.89z" fill="#212938"/>
        <path d="M32.97 53.25l-4.98 2.89v.267l2.635 1.532 4.999-2.867v-.288l-2.653-1.533z" fill="#284363"/>
        <path d="M30.637 57.675l-2.646-1.535v.267l2.634 1.532 4.999-2.867v-.288l-4.987 2.89z" fill="#212938"/>
        <path d="M38.586 49.992l-4.98 2.89v.266l2.634 1.532 4.999-2.867v-.288l-2.653-1.533z" fill="#284363"/>
        <path d="M36.252 54.416l-2.647-1.535v.267l2.635 1.532 4.999-2.867v-.288l-4.987 2.89z" fill="#212938"/>
        <path d="M44.204 46.74l-4.98 2.89v.267l2.635 1.532 4.998-2.868v-.287l-2.653-1.534z" fill="#284363"/>
        <path d="M41.87 51.164l-2.646-1.534v.267l2.635 1.532 4.998-2.868v-.287l-4.986 2.89z" fill="#212938"/>
        <path d="M49.812 43.514l-4.98 2.89v.267l2.635 1.532 4.998-2.868v-.287l-2.653-1.534z" fill="#284363"/>
        <path d="M47.479 47.938l-2.647-1.534v.267l2.635 1.532 4.998-2.868v-.287l-4.986 2.89z" fill="#212938"/>
        <path d="M29.64 61.976l-2.654-1.533-6.935 4.01v.266l2.635 1.533 6.954-3.985v-.291z" fill="#284363"/>
        <path d="M20.05 64.452v.267l2.636 1.533 6.954-3.985v-.288l-6.943 4.008-2.646-1.535z" fill="#212938"/>
        <path d="M33.609 63.477l-2.648-1.53-7.633 4.418v.267l2.634 1.532 7.652-4.403v-.287l-.005.003z" fill="#284363"/>
        <path d="M23.328 66.365v.267l2.634 1.532 7.652-4.403v-.28l-7.64 4.418-2.646-1.534z" fill="#212938"/>
        <path d="M33.609 63.477l.005.003v-.006l-.005.003z" fill="#292929"/>
        <path d="M31.56 65.332l-4.98 2.89v.267l2.634 1.532 4.998-2.867v-.288l-2.653-1.534z" fill="#284363"/>
        <path d="M29.226 69.757l-2.647-1.535v.267l2.635 1.532 4.998-2.867v-.288l-4.986 2.89z" fill="#212938"/>
        <path d="M37.16 62.098l-4.98 2.89v.266l2.635 1.532 4.999-2.867v-.288l-2.653-1.533z" fill="#284363"/>
        <path d="M34.827 66.522l-2.646-1.535v.267l2.634 1.532 4.999-2.867v-.288l-4.987 2.89z" fill="#212938"/>
        <path d="M53.93 52.374l-16.164 9.38v.267l2.634 1.532 16.184-9.358v-.288l-2.653-1.533z" fill="#284363"/>
        <path d="M40.412 63.288l-2.646-1.534v.267l2.634 1.532 16.184-9.358v-.288l-16.172 9.38z" fill="#212938"/>
        <path d="M59.566 49.165l-4.98 2.89v.266l2.635 1.532 4.998-2.867v-.288l-2.653-1.533z" fill="#284363"/>
        <path d="M57.233 53.589l-2.647-1.535v.267l2.635 1.532 4.998-2.867v-.288l-4.986 2.89z" fill="#212938"/>
        <path d="M24.848 55.01l-4.98 2.89v.267l1.9 1.1 5-2.868v-.287l-1.92-1.102z" fill="#284363"/>
        <path d="M21.78 59.002L19.868 57.9v.267l1.9 1.1 5-2.868v-.287l-4.988 2.89z" fill="#212938"/>
        <path d="M30.48 51.762l-4.98 2.89v.267l1.9 1.1 5-2.868v-.287l-1.92-1.102z" fill="#284363"/>
        <path d="M27.413 55.754L25.5 54.652v.267l1.9 1.1 5-2.868v-.287l-4.987 2.89z" fill="#212938"/>
        <path d="M36.095 48.514l-4.98 2.89v.267l1.9 1.1 5-2.868v-.288l-1.92-1.101z" fill="#284363"/>
        <path d="M33.027 52.506l-1.912-1.102v.267l1.9 1.1 5-2.868v-.288l-4.988 2.89z" fill="#212938"/>
        <path d="M41.665 45.284l-4.98 2.89v.266l1.9 1.1 4.999-2.867v-.288l-1.919-1.101z" fill="#284363"/>
        <path d="M38.597 49.276l-1.912-1.103v.267l1.9 1.1 4.999-2.867v-.288l-4.987 2.89z" fill="#212938"/>
        <path d="M47.277 42.06l-4.98 2.89v.267l1.9 1.1 4.999-2.868v-.287l-1.92-1.102z" fill="#284363"/>
        <path d="M44.21 46.052l-1.913-1.102v.267l1.9 1.1 4.999-2.868v-.287l-4.987 2.89z" fill="#212938"/>
        <path d="M58.974 48.818l-5.896-3.43-3.04 1.783v.267l2.974 1.756-4.628 2.676.004.004v.267l2.635 1.532 7.95-4.562v-.293z" fill="#284363"/>
        <path d="M40.845 65.24l14.433-8.307 6.574 3.767-14.427 8.35-6.58-3.81z" fill="#C8CED6"/>
        <path d="M53.255 49.054l-3.216-1.883v.267l2.973 1.756.242-.14zM51.05 53.416l-.014-.008h-.001l-2.647-1.534v.267l2.635 1.532 7.95-4.562v-.287l-2.093 1.209-5.83 3.383z" fill="#212938"/>
        <path d="M44.627.761h.002l-.697-.405a2.648 2.648 0 00-2.651-.001L6.926 20.195a5.606 5.606 0 00-2.803 4.855v32.133c0 .948.507 1.824 1.33 2.296l39.946-23.052V2.037c0-.577-.325-1.04-.772-1.276z" fill="#284363"/>
        <path d="M5.453 25.793c0-1.98 1.056-3.81 2.771-4.8l.032-.018L43.23.785a1.428 1.428 0 011.397-.024h.002l-.697-.405a2.648 2.648 0 00-2.651-.001L6.926 20.195a5.606 5.606 0 00-2.803 4.855v32.133c0 .948.507 1.824 1.33 2.296V25.793z" fill="#212938"/>
        <path d="M6.773 24.12V56.4l37.306-21.52V2.581L6.773 24.12z" fill="#33AEFF"/>
        <path opacity=".2" d="M23.066 47.001L41.46 36.39l2.618-7.29V2.582l-6.383 3.685-14.63 40.734zM29.927 10.752l-16.1 9.296-7.054 19.64V56.4l8.526-4.918 14.628-40.73z" fill="#fff"/>
        <path d="M50.526 13.93l-6.27-11.608L6.772 24.117v7.933l6.277 3.654v3.733c0 2.23 2.415 3.623 4.345 2.506a6.35 6.35 0 003.17-5.496V31.34l7.522-4.367v3.73c0 2.23 2.415 3.624 4.345 2.507a6.35 6.35 0 003.17-5.496V22.61l7.527-4.37v3.721c0 2.23 2.415 3.623 4.345 2.506 1.961-1.135 3.058-3.158 3.058-5.424v-5.116l-.006.003z" fill="#F43834"/>
        <path d="M28.084 26.964L21.69 15.427l-7.515 4.372 6.4 11.534v3.733c0 2.23 2.415 3.623 4.345 2.506a6.35 6.35 0 003.17-5.496V26.96l-.007.004zM36.728 6.694l-7.51 4.362 6.396 11.543v3.734c0 2.23 2.415 3.622 4.345 2.506a6.35 6.35 0 003.17-5.496v-5.116l-6.4-11.533z" fill="#E3E3E3"/>
        <path d="M13.05 35.704v3.733c0 2.23 2.415 3.623 4.345 2.506a6.35 6.35 0 003.17-5.496v-5.116l-7.515 4.373z" fill="#C40041"/>
        <path d="M20.577 31.332v3.734c0 2.23 2.414 3.623 4.345 2.506a6.35 6.35 0 003.17-5.496V26.96l-7.515 4.372z" fill="#C8CED6"/>
        <path d="M28.087 26.97v3.734c0 2.23 2.415 3.623 4.345 2.506a6.35 6.35 0 003.17-5.496v-5.116l-7.515 4.373zM43.129 18.228v3.733c0 2.23 2.415 3.623 4.345 2.506 1.961-1.135 3.058-3.158 3.058-5.424v-5.116l-7.403 4.301z" fill="#C40041"/>
        <path d="M35.614 22.6v3.733c0 2.23 2.415 3.623 4.345 2.506a6.35 6.35 0 003.17-5.496v-5.116l-7.515 4.372z" fill="#C8CED6"/>
        <path d="M13.05 35.704L6.773 32.05v-7.933l6.277 11.587z" fill="#C40041"/>
    </g>
    <defs>
        <clipPath id="clip0">
            <path fill="#fff" d="M0 0h80v80H0z"/>
        </clipPath>
    </defs>
</svg>
