<svg width="80" height="80" fill="none" xmlns="http://www.w3.org/2000/svg">
    <g clip-path="url(#clip0)">
        <path d="M14.553 16.822c-.002-1.89 1.376-3.885 4.074-5.442 4.928-2.846 12.383-3.155 16.65-.69 1.913 1.104 2.858 2.578 2.878 4.125v4.798h-.002l-.001.047h.004v4.724h-.003l-.001.047h.004v2.451h-.003c.001.038-.002.076-.002.114h.005v2.451h-.003c.053 1.92-1.325 3.96-4.071 5.545-4.928 2.845-12.383 3.154-16.65.69-1.98-1.143-2.913-2.682-2.867-4.287l.002-2.393c-.001-.057-.004-.114-.002-.172v-2.393-.105l-.001-2.393.002-2.272c0-.036-.002-.07-.001-.106l-.015-2.346v-2.393h.003z" fill="#DCA700"/>
        <path d="M17.431 25.848c4.268 2.464 11.723 2.155 16.651-.69 2.724-1.573 4.1-3.59 4.07-5.498h.004v2.452h-.003c.053 1.92-1.325 3.96-4.07 5.545-4.929 2.845-12.384 3.154-16.651.69-1.98-1.143-2.913-2.682-2.867-4.287l.001-2.393c-.002 1.567.93 3.064 2.865 4.181z" fill="#CC8200"/>
        <path d="M17.431 30.619c4.268 2.464 11.723 2.155 16.651-.69 2.724-1.573 4.1-3.591 4.07-5.498h.004v2.451h-.003c.053 1.921-1.325 3.96-4.07 5.546-4.929 2.845-12.384 3.154-16.651.69-1.98-1.143-2.913-2.682-2.867-4.287l.001-2.393c-.002 1.567.93 3.063 2.865 4.18z" fill="#CC8200"/>
        <path d="M18.627 11.38c-4.929 2.845-5.464 7.149-1.196 9.613 4.268 2.464 11.723 2.155 16.65-.69 4.929-2.845 5.464-7.15 1.196-9.614-4.268-2.464-11.722-2.155-16.65.69z" fill="#DCA700"/>
        <path d="M38.155 14.815c.025 1.904-1.354 3.918-4.073 5.488-4.928 2.845-12.383 3.154-16.65.69-1.932-1.115-2.877-2.608-2.879-4.17h-.003v2.393s.073 2.625 2.881 4.285c4.242 2.508 11.723 2.155 16.65-.69 2.747-1.585 4.125-3.624 4.072-5.545h.003v-2.451h-.001z" fill="#CC8200"/>
        <path d="M20 12.172c-4.054 2.34-4.494 5.88-.984 7.906 3.51 2.027 9.64 1.772 13.693-.568 4.053-2.34 4.493-5.879.984-7.906-3.51-2.026-9.641-1.772-13.694.568z" fill="#FFD800"/>
        <path d="M21.089 14.788c-.63 1.81 2.283 3.211 3.558 3.68 1.657.608 3.488.746 5.13-.002l1.111.642 1.048-.605-1.114-.644c.431-.316.75-.653.95-1.011l-1.79-1.034a3.565 3.565 0 01-.885 1.05l-4.514-2.607c.482-.186 1.016-.289 1.523-.376L25 12.594c-.82.138-1.544.355-2.175.649l-1.03-.596-1.049.605 1.054.609c-.357.287-.596.596-.711.927-.166.477.115-.331 0 0zm2.55.135l4.28 2.47c-.958.166-4.944-.96-4.28-2.47z" fill="#DCA700"/>
        <path d="M80 29.936v10.318l-53.333 30.72L0 55.596V45.332L53.333 14.54 80 29.936z" fill="#007A6E"/>
        <path d="M80 29.936v10.318l-53.333 30.72V60.747L80 29.937z" fill="#009F5E"/>
        <path d="M26.666 62.796L80 31.992v2.056L26.666 64.862.038 49.488v-2.056l26.628 15.364z" fill="#00917F"/>
        <path d="M26.676 66.891L80 36.104v2.056L26.676 68.957 0 53.577v-2.055l26.676 15.37z" fill="#00917F"/>
        <path d="M80 31.992v2.056L26.666 64.862v-2.066L80 31.992zM80 36.104v2.056L26.676 68.957V66.89L80 36.104z" fill="#00AC65"/>
        <path d="M9.768 50.979L0 45.332 53.333 14.54 80 29.936l-53.333 30.81L9.768 50.98z" fill="#00C169"/>
        <path d="M5.102 45.34l21.593 12.442 48.226-27.846-21.585-12.451L5.102 45.339z" fill="#FFE6C6"/>
        <path d="M69.887 29.936l-16.534-9.545-43.12 24.948 16.49 9.5 43.164-24.903z" fill="#00AC65"/>
        <path d="M35.556 24.804l26.666 15.402v10.288l-17.74 10.213V50.455L17.793 35.06l17.763-10.256z" fill="#E5AC91"/>
        <path d="M35.556 24.804l26.666 15.402-17.74 10.25L17.793 35.06l17.763-10.256z" fill="#FFD6A0"/>
        <path d="M44.481 50.455v10.252l17.741-10.213V40.206l-17.74 10.25z" fill="#E5AC91"/>
        <path d="M20.176 33.684l13.018-7.517 26.659 15.401-12.998 7.512-26.68-15.396z" fill="#FFE6C6"/>
        <path d="M59.853 41.568v10.29l-12.998 7.488V49.08l12.998-7.512z" fill="#FFCBA1"/>
        <path d="M51.315 21.842c1.526.881 3.835.977 5.156.214 1.322-.763 1.156-2.096-.37-2.977-1.526-.881-3.834-.977-5.156-.214-1.322.763-1.156 2.096.37 2.977zM52.82 29.532c.884.51 2.221.565 2.986.123.766-.442.67-1.213-.214-1.724-.884-.51-2.22-.566-2.986-.124-.766.442-.67 1.214.214 1.725zM23.22 46.586c.883.51 2.22.566 2.986.124.765-.442.67-1.214-.215-1.724-.883-.51-2.22-.566-2.986-.124-.765.442-.67 1.214.215 1.724zM8.021 46.872c1.526.881 3.835.977 5.156.214 1.322-.763 1.156-2.096-.37-2.977-1.526-.881-3.834-.977-5.156-.214-1.322.763-1.156 2.096.37 2.977zM67.336 31.11c1.526.882 3.834.978 5.156.215 1.322-.763 1.156-2.096-.37-2.977-1.526-.881-3.835-.977-5.156-.214-1.322.763-1.156 2.096.37 2.977zM23.96 56.149c1.527.88 3.835.976 5.157.213 1.321-.763 1.156-2.095-.37-2.976-1.526-.882-3.835-.977-5.157-.214-1.321.763-1.155 2.096.37 2.977z" fill="#FFE6C6"/>
        <path d="M54.207 41.854l-21.598-12.46-2.307 1.332 21.597 12.486 2.308-1.358zM46.994 43.087l-16.495-9.526-2.294 1.332 16.495 9.51 2.294-1.316z" fill="#E6C190"/>
    </g>
    <defs>
        <clipPath id="clip0">
            <path fill="#fff" d="M0 0h80v80H0z"/>
        </clipPath>
    </defs>
</svg>
