<svg width="24" height="24" fill="none" xmlns="http://www.w3.org/2000/svg">
    <rect width="24" height="24" rx="12" fill="#006ECC"/>
    <path d="M13.637 15.26a.844.844 0 01-.851.836h-1.892V17c0 .552-.456 1-1.019 1h-.11a1.01 1.01 0 01-1.018-1v-.904h-.895A.844.844 0 017 15.26c0-.462.381-.837.852-.837h.895v-.882h-.895A.844.844 0 017 12.705c0-.462.381-.837.852-.837h.895V7c0-.552.456-1 1.018-1h3.728c1.369 0 2.462.346 3.28 1.038C17.591 7.725 18 8.64 18 9.783c0 1.165-.39 2.08-1.167 2.745-.778.659-1.86.997-3.247 1.013h-2.692v.882h1.892c.47 0 .851.375.851.837zm-2.743-3.392h2.565c.772 0 1.363-.173 1.772-.52.409-.345.613-.862.613-1.549 0-.615-.201-1.118-.605-1.508-.397-.39-.948-.593-1.653-.61h-2.692v4.187z" fill="#fff"/>
</svg>
