<svg width="20" height="20" fill="none" xmlns="http://www.w3.org/2000/svg">
    <g opacity=".4">
        <rect width="20" height="20" rx="10" fill="#59BE86"/>
        <path d="M8.418 13.722c0-.373.14-.678.422-.915.287-.241.642-.362 1.067-.362.425 0 .777.12 1.059.362.286.237.43.542.43.915s-.144.68-.43.923c-.282.237-.634.355-1.06.355-.424 0-.78-.118-1.066-.355a1.163 1.163 0 01-.422-.923zM10.021 11.424a1 1 0 001-1V4.75a1 1 0 00-1-1H9.84a1 1 0 00-1 1v5.674a1 1 0 001 1h.181z" fill="#fff"/>
    </g>
</svg>
