<svg width="24" height="24" fill="none" xmlns="http://www.w3.org/2000/svg">
    <path d="M18.21 22.27a.937.937 0 10-.972-1.603A10.107 10.107 0 0112 22.125C6.417 22.125 1.875 17.583 1.875 12S6.417 1.875 12 1.875 22.125 6.417 22.125 12c0 1.996-.594 3.94-1.717 5.62a.937.937 0 101.559 1.042A11.95 11.95 0 0024 12c0-3.205-1.248-6.219-3.515-8.485A11.922 11.922 0 0012 0a11.922 11.922 0 00-8.485 3.515A11.922 11.922 0 000 12c0 3.205 1.248 6.219 3.515 8.485A11.922 11.922 0 0012 24a11.98 11.98 0 006.21-1.73z" fill="#A3ACB4"/>
    <path d="M6 15a1 1 0 011-1h10a1 1 0 110 2H7a1 1 0 01-1-1zM6 9a1 1 0 011-1h2a1 1 0 010 2H7a1 1 0 01-1-1zM14 9a1 1 0 011-1h2a1 1 0 110 2h-2a1 1 0 01-1-1z" fill="#A3ACB4"/>
</svg>
