<svg width="80" height="80" fill="none" xmlns="http://www.w3.org/2000/svg">
    <g clip-path="url(#clip0)">
        <path d="M62.619 53.401l-4.73-2.726-12.072.004-2.188 8.005 2.287 1.318c-4.71 5.207-12.215 10.886-19.708 8.824-.327-.315-.64-.652-.943-1.014l-4.73-2.726-4.405 6.954c1.382 1.656 2.974 2.92 4.734 3.79h-.004l3.669 2.14-.001-.003c8.73 5.338 19.23-.837 25.647-6.998l2.234 1.288 5.056-.002 5.154-18.854zM49.082 64.366l.012-.014v.003a.387.387 0 01-.012.01c.004-.004.004-.003 0 0z" fill="#FF812C"/>
        <path d="M62.618 53.401l-4.73-2.726-12.072.004 4.73 2.727 12.072-.005z" fill="#FFD800"/>
        <path d="M37.742 78.94c5.538-1.844 11.11-6 16.083-11.861l-1.416 5.178 5.056-.002 5.154-18.854-12.072.005-2.188 8.005 3.434-.002c-4.026 4.819-8.556 8.234-13.058 9.732-5.395 1.797-10.178.614-13.47-3.328l-4.405 6.954c4.126 4.942 10.121 6.424 16.882 4.173z" fill="#FF9F2C"/>
        <path d="M38.735 71.141c3.516-1.17 7.05-3.51 10.346-6.774a.436.436 0 00.013-.015l-.001.003a42.594 42.594 0 002.7-2.946l-3.434.001-2.444-1.408c-4.711 5.21-12.214 10.887-19.708 8.824 3.231 3.12 7.627 3.947 12.528 2.315 3.516-1.17-4.9 1.632 0 0z" fill="#FFD800"/>
        <path d="M50.93 36.261a3.972 3.972 0 00-.938-.553l-2.977-1.758-.074-.043-.023-.014h-.002c-2.002-1.122-4.442-.643-6.598-.47.819-3.605 6.761-4.691 9.78-4.624l2.247-8.47-3.492-2.019c-1.376.004-2.75.197-4.078.556v-.032l-3.492-2.018-3.908 2.256v3.448c-4.647 3.326-8.004 8.144-8.004 14.01 0 2.168.23 4.78 2.334 5.98l3.414 1.973c1.978 1.184 4.426.65 6.589.542-.26 1.35-1.354 2.285-2.459 3-2.82 1.828-6.516 2.562-9.84 2.226v8.357l3.492 2.018c1.459.001 2.95-.231 4.474-.694v1.25l3.492 2.018 3.908-2.256v-4.857c3.218-2.384 5.785-5.598 7.042-9.428.94-2.868 1.865-8.175-.888-10.398-.27-.219 1.145.925 0 0z" fill="#007A6E"/>
        <path d="M40.868 58.494c-2.756 1.424-5.412 2.135-7.967 2.133V52.27c3.106.314 6.552-.31 9.27-1.878 1.354-.782 2.862-1.877 3.066-3.555.23-1.897-1.445-1.864-2.885-1.837-3.01.059-7.181 1.126-8.818-2.295-1.358-2.837-.739-6.946.35-9.754 1.35-3.48 3.987-6.267 6.984-8.412v-3.448l3.907-2.256v3.398c2.505-1.261 5.028-1.896 7.57-1.904l-2.246 8.47c-2.63-.058-5.002.523-7.117 1.743-1.188.686-3.754 2.679-2.54 4.384.81 1.138 3.717.501 4.824.364 2.055-.216 4.74-.26 6.189 1.5 1.385 1.681 1.316 4.366 1.1 6.401-.557 5.254-3.59 9.794-7.78 12.896v4.858L40.869 63.2v-4.707z" fill="#009F5E"/>
        <path d="M44.775 22.233c2.505-1.262 5.028-1.896 7.57-1.904l-3.492-2.019c-1.364.004-2.724.19-4.078.556v3.367z" fill="#00D16D"/>
        <path d="M29.532 34.242l-.007.054.008-.053zM29.525 34.296z" fill="#00C169"/>
        <path d="M37.659 52.003c2.441-.464 5.495-1.522 6.988-3.656l-3.493-2.016-.001-.002c-2.953 3.278-8.003 4.3-11.744 3.922l3.492 2.019c1.46.147 3.046.058 4.758-.267 1.711-.325-1.712.325 0 0zM40.868 21.09l-3.492-2.018 3.908-2.256 3.492 2.018-3.908 2.257z" fill="#00D16D"/>
        <path d="M63.87 7.318a14.63 14.63 0 00-3.385-2.715l-.003-.002h.001l.001.001h.004l-4.782-2.758v.002c-9.174-5.247-19.928 1.702-26.328 8.215L27.192 8.8l-5.13.28-4.734 18.843 4.737 2.732 12.247-.671 2.01-8-2.245-1.295c4.719-5.433 12.508-11.634 20.29-9.5h-.001c.163.156.323.317.48.485l4.737 2.732c-.002-.002-.002-.002 0 0l4.287-7.089z" fill="#FF812C"/>
        <path d="M46.635 4.144c-5.57 2.121-11.114 6.52-16.006 12.564l1.3-5.176-5.129.282-4.735 18.842 12.247-.671 2.01-8-3.483.19c3.957-4.964 8.464-8.576 12.992-10.3 5.426-2.066 10.31-1.167 13.752 2.532L63.87 7.32c-4.314-4.637-10.435-5.764-17.235-3.175z" fill="#FF9F2C"/>
        <path d="M31.93 11.532L27.191 8.8l-5.13.282 4.737 2.732 5.13-.282z" fill="#FFD800"/>
    </g>
    <defs>
        <clipPath id="clip0">
            <path fill="#fff" d="M0 0h80v80H0z"/>
        </clipPath>
    </defs>
</svg>
