<svg width="24" height="24" fill="none" xmlns="http://www.w3.org/2000/svg">
    <g clip-path="url(#clip0)">
        <path d="M22.103 4.908a2.16 2.16 0 00-.121-.386 2.17 2.17 0 00-.185-.36c-.026-.038-.719-1.076-2.289-2.11C17.939 1.02 15.488 0 12.001 0 8.513-.001 6.06 1.02 4.493 2.053c-1.571 1.033-2.265 2.07-2.29 2.11a2.138 2.138 0 00-.185.36 2.125 2.125 0 00-.122.386c-.005.025-.16.82-.16 2.15 0 1.104.107 2.575.495 4.28a19.041 19.041 0 002.523 6.011c1.384 2.17 3.409 4.402 6.351 6.378a1.604 1.604 0 001.788.001h.002c2.941-1.977 4.967-4.209 6.35-6.379a19.04 19.04 0 002.523-6.01 19.33 19.33 0 00.495-4.278c.001-1.332-.155-2.129-.16-2.154zM2.681 7.06c0-.629.036-1.126.072-1.464.019-.168.036-.297.05-.382a2.35 2.35 0 01.087-.328c.033-.082.076-.163.098-.195.018-.027.656-.96 2.089-1.885C6.444 1.924 8.53 1.046 11.528.96v9.455H3.005A18.207 18.207 0 012.68 7.06zm8.847 15.807c-2.78-1.888-4.679-3.991-5.98-6.031a18.057 18.057 0 01-2.337-5.469h8.317v11.5zm6.924-6.031c-1.302 2.04-3.201 4.143-5.98 6.032V11.367h8.317a18.079 18.079 0 01-2.337 5.469zm2.543-6.42h-8.523V.96c3.048.087 5.154.993 6.52 1.89a8.843 8.843 0 011.557 1.288c.164.173.283.316.36.414.038.049.168.253.2.334.034.082.061.17.069.208V5.1c.013.064.142.784.142 1.963 0 .886-.075 2.032-.325 3.354z" fill="#fff"/>
    </g>
    <defs>
        <clipPath id="clip0">
            <path fill="#fff" d="M0 0h24v24H0z"/>
        </clipPath>
    </defs>
</svg>
