<svg width="157" height="160" fill="none" xmlns="http://www.w3.org/2000/svg">
    <g clip-path="url(#clip0)">
        <path d="M30.562 122.865l74.683-43.495 12.131 7.15a9.66 9.66 0 014.691 8.298v13.42a14.926 14.926 0 01-7.394 12.906L49.59 158.976a4.835 4.835 0 01-4.903-.02l-14.112-8.264v-27.827h-.013z" fill="url(#paint0_linear)"/>
        <path d="M46.602 157.055l65.752-38.132c3.585-2.088 6.494-7.677 6.494-12.493V91.736c0-2.441 2.371-2.494 1.166-3.375-.1-.073-3.32-1.86-3.426-1.92-1.139-.654-2.617-.588-4.234.353l-65.752 38.132c-3.584 2.087-6.493 7.677-6.493 12.492v14.694c0 2.635.868 4.489 2.246 5.29.047.026 3.32 1.9 3.366 1.921 1.12.58-.676-1.361.881-2.268z" fill="url(#paint1_linear)"/>
        <path d="M49.855 158.916l65.753-38.132c3.584-2.088 6.493-7.677 6.493-12.493V93.597c0-4.816-2.909-7.023-6.493-4.942l-65.753 38.132c-3.584 2.087-6.493 7.677-6.493 12.492v14.694c0 4.816 2.902 7.024 6.493 4.943z" fill="url(#paint2_linear)"/>
        <path d="M48.828 126.126l65.752-38.132c1.822-1.06 3.472-1.007 4.651-.066-.934-.154-2.007.066-3.16.733l-65.752 38.132c-3.585 2.088-6.493 7.677-6.493 12.493v14.694c0 2.368.702 4.102 1.848 5.009-1.987-.334-3.339-2.401-3.339-5.676v-14.694c0-4.822 2.909-10.412 6.493-12.493z" fill="url(#paint3_radial)"/>
        <path d="M93.525 109.438v1.581l-41.873 24.118v-1.58l41.873-24.119zM76.783 132.149l16.742-9.571v1.581l-16.742 9.571v-1.581zM67.546 130.942l25.98-14.934v1.581l-25.98 14.934v-1.581zM82.951 125.273l10.574-5.977v1.581l-10.574 5.983v-1.587zM81.407 126.173v1.581L60.02 140.133v-1.581l21.387-12.379zM75.231 133.043v1.581L63.24 141.6v-1.58l11.992-6.977zM66.002 133.423l-14.351 8.284v-1.581l14.351-8.284v1.581zM58.476 141.027l-6.825 3.969v-1.581l6.825-3.969v1.581zM93.525 114.307l-41.873 24.119v-1.581l41.873-24.119v1.581zM61.695 142.494l-10.044 5.79v-1.588l10.044-5.782v1.58zM93.525 127.447l-41.873 24.118v-1.58l41.873-24.119v1.581z" fill="#fff"/>
        <g clip-path="url(#clip1)">
            <path d="M113.498 101.096l-14.805 14.105c-.467.459-.484 1.133.014 1.009l3.714-.993 1.277 3.739c.143.389.718.222 1.074-.33l1.978-3.105 3.71.729c.455.097 1.117-.55 1.247-1.17l2.811-13.698c.091-.638-.475-.788-1.02-.286zm-1.92 3.776l-6.942 10c-.079.122-.12.223-.121.302l-.329 2.531c-.002.079-.118.144-.155.086l-.992-2.96c-.034-.137.009-.357.165-.523l8.188-9.606c.158-.205.345-.076.186.17z" fill="#fff"/>
        </g>
        <path d="M0 43.234L74.127 0l10.587 6.483a9.661 9.661 0 014.691 8.297V28.2c0 5.323-2.816 10.245-7.394 12.907L17.478 78.685a4.834 4.834 0 01-4.903-.02L0 71.061V43.234z" fill="url(#paint4_linear)"/>
        <path d="M14.49 76.764l65.202-37.878c3.585-2.088 6.493-7.677 6.493-12.493V11.706c0-2.441 2.372-2.495 1.166-3.375-.099-.074-3.319-1.861-3.425-1.921-1.14-.654-2.617-.587-4.234.353L14.49 44.642c-3.584 2.087-6.493 7.677-6.493 12.493v14.694c0 2.634.868 4.488 2.246 5.289.046.026 3.32 1.9 3.366 1.92 1.12.574-.676-1.367.881-2.274z" fill="url(#paint5_linear)"/>
        <path d="M17.743 78.625l65.202-37.878c3.585-2.088 6.494-7.678 6.494-12.493V13.56c0-4.816-2.91-7.023-6.494-4.942L17.743 46.496c-3.584 2.088-6.493 7.677-6.493 12.493v14.694c0 4.809 2.902 7.023 6.493 4.942z" fill="url(#paint6_linear)"/>
        <path d="M16.716 45.829L81.918 7.95c1.822-1.06 3.472-1.007 4.651-.066-.934-.154-2.007.066-3.16.733L18.207 46.496c-3.585 2.088-6.493 7.677-6.493 12.493v14.694c0 2.367.702 4.102 1.848 5.009-1.988-.334-3.34-2.401-3.34-5.676V58.322c0-4.816 2.91-10.405 6.494-12.493z" fill="url(#paint7_radial)"/>
        <path d="M60.855 29.401v1.58L19.538 54.848v-1.581l41.317-23.865zM44.113 52.112l16.742-9.571v1.58l-16.742 9.572v-1.58zM34.883 50.905L60.855 35.97v1.58L34.883 52.487v-1.581zM50.288 45.235l10.568-5.976v1.58l-10.568 5.984v-1.588zM48.737 46.136v1.58l-20.83 12.127v-1.581l20.83-12.126zM42.57 53.006v1.58l-11.993 6.977v-1.58l11.992-6.977zM33.333 53.386l-13.794 8.03v-1.58l13.794-8.03v1.58zM26.363 60.736l-6.824 3.969v-1.58l6.824-3.97v1.581zM60.855 34.27L19.538 58.135v-1.58l41.317-23.866v1.581zM29.026 62.457l-9.487 5.53v-1.581l9.487-5.53v1.581zM60.855 47.41L19.538 71.275v-1.58l41.317-23.866v1.58zM68.316 36.771c1.027-.88 1.948-2 2.683-3.235.444-.747.431-1.56-.006-1.807a3.49 3.49 0 01-1.372-1.534c-.47.133-1.053-.047-1.053-.694 0-.66.291-1.38.676-1.748.112-2.834 1.073-5.742 4.313-7.623 3.233-1.881 4.194-.087 4.313 2.608.391-.087.676.293.676.96 0 .647-.583 1.501-1.053 1.915a15.041 15.041 0 01-1.372 3.128c-.43.753-.444 1.58-.007 1.814.73.38 1.657.427 2.684.113 1.358-.413 2.365.414 2.365 2.095v2.921c0 .567-.397 1.254-.888 1.54L66.82 45.05c-.49.287-.888.06-.888-.507V41.62c.02-1.687 1.027-3.688 2.385-4.849z" fill="#fff"/>
        <path d="M67.594 53.493l74.604-43.501 9.474 5.649a9.66 9.66 0 014.691 8.297v13.42c0 5.323-2.816 10.245-7.394 12.907L83.952 88.103c-1.517.887-16.371 18.389-17.882 17.489l-11.456-6.764 12.98-45.335z" fill="url(#paint8_linear)"/>
        <path d="M64.03 104.411l11.005-25.112v-13.9c0-4.142 2.909-9.191 6.493-11.28l65.196-37.964c1.795-1.04 3.419-1.148 4.591-.474.106.06 3.247 1.834 3.346 1.908.994.74-1.444.407-1.444 2.294v17.122c0 4.142-2.909 9.19-6.493 11.279l-63.175 36.79-16.412 21.138-3.107-1.801z" fill="url(#paint9_linear)"/>
        <path d="M67.137 106.212L78.142 81.1V67.206c0-4.142 2.909-9.191 6.493-11.279l65.196-37.972c3.585-2.087 6.493-.413 6.493 3.729v17.122c0 4.142-2.908 9.19-6.493 11.278L86.656 86.876l-19.519 19.336z" fill="url(#paint10_linear)"/>
        <path d="M150.162 18.402L84.966 56.368c-3.584 2.087-6.493 7.13-6.493 11.279V81.54l-10.841 24.332h-1.489L77.148 80.76V66.865c0-4.142 2.909-9.191 6.493-11.279l65.196-37.965c2.147-1.247 4.048-1.14 5.227.027-1.086-.314-2.438-.1-3.902.753z" fill="url(#paint11_radial)"/>
        <path d="M130.027 36.845v1.58l-43.066 24.82v-1.581l43.066-24.82zM112.012 60.243l18.015-10.259v1.581l-18.015 10.259v-1.581zM102.783 59.035l27.244-15.62v1.58l-27.244 15.621v-1.58zM118.187 53.373l11.84-6.677v1.58l-11.84 6.677v-1.58zM116.637 54.267v1.58L95.329 68.24v-1.58l21.308-12.393zM110.469 61.137v1.58l-11.993 6.977v-1.58l11.993-6.977zM101.232 61.517l-14.271 8.297v-1.58l14.271-8.298v1.58zM93.778 69.134l-6.817 3.969v-1.581l6.817-3.969v1.58zM130.027 41.707L86.961 66.532v-1.58l43.066-24.826v1.581zM96.926 70.588l-9.965 5.796v-1.58l9.965-5.797v1.58zM130.027 54.847L86.961 79.672v-1.58l43.066-24.826v1.58z" fill="#fff"/>
        <g clip-path="url(#clip2)">
            <path fill-rule="evenodd" clip-rule="evenodd" d="M150.413 30.068c-.197-.052-1.002.4-1.741.815-.805.453-1.544.868-1.747 1.064-.137.158-.566 1.458-1.064 2.88-.57 1.623-1.272 3.24-1.74 3.421-.537.302-.349-1.922-.311-3.491.025-.992-.101-1.247-.234-1.254-.262-.097-1.061.108-1.061.108s-2.411 1.11-2.779 2.62c.468-.18 1.277-.799.844 3.356-.004.165-.448 2.044-1.467.416-.254-.427-1.247-3.128-1.649-2.902-1.276.717-2.482 1.314-2.891 1.788-.411.557.474 2.26 2.009 4.41 1.215 1.763 2.575 2.953 4.913 2.128.467-.181 1.609-.823 1.948-1.176.273-.317-.01-2.276.869-3.014.405-.31 1.758 1.212 2.286 1.24.332-.023 1.068-.355 1.809-.853.805-.453 1.743-.898 1.827-1.597.238-1.6-2.331-2.112-2.376-2.983-.051-.623.987-2.428 1.546-3.64.629-1.33 1.4-3.067 1.009-3.336z" fill="#fff"/>
        </g>
    </g>
    <defs>
        <linearGradient id="paint0_linear" x1="86.004" y1="132.348" x2="63.694" y2="106.493" gradientUnits="userSpaceOnUse">
            <stop stop-color="#199A95" stop-opacity=".4"/>
            <stop offset="1" stop-color="#43E8E1" stop-opacity="0"/>
        </linearGradient>
        <linearGradient id="paint2_linear" x1="124.149" y1="105.083" x2="54.174" y2="86.387" gradientUnits="userSpaceOnUse">
            <stop stop-color="#006E91"/>
            <stop offset="1" stop-color="#00AFE6"/>
        </linearGradient>
        <linearGradient id="paint4_linear" x1="52.595" y1="57.158" x2="32.425" y2="27.058" gradientUnits="userSpaceOnUse">
            <stop stop-color="#00CB68" stop-opacity=".4"/>
            <stop offset="1" stop-color="#00CB68" stop-opacity="0"/>
        </linearGradient>
        <linearGradient id="paint5_linear" x1="79.113" y1="2.26" x2="15.864" y2="79.255" gradientUnits="userSpaceOnUse">
            <stop offset=".167" stop-color="#00AC58"/>
            <stop offset=".808" stop-color="#00E676"/>
            <stop offset=".911" stop-color="#00944C"/>
        </linearGradient>
        <linearGradient id="paint6_linear" x1="97.194" y1="20.426" x2="21.609" y2="-.024" gradientUnits="userSpaceOnUse">
            <stop stop-color="#00A052"/>
            <stop offset="1" stop-color="#00D66E"/>
        </linearGradient>
        <linearGradient id="paint1_linear" x1="111.672" y1="82.214" x2="48.084" y2="159.621" gradientUnits="userSpaceOnUse">
            <stop offset=".338" stop-color="#2493B7"/>
            <stop offset=".808" stop-color="#00A9DE"/>
            <stop offset=".914" stop-color="#008FBC"/>
        </linearGradient>
        <linearGradient id="paint8_linear" x1="113.05" y1="68.478" x2="91.952" y2="44.028" gradientUnits="userSpaceOnUse">
            <stop stop-color="#006ECC" stop-opacity=".7"/>
            <stop offset="1" stop-color="#006ECC" stop-opacity="0"/>
        </linearGradient>
        <linearGradient id="paint9_linear" x1="147.583" y1="13.215" x2="65.483" y2="105.198" gradientUnits="userSpaceOnUse">
            <stop stop-color="#006ECC"/>
            <stop offset=".651" stop-color="#72BEFF"/>
            <stop offset="1" stop-color="#006ECC"/>
        </linearGradient>
        <linearGradient id="paint10_linear" x1="158.248" y1="35.534" x2="75.339" y2="32.668" gradientUnits="userSpaceOnUse">
            <stop stop-color="#006ECC"/>
            <stop offset="1" stop-color="#2D93EA"/>
        </linearGradient>
        <radialGradient id="paint3_radial" cx="0" cy="0" r="1" gradientUnits="userSpaceOnUse" gradientTransform="matrix(-37.6294 0 0 -37.8812 33.639 120.487)">
            <stop stop-color="#fff"/>
            <stop offset="1" stop-color="#37AAEB"/>
        </radialGradient>
        <radialGradient id="paint7_radial" cx="0" cy="0" r="1" gradientUnits="userSpaceOnUse" gradientTransform="matrix(-37.4894 0 0 -37.7404 1.59 40.332)">
            <stop stop-color="#fff"/>
            <stop offset="1" stop-color="#56DC9B"/>
        </radialGradient>
        <radialGradient id="paint11_radial" cx="0" cy="0" r="1" gradientUnits="userSpaceOnUse" gradientTransform="matrix(-44.8142 0 0 -45.1142 64.284 48.954)">
            <stop stop-color="#fff"/>
            <stop offset="1" stop-color="#4D9EE3"/>
        </radialGradient>
        <clipPath id="clip0">
            <path fill="#fff" transform="matrix(-1 0 0 1 156.363 0)" d="M0 0h156.364v160H0z"/>
        </clipPath>
        <clipPath id="clip1">
            <path fill="#fff" transform="matrix(.87175 -.48995 -.0247 .9997 98.565 106.713)" d="M0 0h18.411v18.462H0z"/>
        </clipPath>
        <clipPath id="clip2">
            <path fill="#fff" transform="matrix(.87175 -.48995 -.0247 .9997 134.592 34.405)" d="M0 0h18.412v18.462H0z"/>
        </clipPath>
    </defs>
</svg>
