<svg width="400" height="390" fill="none" xmlns="http://www.w3.org/2000/svg">
    <path d="M290.889 155.956c-45.552-73.355-201.44-11.13-270.779 73.356-69.34 84.485 55.674 92.073 146.777 143.169 91.103 51.096 204.476-20.742 228.77-72.849 24.294-52.108-59.217-70.32-104.768-143.676z" fill="#292C3B"/>
    <g clip-path="url(#clip0)">
        <path d="M126.169 249.368l152.766-88.278 24.814 14.512a19.58 19.58 0 019.596 16.841v27.237c0 10.803-5.76 20.78-15.125 26.195l-133.128 76.784a9.955 9.955 0 01-10.029-.041l-28.867-16.773v-56.477h-.027z" fill="url(#paint0_linear)"/>
        <path d="M158.98 318.76l134.497-77.393c7.332-4.237 13.281-15.582 13.281-25.355v-29.823c0-4.955 4.852-5.063 2.386-6.85-.204-.149-6.79-3.777-7.007-3.899-2.331-1.327-5.353-1.191-8.66.718L158.98 253.551c-7.332 4.237-13.281 15.581-13.281 25.355v29.823c0 5.347 1.775 9.111 4.594 10.735.095.054 6.79 3.858 6.885 3.899 2.29 1.177-1.383-2.762 1.802-4.603z" fill="url(#paint1_linear)"/>
        <path d="M165.634 322.537l134.497-77.393c7.332-4.237 13.282-15.582 13.282-25.355v-29.823c0-9.774-5.95-14.255-13.282-10.031l-134.497 77.393c-7.332 4.237-13.281 15.581-13.281 25.355v29.823c0 9.774 5.936 14.255 13.281 10.031z" fill="url(#paint2_linear)"/>
        <path d="M163.534 255.987l134.496-77.393c3.727-2.152 7.102-2.044 9.514-.135-1.91-.312-4.106.135-6.464 1.489l-134.497 77.393c-7.332 4.237-13.281 15.581-13.281 25.355v29.823c0 4.806 1.436 8.326 3.781 10.167-4.066-.677-6.831-4.874-6.831-11.521v-29.822c0-9.788 5.95-21.132 13.282-25.356z" fill="url(#paint3_radial)"/>
        <path d="M254.96 222.117v3.208l-85.653 48.951v-3.208l85.653-48.951zM220.712 268.212l34.248-19.427v3.209l-34.248 19.426v-3.208zM201.82 265.761l53.14-30.31v3.208l-53.14 30.311v-3.209zM233.33 254.254l21.63-12.129v3.208l-21.63 12.143v-3.222zM230.172 256.082v3.208l-43.748 25.126v-3.209l43.748-25.125zM217.542 270.026v3.208l-24.531 14.16v-3.208l24.531-14.16zM198.663 270.797l-29.355 16.814v-3.209l29.355-16.813v3.208zM183.267 286.23l-13.96 8.054v-3.208l13.96-8.055v3.209zM254.96 231.999l-85.653 48.951v-3.208l85.653-48.951v3.208zM189.853 289.208l-20.546 11.75v-3.221L189.853 286v3.208zM254.96 258.668l-85.653 48.951v-3.209l85.653-48.951v3.209zM270.22 237.076c2.101-1.787 3.985-4.062 5.489-6.566.908-1.516.881-3.168-.013-3.669-1.139-.663-2.142-1.719-2.806-3.113-.962.27-2.155-.095-2.155-1.408 0-1.34.597-2.802 1.383-3.547.23-5.753 2.195-11.656 8.823-15.473 6.613-3.818 8.578-.176 8.822 5.293.8-.176 1.383.596 1.383 1.949 0 1.313-1.193 3.046-2.155 3.886-.651 2.152-1.654 4.372-2.806 6.349-.88 1.529-.908 3.208-.013 3.682 1.491.771 3.388.866 5.489.23 2.778-.839 4.838.839 4.838 4.251v5.929c0 1.151-.813 2.545-1.816 3.127l-27.526 15.879c-1.002.583-1.816.122-1.816-1.028v-5.93c.028-3.425 2.101-7.486 4.879-9.841z" fill="#fff"/>
        <path d="M63.654 87.75L215.281 0l21.657 13.158a19.578 19.578 0 019.596 16.84v27.238a30.237 30.237 0 01-15.125 26.195L99.406 159.7a9.952 9.952 0 01-10.029-.04l-25.723-15.433V87.749z" fill="url(#paint4_linear)"/>
        <path d="M93.294 155.801l133.372-76.878c7.332-4.237 13.281-15.582 13.281-25.356V23.758c0-4.955 4.852-5.063 2.386-6.85-.204-.149-6.79-3.777-7.007-3.899-2.331-1.326-5.353-1.19-8.66.718L93.294 90.606c-7.332 4.237-13.282 15.581-13.282 25.355v29.823c0 5.347 1.776 9.11 4.595 10.735.094.054 6.79 3.858 6.884 3.899 2.29 1.164-1.382-2.775 1.803-4.617z" fill="url(#paint5_linear)"/>
        <path d="M99.948 159.578L233.32 82.7c7.332-4.237 13.282-15.582 13.282-25.356V27.521c0-9.774-5.95-14.254-13.282-10.03L99.948 94.368c-7.332 4.237-13.281 15.581-13.281 25.355v29.823c0 9.761 5.936 14.255 13.281 10.031z" fill="url(#paint6_linear)"/>
        <path d="M97.848 93.015l133.371-76.879c3.727-2.152 7.102-2.044 9.514-.135-1.911-.311-4.106.135-6.464 1.49L100.897 94.368c-7.332 4.237-13.282 15.581-13.282 25.355v29.823c0 4.806 1.437 8.326 3.782 10.167-4.066-.677-6.83-4.874-6.83-11.521v-29.822c0-9.774 5.949-21.119 13.28-25.356z" fill="url(#paint7_radial)"/>
        <path d="M188.135 59.672v3.209l-84.514 48.437v-3.209l84.514-48.436zM153.888 105.767l34.247-19.426v3.209l-34.247 19.426v-3.209zM135.009 103.317l53.126-30.31v3.208l-53.126 30.31v-3.208zM166.519 91.81l21.616-12.13v3.21l-21.616 12.142V91.81zM163.348 93.638v3.208l-42.61 24.611v-3.208l42.61-24.611zM150.73 107.581v3.209l-24.53 14.16v-3.209l24.53-14.16zM131.838 108.353l-28.217 16.299v-3.208l28.217-16.299v3.208zM117.58 123.271l-13.959 8.055v-3.209l13.959-8.054v3.208zM188.135 69.555l-84.514 48.437v-3.209l84.514-48.436v3.208zM123.028 126.764l-19.407 11.222v-3.208l19.407-11.223v3.209zM188.135 96.224l-84.514 48.436v-3.208l84.514-48.437v3.209zM203.396 74.631c2.1-1.787 3.984-4.06 5.489-6.565.908-1.516.88-3.168-.014-3.669-1.138-.663-2.141-1.72-2.805-3.113-.963.27-2.155-.095-2.155-1.408 0-1.34.596-2.802 1.382-3.547.23-5.754 2.196-11.656 8.823-15.473 6.614-3.818 8.579-.176 8.823 5.293.799-.176 1.382.596 1.382 1.95 0 1.312-1.193 3.045-2.155 3.884-.65 2.153-1.653 4.373-2.805 6.35-.881 1.53-.908 3.208-.014 3.682 1.491.771 3.388.866 5.489.23 2.778-.84 4.838.839 4.838 4.25v5.93c0 1.15-.813 2.545-1.816 3.127l-27.525 15.88c-1.003.581-1.816.121-1.816-1.03v-5.929c.04-3.425 2.1-7.486 4.879-9.842z" fill="#fff"/>
        <path d="M201.918 108.57l152.603-88.291 19.381 11.466a19.579 19.579 0 019.595 16.84v27.238a30.236 30.236 0 01-15.125 26.194L235.38 178.815c-3.104 1.8-33.489 37.322-36.579 35.495l-23.432-13.727 26.549-92.013z" fill="url(#paint8_linear)"/>
        <path d="M194.627 211.914l22.511-50.968v-28.212c0-8.407 5.95-18.655 13.282-22.892l133.358-77.054c3.673-2.112 6.993-2.329 9.392-.962.217.122 6.641 3.723 6.844 3.872 2.033 1.503-2.955.826-2.955 4.657v34.75c0 8.407-5.949 18.655-13.281 22.892l-129.225 74.672-33.57 42.9-6.356-3.655z" fill="url(#paint9_linear)"/>
        <path d="M200.983 215.569l22.511-50.968v-28.199c0-8.406 5.95-18.654 13.282-22.891l133.358-77.068c7.332-4.238 13.282-.84 13.282 7.567v34.75c0 8.407-5.95 18.655-13.282 22.892l-129.225 74.672-39.926 39.245z" fill="url(#paint10_linear)"/>
        <path d="M370.811 37.35l-133.358 77.054c-7.332 4.237-13.281 14.472-13.281 22.892v28.198l-22.176 49.385h-3.046l22.511-50.969v-28.198c0-8.407 5.95-18.654 13.282-22.892l133.358-77.054c4.391-2.532 8.281-2.315 10.693.054-2.223-.636-4.987-.203-7.983 1.53z" fill="url(#paint11_radial)"/>
        <path d="M329.625 74.78v3.209l-88.092 50.372v-3.208l88.092-50.373zM292.775 122.269l36.85-20.82v3.208l-36.85 20.821v-3.209zM273.896 119.819l55.729-31.704v3.208l-55.729 31.704v-3.208zM305.406 108.326l24.219-13.551v3.208l-24.219 13.551v-3.208zM302.235 110.14v3.208l-43.586 25.153v-3.209l43.586-25.152zM289.618 124.083v3.209l-24.531 14.16v-3.209l24.531-14.16zM270.725 124.855l-29.192 16.84v-3.208l29.192-16.84v3.208zM255.479 140.315l-13.946 8.054v-3.208l13.946-8.055v3.209zM329.625 84.649l-88.092 50.386v-3.208l88.092-50.386v3.208zM261.916 143.266l-20.383 11.764v-3.209l20.383-11.764v3.209zM329.625 111.318l-88.092 50.386v-3.209l88.092-50.386v3.209zM359.056 57.636c-1.072-.009-2.261.345-3.45 1.032-1.195.69-2.378 1.708-3.451 2.956.206-2.114 1.673-4.509 3.456-5.54.928-.536 1.801-.623 2.456-.238.556.32.901.943.989 1.79z" fill="#fff"/>
        <path d="M362.951 77.945l-1.956 1.13c-1.467.848-1.413-1.2-1.767-1.88 1.611-2.555 2.886-5.93 3.459-8.995l.592-.724c.176-.023.366-.087.567-.203l.15-.087c.911-.526 1.645-1.804 1.645-2.85v-2.337c0-1.046-.733-1.476-1.645-.95l-.15.087c-.439.254-.839.69-1.133 1.188-.589-2.17-1.951-3.501-3.845-3.606-2.045-.109-4.484 1.3-6.524 3.77-1.889 2.298-3.25 5.197-3.84 8.04-.294-.15-.694-.125-1.133.13l-.156.09c-.905.522-1.639 1.8-1.639 2.846v2.337c0 1.046.733 1.476 1.639.953l.156-.09c.383-.222.733-.584 1.017-1.005.494 2.68 1.855 4.846 3.6 5.59-.324.99-.311 3.08-1.762 3.92l-1.955 1.13c-3.207 1.852-5.818 6.379-5.818 10.083l-.001 8.043c0 .263.189.372.417.24l3.295-1.904v-4.532l.834-.481-.001 4.531 17.22-9.95.001-4.533.833-.481v4.532l3.295-1.905a.922.922 0 00.417-.722v-8.043c0-3.704-2.606-5.215-5.812-3.362zm-13.824-6.512c1.156-.276 2.211-.674 3.15-1.217 2.234-1.29 3.868-3.332 4.874-6.096a1.95 1.95 0 01.555-.816c.25-.215.511-.302.723-.257l3.656.892c.163 1.05.177 2.276-.101 4.018l-4.367 5.336c-.222-.398-.683-.491-1.222-.18l-1.428.825c-.751.434-1.362 1.493-1.362 2.36 0 .873.611 1.226 1.361.792l1.428-.825c.651-.376 1.195-1.217 1.329-2l3.976-4.859c-1.346 5.866-5.201 12.389-8.978 11.023-2.779-.978-4.073-5.22-3.594-8.996zm6.483 18.354l-5.75-3.314.366-.212c2.133-1.232 2.243-4.044 2.462-4.638a.107.107 0 00.045 0c.45.093.911.096 1.383.003.006-.004.011 0 .022-.007 1.558-.3 3.034-1.545 4.39-3.371.249.393.317 3.032 2.467 1.79l.361-.209-5.746 9.958z" fill="#fff"/>
    </g>
    <defs>
        <linearGradient id="paint6_linear" x1="262.466" y1="41.457" x2="108.021" y2="-.656" gradientUnits="userSpaceOnUse">
            <stop stop-color="#00A052"/>
            <stop offset="1" stop-color="#00D66E"/>
        </linearGradient>
        <linearGradient id="paint0_linear" x1="239.576" y1="268.614" x2="194.349" y2="215.79" gradientUnits="userSpaceOnUse">
            <stop stop-color="#199A95" stop-opacity=".4"/>
            <stop offset="1" stop-color="#43E8E1" stop-opacity="0"/>
        </linearGradient>
        <linearGradient id="paint2_linear" x1="317.602" y1="213.278" x2="174.619" y2="174.775" gradientUnits="userSpaceOnUse">
            <stop stop-color="#009191"/>
            <stop offset="1" stop-color="#00D8E6"/>
        </linearGradient>
        <linearGradient id="paint10_linear" x1="387.35" y1="72.121" x2="217.763" y2="66.212" gradientUnits="userSpaceOnUse">
            <stop stop-color="#006ECC"/>
            <stop offset="1" stop-color="#2D93EA"/>
        </linearGradient>
        <linearGradient id="paint4_linear" x1="171.238" y1="116.008" x2="130.424" y2="54.622" gradientUnits="userSpaceOnUse">
            <stop stop-color="#00CB68" stop-opacity=".4"/>
            <stop offset="1" stop-color="#00CB68" stop-opacity="0"/>
        </linearGradient>
        <linearGradient id="paint5_linear" x1="225.48" y1="4.586" x2="97.308" y2="161.838" gradientUnits="userSpaceOnUse">
            <stop offset=".167" stop-color="#00AC58"/>
            <stop offset=".808" stop-color="#00E676"/>
            <stop offset=".911" stop-color="#00944C"/>
        </linearGradient>
        <linearGradient id="paint1_linear" x1="292.08" y1="166.862" x2="163.222" y2="324.955" gradientUnits="userSpaceOnUse">
            <stop offset=".338" stop-color="#009292"/>
            <stop offset=".808" stop-color="#00D1DE"/>
            <stop offset=".914" stop-color="#00B5BC"/>
        </linearGradient>
        <linearGradient id="paint9_linear" x1="365.536" y1="26.821" x2="199.057" y2="214.801" gradientUnits="userSpaceOnUse">
            <stop stop-color="#006ECC"/>
            <stop offset=".651" stop-color="#72BEFF"/>
            <stop offset="1" stop-color="#006ECC"/>
        </linearGradient>
        <linearGradient id="paint8_linear" x1="294.899" y1="138.985" x2="252.129" y2="89.03" gradientUnits="userSpaceOnUse">
            <stop stop-color="#006ECC" stop-opacity=".7"/>
            <stop offset="1" stop-color="#006ECC" stop-opacity="0"/>
        </linearGradient>
        <radialGradient id="paint7_radial" cx="0" cy="0" r="1" gradientUnits="userSpaceOnUse" gradientTransform="matrix(-76.6849 0 0 -76.5983 66.906 81.858)">
            <stop stop-color="#fff"/>
            <stop offset="1" stop-color="#56DC9B"/>
        </radialGradient>
        <radialGradient id="paint3_radial" cx="0" cy="0" r="1" gradientUnits="userSpaceOnUse" gradientTransform="matrix(-76.9711 0 0 -76.8842 132.465 244.541)">
            <stop stop-color="#fff"/>
            <stop offset="1" stop-color="#37EBE3"/>
        </radialGradient>
        <radialGradient id="paint11_radial" cx="0" cy="0" r="1" gradientUnits="userSpaceOnUse" gradientTransform="matrix(-91.6678 0 0 -91.5642 195.147 99.358)">
            <stop stop-color="#fff"/>
            <stop offset="1" stop-color="#4D9EE3"/>
        </radialGradient>
        <clipPath id="clip0">
            <path transform="matrix(-1 0 0 1 383.497 0)" fill="#fff" d="M0 0h319.843v324.738H0z"/>
        </clipPath>
    </defs>
</svg>
