<svg width="400" height="394" fill="none" xmlns="http://www.w3.org/2000/svg">
    <path d="M290.889 159.916c-45.552-73.368-201.44-11.132-270.779 73.368-69.34 84.5 55.674 92.089 146.777 143.194 91.103 51.105 204.476-20.746 228.77-72.862 24.294-52.117-59.217-70.332-104.768-143.7z" fill="#292C3B"/>
    <g clip-path="url(#clip0)">
        <path d="M124.336 60.483c-10.226-6.23-28.96 8.958-20.183 33.29 8.778 24.331 26.686 48.359 9.081 70.586-14.304 18.051-29.146 23.489-29.146 23.489s99.4 16.401 90.656-54.169c-6.638-53.562-50.408-73.196-50.408-73.196z" fill="url(#paint0_linear)"/>
        <g filter="url(#filter0_d)">
            <path d="M101.424 192.243c13.596-11.45 39.423-25.762 69.259-40.782 22.778-11.467 47.931-13.37 67.828 0 10.446 7.021 16.308 19.97 16.308 32.919 0 8.806 1.416 16.889 6.84 25.745 5.712 9.295 9.721 15.946 12.72 21.52 9.132 16.939 4.566 34.215-12.399 44.975-14.658 9.295-72.967 40.395-90.64 44.975-8.541 2.206-17.369 2.88-24.226 2.997-23.991 1.937-65.284-8.823-65.284-22.816-.017-10.22-2.611-90.842 19.594-109.533z" fill="url(#paint1_radial)"/>
        </g>
        <path d="M107.932 187.161c12.787 2.879 28.724 16.081 31.336 40.53 2.426 22.681 1.23 77.086 1.23 77.086s8.575-71.563-.405-93.992c-9.62-24.045-26.804-26.79-26.804-26.79l-5.357 3.166z" fill="url(#paint2_radial)"/>
        <path d="M121.017 196.301c4.886 20.307 33.847 30.764 64.661 23.338 30.814-7.409 51.839-29.888 46.953-50.195-4.885-20.307-33.846-30.747-64.66-23.338-30.814 7.426-51.84 29.888-46.954 50.195z" fill="url(#paint3_radial)"/>
        <path d="M197.066 301.305c4.229-2.458 8.592-4.984 13.023-7.56-4.431 2.576-8.794 5.118-13.023 7.56z" fill="#E6E7E8"/>
        <path d="M197.066 301.305c4.229-2.458 8.592-4.984 13.023-7.56-4.431 2.576-8.794 5.118-13.023 7.56z" fill="url(#paint4_radial)"/>
        <path d="M203.283 144.557c8.255 2.745 14.944 15.929 14.017 32.144-1.095 19.516-7.143 26.1-7.143 26.1l-17.875-26.1-10.631 33.239s-15.297-5.607-26.77-14.818c-12.265-9.85-19.796-20.34-14.287-29.096 6.604-10.507 52.126-24.988 62.689-21.469z" fill="url(#paint5_radial)"/>
        <path d="M181.651 209.94l10.63-33.239 17.876 26.117 1.583-4.193-19.391-23.911-12.989 34.216 2.291 1.01z" fill="url(#paint6_radial)"/>
        <path d="M237.433 54.977c4.195 18.068 3.37 72.119-10.243 83.67-10.766 9.126-20.436 3.115-21.093 16.383-.657 13.269 4.919 14.515-3.218 20.341-7.8 5.59-52.665 1.549-51.587-12.679 1.011-13.353 4.01-18.118-2.19-30.511-6.2-12.376-24.125-32.296-21.463-49.993 2.661-17.697 94.968-91.146 109.794-27.21z" fill="url(#paint7_radial)"/>
        <path opacity=".6" d="M235.445 56.341s3.858 37.65-1.651 52.755c-5.509 15.12-37.671-20.055-41.243-34.35-3.571-14.28 9.907-27.194 42.894-18.405z" fill="url(#paint8_linear)"/>
        <path d="M238.208 56.29s15.954-8.873-15.382-37.835c-27.512-25.426-75.982-26.453-100.579 8.874-24.16 34.687-10.209 71.832 7.059 89.495 12.248 12.511 21.38 19.364 21.38 19.364s-5.712-17.175-10.648-23.439c-7.211-9.16-12.45-21.266-6.874-28.288 3.1-3.906 7.969-6.028 14.742.74 11.22 11.215 26.416-30.678 59.538-27.126 24.143 2.56 23.604.96 30.764-1.785z" fill="url(#paint9_linear)"/>
        <path opacity=".8" d="M198.364 148.43c3.285.101 6.553-.034 11.54-1.533-2.19 1.331-3.571 3.587-3.807 8.117-.657 13.268 4.919 14.514-3.218 20.34-2.797 2.004-10.496 3.149-19.156 3.149-12.601-12.713-11.607-33.727-11.607-33.727s16.325 3.351 26.248 3.654z" fill="url(#paint10_linear)"/>
        <path opacity=".5" d="M122.247 27.312c.775-1.112 1.634-2.071 2.443-3.099 7.564 2.98 15.314 8.218 19.139 17.53 4.666 11.348 16.561 23.135 26.736 31.74-9.923 9.008-16.83 17.511-22.659 11.702-6.773-6.769-11.625-4.647-14.742-.74-5.559 7.004-.337 19.128 6.874 28.271 4.953 6.28 10.647 23.439 10.647 23.439s-9.131-6.854-21.379-19.364c-17.252-17.647-31.201-54.792-7.059-89.48z" fill="url(#paint11_linear)"/>
        <path opacity=".5" d="M142.447 102.377s-9.687-10.103-6.183-15.255c3.504-5.153 9.485 2.677 9.485 2.677l-3.302 12.578z" fill="url(#paint12_linear)"/>
        <path opacity=".5" d="M144.267 270.727s17.605 40.412 78.913 18.572c38.227-13.622 49.616-36.438 53.036-53.748 6.486 15.643 1.415 31.118-14.236 41.035-14.658 9.295-72.967 40.396-90.64 44.976-8.541 2.205-17.369 2.879-24.226 2.997-2.409.202-5.004.252-7.716.202 7.598-22.412 4.869-54.034 4.869-54.034z" fill="url(#paint13_linear)"/>
        <path opacity=".5" d="M133.552 89.092s-1.449-6.803-1.449-18.135c0-21.351 14.775-53.782 47.544-56.678 32.768-2.896 44.628 6.533 44.628 6.533S213.055.64 172.419 5.607c-37.536 4.597-49.548 45.177-48.992 62.453.488 14.936 1.92 23.557 1.92 23.557l8.205-2.525z" fill="url(#paint14_linear)"/>
        <path d="M159.716 104.869c0 5.304-1.837 9.059-4.802 10.878-.084.05-5.088 3.148-5.172 3.199-3.1 1.734-1.112-2.189-5.829-4.9-9.468-5.456-17.134-18.69-17.134-29.534 0-5.372-4.97-5.406-1.92-7.207.084-.05 5.677-3.233 5.761-3.284 3.083-1.667 7.312-1.364 11.962 1.33 9.451 5.44 17.134 18.657 17.134 29.518z" fill="url(#paint15_linear)"/>
        <path d="M154.105 108.203c0 10.861-7.665 15.222-17.133 9.766-9.469-5.455-17.134-18.69-17.134-29.534 0-10.86 7.665-15.222 17.134-9.766 9.451 5.455 17.133 18.69 17.133 29.534z" fill="url(#paint16_linear)"/>
        <path d="M137.797 78.264c-4.532-2.61-8.659-2.963-11.725-1.43 2.864-.792 6.402-.203 10.243 2.02 9.468 5.456 17.134 18.69 17.134 29.534 0 5.658-2.09 9.548-5.408 11.215 4.178-1.162 6.89-5.338 6.89-11.787 0-10.878-7.682-24.096-17.134-29.552z" fill="url(#paint17_radial)"/>
        <path d="M146.676 105.054c0 3.2-1.095 5.456-2.898 6.55-.051.034-6.318 3.772-6.368 3.806-1.87 1.044-.674-1.33-3.505-2.964-5.694-3.283-10.327-11.265-10.327-17.798 0-3.233-2.999-3.25-1.162-4.344.05-.034 6.688-3.822 6.722-3.856 1.87-1.01 4.414-.825 7.21.791 5.695 3.3 10.328 11.282 10.328 17.815z" fill="url(#paint18_linear)"/>
        <path d="M140.038 108.944c0 6.533-4.633 9.177-10.327 5.893-5.712-3.3-10.328-11.264-10.328-17.798 0-6.533 4.616-9.177 10.328-5.876 5.694 3.266 10.327 11.231 10.327 17.781z" fill="url(#paint19_linear)"/>
        <path d="M130.199 90.893c-2.73-1.583-5.223-1.785-7.059-.859 1.718-.488 3.858-.118 6.183 1.213 5.694 3.283 10.327 11.265 10.327 17.798 0 3.401-1.247 5.742-3.268 6.752 2.527-.707 4.161-3.216 4.161-7.106-.017-6.533-4.633-14.514-10.344-17.798z" fill="url(#paint20_radial)"/>
        <path opacity=".5" d="M207.444 58.059c-30.78-3.3-46.077 32.615-57.095 28.709 5.98-5.388 13.393-12.646 18.936-20.038 11.001-14.666 25.675-15.154 47.931-15.154 13.832 0 20.756-1.23 25.018-4.142.304 6.432-4.043 8.857-4.043 8.857-7.143 2.744-6.604 4.36-30.747 1.768z" fill="url(#paint21_linear)"/>
        <path opacity=".5" d="M206.754 143.025c8.491 0 14.977-1.516 15.432-1.617l-.91-3.805c-.185.05-18.785 4.361-33.779-1.954-14.051-5.91-31.639-23.641-31.808-23.826l-2.796 2.745c.741.758 18.33 18.472 33.071 24.685 6.941 2.93 14.438 3.772 20.79 3.772z" fill="url(#paint22_linear)"/>
        <path d="M207.394 141.24c8.491 0 14.977-1.516 15.432-1.633l-.91-3.806c-.185.051-18.784 4.361-33.779-1.936-14.05-5.911-31.639-23.641-31.808-23.827l-2.796 2.745c.741.741 18.33 18.472 33.071 24.685 6.958 2.93 14.438 3.772 20.79 3.772z" fill="#106D8A"/>
        <path d="M218.8 142.317c.286 0 .572-.033.859-.101l8.424-1.784a4.092 4.092 0 003.15-4.85c-.472-2.206-2.662-3.603-4.852-3.149l-8.424 1.785a4.092 4.092 0 00-3.15 4.85 4.098 4.098 0 003.993 3.249z" fill="#106D8A"/>
        <path d="M132.103 86.952s-1.449-6.837-1.449-18.236c0-21.47 14.859-54.068 47.796-56.981 32.936-2.896 44.864 6.567 44.864 6.567s-11.287-20.29-52.142-15.29c-37.738 4.614-49.818 45.413-49.245 62.79.488 15.004 1.937 23.675 1.937 23.675l8.239-2.525z" fill="url(#paint23_linear)"/>
        <path d="M130.249 87.526c-.606-2.795-2.19-10.895-2.19-20.105 0-21.47 16.157-54.556 49.094-57.453 25.473-2.24 39.035 2.93 43.887 5.389 1.601 1.734 2.274 2.946 2.274 2.946s-11.928-9.463-44.864-6.567c-32.954 2.913-47.813 35.512-47.813 56.981 0 11.4 1.449 18.236 1.449 18.236l-1.837.573z" fill="url(#paint24_linear)"/>
    </g>
    <defs>
        <linearGradient id="paint0_linear" x1="87.417" y1="174.569" x2="230.367" y2="9.328" gradientUnits="userSpaceOnUse">
            <stop stop-color="#664242"/>
            <stop offset=".511" stop-color="#0D0707"/>
            <stop offset="1" stop-color="#2B1A1A"/>
        </linearGradient>
        <linearGradient id="paint12_linear" x1="145.308" y1="95.764" x2="133.079" y2="90" gradientUnits="userSpaceOnUse">
            <stop stop-color="#fff"/>
            <stop offset="1" stop-color="#BCBEC0"/>
        </linearGradient>
        <linearGradient id="paint23_linear" x1="202.854" y1="-.339" x2="121.811" y2="71.819" gradientUnits="userSpaceOnUse">
            <stop offset=".035" stop-color="#A7A9AC"/>
            <stop offset=".195" stop-color="#B6B8BB"/>
            <stop offset=".504" stop-color="#DFE0E1"/>
            <stop offset=".631" stop-color="#F1F2F2"/>
            <stop offset=".874" stop-color="#BCBEC0"/>
        </linearGradient>
        <linearGradient id="paint22_linear" x1="222.191" y1="127.431" x2="152.893" y2="127.431" gradientUnits="userSpaceOnUse">
            <stop stop-color="#fff"/>
            <stop offset="1" stop-color="#BCBEC0"/>
        </linearGradient>
        <linearGradient id="paint21_linear" x1="191.384" y1="95.983" x2="202.936" y2="30.071" gradientUnits="userSpaceOnUse">
            <stop stop-color="#fff"/>
            <stop offset="1" stop-color="#554040"/>
        </linearGradient>
        <linearGradient id="paint19_linear" x1="124.891" y1="104.427" x2="157.474" y2="94.665" gradientUnits="userSpaceOnUse">
            <stop offset=".035" stop-color="#9D9EB3"/>
            <stop offset=".581" stop-color="#D4D1D8"/>
            <stop offset="1" stop-color="#EEEBF2"/>
        </linearGradient>
        <linearGradient id="paint18_linear" x1="143.952" y1="111.687" x2="125.847" y2="87.412" gradientUnits="userSpaceOnUse">
            <stop offset=".035" stop-color="#A7A9AC"/>
            <stop offset=".195" stop-color="#B6B8BB"/>
            <stop offset=".504" stop-color="#DFE0E1"/>
            <stop offset=".631" stop-color="#F1F2F2"/>
            <stop offset=".874" stop-color="#BCBEC0"/>
        </linearGradient>
        <linearGradient id="paint16_linear" x1="128.972" y1="100.715" x2="183.04" y2="84.516" gradientUnits="userSpaceOnUse">
            <stop stop-color="#00CB68"/>
            <stop offset="1" stop-color="#106D8A"/>
        </linearGradient>
        <linearGradient id="paint8_linear" x1="236.338" y1="64.829" x2="206.432" y2="93.177" gradientUnits="userSpaceOnUse">
            <stop stop-color="#fff"/>
            <stop offset="1" stop-color="#FFEBD7"/>
        </linearGradient>
        <linearGradient id="paint9_linear" x1="160.42" y1="142.847" x2="189.862" y2="-25.142" gradientUnits="userSpaceOnUse">
            <stop stop-color="#1A1717"/>
            <stop offset=".505" stop-color="#161414"/>
            <stop offset="1" stop-color="#472929"/>
        </linearGradient>
        <linearGradient id="paint10_linear" x1="180.121" y1="167.579" x2="207.801" y2="140.249" gradientUnits="userSpaceOnUse">
            <stop stop-color="#FFF9F9"/>
            <stop offset="1" stop-color="#DBAC9B"/>
        </linearGradient>
        <linearGradient id="paint11_linear" x1="153.541" y1="52.566" x2="135.793" y2="82.7" gradientUnits="userSpaceOnUse">
            <stop stop-color="#161414"/>
            <stop offset="1" stop-color="#2A1C1C"/>
        </linearGradient>
        <linearGradient id="paint15_linear" x1="157.68" y1="114.022" x2="128.085" y2="74.342" gradientUnits="userSpaceOnUse">
            <stop offset=".035" stop-color="#106D8A"/>
            <stop offset=".587" stop-color="#00CB68"/>
            <stop offset=".874" stop-color="#106D8A"/>
        </linearGradient>
        <linearGradient id="paint13_linear" x1="199.377" y1="255.335" x2="221.855" y2="321.338" gradientUnits="userSpaceOnUse">
            <stop stop-color="#fff"/>
            <stop offset="1" stop-color="#BED1D6"/>
        </linearGradient>
        <linearGradient id="paint14_linear" x1="203.942" y1="2.257" x2="123.324" y2="74.036" gradientUnits="userSpaceOnUse">
            <stop stop-color="#fff"/>
            <stop offset="1" stop-color="#BCBEC0"/>
        </linearGradient>
        <linearGradient id="paint24_linear" x1="205.783" y1="2.726" x2="128.787" y2="71.281" gradientUnits="userSpaceOnUse">
            <stop offset=".035" stop-color="#A7A9AC"/>
            <stop offset=".195" stop-color="#B6B8BB"/>
            <stop offset=".504" stop-color="#DFE0E1"/>
            <stop offset=".631" stop-color="#F1F2F2"/>
            <stop offset=".874" stop-color="#BCBEC0"/>
        </linearGradient>
        <radialGradient id="paint1_radial" cx="0" cy="0" r="1" gradientUnits="userSpaceOnUse" gradientTransform="matrix(-131.763 0 0 -131.692 171.097 180.1)">
            <stop stop-color="#00CB68"/>
            <stop offset="1" stop-color="#006ECC"/>
        </radialGradient>
        <radialGradient id="paint7_radial" cx="0" cy="0" r="1" gradientUnits="userSpaceOnUse" gradientTransform="matrix(-72.7303 0 0 -72.691 199.275 87.805)">
            <stop offset=".03" stop-color="#FEDFCB"/>
            <stop offset="1" stop-color="#F9B69E"/>
        </radialGradient>
        <radialGradient id="paint17_radial" cx="0" cy="0" r="1" gradientUnits="userSpaceOnUse" gradientTransform="matrix(18.5136 0 0 18.5036 147.896 95.525)">
            <stop stop-color="#fff"/>
            <stop offset="1" stop-color="#00A957"/>
        </radialGradient>
        <radialGradient id="paint6_radial" cx="0" cy="0" r="1" gradientUnits="userSpaceOnUse" gradientTransform="matrix(-24.4254 0 0 -24.4122 194.027 182.034)">
            <stop stop-color="#fff"/>
            <stop offset="1" stop-color="#BED1D6"/>
        </radialGradient>
        <radialGradient id="paint5_radial" cx="0" cy="0" r="1" gradientUnits="userSpaceOnUse" gradientTransform="matrix(-121.284 0 0 -121.219 187.589 173.537)">
            <stop stop-color="#FBF8FF"/>
            <stop offset=".636" stop-color="#D4D1D8"/>
            <stop offset=".947" stop-color="#A5A6B9"/>
            <stop offset="1" stop-color="#9D9EB3"/>
        </radialGradient>
        <radialGradient id="paint20_radial" cx="0" cy="0" r="1" gradientUnits="userSpaceOnUse" gradientTransform="matrix(11.157 0 0 11.151 136.294 101.298)">
            <stop stop-color="#fff"/>
            <stop offset="1" stop-color="#7E9AB4"/>
        </radialGradient>
        <radialGradient id="paint4_radial" cx="0" cy="0" r="1" gradientUnits="userSpaceOnUse" gradientTransform="matrix(-263.17 0 0 -263.028 186.781 152.351)">
            <stop offset=".379" stop-color="#fff"/>
            <stop offset=".468" stop-color="#F4F2F9"/>
            <stop offset=".631" stop-color="#D8D0E8"/>
            <stop offset=".851" stop-color="#A9C"/>
            <stop offset="1" stop-color="#8770B8"/>
        </radialGradient>
        <radialGradient id="paint3_radial" cx="0" cy="0" r="1" gradientUnits="userSpaceOnUse" gradientTransform="rotate(166.472 80.209 98.086) scale(43.9059 28.9291)">
            <stop offset=".192" stop-color="#948F90"/>
            <stop offset="1" stop-color="#fff"/>
        </radialGradient>
        <radialGradient id="paint2_radial" cx="0" cy="0" r="1" gradientUnits="userSpaceOnUse" gradientTransform="matrix(-44.6087 0 0 -44.5847 118.892 224.186)">
            <stop stop-color="#fff"/>
            <stop offset="1" stop-color="#006ECC"/>
        </radialGradient>
        <clipPath id="clip0">
            <path transform="matrix(-1 0 0 1 278.979 0)" fill="#fff" d="M0 0h197.25v324.794H0z"/>
        </clipPath>
        <filter id="filter0_d" x="71.729" y="136.133" width="217.265" height="202.685" filterUnits="userSpaceOnUse" color-interpolation-filters="sRGB">
            <feFlood flood-opacity="0" result="BackgroundImageFix"/>
            <feColorMatrix in="SourceAlpha" values="0 0 0 0 0 0 0 0 0 0 0 0 0 0 0 0 0 0 127 0"/>
            <feOffset dy="4"/>
            <feGaussianBlur stdDeviation="5"/>
            <feColorMatrix values="0 0 0 0 0.112292 0 0 0 0 0.122743 0 0 0 0 0.175 0 0 0 1 0"/>
            <feBlend in2="BackgroundImageFix" result="effect1_dropShadow"/>
            <feBlend in="SourceGraphic" in2="effect1_dropShadow" result="shape"/>
        </filter>
    </defs>
</svg>
