<svg width="16" height="16" fill="none" xmlns="http://www.w3.org/2000/svg">
    <path d="M14.73 10.157a7.493 7.493 0 00-1.91-1.197.625.625 0 10-.508 1.142 6.25 6.25 0 011.594.994c.536.471.844 1.154.844 1.873v1.156c0 .345-.28.625-.625.625H1.875a.626.626 0 01-.625-.625v-1.156c0-.72.308-1.402.844-1.873C2.726 10.54 4.566 9.25 8 9.25a4.63 4.63 0 004.625-4.625A4.63 4.63 0 008 0a4.63 4.63 0 00-4.625 4.625c0 1.49.71 2.819 1.808 3.665-2.01.442-3.26 1.293-3.914 1.867A3.742 3.742 0 000 12.969v1.156C0 15.159.841 16 1.875 16h12.25A1.877 1.877 0 0016 14.125v-1.156a3.742 3.742 0 00-1.27-2.812zM4.626 4.625A3.379 3.379 0 018 1.25a3.379 3.379 0 013.375 3.375A3.379 3.379 0 018 8a3.379 3.379 0 01-3.375-3.375z" fill="#fff"/>
</svg>
