<svg width="80" height="80" fill="none" xmlns="http://www.w3.org/2000/svg">
    <path d="M69.505 0L35.537 1.499 1.797 39.092l.002 3.821c.008 11.385 6.263 22.145 16.147 27.811h-.002l7.85 4.555-.006-.015c5.282 3.248 11.975 5.034 18.448 4.695l8.66-9.513A97.162 97.162 0 0078.203 5.043L69.506 0z" fill="#00D16D"/>
    <path d="M70.099 13.565c-1.126 18.95-8.67 36.913-21.526 51.038l-6.456 7.092c-13.093-.313-23.654-11.074-23.662-24.257V45.8l27.994-31.191 23.65-1.044zm4.897-4.97L44.246 9.95l-30.543 34.03.002 3.46c.01 16.101 13.091 29.011 28.999 29.011.512 0 1.025-.013 1.542-.04l7.84-8.612a87.954 87.954 0 0022.91-59.206z" fill="#fff"/>
    <path d="M35.536 1.499l8.699 5.043 33.968-1.5L69.505 0 35.536 1.499z" fill="#009F5E"/>
    <path d="M19.785 70.5h-.001c-5.903-5.966-9.28-14.148-9.286-22.544l-.002-3.822-8.7-5.042.003 3.821c.007 11.95 6.536 22.301 16.148 27.811h-.002l7.849 4.555-.006-.015a32.25 32.25 0 01-6.003-4.765z" fill="#007A6E"/>
    <path d="M47.584 41.023c2.93-3.473 4.937-8.646 4.79-13.179-.183-5.633-3.738-8.189-8.045-5.795-4.584 2.548-8.323 9.632-8.323 15.722 0 4.416 1.968 7.081 4.797 7.167-3.741 4-6.41 10.336-6.41 15.963v4.171c6.014 1.444 13.587-2.929 19.6-11.316v-4.17c0-5.628-2.668-8.884-6.41-8.563z" fill="#fff"/>
    <path d="M10.495 44.134l33.74-37.592-8.698-5.043-33.74 37.593 8.698 5.042z" fill="#33CD87"/>
</svg>
