<svg width="24" height="24" fill="none" xmlns="http://www.w3.org/2000/svg">
    <g clip-path="url(#clip0)" fill="#fff">
        <path d="M23.727 17.136a.937.937 0 00-1.741.695c.244.612.164 1.31-.214 1.868a1.978 1.978 0 01-1.662.878H3.894c-.74 0-1.396-.385-1.756-1.032a1.991 1.991 0 01.045-2.04l8.108-13.128a1.998 1.998 0 011.71-.954c.703 0 1.343.357 1.712.954l5.996 9.71a.937.937 0 101.595-.986l-5.996-9.709a3.86 3.86 0 00-3.306-1.844c-1.357 0-2.593.69-3.306 1.844L.588 16.52A3.843 3.843 0 00.5 20.459a3.839 3.839 0 003.394 1.993H20.11c1.31 0 2.481-.62 3.214-1.702a3.877 3.877 0 00.403-3.614z"/>
        <path d="M12 18.75a.937.937 0 100-1.875.937.937 0 100 1.874zM12.937 14.531v-6.89a.937.937 0 10-1.874 0v6.89a.937.937 0 101.874 0z"/>
    </g>
    <defs>
        <clipPath id="clip0">
            <path fill="#fff" d="M0 0h24v24H0z"/>
        </clipPath>
    </defs>
</svg>
