<svg width="640" height="1616" fill="none" xmlns="http://www.w3.org/2000/svg">
    <path fill-rule="evenodd" clip-rule="evenodd" d="M99.572 748.025c120.207 140.8 57.003 352.925 116.747 527.875 79.05 231.48 374.834 428.73 287.529 655.94-84.79 220.66-408.384 214.51-640.224 261.94-177.288 36.26-348.931-15.59-530.081-22.56-216.926-8.34-449.073 91.26-634.913-22.25-199.31-121.74-319.15-353.2-356.36-583.25-37.2-229.99 36.01-462.87 154.94-661.986 113.12-189.382 281.44-348.697 490.76-419.04 193.933-65.173 398.303 5.743 598.187 53.095 184.285 43.656 390.19 65.904 513.415 210.236z" fill="url(#paint0_linear)"/>
    <defs>
        <linearGradient id="paint0_linear" x1="131.826" y1="778.612" x2="-575.281" y2="1485.72" gradientUnits="userSpaceOnUse">
            <stop stop-color="#324B61"/>
            <stop offset="1" stop-color="#324B61" stop-opacity="0"/>
        </linearGradient>
    </defs>
</svg>
