<svg width="32" height="32" fill="none" xmlns="http://www.w3.org/2000/svg">
    <g clip-path="url(#clip0)" fill="#fff">
        <path d="M29.22 26.806C31.02 24.872 32 22.488 32 20c0-3.112-1.542-5.92-4.004-7.922C27.946 19.21 21.242 25 13 25H7.437c2.155 3.556 6.525 6 11.563 6h12a1 1 0 00.708-1.708l-2.488-2.486z"/>
        <path d="M13 1C5.834 1 0 5.934 0 12c0 2.488.98 4.87 2.78 6.806L.294 21.294A.998.998 0 001 23h12c7.167 0 13-4.934 13-11S20.167 1 13 1zm2 14H7a1 1 0 010-2h8a1 1 0 010 2zm4-4H7a1 1 0 010-2h12a1 1 0 010 2z"/>
    </g>
    <defs>
        <clipPath id="clip0">
            <path fill="#fff" d="M0 0h32v32H0z"/>
        </clipPath>
    </defs>
</svg>
