<svg width="24" height="24" fill="none" xmlns="http://www.w3.org/2000/svg">
    <path fill-rule="evenodd" clip-rule="evenodd" d="M10.808 17.03c-.322-.207-1.502-.311-2.038-.518-6.008-1.868-3.863-4.67-2.146-4.566.644.104 1.18.519 1.61.83 2.467 1.453 5.793 1.349 8.26-.104.537-.31.966-.83 1.717-.726 1.073.104 3.219 1.868-.537 3.735-2.145 1.038-2.145.727-3.862 1.246.322.518 3.326 3.32 4.184 4.15 1.395 1.453.215 3.01-1.287 2.802-.966-.104-3.862-3.113-4.399-3.736-1.073.623-3.218 3.632-4.399 3.84-1.502.207-2.79-1.453-1.287-2.906l4.184-4.047z" fill="#ED812B"/>
    <path fill-rule="evenodd" clip-rule="evenodd" d="M18.425 4.786c-.643-2.801-3.755-5.603-7.51-4.565-8.153 2.283-4.828 13.385 2.79 11.621 2.897-.622 5.579-3.424 4.72-7.056zm-5.257 4.15C9.306 9.975 7.59 4.372 11.56 3.23c1.824-.519 3.326.726 3.755 2.075.43 1.764-.858 3.217-2.146 3.632z" fill="#ED812B"/>
</svg>
