<svg width="640" height="192" fill="none" xmlns="http://www.w3.org/2000/svg">
    <g clip-path="url(#clip0)">
        <g filter="url(#filter0_di)">
            <path d="M1490.99 122c258.74-66.993 763.56 17.144 656.56 106.029L-518.686 250l192.121-155.798C32.11 54 130.846 175 257.793 158 524.45 122.291 764.289 30.285 1047.69 94.202 1222.99 133.74 1351.96 158 1490.99 122z" fill="#006ECC"/>
        </g>
        <g filter="url(#filter1_i)">
            <path d="M1241.48 141c433.9 48 452.06-95 726.52-43l-104.94 145H-235.765L-262-85c14.799 96.667 130.773 274.8 476.271 214 431.874-76 595.702-35.737 1027.209 12z" fill="#132739"/>
        </g>
    </g>
    <defs>
        <filter id="filter0_di" x="-582.686" y="8.179" width="2808.91" height="305.821" filterUnits="userSpaceOnUse" color-interpolation-filters="sRGB">
            <feFlood flood-opacity="0" result="BackgroundImageFix"/>
            <feColorMatrix in="SourceAlpha" values="0 0 0 0 0 0 0 0 0 0 0 0 0 0 0 0 0 0 127 0"/>
            <feOffset/>
            <feGaussianBlur stdDeviation="32"/>
            <feColorMatrix values="0 0 0 0 0 0 0 0 0 0.431373 0 0 0 0 0.8 0 0 0 0.4 0"/>
            <feBlend in2="BackgroundImageFix" result="effect1_dropShadow"/>
            <feBlend in="SourceGraphic" in2="effect1_dropShadow" result="shape"/>
            <feColorMatrix in="SourceAlpha" values="0 0 0 0 0 0 0 0 0 0 0 0 0 0 0 0 0 0 127 0" result="hardAlpha"/>
            <feOffset dy="4"/>
            <feGaussianBlur stdDeviation="16"/>
            <feComposite in2="hardAlpha" operator="arithmetic" k2="-1" k3="1"/>
            <feColorMatrix values="0 0 0 0 0.3875 0 0 0 0 0.71777 0 0 0 0 1 0 0 0 0.6 0"/>
            <feBlend in2="shape" result="effect2_innerShadow"/>
        </filter>
        <filter id="filter1_i" x="-262" y="-85" width="2230" height="332" filterUnits="userSpaceOnUse" color-interpolation-filters="sRGB">
            <feFlood flood-opacity="0" result="BackgroundImageFix"/>
            <feBlend in="SourceGraphic" in2="BackgroundImageFix" result="shape"/>
            <feColorMatrix in="SourceAlpha" values="0 0 0 0 0 0 0 0 0 0 0 0 0 0 0 0 0 0 127 0" result="hardAlpha"/>
            <feOffset dy="4"/>
            <feGaussianBlur stdDeviation="12"/>
            <feComposite in2="hardAlpha" operator="arithmetic" k2="-1" k3="1"/>
            <feColorMatrix values="0 0 0 0 0.231373 0 0 0 0 0.309804 0 0 0 0 0.380392 0 0 0 1 0"/>
            <feBlend in2="shape" result="effect1_innerShadow"/>
        </filter>
        <clipPath id="clip0">
            <path fill="#fff" transform="matrix(-1 0 0 1 1830 0)" d="M0 0h1920v192H0z"/>
        </clipPath>
    </defs>
</svg>
