<svg width="772" height="765" fill="none" xmlns="http://www.w3.org/2000/svg">
    <g filter="url(#filter0_d)">
        <path d="M667.359 118.885c7.677 12.586 13.934 31.02 18.448 53.664 4.51 22.629 7.266 49.399 7.978 78.613 1.422 58.431-5.338 126.573-22.56 190.81-17.225 64.249-44.893 124.513-85.231 167.266-40.307 42.72-93.274 67.976-161.245 62.261-136.411-11.47-244.397-65.252-306.457-143.133-62.032-77.846-78.27-179.872-31.034-288.133 16.347-37.466 35.185-59.576 55.855-72.948 20.681-13.379 43.3-18.082 67.363-20.546 8.553-.876 17.29-1.467 26.181-2.068 41.061-2.776 85.389-5.773 129.863-38.093 43.8-31.83 103.65-54.064 160.251-55.653 56.584-1.588 109.776 17.444 140.588 67.96z" stroke="url(#paint0_linear)" stroke-width="2"/>
    </g>
    <g filter="url(#filter1_di)">
        <path d="M677.442 133.339c62.112 101.831 51.551 526.374-250.123 563.683C125.644 734.332.814 471.979 95.57 254.808c65.614-150.381 166.973-52.224 279.591-134.065 87.9-63.878 240.169-89.235 302.281 12.596z" fill="#006ECC"/>
    </g>
    <g filter="url(#filter2_d)">
        <path d="M486.507 671.203c-38.846 32.319-95.32 49.709-140.913 44.831" stroke="#1694FF" stroke-width="4" stroke-linecap="round"/>
    </g>
    <g filter="url(#filter3_d)">
        <path d="M481.367 42.038c53.846-14.057 91.051-3.145 113.097 3.29" stroke="url(#paint1_linear)" stroke-width="2" stroke-linecap="round"/>
    </g>
    <g filter="url(#filter4_d)">
        <path d="M380.719 727.969c-2.449.217-39.417 7.816-82.176-3.936-34.208-9.401-58.289-22.629-66.053-28.068" stroke="url(#paint2_linear)" stroke-width="2" stroke-linecap="round"/>
    </g>
    <g filter="url(#filter5_d)">
        <path d="M439.879 226.783l-99.151-2.121 17.518 161.944 81.633-159.823z" fill="#DFF0FF"/>
        <path d="M286.763 558.95c-2.896-71.078-1.542-71.015-1.542-197.305l.11-101.059 55.332-36.069 17.528 149.189V651.94l-87.93 5.83 16.502-98.82z" fill="#242838"/>
        <path d="M470.285 555.872s17.238 87.144 11.069 88.683l-125.957 4.664c0-68.058 2.861-262.614 2.861-262.614l81.619-159.823c33.636 23.584 76.682 51.888 76.682 51.888l-31.907 140.329-14.367 136.873z" fill="#292C3B"/>
        <path d="M358.436 113.403c7.284-3.721 19.643-5.814 28.573-5.814 27.778 0 47.038 25.746 47.038 53.434v36.786c0 17.701-38.711 47.004-62.456 51.765-4.747.957-7.614.191-9.177-.63-3.347-1.819-6.283-6.648-6.859-7.811-2.497-4.952-3.526-15.048-3.526-15.048l6.407-112.682z" fill="#E39E76"/>
        <path d="M387.435 55.523c34.101 0 57.737 31.587 57.737 65.609v24.008c0 38.044-55.282 88.25-89.384 88.25-17.078 0-20.274-20.465-27.229-41.532-5.021-15.24-2.895-59.084-2.895-77.812-.013-34.009 27.641-58.523 61.771-58.523z" fill="#F5BB95"/>
        <path d="M434.033 197.809s-1.934 13.543-17.133 25.444c-15.199 11.916-41.729 31.368-54.5 25.691l27.655 23.106s49.822-32.75 49.822-48.003c0-14.651.508-20.876-5.844-26.238z" fill="#fff"/>
        <path d="M353.129 233.199s1.454 10.451 9.273 15.745l-17.805 12.476-3.882-36.758c.014 0 4.842 6.991 12.414 8.537z" fill="#fff"/>
        <path d="M356.242 269.574v-16.32l6.159-4.31 20.22 16.881-13.32 12.846-13.059-9.097z" fill="#1694FF"/>
        <path d="M369.303 278.671l8.244 70.137-19.301 37.798-6.228-55.65 4.225-61.382 13.06 9.097z" fill="#1694FF"/>
        <path d="M414.047 380.258l44.98-140.041-12.592-9.016-88.191 155.405 55.803-6.348z" fill="#101325"/>
        <path d="M358.246 386.606l-47.545-73.434 15.048-79.153 14.98-9.357 17.517 161.944z" fill="#101325"/>
        <path d="M358.244 386.606l50.399-11.204 50.384-135.186-19.149-13.433-81.634 159.823z" fill="#2E3244"/>
        <path d="M358.246 386.606l-41.345-75.377 8.848-77.21s6.79-5.896 14.98-9.357l17.517 161.944z" fill="#292C3B"/>
        <path d="M217.861 464.363c21.097-69.139 60.11-180.371 67.572-200.549l.645 247.485-30.604 9.138c-31.015 8.659-49.356-17.661-37.613-56.074z" fill="#1F2333"/>
        <path d="M257.461 519.616l142.32-40.274-10.988-36.019-144.981 28.742 13.649 47.551z" fill="#1F2333"/>
        <path d="M321.798 490.738s-29.945-34.228-36.42-25.883c0 0 1.468-11.806 7.435-19.617 7.435-9.74 18.203-9.658 29.452-1.915 11.262 7.756 18.45 12.695 18.45 12.695l-18.917 34.72z" fill="#F5BB95"/>
        <path d="M321.797 491.969s58.794 37.497 105.461 58.099c12.853 5.677 27.037-2.695 34.116-14.692 27.654-47.019 89.932-229.742 55.199-256.705-28.821-22.367-49.465 35.267-62.031 80.739-9.177 33.215-25.254 98.893-31.934 116.389-2.483 6.471-5.871 8.263-11.4 6.184-33.992-12.791-73.649-34.953-73.649-34.953s-20.659 15.609-15.762 44.939z" fill="#2E3244"/>
        <path d="M389.891 446.866c3.58-.999 34.335-9.48 66.571-8.933 2.977.027 5.364 2.476 5.323 5.472-.042 2.982-2.387 5.253-5.474 5.308-3.045-.055-15.802 2.257-18.724 2.394 1.426.506 2.88 1.026 4.321 1.683 2.73 1.244 3.937 4.446 2.688 7.14-1.248 2.723-4.444 3.927-7.16 2.682-.521-.233-1.043-.383-1.55-.602.933.615 1.865 1.19 2.798 1.888a5.39 5.39 0 01.988 7.565c-1.043 1.395-2.661 2.106-4.294 2.106a5.368 5.368 0 01-3.278-1.094c-.796-.602-1.605-1.094-2.415-1.614.878.862 1.77 1.682 2.593 2.654a5.397 5.397 0 01-.603 7.606 5.462 5.462 0 01-3.512 1.286 5.377 5.377 0 01-4.115-1.888c-2.058-2.394-4.376-4.282-6.818-5.814a36.815 36.815 0 013.964 3.652 5.39 5.39 0 01-.329 7.62 5.423 5.423 0 01-3.663 1.409 5.45 5.45 0 01-3.991-1.751c-3.759-4.077-8.821-6.771-14.129-8.591l-9.191-30.178z" fill="#F5BB95"/>
        <path d="M347.983 117.439c24.815 0 37.874-8.755 56.462 3.228 6.791 5.597 21.942 27.275 28.67 37.415 4.032-8.044 10.576-13.119 15.816-12.832 18.381-52.216-17.915-92.517-65.913-90.999-42.758 1.354-50.261 25.404-68.163 33.79-10.082 4.733-20.549-1.081-20.549-1.081 2.085 15.554 20.508 30.479 53.677 30.479z" fill="#553E3E"/>
        <path d="M433.117 158.082c-4.746 9.439-4.156 19.302 1.304 22.025 5.459 2.722 13.717-2.722 18.464-12.175 4.746-9.44 4.17-19.316-1.304-22.039-5.446-2.722-13.731 2.736-18.464 12.189z" fill="#F5BB95"/>
    </g>
    <defs>
        <filter id="filter0_d" x="53.902" y="48.834" width="646.065" height="633.466" filterUnits="userSpaceOnUse" color-interpolation-filters="sRGB">
            <feFlood flood-opacity="0" result="BackgroundImageFix"/>
            <feColorMatrix in="SourceAlpha" values="0 0 0 0 0 0 0 0 0 0 0 0 0 0 0 0 0 0 127 0"/>
            <feOffset dy="4"/>
            <feGaussianBlur stdDeviation="2.5"/>
            <feColorMatrix values="0 0 0 0 0 0 0 0 0 0.431373 0 0 0 0 0.8 0 0 0 0.8 0"/>
            <feBlend in2="BackgroundImageFix" result="effect1_dropShadow"/>
            <feBlend in="SourceGraphic" in2="effect1_dropShadow" result="shape"/>
        </filter>
        <filter id="filter1_di" x=".461" y=".808" width="771.371" height="763.786" filterUnits="userSpaceOnUse" color-interpolation-filters="sRGB">
            <feFlood flood-opacity="0" result="BackgroundImageFix"/>
            <feColorMatrix in="SourceAlpha" values="0 0 0 0 0 0 0 0 0 0 0 0 0 0 0 0 0 0 127 0"/>
            <feOffset/>
            <feGaussianBlur stdDeviation="32"/>
            <feColorMatrix values="0 0 0 0 0 0 0 0 0 0.431373 0 0 0 0 0.8 0 0 0 0.4 0"/>
            <feBlend in2="BackgroundImageFix" result="effect1_dropShadow"/>
            <feBlend in="SourceGraphic" in2="effect1_dropShadow" result="shape"/>
            <feColorMatrix in="SourceAlpha" values="0 0 0 0 0 0 0 0 0 0 0 0 0 0 0 0 0 0 127 0" result="hardAlpha"/>
            <feOffset dy="4"/>
            <feGaussianBlur stdDeviation="16"/>
            <feComposite in2="hardAlpha" operator="arithmetic" k2="-1" k3="1"/>
            <feColorMatrix values="0 0 0 0 0.3875 0 0 0 0 0.71777 0 0 0 0 1 0 0 0 0.6 0"/>
            <feBlend in2="shape" result="effect2_innerShadow"/>
        </filter>
        <filter id="filter2_d" x="338.594" y="668.203" width="154.913" height="59.642" filterUnits="userSpaceOnUse" color-interpolation-filters="sRGB">
            <feFlood flood-opacity="0" result="BackgroundImageFix"/>
            <feColorMatrix in="SourceAlpha" values="0 0 0 0 0 0 0 0 0 0 0 0 0 0 0 0 0 0 127 0"/>
            <feOffset dy="4"/>
            <feGaussianBlur stdDeviation="2.5"/>
            <feColorMatrix values="0 0 0 0 0 0 0 0 0 0.431373 0 0 0 0 0.8 0 0 0 0.8 0"/>
            <feBlend in2="BackgroundImageFix" result="effect1_dropShadow"/>
            <feBlend in="SourceGraphic" in2="effect1_dropShadow" result="shape"/>
        </filter>
        <filter id="filter3_d" x="475.367" y="33.19" width="125.097" height="22.137" filterUnits="userSpaceOnUse" color-interpolation-filters="sRGB">
            <feFlood flood-opacity="0" result="BackgroundImageFix"/>
            <feColorMatrix in="SourceAlpha" values="0 0 0 0 0 0 0 0 0 0 0 0 0 0 0 0 0 0 127 0"/>
            <feOffset dy="4"/>
            <feGaussianBlur stdDeviation="2.5"/>
            <feColorMatrix values="0 0 0 0 0 0 0 0 0 0.431373 0 0 0 0 0.8 0 0 0 0.8 0"/>
            <feBlend in2="BackgroundImageFix" result="effect1_dropShadow"/>
            <feBlend in="SourceGraphic" in2="effect1_dropShadow" result="shape"/>
        </filter>
        <filter id="filter4_d" x="226.488" y="693.965" width="160.229" height="46.62" filterUnits="userSpaceOnUse" color-interpolation-filters="sRGB">
            <feFlood flood-opacity="0" result="BackgroundImageFix"/>
            <feColorMatrix in="SourceAlpha" values="0 0 0 0 0 0 0 0 0 0 0 0 0 0 0 0 0 0 127 0"/>
            <feOffset dy="4"/>
            <feGaussianBlur stdDeviation="2.5"/>
            <feColorMatrix values="0 0 0 0 0 0 0 0 0 0.431373 0 0 0 0 0.8 0 0 0 0.4 0"/>
            <feBlend in2="BackgroundImageFix" result="effect1_dropShadow"/>
            <feBlend in="SourceGraphic" in2="effect1_dropShadow" result="shape"/>
        </filter>
        <filter id="filter5_d" x="194.281" y="49.209" width="352.559" height="643.56" filterUnits="userSpaceOnUse" color-interpolation-filters="sRGB">
            <feFlood flood-opacity="0" result="BackgroundImageFix"/>
            <feColorMatrix in="SourceAlpha" values="0 0 0 0 0 0 0 0 0 0 0 0 0 0 0 0 0 0 127 0"/>
            <feOffset dy="15"/>
            <feGaussianBlur stdDeviation="10"/>
            <feColorMatrix values="0 0 0 0 0.0841493 0 0 0 0 0.0958188 0 0 0 0 0.154167 0 0 0 0.3 0"/>
            <feBlend in2="BackgroundImageFix" result="effect1_dropShadow"/>
            <feBlend in="SourceGraphic" in2="effect1_dropShadow" result="shape"/>
        </filter>
        <linearGradient id="paint0_linear" x1="245.487" y1="141.811" x2="532.959" y2="508.977" gradientUnits="userSpaceOnUse">
            <stop stop-color="#1694FF"/>
            <stop offset=".479" stop-color="#1694FF" stop-opacity="0"/>
        </linearGradient>
        <linearGradient id="paint1_linear" x1="481.745" y1="42.128" x2="567.616" y2="99.152" gradientUnits="userSpaceOnUse">
            <stop stop-color="#1694FF"/>
            <stop offset="1" stop-color="#1694FF" stop-opacity="0"/>
        </linearGradient>
        <linearGradient id="paint2_linear" x1="230.197" y1="707.913" x2="304.592" y2="800.434" gradientUnits="userSpaceOnUse">
            <stop stop-color="#1694FF" stop-opacity=".4"/>
            <stop offset="1" stop-color="#1694FF" stop-opacity="0"/>
        </linearGradient>
    </defs>
</svg>
