<svg width="63" height="40" fill="none" xmlns="http://www.w3.org/2000/svg">
    <rect x=".5" width="62.5" height="40" rx="3" fill="#F9F9F9"/>
    <path d="M37.204 29.83H26.268V10.177h10.936V29.83z" fill="#FF5F00"/>
    <path d="M26.968 20.002a12.48 12.48 0 014.773-9.828 12.445 12.445 0 00-7.724-2.672c-6.903 0-12.498 5.596-12.498 12.5 0 6.903 5.595 12.5 12.498 12.5 2.916 0 5.599-1 7.724-2.673a12.48 12.48 0 01-4.773-9.827z" fill="#EB001B"/>
    <path d="M51.953 20.002c0 6.903-5.595 12.5-12.498 12.5-2.916 0-5.599-1-7.725-2.673a12.477 12.477 0 004.774-9.827c0-3.987-1.867-7.539-4.774-9.828a12.45 12.45 0 017.725-2.672c6.903 0 12.498 5.596 12.498 12.5z" fill="#F79E1B"/>
    <path d="M20.924 20.08c0-.545.357-.994.942-.994.559 0 .936.43.936.995s-.377.994-.936.994c-.585 0-.942-.448-.942-.994zm2.515 0v-1.552h-.676v.377c-.214-.28-.54-.456-.981-.456-.871 0-1.554.683-1.554 1.632 0 .949.683 1.631 1.554 1.631.442 0 .767-.175.981-.455v.377h.676V20.08zm22.824 0c0-.545.358-.994.943-.994.56 0 .936.43.936.995s-.377.994-.936.994c-.585 0-.943-.448-.943-.994zm2.516 0v-2.8h-.676v1.625c-.214-.28-.54-.456-.981-.456-.871 0-1.554.683-1.554 1.632 0 .949.683 1.631 1.554 1.631.442 0 .767-.175.98-.455v.377h.677V20.08zm-16.956-1.026c.435 0 .715.273.786.754h-1.612c.072-.449.344-.754.826-.754zm.013-.605c-.91 0-1.547.663-1.547 1.632 0 .988.663 1.631 1.592 1.631.468 0 .897-.117 1.274-.435l-.331-.5c-.26.207-.592.324-.904.324-.435 0-.832-.201-.929-.76h2.307c.006-.085.013-.17.013-.26-.007-.969-.605-1.632-1.475-1.632zm8.156 1.632c0-.546.358-.995.942-.995.559 0 .936.43.936.995s-.377.994-.936.994c-.584 0-.942-.448-.942-.994zm2.515 0v-1.553h-.676v.377c-.215-.28-.539-.456-.98-.456-.872 0-1.555.683-1.555 1.632 0 .949.683 1.631 1.554 1.631.442 0 .766-.175.981-.455v.377h.676V20.08zm-6.33 0c0 .942.656 1.631 1.658 1.631.468 0 .78-.104 1.117-.37l-.325-.546c-.253.182-.52.28-.813.28-.539-.007-.935-.397-.935-.995s.396-.988.936-.995c.293 0 .559.098.813.28l.324-.546c-.338-.266-.65-.37-1.117-.37-1.002 0-1.658.688-1.658 1.63zm8.709-1.632c-.39 0-.644.183-.82.456v-.377h-.669v3.106h.676v-1.742c0-.514.221-.8.663-.8.137 0 .28.02.423.079l.208-.637a1.44 1.44 0 00-.481-.085zm-18.107.325c-.325-.214-.773-.325-1.267-.325-.787 0-1.293.378-1.293.995 0 .507.377.819 1.072.916l.319.046c.37.052.545.15.545.325 0 .24-.247.377-.708.377-.468 0-.806-.15-1.033-.325l-.319.526c.37.273.839.403 1.345.403.897 0 1.417-.422 1.417-1.014 0-.546-.409-.832-1.085-.929l-.318-.046c-.293-.039-.527-.097-.527-.305 0-.228.221-.364.591-.364.397 0 .78.15.969.267l.292-.547zm8.715-.325c-.39 0-.643.183-.818.456v-.377h-.67v3.106h.676v-1.742c0-.514.221-.8.663-.8.137 0 .28.02.422.079l.209-.637a1.44 1.44 0 00-.482-.085zm-5.764.079h-1.105v-.943h-.682v.943h-.63v.617h.63v1.417c0 .72.28 1.15 1.078 1.15.293 0 .631-.09.845-.24l-.195-.579a1.25 1.25 0 01-.598.176c-.337 0-.448-.209-.448-.52v-1.404h1.105v-.617zm-10.1 3.106v-1.95c0-.734-.467-1.228-1.221-1.235-.397-.006-.806.117-1.092.553-.215-.344-.552-.553-1.027-.553-.332 0-.656.098-.91.462v-.383h-.676v3.106h.682v-1.722c0-.54.3-.826.761-.826.449 0 .676.293.676.82v1.728h.683v-1.722c0-.54.311-.826.76-.826.46 0 .682.293.682.82v1.728h.683z" fill="#fff"/>
</svg>
