<svg width="16" height="16" fill="none" xmlns="http://www.w3.org/2000/svg">
    <g clip-path="url(#clip0)">
        <path d="M14.642 9.58a.625.625 0 10-1.16.469l.737 1.82-2.186-.963a.624.624 0 00-.498-.003 6.028 6.028 0 01-2.379.48c-3.346 0-5.593-2.62-5.593-5.066 0-2.794 2.509-5.067 5.593-5.067 3.085 0 5.594 2.273 5.594 5.067 0 .218-.02.479-.056.716a.625.625 0 101.237.184c.044-.3.069-.62.069-.9 0-1.698-.719-3.291-2.024-4.486C12.686.651 10.974 0 9.155 0 7.34 0 5.627.65 4.337 1.831c-1.167 1.068-1.864 2.454-2 3.948C.87 6.75 0 8.308 0 9.985c0 1.048.33 2.042.959 2.898L.046 15.14a.625.625 0 00.831.806l2.632-1.16a5.948 5.948 0 002.085.37c.015 0 .03 0 .046-.002a5.916 5.916 0 002.94-.797 5.381 5.381 0 001.892-1.84c.443-.08.877-.2 1.298-.362l3.353 1.478a.622.622 0 00.687-.123.625.625 0 00.144-.683L14.641 9.58zm-9.048 4.326l-.025.002a4.688 4.688 0 01-1.827-.374.625.625 0 00-.497.003l-1.464.645.473-1.168a.625.625 0 00-.104-.64 3.648 3.648 0 01-.9-2.389c0-.999.42-1.945 1.155-2.662.23 1.247.875 2.44 1.85 3.378 1.211 1.167 2.815 1.843 4.546 1.924-.813.8-1.976 1.281-3.207 1.281zm4.468-7a.625.625 0 110 1.25h-3.75a.625.625 0 110-1.25h3.75zm1.876-1.25H6.313a.625.625 0 110-1.25h5.625a.625.625 0 110 1.25z" fill="#fff"/>
    </g>
    <defs>
        <clipPath id="clip0">
            <path d="M0 0h16v16H0V0z" fill="#fff"/>
        </clipPath>
    </defs>
</svg>
