<svg width="24" height="24" fill="none" xmlns="http://www.w3.org/2000/svg">
    <circle cx="12" cy="12" r="12" fill="#F45843"/>
    <path fill-rule="evenodd" clip-rule="evenodd" d="M9.23 11.582c.23-.225.6-.22.824.011l1.297 1.332 3.181-3.093a.583.583 0 01.814.836l-3.6 3.5c-.23.225-.6.22-.824-.011l-1.704-1.75a.583.583 0 01.012-.825zm8.605-4.56c0-.164-.13-.3-.296-.31-1.77-.11-3.581-.672-5.383-1.672a.32.32 0 00-.31 0c-1.801 1-3.612 1.562-5.382 1.672a.313.313 0 00-.296.31v5.911c0 .979.31 1.91.92 2.767.479.674 1.143 1.302 1.975 1.868a12.14 12.14 0 002.842 1.417.32.32 0 00.193 0c.058-.018 1.44-.463 2.841-1.417.832-.566 1.497-1.194 1.976-1.868.61-.858.92-1.788.92-2.767v-5.91zM12 17.782a11.09 11.09 0 002.282-1.178c.741-.505 1.298-1.041 1.681-1.58.481-.676.704-1.374.704-2.09V7.798c-1.565-.203-3.13-.718-4.667-1.518-1.537.8-3.102 1.315-4.666 1.518v5.134c0 .717.222 1.415.703 2.09m3.963 2.759a11.078 11.078 0 01-2.282-1.178c-.74-.505-1.297-1.041-1.68-1.58" fill="#fff"/>
</svg>
