<svg width="63" height="40" fill="none" xmlns="http://www.w3.org/2000/svg">
    <rect width="62.5" height="40" rx="3" fill="#F9F9F9"/>
    <path d="M30.749 22.05h.784v1.757h.566l1.017-1.757h.857l-1.22 2.062v.014l1.293 2.25h-.886l-1.046-1.887h-.566v1.888h-.784v-4.328h-.015zm5.054 1.147c.943 0 1.713.683 1.713 1.626 0 .959-.755 1.627-1.698 1.627-.945 0-1.7-.668-1.7-1.627-.014-.958.74-1.626 1.685-1.626zm2.323.072h.74v2.44h.974v-2.44h.74v2.44h.974v-2.44h.74v3.108h-4.139v-3.108h-.029zm6.361-.072c.886 0 1.38.654 1.38 1.467a2.162 2.162 0 01-.03.305h-2.134c.044.537.465.828.93.828.319 0 .638-.146.885-.335l.305.553c-.32.275-.798.45-1.248.45-1.032 0-1.67-.741-1.67-1.627 0-.973.652-1.641 1.582-1.641zm1.743 2.527c.377-.058.653-.378.653-1.482v-.972h2.266v3.107h-.77v-2.483h-.755v.348c0 1.35-.363 2.135-1.394 2.164v-.683zm5.126-2.527c.886 0 1.38.654 1.38 1.467a2.177 2.177 0 01-.03.305h-2.134c.044.537.465.828.93.828.319 0 .638-.146.885-.335l.305.553c-.32.275-.799.45-1.249.45-1.03 0-1.67-.741-1.67-1.627 0-.973.654-1.641 1.583-1.641zm2.019.072h.77v1.191h.377l.755-1.19h.857l-.988 1.48v.015l1.104 1.612h-.9l-.813-1.263h-.407v1.263h-.77v-3.108h.014zm-17.572 2.513c.508 0 .93-.392.93-.973 0-.567-.422-.973-.93-.973s-.915.392-.915.973c0 .58.406.973.915.973zm9.28-1.35c0-.407-.276-.654-.625-.654-.392 0-.682.261-.755.654h1.38zm6.869 0c0-.407-.276-.654-.625-.654-.392 0-.682.261-.755.654h1.38z" fill="#2D3540"/>
    <path d="M41.597 12.625v7.334a.199.199 0 01-.203.203h-1.496a.199.199 0 01-.203-.203v-7.334a.199.199 0 01.203-.204h1.496a.199.199 0 01.203.204zm11.676-.204c.058 0 .131.03.203.088.044.043.044.116.03.174l-2.47 7.348a.207.207 0 01-.188.131h-1.336c-.087 0-.16-.044-.189-.13l-1.438-4.285-1.438 4.284a.208.208 0 01-.189.13h-1.336c-.087 0-.16-.043-.188-.13l-2.47-7.349c-.014-.057-.014-.116.03-.173.029-.059.102-.088.16-.088h1.67a.2.2 0 01.189.145l1.32 4.343 1.453-4.343a.207.207 0 01.189-.13h1.176c.087 0 .16.043.189.13l1.452 4.343 1.322-4.343a.201.201 0 01.189-.145h1.67zm2.527 0c.102 0 .189.088.203.204v7.334a.199.199 0 01-.203.203h-1.496a.199.199 0 01-.203-.203v-7.334a.199.199 0 01.203-.204H55.8zm-16.976 7.48c.087.101.014.246-.117.246h-1.83a.235.235 0 01-.188-.087l-.305-.377a4.097 4.097 0 01-2.193.653 4.054 4.054 0 01-4.052-4.052 4.053 4.053 0 014.052-4.052 4.054 4.054 0 014.052 4.052c0 .8-.233 1.554-.64 2.193l1.22 1.423zM23.53 23.458c.378.146.523.712.552.959.058.45-.072.624-.217.624-.146 0-.35-.174-.567-.522-.218-.35-.305-.741-.189-.945.073-.13.233-.188.422-.116zM21.324 25.1c.232 0 .494.101.726.304.45.378.581.814.349 1.133a.765.765 0 01-.596.262c-.247 0-.508-.088-.682-.247-.407-.349-.523-.93-.262-1.25.102-.13.262-.202.465-.202zm-5.083 4.196c-5.518 0-9.991-4.473-9.991-9.991s4.473-9.991 9.991-9.991 9.992 4.473 9.992 9.99c0 1.874-.523 3.632-1.409 5.128-.029.043-.102.028-.116-.03-.349-2.454-1.844-3.805-4.023-4.211-.189-.03-.218-.145.03-.174.667-.058 1.611-.044 2.105.043a6.614 6.614 0 00-6.564-7.378 6.613 6.613 0 00-6.608 6.609 6.614 6.614 0 006.608 6.607h.305a8.92 8.92 0 01-.131-1.786c.015-.407.102-.465.276-.145.915 1.583 2.222 3.006 4.778 3.572 2.09.465 4.182 1.002 6.433 3.863.203.247-.102.508-.334.305-2.294-2.033-4.385-2.701-6.288-2.701-2.135.015-3.587.29-5.054.29zm18.952-11.022l-.8-.973c-.086-.102-.013-.261.117-.261h1.685c.087-.233.13-.494.13-.756 0-1.205-.9-2.25-2.134-2.25s-2.135 1.045-2.135 2.25c0 1.206.9 2.237 2.135 2.237a2.01 2.01 0 001.002-.247z" fill="#FF8C00"/>
</svg>
