<svg width="16" height="16" fill="none" xmlns="http://www.w3.org/2000/svg">
    <path d="M0 8a8 8 0 1116 0A8 8 0 010 8z" fill="#808A98"/>
    <path d="M6.994 9.14c0-.59.07-1.053.21-1.392.14-.343.367-.64.681-.89.315-.25.552-.477.714-.683.165-.21.248-.44.248-.69 0-.608-.276-.912-.828-.912a.786.786 0 00-.618.266c-.157.177-.24.417-.248.72H5c.008-.807.276-1.434.803-1.882C6.329 3.226 7.068 3 8.019 3c.947 0 1.68.208 2.198.623.522.415.783 1.006.783 1.772 0 .335-.07.64-.21.913-.14.275-.365.555-.675.841l-.733.647a1.63 1.63 0 00-.433.587 2.18 2.18 0 00-.134.756H6.994zm-.262 1.838c0-.299.113-.543.338-.732.23-.194.514-.29.854-.29.34 0 .622.096.847.29.229.19.344.433.344.732a.923.923 0 01-.344.738c-.225.19-.508.284-.847.284-.34 0-.625-.095-.854-.284a.93.93 0 01-.338-.738z" fill="#fff"/>
</svg>
