<svg width="16" height="16" fill="none" xmlns="http://www.w3.org/2000/svg">
    <path fill-rule="evenodd" clip-rule="evenodd" d="M4.832 7.522a.667.667 0 01.943.013l1.482 1.523 3.636-3.536a.667.667 0 11.93.956l-4.114 4a.667.667 0 01-.943-.013l-1.947-2a.667.667 0 01.013-.943zm9.834-5.21a.358.358 0 00-.337-.356c-2.024-.125-4.093-.768-6.153-1.91a.365.365 0 00-.353 0c-2.06 1.142-4.13 1.785-6.152 1.91a.358.358 0 00-.338.355v6.756c0 1.118.354 2.181 1.05 3.161.548.77 1.308 1.489 2.259 2.136a13.883 13.883 0 003.247 1.619.365.365 0 00.221 0c.067-.021 1.646-.53 3.247-1.62.951-.646 1.71-1.365 2.259-2.135.697-.98 1.05-2.043 1.05-3.161V2.31zM8 14.607a12.672 12.672 0 002.608-1.347c.847-.576 1.482-1.189 1.921-1.805.55-.773.804-1.57.804-2.39V3.2C11.545 2.967 9.756 2.378 8 1.464 6.243 2.378 4.454 2.967 2.666 3.2v5.868c0 .82.255 1.616.804 2.389M8 14.608a12.663 12.663 0 01-2.608-1.347c-.847-.576-1.483-1.189-1.922-1.805" fill="#fff"/>
</svg>
