<svg width="280" height="272" fill="none" xmlns="http://www.w3.org/2000/svg">
    <g opacity=".1" filter="url(#filter0_d)">
        <path d="M53.825 193.171c-43.79-23.38-49.342-87.366 52.425-109.515 101.766-22.15 158.508 38.146 141.239 121.205-17.165 82.557-148.274 12.547-192.86-11.26l-.804-.43z" fill="url(#paint0_linear)"/>
    </g>
    <g filter="url(#filter1_d)">
        <path d="M58.835 188.232c-43.886-23.379-49.449-87.366 52.54-109.515 101.988-22.15 158.854 38.146 141.547 121.205-17.202 82.557-148.598 12.548-193.28-11.26l-.807-.43z" fill="url(#paint1_linear)"/>
    </g>
    <path d="M175.113 150.035s-.786 2.366-.723 2.928c.075.573 1.7 2.801 1.817 2.875.117.064 1.487 1.824 3.038 2.663 1.551.848 1.668 1.262 1.806 1.283.149.021.372-.127.372-.127s.234-1.613-.446-2.398c-.68-.785.34-1.941.34-1.941l-1.753-4.572-4.451-.711z" fill="#FCD1C5"/>
    <g filter="url(#filter2_d)">
        <path d="M191.929 200.594s-2.741.636-5.396.732c-2.656.095-9.88 1.453-9.742 4.042.138 2.599 3.846 6.322 8.541 6.884 4.696.563 10.762-.721 13.832-.636 3.059.085 5.226-2.917 4.09-5.803-1.137-2.875-11.325-5.219-11.325-5.219z" fill="#151A2E"/>
    </g>
    <g filter="url(#filter3_d)">
        <path d="M207.94 193.688s.967 1.57.457 2.525c-.521.954-1.881 3.341-6.13 1.007-4.239-2.323-12.461-5.664-12.461-5.664s-4.717-2.472-4.409-5.357c.308-2.875 4.696-2.419 4.696-2.419l17.847 9.908z" fill="#151A2E"/>
    </g>
    <path d="M160.665 89.844s-2.805.032-4.037-.52c-1.232-.552-4.823-1.729-5.046-1.846-.223-.116-2.199-.244-3.102-.827 0 0-1.009.488-.212 1.305.796.816 2.305 1.082 2.305 1.082l1.423.827s-2.879 1.475-3.134 1.58c-.254.107-2.666 1.942-2.91 2.059-.245.117-1.318.954-.903 1.686 0 0 .042.17.584.287 0 0-1.54.7-1.158 1.453.383.753 1.36.425 1.36.425s.372 1.357 2.231.307c0 0 .212 1.687 4.345-.074 0 0 1.668-.435 2.889-.35 1.222.085 4.536-.775 6.321-2.026 1.742-1.241-.956-5.368-.956-5.368z" fill="#FCD1C5"/>
    <path d="M155.279 97.238c1.222.085 4.536-.775 6.321-2.026 1.2-.838.361-2.981-.319-4.297-.839-.403-1.583-.742-1.583-.742s.128 4.084.032 4.689c-.095.615-3.782 1.336-6.151 1.686-2.369.35-5.471 1.263-5.481 1.263.18.371.977 1.177 4.281-.234.01.011 1.678-.424 2.9-.34z" fill="#E2B1A6"/>
    <path d="M193.118 81.92s-5.832 1.018-7.819 1.655c-1.922.615-18.643 3.914-24.762 5.41a1.055 1.055 0 00-.776.806c-.074.318-.117.7-.042 1.018.17.69.754 7.606 4.153 6.471 1.02-.34 4.016-.965 6.417-1.283 2.39-.318 12.61-1.103 12.61-1.103l17.284-9.877-7.065-3.097z" fill="#3C3F51"/>
    <path d="M180.605 152.231s1.541 19.052 5.344 26.234c3.846 7.277 4.695 20.495 5.471 23.009.786 2.525 3.261 6.153 7.277 6.928 4.005.774 4.727-1.857 4.557-3.437-.159-1.581-1.221-4.138-1.2-5.856.021-1.708.457-2.514.531-3.299 0 0 4.589 1.336 5.365-2.122 0 0-.351-1.008-.404-1.528-.053-.519.691-13.069.839-14.597.149-1.516-.51-9.791-1.71-13.886-1.19-4.063-.574-12.73-.574-12.73l-13.268-1.93-12.228 3.214z" fill="#262939"/>
    <path d="M202.137 152.305s-.117 2.971-1.445 5.463c0 0-.191 10.089-1.36 15.17 0 0 1.498 10.195 2.507 13.398 1.009 3.225.733 9.474.733 9.474s.521.191 1.275.222c.754.032 1.083-12.358-.032-14.565-1.105-2.196-1.774-11.934-1.275-14.915.5-2.96.531-11.467 1.148-12.963.605-1.496-.68-2.302-.68-2.302l-.871 1.018z" fill="#141726"/>
    <path d="M192.239 82.079s-3.984 2.758-3.878 7.638l2.933-.573c0-.01-.765-5.42.945-7.065z" fill="#1694FF"/>
    <path d="M192.367 156.379c8.806.339 13.64-3.427 13.64-3.427.042-1.209.106-1.994.106-1.994l-13.268-1.931-12.228 3.204s.308 3.766.978 8.593c2.156.244 4.376-4.912 4.376-4.912l6.045.424c-.011 0-8.467-.297.351.043z" fill="#141726"/>
    <path d="M182.306 152.528s19.037 7.787 28.608-6.598c.276-.414.404-.913.404-1.422l-.043-3.384c0-.435.064-.859.213-1.252a5.313 5.313 0 00.255-2.705c-.627-3.808-2.337-14.204-2.73-17.09-.478-3.532 1.752-17.683 5.109-23.815 3.315-6.047-4.514-19.965-4.514-19.965s-1.934-3.267-5.896-2.227c0 0 3.697 2.673 1.582 5.4-2.124 2.736-8.328 4.847-8.328 4.847s-11.516 5.686-15.531 12.751c0 0-1.403 3.671-1.594 8.338-.191 4.7.159 15.955-.064 17.514-.223 1.56-.988 12.189-.935 12.688.054.477 3.464 16.92 3.464 16.92z" fill="#292C3B"/>
    <path d="M188.106 154.141s11.909-29.841 11.601-40.831c-.308-10.768-17.019 21.449-17.019 21.449l-.372 17.759c-.01.01 3.602 1.347 5.79 1.623z" fill="#1C2032"/>
    <path d="M182.579 118.603c.457-2.472.733-4.954.808-7.437.116-4.328 1.476-11.52 9.422-10.152 11.197 1.931 6.077 17.334 4.802 20.018-1.285 2.695-6.406 14.788-6.671 15.467-.255.647-8.212 15.636-11.017 19.211a.685.685 0 01-.998.117c-1.105-.933-3.57-3.161-3.878-4.551-.393-1.803 1.307-8.306 1.307-8.306s4.61-16.337 4.982-17.1c.266-.573.5-3.268 1.243-7.267z" fill="#3C3F51"/>
    <path d="M192.43 82.428s-.861-2.036-2.932-2.28c-2.072-.244-3.24-.838-3.432-1.602-.191-.764-.191-1.687-.68-2.833-.478-1.145-.86-3.946-.849-4.01.01-.063-1.562-.572-1.626-1.262-.063-.69.797-3.15.712-3.342-.085-.19-.914-1.729-.775-2.906.138-1.178.318-2.886.966-4.318.659-1.432 5.227-10.173 16.647-5.4 11.494 4.796 2.475 14.332 3.484 20.612 0 0 .999 1.337-.934 3.533-1.934 2.196-7.416 2.588-10.581 3.808z" fill="#FCD1C5"/>
    <path d="M203.008 78.6c1.922-2.207.935-3.533.935-3.533-.139-.87-.085-1.804.085-2.79l-4.547.785s-6.576-6.047-6.162-2.864c.415 3.203-1.211 3.723-1.211 3.723l1.339 1.761c.34.456.127.976-.17 1.453-1.966 3.225-6.587 2.175-6.597 2.175.573.382 1.519.679 2.815.828 2.071.243 2.932 2.28 2.932 2.28 3.166-1.21 8.647-1.602 10.581-3.819z" fill="#E2B1A6"/>
    <path d="M183.355 56.502s-.839 2.345.446 3.352a229.778 229.778 0 012.454 1.974l-.053 2.98c-.01.425.106.85.34 1.22l1.594 2.546c.308.489.467 1.061.456 1.645l-.01 1.21c0 .36.255.657.605.7l.425.052a.693.693 0 00.776-.604l.212-1.687s.882-1.337 2.741.308l1.678.72c.468.203.829.595.999 1.083.446 1.305 1.413 3.883 2.157 4.317 1.009.595 5.003-1.379 5.556-2.27.541-.89 2.007-6.874 2.9-9.727.881-2.843.552-9.93-7.957-11.903-8.531-1.973-14.097 1.538-15.319 4.084z" fill="#AA8383"/>
    <path d="M203.711 74.048c.542-.89 2.008-6.874 2.9-9.727 0 0-3.346 2.132-7.638 2.705-4.302.573-12.727-4.403-12.727-4.403l-.042 2.186c-.011.424.106.848.34 1.22l1.593 2.546c.308.487.468 1.06.457 1.644l-.011 1.21c0 .36.255.657.606.7l.425.052a.693.693 0 00.775-.604l.213-1.687s.882-1.337 2.741.308l2.422 1.04s1.402 4.486 2.411 5.07c.988.605 4.983-1.369 5.535-2.26z" fill="#936D6D"/>
    <path d="M203.869 74.335s3.261 2.079 1.551 4.933c-1.721 2.864-13.8 7.797-14.405 8.54 0 0-.393-4.308 1.221-5.74 0 0 9.211-1.623 10.688-3.936 1.466-2.28.945-3.797.945-3.797z" fill="#F0F6FF"/>
    <path d="M203.87 74.335s.52 1.506-.946 3.797c-1.115 1.74-6.661 3.098-9.295 3.66 0 0 .967.563 2.539 3.342 3.718-1.835 8.244-4.212 9.242-5.877 1.721-2.833-1.54-4.922-1.54-4.922z" fill="#C4CCD6"/>
    <path d="M197.678 103.529c2.921 9.388-5.142 23.741-6.332 27.931-1.2 4.222-13.3 23.604-13.311 23.614.329.297.627.552.861.753a.685.685 0 00.998-.116c2.805-3.575 10.772-18.565 11.017-19.212.265-.689 5.386-12.783 6.671-15.467 1.052-2.153 4.547-12.528.096-17.503zM205.897 83.564s-5.396 2.949-8.02 4.275c-2.635 1.337-5.514 3.108-5.514 3.108l-.977-.997-1.243 2.588s-4.143 2.377-6.087 4.371c-1.955 2.005-3.453 4.636-3.665 5.24 0 0 5.216-6.545 9.284-8.454l1.095-.53.648-2.059.966 1.05c0 .011 11.856-6.81 13.513-8.592z" fill="#151A2E"/>
    <path d="M119.418 84.19s2.008.34 2.741-.032c.733-.371 2.656-.626 4.876.17 2.231.795 2.04.668 2.921.763.882.085 2.306.18 2.773.467.468.297 1.349.849.531 2.016s-3.877.074-4.376-.021c-.5-.096-1.042.785-.797 1.58.244.796 4.865 5.835 5.588 6.333.722.499 3.845 2.578 3.973 3.406.138.827-.043.944-.043.944s.914.817.585 1.58c-.319.764-1.743-.403-1.998-.233 0 0 .234.849-.116.997-.351.159-2.369-.626-2.614-.87 0 0-.234.647-1.391-.021-1.158-.668-5.578-3.182-6.098-3.66-.521-.477-2.263-2.079-2.975-2.514-.712-.424-1.954-1.899-2.571-2.472-.616-.573-3.357-1.962-4.408-2.164-1.031-.19 3.399-6.27 3.399-6.27z" fill="#FCD1C5"/>
    <path d="M122.944 93.302c-1.02-1.856-4.43-3.288-4.43-3.288.234-1.507 2.401-5.676 2.401-5.676-.754-.01-1.508-.138-1.508-.138s-4.43 6.068-3.389 6.27c1.052.201 3.792 1.591 4.408 2.164.617.573 1.849 2.037 2.571 2.472.723.424 2.454 2.037 2.975 2.514.52.477 4.94 2.981 6.098 3.66 1.158.668 1.391.021 1.391.021.245.244 2.263 1.029 2.614.87.35-.159.116-.997.116-.997s-1.423-.807-2.889-1.316c-1.445-.53-9.338-4.7-10.358-6.556z" fill="#E2B1A6"/>
    <path d="M116.101 77.517s.435 2.26.276 4.106c-.159 1.845-3.867-.573-3.729-.892.138-.318 1.764-3.108 1.764-3.108l1.689-.106z" fill="#FCD1C5"/>
    <path d="M99.922 21.813s2.061-.095 4.557 4.01c2.412 3.957 6.65 18.098 8.881 23.53.202.477.34.975.436 1.495.722 4.233 4.111 24.155 4.26 26.542 0 0-2.582 1.719-4.239 2.143l-3.644-1.21-3.59-36.1-5.822-19.062-.84-1.348z" fill="#151A2E"/>
    <g filter="url(#filter4_d)">
        <path d="M88.257 140.615s-.701 3.342-.319 3.989c.383.647 4.728 5.558 5.195 6.216.457.658 2.699 4.678 6.82 5.654 4.122.987 6.937.732 7.49-1.209.552-1.931-1.859-5.134-2.985-6.174-1.116-1.029-5.833-6.63-6.693-7.436-.86-.807-2.103-.934-2.103-.934l-5.376.934-2.029-1.04z" fill="#151A2E"/>
    </g>
    <g filter="url(#filter5_d)">
        <path d="M104.937 130.622s4.111 1.591 6.257 2.132c2.156.541 7.277 4.371 7.224 6.291-.053 1.931-2.582 3.257-5.142 3.066-2.56-.191-5.609-1.825-6.108-2.26-.5-.435-2.253-1.389-4.356-2.047-2.093-.658-5.482-.976-6.034-2.09-.552-1.114-.637-3.416-.637-3.416l8.796-1.676z" fill="#151A2E"/>
    </g>
    <path d="M95.642 129.922c.032-.202.17-.53.202-.668.191-1.019.01-5.145.01-5.145l-.902 1.241s.637 4.137 1.88 10.597c.319 1.645 1.18 3.331 1.296 4.265.372 2.769-1.264 3.31-1.264 3.31-3.346 2.514-6.194.997-7.224.191-1.03-.807-1.37-2.101-2.794-6.768-1.413-4.626-2.645-14.406-2.337-16.73.266-2.047 1.02-7.775.977-11.711-.032-3.915-3.049-16.411-3.049-16.411L94.9 89.674l8.509-4.402 6.469.986s.818-2.736 1.679 5.782c.871 8.646-4.377 23.943-4.377 23.943-1.381 7.574-1.731 16.283-2.518 17.461-.786 1.177-3.888 3.967-6.756 1.803-.531-.403-1.126-.817-1.445-1.241l-.818-4.084z" fill="#262939"/>
    <path d="M94.953 125.35s4.1-11.139 6.045-21.928c1.912-10.608 5.216-12.104 6.586-14.002 0 0 2.072.944 3.166 1.135.138.02.255.031.351.031.913-.031-4.579 6.8-5.567 8.55-.988 1.762-6.672 16.783-7.065 18.862-.393 2.079-.796 16.581-.34 17.408.457.828-1.572-.626-1.572-.626s-1.253-3.203-1.604-9.43z" fill="#141726"/>
    <path d="M105.585 85.611l-2.189-.329-8.51 4.403-12.46 2.419s3.017 12.496 3.049 16.411c.042 3.935-.712 9.664-.978 11.711-.308 2.302.924 12.104 2.337 16.729.617 2.016 1.03 3.405 1.392 4.403.563 2.63 2.55 3.055 2.55 3.055s-4.887-15.106-4.451-23.943c.424-8.709 1.678-15.965 1.444-17.652 0 0 14.193-4.36 16.849-13.504.414-1.443.733-2.663.967-3.703z" fill="#141726"/>
    <path d="M81.014 23.755s-1.009.848-1.221 1.708c-.224.87-1.466 3.935-1.466 3.935s-5.928 7.861-7.001 10.27c-1.073 2.418-1.424 4.221-1.424 4.221l15.712 19.318s-5.503 18.935-3.962 25.841c1.55 6.991 3.57 9.59 6.044 10.343 2.476.754 15.691-4.678 16.605-11.594.903-6.843.531-7.702.531-7.702s6.172 1.644 6.554.074c.383-1.57-.775-12.857-1.094-14.47-.319-1.612-1.264-19.412-1.264-19.412s-3.761-16.432-3.973-17.239c-.213-.806-2.55-6.98-5.556-7.33-3.007-.35-6.746 4.424-6.746 4.424l-11.739-2.387z" fill="#292C3B"/>
    <path d="M81.717 23.16s-.616.414-.754 1.104c-.127.69-.648 2.037.468 3.448 1.115 1.41 10.166 8.783 13.831 14.989 3.697 6.27 8.286 13.25 8.669 14.703 0 0 1.667-9.919.159-14.48-1.498-4.53-6.289-13.76-7.309-14.438-1.01-.69-7.234-1.273-7.234-1.273l-7.83-4.052z" fill="#F0F6FF"/>
    <path d="M91.065 33.132s-.488.807-.637 1.433c0 0-2.624-1.337-3.729-1.836l4.037 2.8s.234-1.463.436-1.686c0 0 2.305 1.761 2.624 2.535.329.785 4.578 11.457 4.578 11.457l2.231 3.65.574-.88-3.655-9.951s-2.06-3.13-2.092-3.204c-.032-.074-1.424-3.437-1.424-3.437l-2.943-.88z" fill="#C4CCD6"/>
    <path d="M91.063 33.132s1.338-2.493 3.93-2.397c0 0 .744 3.076.956 4.328 0 0-1.668.721-2.347.138-.68-.584-2.54-2.069-2.54-2.069z" fill="#00CB68"/>
    <path d="M95.546 34.395s6.66 8.2 8.987 18.097l-.489 5.103-3.505-6.238s-5.737-14.32-7.076-16.941c-1.317-2.6 2.083-.021 2.083-.021z" fill="#00CB68"/>
    <path d="M84.509 67.28c-.446 1.75-.967 3.925-1.466 6.26 0 .01 9.858 12.846 19.483 18.086.935-1.199 1.583-2.482 1.764-3.819.478-3.617.594-5.558.605-6.588l-11.186-8.475-9.2-5.464z" fill="#1C2032"/>
    <path d="M83.84 48.408s2.847 3.883 3.612 4.233c.765.35 6.926 11.139 8.17 13.175 1.253 2.037 4.567 4.901 4.567 4.901l-3.134.308-12.28-16.453-.935-6.164z" fill="#151A2E"/>
    <path d="M85.582 51.835C84.35 48.726 82.406 46 79.92 43.92c-2.837-2.366-6.555-4.678-8.52-2.6-3.453 3.65-1.987 10.524 2.826 16.964 4.865 6.513 12.525 15.774 14.33 17.333 1.732 1.496 16.594 12.656 25.114 16.836.637.307 1.37.074 1.753-.552 1.179-1.941 3.612-5.972 4.483-7.638a.736.736 0 00-.245-.965c-3.112-1.995-18.665-11.988-23.264-15.085a5.181 5.181 0 01-1.679-1.9c-1.35-2.62-4.802-9.08-7.85-12.368a6.475 6.475 0 01-1.254-2.037.517.517 0 00-.032-.074z" fill="#3C3F51"/>
    <path d="M97.023 25.219l5.44 5.495-1.403.488 1.796 1.04s4.355 10.268 3.399 21.895c0 0 2.157-9.145-2.518-22.108l-1.444-.732.977-.308-6.247-5.77z" fill="#151A2E"/>
    <path d="M81.6 22.227c.095.212.148.445.137.679-.042.488-.095 1.305-.053 1.655.064.52 3.474 6.248 10.443 6.3 0 0 .839-1.24.998-1.484 0 0 2.816-.127 3.995-1.156 1.179-1.019.456-2.822.456-2.822l.17-2.154c.022-.265.139-.498.33-.679.244-.233.573-.583.637-.838.064-.254-.106-.7-.244-1.008a1.268 1.268 0 01-.106-.657c.063-.541.117-1.698-.266-3.14a2.582 2.582 0 01-.01-1.273c.17-.69.414-1.698.446-2.058.042-.563-.914-2.058-.957-2.652-.042-.594-.86-2.589-.86-2.589S91.532-1.259 83.171 2.9c-8.424 4.19-4.037 13.186-2.996 15.732 0 0 1.01 2.079 1.18 2.535.148.403.042.615.244 1.06z" fill="#FCD1C5"/>
    <path d="M97.448 9.38a2.084 2.084 0 01-.701 1.804c-1.01.891-3.028 2.366-5.695 2.716-1.88.244-2.9.34-3.463.37a.744.744 0 00-.69.701c-.043.7-.106 1.761-.213 2.472a3.221 3.221 0 01-.244.827l-.595 1.263a.842.842 0 01-.807.477L84.9 20a.803.803 0 01-.733-.7l-.01-.054c-.128-.986-.712-1.867-1.594-2.28-.446-.213-.956-.308-1.455-.096-1.445.594-.84 1.994-.84 1.994s-1.752-2.1-2.538-4.89c-.786-2.79-.606-7.818 3.038-10.45 3.623-2.62 8.36-3.68 12.397-.837 3.336 2.344 4.122 5.166 4.282 6.693z" fill="#AA8383"/>
    <path d="M83.66 21.156c-.181-.223.053 1.697-1.923 1.75-.043.488-.096 1.305-.053 1.655.063.52 3.473 6.248 10.442 6.301 0 0 .84-1.241.999-1.485 0 0-6.395-3.098-7.532-4.509-1.126-1.4-1.753-3.49-1.934-3.712z" fill="#E2B1A6"/>
    <path d="M94.984 30.724s1.902.212 2.784.69c0 0 .255-.987-.255-2.048 0 0 .563.457.563 2.716 0 0-2.783-.902-2.996-.965l-.096-.393z" fill="#C4CCD6"/>
    <path d="M116.176 90.374s-16.137-9.26-21.608-12.952c-5.428-3.67-20.715-19.244-23.85-25.248.808 2.005 1.987 4.074 3.506 6.11C79.09 64.798 86.75 74.06 88.555 75.618c1.732 1.496 16.594 12.656 25.114 16.836.637.307 1.37.074 1.753-.552l.807-1.337-.053-.19zM79.07 29.886l7.373 10.47 1.901-.668.107 1.995s8.828 6.566 15.425 20.198c0 0-8.733-14.046-15.69-18.713l-.638-2.005-1.477.34-7-11.617z" fill="#151A2E"/>
    <path d="M78.402 15.321c-.085-.032-.16-.042-.234-.063.86 2.132 2.093 3.606 2.093 3.606s-.595-1.4.839-1.994c.5-.212 1.01-.117 1.455.095.882.414 1.456 1.295 1.594 2.281l.01.053c.054.382.351.669.733.7l.139.011c.34.021.658-.16.807-.477l.595-1.263c.127-.265.212-.54.244-.827.096-.711.17-1.772.213-2.472.01 0-4.908 1.591-8.488.35z" fill="#936D6D"/>
    <defs>
        <filter id="filter0_d" x="0" y="59.036" width="274.559" height="212.963" filterUnits="userSpaceOnUse" color-interpolation-filters="sRGB">
            <feFlood flood-opacity="0" result="BackgroundImageFix"/>
            <feColorMatrix in="SourceAlpha" values="0 0 0 0 0 0 0 0 0 0 0 0 0 0 0 0 0 0 127 0"/>
            <feOffset dy="4"/>
            <feGaussianBlur stdDeviation="12"/>
            <feColorMatrix values="0 0 0 0 0 0 0 0 0 0.312296 0 0 0 0 0.579167 0 0 0 0.1 0"/>
            <feBlend in2="BackgroundImageFix" result="effect1_dropShadow"/>
            <feBlend in="SourceGraphic" in2="effect1_dropShadow" result="shape"/>
        </filter>
        <filter id="filter1_d" x="4.945" y="54.098" width="275.053" height="212.963" filterUnits="userSpaceOnUse" color-interpolation-filters="sRGB">
            <feFlood flood-opacity="0" result="BackgroundImageFix"/>
            <feColorMatrix in="SourceAlpha" values="0 0 0 0 0 0 0 0 0 0 0 0 0 0 0 0 0 0 127 0"/>
            <feOffset dy="4"/>
            <feGaussianBlur stdDeviation="12"/>
            <feColorMatrix values="0 0 0 0 0 0 0 0 0 0.312296 0 0 0 0 0.579167 0 0 0 0.1 0"/>
            <feBlend in2="BackgroundImageFix" result="effect1_dropShadow"/>
            <feBlend in="SourceGraphic" in2="effect1_dropShadow" result="shape"/>
        </filter>
        <filter id="filter2_d" x="170.789" y="198.594" width="38.772" height="23.801" filterUnits="userSpaceOnUse" color-interpolation-filters="sRGB">
            <feFlood flood-opacity="0" result="BackgroundImageFix"/>
            <feColorMatrix in="SourceAlpha" values="0 0 0 0 0 0 0 0 0 0 0 0 0 0 0 0 0 0 127 0"/>
            <feOffset dy="4"/>
            <feGaussianBlur stdDeviation="3"/>
            <feColorMatrix values="0 0 0 0 0.124688 0 0 0 0 0.14349 0 0 0 0 0.2375 0 0 0 0.5 0"/>
            <feBlend in2="BackgroundImageFix" result="effect1_dropShadow"/>
            <feBlend in="SourceGraphic" in2="effect1_dropShadow" result="shape"/>
        </filter>
        <filter id="filter3_d" x="179.383" y="181.753" width="35.162" height="26.46" filterUnits="userSpaceOnUse" color-interpolation-filters="sRGB">
            <feFlood flood-opacity="0" result="BackgroundImageFix"/>
            <feColorMatrix in="SourceAlpha" values="0 0 0 0 0 0 0 0 0 0 0 0 0 0 0 0 0 0 127 0"/>
            <feOffset dy="4"/>
            <feGaussianBlur stdDeviation="3"/>
            <feColorMatrix values="0 0 0 0 0.124688 0 0 0 0 0.14349 0 0 0 0 0.2375 0 0 0 0.5 0"/>
            <feBlend in2="BackgroundImageFix" result="effect1_dropShadow"/>
            <feBlend in="SourceGraphic" in2="effect1_dropShadow" result="shape"/>
        </filter>
        <filter id="filter4_d" x="81.824" y="138.615" width="31.7" height="28.422" filterUnits="userSpaceOnUse" color-interpolation-filters="sRGB">
            <feFlood flood-opacity="0" result="BackgroundImageFix"/>
            <feColorMatrix in="SourceAlpha" values="0 0 0 0 0 0 0 0 0 0 0 0 0 0 0 0 0 0 127 0"/>
            <feOffset dy="4"/>
            <feGaussianBlur stdDeviation="3"/>
            <feColorMatrix values="0 0 0 0 0.124688 0 0 0 0 0.14349 0 0 0 0 0.2375 0 0 0 0.5 0"/>
            <feBlend in2="BackgroundImageFix" result="effect1_dropShadow"/>
            <feBlend in="SourceGraphic" in2="effect1_dropShadow" result="shape"/>
        </filter>
        <filter id="filter5_d" x="90.141" y="128.622" width="34.277" height="23.507" filterUnits="userSpaceOnUse" color-interpolation-filters="sRGB">
            <feFlood flood-opacity="0" result="BackgroundImageFix"/>
            <feColorMatrix in="SourceAlpha" values="0 0 0 0 0 0 0 0 0 0 0 0 0 0 0 0 0 0 127 0"/>
            <feOffset dy="4"/>
            <feGaussianBlur stdDeviation="3"/>
            <feColorMatrix values="0 0 0 0 0.124688 0 0 0 0 0.14349 0 0 0 0 0.2375 0 0 0 0.5 0"/>
            <feBlend in2="BackgroundImageFix" result="effect1_dropShadow"/>
            <feBlend in="SourceGraphic" in2="effect1_dropShadow" result="shape"/>
        </filter>
        <linearGradient id="paint0_linear" x1="137.485" y1="70.423" x2="157.74" y2="243.936" gradientUnits="userSpaceOnUse">
            <stop stop-color="#006ECC"/>
            <stop offset="1" stop-color="#1D2447"/>
        </linearGradient>
        <linearGradient id="paint1_linear" x1="142.678" y1="65.484" x2="162.89" y2="239.008" gradientUnits="userSpaceOnUse">
            <stop stop-color="#006ECC"/>
            <stop offset="1" stop-color="#1D2447"/>
        </linearGradient>
    </defs>
</svg>
