<svg width="16" height="16" fill="none" xmlns="http://www.w3.org/2000/svg">
    <g clip-path="url(#clip0)">
        <path d="M10.428 4.81a.642.642 0 00-.907.097L7.49 7.427A1.286 1.286 0 006 8.707C6 9.419 6.578 10 7.289 10A1.293 1.293 0 008.49 8.242l2.032-2.521a.649.649 0 00-.095-.91zM.674 6.668a.624.624 0 00-.662.586 6.905 6.905 0 00-.006.687.625.625 0 001.249-.05 5.664 5.664 0 01.005-.562.625.625 0 00-.586-.661zM2.124 11.512a5.51 5.51 0 01-.27-.492.625.625 0 10-1.125.543c.099.206.21.41.33.604a.625.625 0 101.065-.655zM8.75 14.698c-.187 0-.376-.01-.56-.028a.625.625 0 00-.126 1.244c.226.022.457.034.686.034a.625.625 0 100-1.25zM5.126 14.08a5.518 5.518 0 01-.475-.3.625.625 0 00-.719 1.023c.187.131.383.255.583.367a.622.622 0 00.85-.24.625.625 0 00-.24-.85zM2.7 2.837a.625.625 0 00-.872.139 6.76 6.76 0 00-.376.577.625.625 0 101.081.627c.093-.16.196-.319.306-.47a.625.625 0 00-.138-.873z" fill="#006ECC"/>
        <path d="M5 1.306a7.333 7.333 0 017.655 12.36m0 0l-.322-2m.322 2l2.012.334" stroke="#006ECC" stroke-width="1.8" stroke-linecap="round"/>
    </g>
    <defs>
        <clipPath id="clip0">
            <path d="M0 0h16v16H0V0z" fill="#fff"/>
        </clipPath>
    </defs>
</svg>
