<svg width="63" height="40" fill="none" xmlns="http://www.w3.org/2000/svg">
    <rect width="62.5" height="40" rx="3" fill="#F9F9F9"/>
    <path d="M28.083 26.92h-3.848l2.407-13.795h3.848l-2.407 13.794zM42.032 13.462a10.141 10.141 0 00-3.451-.587c-3.8 0-6.476 1.878-6.493 4.564-.031 1.98 1.916 3.081 3.373 3.742 1.488.675 1.994 1.116 1.994 1.717-.015.925-1.203 1.35-2.31 1.35-1.537 0-2.36-.22-3.61-.733l-.507-.22-.539 3.096c.903.381 2.565.72 4.292.734 4.037 0 6.666-1.85 6.697-4.71.015-1.571-1.013-2.774-3.23-3.758-1.346-.63-2.17-1.056-2.17-1.702.016-.587.697-1.189 2.216-1.189a6.98 6.98 0 012.866.528l.348.147.524-2.979zM47.146 22.032l1.536-3.86c-.016.03.316-.806.506-1.32l.269 1.189s.729 3.302.887 3.991h-3.198zm4.75-8.907h-2.977c-.918 0-1.615.25-2.011 1.144l-5.716 12.65h4.038s.665-1.703.807-2.07h4.94c.111.485.46 2.07.46 2.07H55l-3.105-13.794zM21.021 13.125l-3.768 9.406-.412-1.907c-.696-2.202-2.881-4.593-5.32-5.782l3.452 12.063h4.07l6.047-13.78h-4.069z" fill="#00579F"/>
    <path d="M13.754 13.125h-6.19l-.064.279c4.83 1.144 8.027 3.904 9.341 7.22l-1.345-6.34c-.222-.88-.903-1.13-1.742-1.16z" fill="#FAA61A"/>
</svg>
