<svg width="24" height="24" fill="none" xmlns="http://www.w3.org/2000/svg">
    <path d="M0 12C0 5.373 5.373 0 12 0s12 5.373 12 12-5.373 12-12 12S0 18.627 0 12z" fill="#FDD65B"/>
    <path d="M10.102 16.467c0-.448.168-.814.506-1.098.344-.29.77-.435 1.28-.435s.933.145 1.27.435c.345.284.517.65.517 1.098 0 .447-.172.816-.516 1.107-.338.284-.761.426-1.27.426-.51 0-.937-.142-1.281-.426a1.396 1.396 0 01-.506-1.107zM12.226 13.709a1 1 0 001-1V5.5a1 1 0 00-1-1h-.618a1 1 0 00-1 1v7.209a1 1 0 001 1h.618z" fill="#fff"/>
</svg>
