<svg width="63" height="40" fill="none" xmlns="http://www.w3.org/2000/svg">
    <rect x=".5" width="62.5" height="40" rx="3" fill="#F9F9F9"/>
    <path fill="#D6AB05" d="M42.876 15.22h11.099v10.013H42.876z"/>
    <path d="M53.322 15.216v6.392l-9.848 3.203 7.788-5.305V7.812s-5.572 4.436-7.311 5.732c-2.1 1.57-2.185 2.214-2.185 3.227v7.777a1.327 1.327 0 001.324 1.324H55.5V15.216h-2.178zm-5.618-.22c.456-.542 1.12-.736 1.486-.428.366.305.291.995-.165 1.537-.456.541-1.12.734-1.486.428-.363-.308-.291-.995.165-1.537z" fill="#FC0"/>
    <path fill-rule="evenodd" clip-rule="evenodd" d="M49.19 14.568c-.366-.308-1.03-.114-1.486.428-.457.542-.528 1.23-.165 1.537.366.306 1.03.113 1.486-.428.456-.542.53-1.232.165-1.537z" fill="#000"/>
    <path d="M17.908 18.964v6.907h-1.055v-3.097h-1.59v3.098h-1.069v-6.907h1.069v2.932h1.59v-2.933h1.055zm5.496 8.264h-.96v-1.356h-2.96v1.356h-.959v-2.234h.425c.155-.365.279-.769.37-1.212.09-.443.162-.9.212-1.371.05-.47.082-.95.096-1.439.014-.489.02-.961.02-1.419v-.589h3.208v6.03h.548v2.234zm-1.603-7.387h-1.192v.123c0 .365-.008.764-.022 1.197-.014.44-.043.88-.089 1.319-.045.442-.109.882-.191 1.318-.076.41-.19.81-.343 1.197H21.8V19.84zm6.249 5.565a2.61 2.61 0 01-.754.41c-.283.101-.598.152-.945.152-.713 0-1.275-.277-1.686-.83-.411-.552-.617-1.363-.617-2.432 0-.557.039-1.07.117-1.535.078-.466.2-.87.37-1.213.168-.343.386-.61.651-.802.265-.192.58-.288.945-.288.283 0 .544.058.782.172.237.114.438.3.603.555.164.256.292.587.383.993.091.407.137.902.137 1.487v.59h-2.878c0 .786.108 1.38.323 1.781.214.402.536.603.965.603.302 0 .57-.052.802-.157.233-.105.418-.208.555-.309l.247.823zm-1.919-5.66c-.329 0-.561.185-.698.555-.138.37-.225.865-.261 1.487h1.768c0-.293-.014-.565-.041-.816a3.3 3.3 0 00-.13-.65 1.008 1.008 0 00-.247-.426.543.543 0 00-.39-.15zm4.07 2.686v3.44h-1.068v-6.907h1.07v3.192l1.657-3.193h1.083l-1.713 3.248 1.96 3.66h-1.165l-1.824-3.44zm5.496 3.535c-.74 0-1.32-.294-1.74-.883-.42-.59-.63-1.478-.63-2.666 0-.539.052-1.028.157-1.466.105-.439.26-.811.465-1.117.195-.296.459-.54.768-.713.306-.17.66-.254 1.063-.254.31 0 .562.035.753.103.192.069.365.153.521.253l-.15 1.015a2.34 2.34 0 00-.515-.346 1.37 1.37 0 00-.623-.147c-.384 0-.7.216-.946.647-.247.432-.37 1.088-.37 1.97 0 .872.103 1.545.308 2.018.206.474.528.71.967.71.264 0 .493-.046.685-.135a1.97 1.97 0 00.48-.304l.246.795a2.353 2.353 0 01-.616.377 2.122 2.122 0 01-.823.143z" fill="#000"/>
    <path d="M10.892 22.116L9.22 25.872H8l1.837-4.016a2.607 2.607 0 01-1.042-.966c-.265-.425-.397-1.003-.397-1.734 0-.511.075-.961.226-1.35.15-.388.356-.71.616-.966a2.53 2.53 0 01.912-.576c.351-.128.723-.193 1.096-.191h1.576v9.799h-1.055v-3.756h-.877zm.877-5.166h-.562c-.21 0-.416.039-.617.117-.2.078-.38.202-.534.371-.155.17-.281.394-.377.674-.096.28-.144.625-.144 1.038 0 .394.043.724.13.99.087.266.206.482.357.646.15.165.329.282.534.35.21.07.43.105.65.104h.563v-4.29z" fill="red"/>
</svg>
